<svg xmlns="http://www.w3.org/2000/svg" viewBox="231.186 3103.152 216.044 199.029">
  <defs>
    <style>
      .cls-1 {
        fill: #475058;
        stroke: #eff7fa;
        stroke-width: 5px;
      }
    </style>
  </defs>
  <g id="Group_96" data-name="Group 96" transform="translate(-210 -240)">
    <path id="Path_137" data-name="Path 137" class="cls-1" d="M325.485,11c24.115.078,40.729,18.527,47.124,39.409l-11.638-5.819a5.5,5.5,0,0,0-4.921,9.843l22.006,11a5.5,5.5,0,0,0,7.382-2.461l11-22.006a5.5,5.5,0,0,0-9.843-4.921l-4.266,8.533C374.08,20.692,354.112.09,325.517,0H325.5a5.5,5.5,0,0,0-.016,11Z" transform="translate(257.686 3345.651)"/>
    <path id="Path_138" data-name="Path 138" class="cls-1" d="M71.669,396.282c-24.116-.078-40.728-18.528-47.124-39.409l11.638,5.819A5.5,5.5,0,0,0,41.1,352.85l-22.006-11a5.516,5.516,0,0,0-7.382,2.461l-11,22.006a5.5,5.5,0,0,0,9.842,4.921l4.266-8.533c8.251,23.891,28.219,44.494,56.814,44.583h.016a5.5,5.5,0,0,0,.016-11Z" transform="translate(443.577 3132.396)"/>
  </g>
</svg>
