<svg xmlns="http://www.w3.org/2000/svg" viewBox="82.72 7883.974 93.793 93.873">
  <defs>
    <style>
      .cls-1, .cls-4 {
        fill: #fff;
      }

      .cls-1 {
        stroke: #475058;
        stroke-width: 3px;
      }

      .cls-2 {
        fill: #475058;
      }

      .cls-3 {
        fill: #465057;
      }

      .cls-5 {
        fill: #47bcdb;
      }

      .cls-6 {
        stroke: none;
      }

      .cls-7 {
        fill: none;
      }
    </style>
  </defs>
  <g id="Group_172" data-name="Group 172" transform="translate(82.72 7977.864) rotate(-90)">
    <g id="Ellipse_5" data-name="Ellipse 5" class="cls-1" transform="translate(0.018 0)">
      <ellipse class="cls-6" cx="46.936" cy="46.897" rx="46.936" ry="46.897"/>
      <ellipse class="cls-7" cx="46.936" cy="46.897" rx="45.436" ry="45.397"/>
    </g>
    <path id="Path_29" data-name="Path 29" class="cls-2" d="M5.4,3.229A33.511,33.511,0,0,0,2.055,3.4a1.974,1.974,0,0,1-.216.011A1.773,1.773,0,0,1,.013,1.982,1.677,1.677,0,0,1,1.628.192,37.089,37.089,0,0,1,5.437,0h.022l.024,1.614V0a1.7,1.7,0,0,1,1.8,1.614A1.778,1.778,0,0,1,5.4,3.229Z" transform="translate(83.259 41.428) rotate(90)"/>
    <path id="Path_30" data-name="Path 30" class="cls-2" d="M5.832,3.056A32.444,32.444,0,0,0,2.849,4.562a2.016,2.016,0,0,1-1,.263A1.927,1.927,0,0,1,.3,4.093,1.5,1.5,0,0,1,.837,1.859,35.95,35.95,0,0,1,4.175.173,1.969,1.969,0,0,1,6.648.888,1.527,1.527,0,0,1,5.832,3.056Z" transform="translate(80.316 27.837) rotate(90)"/>
    <path id="Path_31" data-name="Path 31" class="cls-2" d="M3.629,5.075A1.813,1.813,0,0,1,1.844,6.3a2.141,2.141,0,0,1-.449-.048A1.612,1.612,0,0,1,.056,4.29c.308-1.073.67-2.15,1.081-3.2a1.915,1.915,0,0,1,2.341-1A1.577,1.577,0,0,1,4.624,2.14C4.246,3.1,3.913,4.088,3.629,5.075Z" transform="translate(61.188 11.642) rotate(90)"/>
    <path id="Path_32" data-name="Path 32" class="cls-2" d="M3.27.593C4,1.381,4.781,2.143,5.589,2.86a1.476,1.476,0,0,1-.018,2.283,2.029,2.029,0,0,1-2.6-.013C2.079,4.34,1.22,3.5.414,2.634A1.482,1.482,0,0,1,.681.363,2.023,2.023,0,0,1,3.27.593Z" transform="translate(24.862 19.576) rotate(90)"/>
    <path id="Path_33" data-name="Path 33" class="cls-2" d="M.317,3.272C1.03,2.35,1.8,1.447,2.6.589A2.026,2.026,0,0,1,5.2.367,1.484,1.484,0,0,1,5.451,2.64c-.733.781-1.435,1.6-2.083,2.442a1.923,1.923,0,0,1-1.527.709A2.028,2.028,0,0,1,.809,5.514,1.5,1.5,0,0,1,.317,3.272Z" transform="translate(72.325 17.541) rotate(90)"/>
    <path id="Path_34" data-name="Path 34" class="cls-2" d="M2.686.18A32.411,32.411,0,0,0,5.829,1.4,1.561,1.561,0,0,1,6.9,3.481,1.849,1.849,0,0,1,5.178,4.527a2.075,2.075,0,0,1-.65-.1A36.685,36.685,0,0,1,1,3.051,1.524,1.524,0,0,1,.2.879,1.974,1.974,0,0,1,2.686.18Z" transform="translate(16.805 30.784) rotate(90)"/>
    <path id="Path_35" data-name="Path 35" class="cls-2" d="M1.921.186A32.953,32.953,0,0,0,5.342.009,1.8,1.8,0,0,1,7.39,1.421a1.677,1.677,0,0,1-1.61,1.8,37.44,37.44,0,0,1-3.861.2H1.763A1.666,1.666,0,0,1,0,1.8,1.817,1.817,0,0,1,1.921.186Z" transform="translate(13.955 44.911) rotate(90)"/>
    <path id="Path_36" data-name="Path 36" class="cls-2" d="M1.253.087A1.909,1.909,0,0,1,3.587,1.1c.372.965.8,1.926,1.258,2.857a1.545,1.545,0,0,1-.954,2.124,2.047,2.047,0,0,1-.733.134,1.87,1.87,0,0,1-1.691-.97C.964,4.23.5,3.183.1,2.13A1.573,1.573,0,0,1,1.253.087Z" transform="translate(36.038 12.604) rotate(90)"/>
    <path id="Path_37" data-name="Path 37" class="cls-2" d="M1.842,0A1.779,1.779,0,0,1,3.684,1.666c0,1,.042,2,.129,2.969A1.7,1.7,0,0,1,2.118,6.368c-.048,0-.1,0-.144,0A1.761,1.761,0,0,1,.14,4.883C.046,3.827,0,2.744,0,1.666v-.1A1.7,1.7,0,0,1,1.842,0Z" transform="translate(48.565 10.299) rotate(90)"/>
    <path id="Path_38" data-name="Path 38" class="cls-2" d="M.142,4.775C.142,3.77.1,2.748.006,1.741A1.7,1.7,0,0,1,1.7,0a1.8,1.8,0,0,1,1.98,1.482c.1,1.091.147,2.2.147,3.288v.034A1.725,1.725,0,0,1,1.984,6.4,1.75,1.75,0,0,1,.142,4.775Z" transform="translate(51.675 79.537) rotate(90)"/>
    <path id="Path_39" data-name="Path 39" class="cls-2" d="M1.087,1.225A1.874,1.874,0,0,1,3.319.048,1.613,1.613,0,0,1,4.662,2c-.306,1.075-.669,2.152-1.078,3.2A1.841,1.841,0,0,1,1.842,6.3a2.107,2.107,0,0,1-.595-.087A1.576,1.576,0,0,1,.1,4.162C.474,3.2.805,2.213,1.087,1.225Z" transform="translate(38.975 77.324) rotate(90)"/>
    <path id="Path_40" data-name="Path 40" class="cls-2" d="M5.178,4.519a2.05,2.05,0,0,1-.834-.176A32.784,32.784,0,0,0,1.2,3.127,1.565,1.565,0,0,1,.117,1.05,1.921,1.921,0,0,1,2.487.1,36.763,36.763,0,0,1,6.017,1.468a1.525,1.525,0,0,1,.8,2.171A1.89,1.89,0,0,1,5.178,4.519Z" transform="translate(81.545 55.783) rotate(90)"/>
    <path id="Path_41" data-name="Path 41" class="cls-2" d="M1.1.139a1.939,1.939,0,0,1,2.426.83c.5,1.011.969,2.058,1.378,3.114A1.58,1.58,0,0,1,3.754,6.131a2.079,2.079,0,0,1-.591.086,1.842,1.842,0,0,1-1.744-1.1C1.044,4.152.619,3.192.155,2.267A1.546,1.546,0,0,1,1.1.139Z" transform="translate(64.045 76.028) rotate(90)"/>
    <path id="Path_42" data-name="Path 42" class="cls-2" d="M1.01,1.778A32.387,32.387,0,0,0,3.991.264,2.008,2.008,0,0,1,6.542.73a1.5,1.5,0,0,1-.532,2.234A36.449,36.449,0,0,1,2.676,4.656a2.031,2.031,0,0,1-.831.174A1.888,1.888,0,0,1,.2,3.947,1.524,1.524,0,0,1,1.01,1.778Z" transform="translate(18.344 59.05) rotate(90)"/>
    <path id="Path_43" data-name="Path 43" class="cls-2" d="M2.494.711A2.01,2.01,0,0,1,5.053.277a1.5,1.5,0,0,1,.494,2.242c-.722.935-1.488,1.839-2.28,2.686A1.951,1.951,0,0,1,1.841,5.8,1.992,1.992,0,0,1,.675,5.429,1.484,1.484,0,0,1,.417,3.157C1.135,2.387,1.835,1.563,2.494.711Z" transform="translate(27.324 70.305) rotate(90)"/>
    <path id="Path_44" data-name="Path 44" class="cls-2" d="M3.15.477C4.038,1.262,4.9,2.1,5.71,2.97a1.481,1.481,0,0,1-.262,2.271,2,2,0,0,1-1.164.365,1.947,1.947,0,0,1-1.427-.592C2.122,4.224,1.341,3.464.535,2.752A1.476,1.476,0,0,1,.546.469,2.028,2.028,0,0,1,3.15.477Z" transform="translate(74.593 67.91) rotate(90)"/>
    <g id="Group_165" data-name="Group 165" transform="translate(65.661 28.369) rotate(90)">
      <g id="bottomleft" transform="translate(0 20.251)">
        <path id="Path_187" data-name="Path 187" class="cls-3" d="M17.273,15.875a1.4,1.4,0,0,1-1.4,1.4H1.4a1.4,1.4,0,0,1-1.4-1.4V1.4A1.4,1.4,0,0,1,1.4,0H17.273V15.875Z"/>
        <path id="Path_193" data-name="Path 193" class="cls-4" d="M4.951,0,0,3.085v7.147H9.9v-5H4.951Z" transform="translate(3.685 3.578)"/>
      </g>
      <g id="bottomright" transform="translate(20.251 20.251)">
        <path id="Path_188" data-name="Path 188" class="cls-5" d="M15.875,0a1.4,1.4,0,0,1,1.4,1.4V15.875a1.4,1.4,0,0,1-1.4,1.4H1.4a1.4,1.4,0,0,1-1.4-1.4V0H15.875Z" transform="translate(0 0)"/>
        <path id="Path_194" data-name="Path 194" class="cls-4" d="M0,5.349v5H9.9V3.2L5.137,0,4.951.116V5.349Z" transform="translate(3.685 3.462)"/>
      </g>
      <g id="topleft" transform="translate(0 0)">
        <path id="Path_190" data-name="Path 190" class="cls-3" d="M1.4,17.273a1.4,1.4,0,0,1-1.4-1.4V1.4A1.4,1.4,0,0,1,1.4,0H15.875a1.4,1.4,0,0,1,1.4,1.4V17.273H1.4Z"/>
        <path id="Path_191" data-name="Path 191" class="cls-4" d="M9.9,5.576V3.2L5.137,0,0,3.2v7.147H4.951V5.576Z" transform="translate(3.685 3.061)"/>
      </g>
      <g id="topright" transform="translate(20.251)">
        <path id="Path_189" data-name="Path 189" class="cls-5" d="M0,1.4A1.4,1.4,0,0,1,1.4,0H15.875a1.4,1.4,0,0,1,1.4,1.4V15.875a1.4,1.4,0,0,1-1.4,1.4H0V1.4Z" transform="translate(0)"/>
        <path id="Path_192" data-name="Path 192" class="cls-4" d="M4.951,10.349H9.9V3.2L5.137,0,0,3.2V5.576H4.951Z" transform="translate(3.685 3.06)"/>
      </g>
    </g>
  </g>
</svg>
