<svg xmlns="http://www.w3.org/2000/svg" viewBox="-133.504 10914.471 1752.085 549.412">
  <defs>
    <style>
      .cls-1 {
        opacity: 0.4;
      }

      .cls-2 {
        opacity: 0.7;
      }

      .cls-3 {
        fill: #41bddd;
      }

      .cls-3, .cls-7 {
        stroke: #fff;
        stroke-width: 2px;
      }

      .cls-4 {
        fill: #fff;
      }

      .cls-5 {
        opacity: 0.45;
      }

      .cls-6 {
        opacity: 0.55;
      }

      .cls-7 {
        fill: #48bddb;
      }

      .cls-8 {
        opacity: 0.6;
      }

      .cls-9 {
        opacity: 0.65;
      }

      .cls-10 {
        opacity: 0.75;
      }

      .cls-11 {
        opacity: 0.5;
      }

      .cls-12 {
        opacity: 0.8;
      }

      .cls-13 {
        stroke: none;
      }

      .cls-14 {
        fill: none;
      }
    </style>
  </defs>
  <g id="coin-code-bg" class="cls-1" transform="translate(-212.094 10545.384)">
    <g id="Group_107" data-name="Group 107" class="cls-2" transform="translate(113.879 464.023) rotate(15.009)">
      <g id="Group_88" data-name="Group 88" transform="translate(0 53.602) rotate(-56.993)">
        <g id="Ellipse_6" data-name="Ellipse 6" class="cls-3" transform="translate(0.005 4.113)">
          <ellipse class="cls-13" cx="31.941" cy="18.148" rx="31.941" ry="18.148"/>
          <ellipse class="cls-14" cx="31.941" cy="18.148" rx="30.941" ry="17.148"/>
        </g>
        <g id="Ellipse_5" data-name="Ellipse 5" class="cls-3" transform="translate(0.005 0)">
          <ellipse class="cls-13" cx="31.941" cy="18.148" rx="31.941" ry="18.148"/>
          <ellipse class="cls-14" cx="31.941" cy="18.148" rx="30.941" ry="17.148"/>
        </g>
        <path id="Path_27" data-name="Path 27" class="cls-4" d="M1.236,0V4.14L0,1.837Z" transform="translate(62.651 18.148)"/>
        <path id="Path_28" data-name="Path 28" class="cls-4" d="M1.215,0V3.747L0,1.649Z" transform="translate(1.215 22.1) rotate(180)"/>
        <path id="Path_1" data-name="Path 1" class="cls-4" d="M10.385,18.175A3.613,3.613,0,0,0,8.811,16.03q1.337-1.582,1.178-5.372a10.778,10.778,0,0,0-.328-2.387,4.7,4.7,0,0,0-.742-1.623A3.569,3.569,0,0,0,7.9,5.712a4.078,4.078,0,0,0-1.258-.469V0H5.26V5.1q-.36,0-1.1.042V0H2.779V5.247q-.3.021-.869.021L0,5.247V8.661H1q.684,0,.8,1.416v5.975a.409.409,0,0,1,.144.021H1.8v8.37q-.072,1.062-.521,1.062h-1L0,29.313H1.8q.171,0,.495.01t.485.011v5.309H4.163V29.4q.382.021,1.1.021v5.226H6.645V29.335a5,5,0,0,0,1.308-.312A3.525,3.525,0,0,0,9.045,28.3a4.061,4.061,0,0,0,.872-1.218,8.02,8.02,0,0,0,.581-1.853,16.72,16.72,0,0,0,.292-2.6,13.059,13.059,0,0,0-.4-4.454ZM4.19,8.889q.063,0,.355-.011t.486-.021a2.292,2.292,0,0,1,.521.053,2.393,2.393,0,0,1,.553.166A2.1,2.1,0,0,1,6.6,9.42,1.783,1.783,0,0,1,7.031,10a4.035,4.035,0,0,1,.274.875,5.911,5.911,0,0,1,.113,1.217,6.41,6.41,0,0,1-.081,1.062,2.857,2.857,0,0,1-.243.8,4.226,4.226,0,0,1-.333.562,1.291,1.291,0,0,1-.436.382,5.039,5.039,0,0,1-.463.229,1.756,1.756,0,0,1-.495.115q-.3.032-.45.042a4.175,4.175,0,0,1-.418,0q-.264-.01-.309-.01V8.889ZM7.971,23.067a4.668,4.668,0,0,1-.221.834,2.254,2.254,0,0,1-.355.624,2.944,2.944,0,0,1-.427.437,2.118,2.118,0,0,1-.5.291,3.241,3.241,0,0,1-.513.177,4.171,4.171,0,0,1-.526.083q-.306.031-.477.031c-.114,0-.258,0-.432-.011s-.286-.01-.332-.01V18.487q.072,0,.427-.021c.237-.014.43-.02.58-.02a4.2,4.2,0,0,1,.621.062,2.526,2.526,0,0,1,.668.191,2.865,2.865,0,0,1,.589.382,2.036,2.036,0,0,1,.518.635,4.01,4.01,0,0,1,.332.955,5.928,5.928,0,0,1,.135,1.337,6.062,6.062,0,0,1-.087,1.06Z" transform="translate(49.291 12.76) rotate(90)"/>
      </g>
    </g>
    <g id="Group_123" data-name="Group 123" class="cls-5" transform="translate(328.358 447.72) rotate(-173.976)">
      <g id="Group_88-2" data-name="Group 88" transform="translate(35.096 74.832) rotate(-123.007)">
        <path id="Path_174" data-name="Path 174" class="cls-3" d="M31.51,34.087c17.231.3,31.063-7.081,30.895-16.493S48.129.312,30.9.009-.165,7.091,0,16.5,14.276,33.788,31.51,34.087Z" transform="translate(0.96 0)"/>
        <path id="Path_175" data-name="Path 175" class="cls-3" d="M31.51,34.087c17.231.3,31.063-7.081,30.895-16.493S48.129.312,30.9.009-.165,7.091,0,16.5,14.276,33.788,31.51,34.087Z" transform="translate(1.033 4.077)"/>
        <path id="Path_27-2" data-name="Path 27" class="cls-4" d="M1.277,4.106,1.2,0,0,2.261Z" transform="translate(63.119 17.589)"/>
        <path id="Path_28-2" data-name="Path 28" class="cls-4" d="M1.252,3.713,1.186,0,0,2.058Z" transform="translate(1.252 20.359) rotate(180)"/>
        <path id="Path_1-2" data-name="Path 1" class="cls-4" d="M10.521,16.518a3.813,3.813,0,0,1-1.6,2.187q1.3,1.57,1.072,5.388A11.181,11.181,0,0,1,9.628,26.5a4.958,4.958,0,0,1-.764,1.648,3.75,3.75,0,0,1-1.024.962,4.147,4.147,0,0,1-1.253.492l-.1,5.283-1.372.025.091-5.136q-.356.007-1.087-.023l-.1,5.178-1.368.02.1-5.283q-.294-.016-.859-.006L0,29.716l.06-3.437.99-.021q.677-.012.818-1.44L1.975,18.8a.406.406,0,0,0,.143-.024H1.976l.148-8.426q-.054-1.063-.5-1.055l-.988.017L.426,5.484l1.783-.032q.169,0,.49-.018t.477-.019l.1-5.347L4.646.044l-.1,5.282q.374-.028,1.088-.04L5.729.025,7.106,0l-.1,5.347a4.774,4.774,0,0,1,1.3.286,3.325,3.325,0,0,1,1.07.7,3.89,3.89,0,0,1,.839,1.214,7.932,7.932,0,0,1,.542,1.855A16.9,16.9,0,0,1,11,12.022a13.494,13.494,0,0,1-.481,4.5Zm-6.3,9.453h.351q.289,0,.477.012a2.265,2.265,0,0,0,.518-.062,2.416,2.416,0,0,0,.551-.178,2.2,2.2,0,0,0,.5-.354,1.885,1.885,0,0,0,.438-.595,4.237,4.237,0,0,0,.286-.885,6.111,6.111,0,0,0,.133-1.228,6.507,6.507,0,0,0-.061-1.068,2.828,2.828,0,0,0-.226-.8,4.078,4.078,0,0,0-.32-.56,1.221,1.221,0,0,0-.425-.382,4.756,4.756,0,0,0-.454-.222,1.678,1.678,0,0,0-.488-.107q-.293-.026-.445-.034a4.077,4.077,0,0,0-.414.008l-.307.016-.11,6.443ZM8.211,11.632a4.64,4.64,0,0,0-.2-.835,2.179,2.179,0,0,0-.341-.623,2.79,2.79,0,0,0-.411-.434,2,2,0,0,0-.49-.286,3.076,3.076,0,0,0-.505-.169,4.01,4.01,0,0,0-.519-.074q-.3-.026-.472-.023c-.113,0-.256.009-.428.018s-.286.015-.33.016l-.124,7.086q.072,0,.423.013t.573.011A4.143,4.143,0,0,0,6,16.257a2.546,2.546,0,0,0,.663-.2,2.981,2.981,0,0,0,.594-.4,2.15,2.15,0,0,0,.523-.648,4.219,4.219,0,0,0,.347-.97,6.8,6.8,0,0,0,.1-2.412Z" transform="translate(14.797 26.682) rotate(-90)"/>
      </g>
    </g>
    <g id="Group_124" data-name="Group 124" class="cls-6" transform="translate(522.868 482.195) rotate(-108)">
      <g id="Group_88-3" data-name="Group 88" transform="translate(23.994 51.161) rotate(-123.007)">
        <path id="Path_174-2" data-name="Path 174" class="cls-3" d="M21.538,23.306c11.78.207,21.235-4.841,21.121-11.274S32.9.213,21.122.006-.113,4.847,0,11.282,9.759,23.1,21.538,23.306Z" transform="translate(0.66 0)"/>
        <path id="Path_175-2" data-name="Path 175" class="cls-3" d="M21.538,23.306c11.78.207,21.235-4.841,21.121-11.274S32.9.213,21.122.006-.113,4.847,0,11.282,9.759,23.1,21.538,23.306Z" transform="translate(0.71 2.787)"/>
        <path id="Path_27-3" data-name="Path 27" class="cls-4" d="M.873,2.805.822,0,0,1.545Z" transform="translate(43.153 12.024)"/>
        <path id="Path_28-3" data-name="Path 28" class="cls-4" d="M.859,2.538.811,0,0,1.406Z" transform="translate(0.859 13.918) rotate(180)"/>
        <path id="Path_1-3" data-name="Path 1" class="cls-4" d="M7.193,11.29a2.607,2.607,0,0,1-1.092,1.5,5.338,5.338,0,0,1,.733,3.683,7.639,7.639,0,0,1-.251,1.644,3.39,3.39,0,0,1-.522,1.127,2.564,2.564,0,0,1-.7.657,2.835,2.835,0,0,1-.859.338l-.063,3.611-.938.017.062-3.511q-.243,0-.743-.015L2.757,23.87l-.939.017.063-3.611q-.2-.011-.591,0L0,20.315l.041-2.35.676-.014q.463-.009.56-.984l.073-4.112a.278.278,0,0,0,.1-.016h-.1l.1-5.76q-.036-.729-.341-.725l-.676.012L.286,3.749,1.51,3.724q.116,0,.335-.012T2.174,3.7L2.238.047,3.176.03,3.113,3.641q.256-.019.744-.028l.058-3.6L4.857,0,4.793,3.654a3.264,3.264,0,0,1,.882.2,2.272,2.272,0,0,1,.731.477,2.659,2.659,0,0,1,.573.828,5.422,5.422,0,0,1,.372,1.273,11.553,11.553,0,0,1,.166,1.788,9.224,9.224,0,0,1-.326,3.071Zm-4.31,6.47h.241q.2,0,.328.009a1.549,1.549,0,0,0,.354-.042,1.652,1.652,0,0,0,.376-.121,1.5,1.5,0,0,0,.339-.243,1.288,1.288,0,0,0,.3-.407,2.9,2.9,0,0,0,.2-.605,4.175,4.175,0,0,0,.1-.839,4.447,4.447,0,0,0-.042-.73,1.933,1.933,0,0,0-.155-.549A2.787,2.787,0,0,0,4.7,13.85a.835.835,0,0,0-.286-.26,3.247,3.247,0,0,0-.311-.152,1.146,1.146,0,0,0-.342-.071q-.2-.018-.3-.023a2.787,2.787,0,0,0-.286,0l-.21.011-.074,4.4ZM5.616,7.952a3.172,3.172,0,0,0-.139-.573,1.49,1.49,0,0,0-.233-.425,1.91,1.91,0,0,0-.286-.3,1.365,1.365,0,0,0-.334-.191,2.1,2.1,0,0,0-.346-.116,2.74,2.74,0,0,0-.353-.05q-.206-.017-.323-.015c-.077,0-.175.006-.292.012s-.191.011-.225.011L3,11.153q.049,0,.286.01c.16.007.286.009.392.007a2.832,2.832,0,0,0,.421-.051,1.74,1.74,0,0,0,.455-.138,2.038,2.038,0,0,0,.4-.272,1.469,1.469,0,0,0,.358-.443A2.884,2.884,0,0,0,5.553,9.6a4.652,4.652,0,0,0,.062-1.649Z" transform="translate(10.119 18.24) rotate(-90)"/>
      </g>
    </g>
    <g id="Group_108" data-name="Group 108" class="cls-2" transform="matrix(0.174, 0.985, -0.985, 0.174, 1109.284, 761.657)">
      <g id="Group_88-4" data-name="Group 88" transform="translate(0 53.602) rotate(-56.993)">
        <g id="Ellipse_6-2" data-name="Ellipse 6" class="cls-7" transform="translate(0.005 4.113)">
          <ellipse class="cls-13" cx="31.941" cy="18.148" rx="31.941" ry="18.148"/>
          <ellipse class="cls-14" cx="31.941" cy="18.148" rx="30.941" ry="17.148"/>
        </g>
        <g id="Ellipse_5-2" data-name="Ellipse 5" class="cls-7" transform="translate(0.005 0)">
          <ellipse class="cls-13" cx="31.941" cy="18.148" rx="31.941" ry="18.148"/>
          <ellipse class="cls-14" cx="31.941" cy="18.148" rx="30.941" ry="17.148"/>
        </g>
        <path id="Path_27-4" data-name="Path 27" class="cls-4" d="M1.236,0V4.14L0,1.837Z" transform="translate(62.651 18.148)"/>
        <path id="Path_28-4" data-name="Path 28" class="cls-4" d="M1.215,0V3.747L0,1.649Z" transform="translate(1.215 22.1) rotate(180)"/>
        <path id="Path_1-4" data-name="Path 1" class="cls-4" d="M10.385,18.175A3.613,3.613,0,0,0,8.811,16.03q1.337-1.582,1.178-5.372a10.778,10.778,0,0,0-.328-2.387,4.7,4.7,0,0,0-.742-1.623A3.569,3.569,0,0,0,7.9,5.712a4.078,4.078,0,0,0-1.258-.469V0H5.26V5.1q-.36,0-1.1.042V0H2.779V5.247q-.3.021-.869.021L0,5.247V8.661H1q.684,0,.8,1.416v5.975a.409.409,0,0,1,.144.021H1.8v8.37q-.072,1.062-.521,1.062h-1L0,29.313H1.8q.171,0,.495.01t.485.011v5.309H4.163V29.4q.382.021,1.1.021v5.226H6.645V29.335a5,5,0,0,0,1.308-.312A3.525,3.525,0,0,0,9.045,28.3a4.061,4.061,0,0,0,.872-1.218,8.02,8.02,0,0,0,.581-1.853,16.72,16.72,0,0,0,.292-2.6,13.059,13.059,0,0,0-.4-4.454ZM4.19,8.889q.063,0,.355-.011t.486-.021a2.292,2.292,0,0,1,.521.053,2.393,2.393,0,0,1,.553.166A2.1,2.1,0,0,1,6.6,9.42,1.783,1.783,0,0,1,7.031,10a4.035,4.035,0,0,1,.274.875,5.911,5.911,0,0,1,.113,1.217,6.41,6.41,0,0,1-.081,1.062,2.857,2.857,0,0,1-.243.8,4.226,4.226,0,0,1-.333.562,1.291,1.291,0,0,1-.436.382,5.039,5.039,0,0,1-.463.229,1.756,1.756,0,0,1-.495.115q-.3.032-.45.042a4.175,4.175,0,0,1-.418,0q-.264-.01-.309-.01V8.889ZM7.971,23.067a4.668,4.668,0,0,1-.221.834,2.254,2.254,0,0,1-.355.624,2.944,2.944,0,0,1-.427.437,2.118,2.118,0,0,1-.5.291,3.241,3.241,0,0,1-.513.177,4.171,4.171,0,0,1-.526.083q-.306.031-.477.031c-.114,0-.258,0-.432-.011s-.286-.01-.332-.01V18.487q.072,0,.427-.021c.237-.014.43-.02.58-.02a4.2,4.2,0,0,1,.621.062,2.526,2.526,0,0,1,.668.191,2.865,2.865,0,0,1,.589.382,2.036,2.036,0,0,1,.518.635,4.01,4.01,0,0,1,.332.955,5.928,5.928,0,0,1,.135,1.337,6.062,6.062,0,0,1-.087,1.06Z" transform="translate(49.291 12.76) rotate(90)"/>
      </g>
    </g>
    <g id="Group_115" data-name="Group 115" class="cls-8" transform="matrix(0.719, -0.695, 0.695, 0.719, 61.504, 763.176)">
      <g id="Group_88-5" data-name="Group 88" transform="translate(41.501 88.788) rotate(-123.007)">
        <path id="Path_176" data-name="Path 176" class="cls-3" d="M37.376,40.84c20.482.279,36.968-8.636,36.809-19.91S57.3.285,36.814.006-.154,8.643,0,19.918,16.89,40.561,37.376,40.84Z" transform="translate(0.948 0)"/>
        <path id="Path_177" data-name="Path 177" class="cls-3" d="M37.376,40.84c20.482.279,36.968-8.636,36.809-19.91S57.3.285,36.814.006-.154,8.643,0,19.918,16.89,40.561,37.376,40.84Z" transform="translate(1.014 4.84)"/>
        <path id="Path_27-5" data-name="Path 27" class="cls-4" d="M1.5,4.87,1.432,0,0,2.69Z" transform="translate(74.65 20.911)"/>
        <path id="Path_28-5" data-name="Path 28" class="cls-4" d="M1.473,4.408,1.412,0,0,2.448Z" transform="translate(1.473 24.503) rotate(180)"/>
        <path id="Path_1-5" data-name="Path 1" class="cls-4" d="M12.423,19.552a4.462,4.462,0,0,1-1.886,2.578q1.551,1.863,1.3,6.378a13.134,13.134,0,0,1-.425,2.843,5.8,5.8,0,0,1-.9,1.946A4.392,4.392,0,0,1,9.3,34.43a4.892,4.892,0,0,1-1.489.579l-.085,6.248L6.1,41.276,6.186,35.2q-.423.006-1.29-.032l-.083,6.124-1.629.023.084-6.247q-.349-.02-1.025-.011L0,35.117l.055-4.067,1.174-.016q.8-.011.964-1.7l.1-7.116a.477.477,0,0,0,.17-.028H2.291l.136-9.967q-.068-1.263-.6-1.257l-1.174.016L.392,6.455l2.113-.03q.2,0,.581-.02t.573-.02L3.745.062,5.375.04,5.29,6.288q.445-.032,1.291-.043L6.665.022,8.294,0,8.208,6.323a5.714,5.714,0,0,1,1.533.35,3.991,3.991,0,0,1,1.274.838,4.653,4.653,0,0,1,1.006,1.432,9.418,9.418,0,0,1,.652,2.2,19.973,19.973,0,0,1,.3,3.095,15.866,15.866,0,0,1-.552,5.317ZM4.988,30.711l.417.007q.343.007.573.017a2.692,2.692,0,0,0,.615-.071,2.855,2.855,0,0,0,.653-.207,2.572,2.572,0,0,0,.587-.417,2.2,2.2,0,0,0,.518-.7,4.965,4.965,0,0,0,.337-1.05,7.181,7.181,0,0,0,.152-1.452,7.681,7.681,0,0,0-.078-1.263,3.357,3.357,0,0,0-.272-.955,4.869,4.869,0,0,0-.382-.668A1.466,1.466,0,0,0,7.6,23.5a5.71,5.71,0,0,0-.54-.265,2.005,2.005,0,0,0-.58-.128q-.349-.032-.528-.042a4.855,4.855,0,0,0-.492.007q-.312.016-.365.017l-.1,7.612h0ZM9.667,13.765a5.5,5.5,0,0,0-.245-.989,2.6,2.6,0,0,0-.408-.737,3.342,3.342,0,0,0-.5-.514,2.4,2.4,0,0,0-.582-.339,3.687,3.687,0,0,0-.6-.2,4.791,4.791,0,0,0-.618-.1q-.359-.032-.56-.03c-.134,0-.3.009-.508.02s-.335.016-.391.017l-.114,8.381q.085,0,.5.018t.682.015a4.922,4.922,0,0,0,.731-.084,3.01,3.01,0,0,0,.786-.233,3.5,3.5,0,0,0,.7-.469,2.516,2.516,0,0,0,.619-.764,4.941,4.941,0,0,0,.407-1.146,7.207,7.207,0,0,0,.18-1.587,7.257,7.257,0,0,0-.083-1.263Z" transform="translate(17.489 31.798) rotate(-90)"/>
      </g>
    </g>
    <g id="Group_113" data-name="Group 113" class="cls-9" transform="matrix(0.208, -0.978, 0.978, 0.208, 856.509, 521.428)">
      <g id="Group_88-6" data-name="Group 88" transform="translate(-137.94 728.817) rotate(-56.993)">
        <g id="Ellipse_6-3" data-name="Ellipse 6" class="cls-7" transform="translate(0.003 2.706)">
          <ellipse class="cls-13" cx="21.009" cy="11.937" rx="21.009" ry="11.937"/>
          <ellipse class="cls-14" cx="21.009" cy="11.937" rx="20.009" ry="10.937"/>
        </g>
        <g id="Ellipse_5-3" data-name="Ellipse 5" class="cls-7" transform="translate(0.003 0)">
          <ellipse class="cls-13" cx="21.009" cy="11.937" rx="21.009" ry="11.937"/>
          <ellipse class="cls-14" cx="21.009" cy="11.937" rx="20.009" ry="10.937"/>
        </g>
        <path id="Path_27-6" data-name="Path 27" class="cls-4" d="M.812,0V2.723L0,1.208Z" transform="translate(41.208 11.937)"/>
        <path id="Path_28-6" data-name="Path 28" class="cls-4" d="M.8,0V2.464L0,1.085Z" transform="translate(0.799 14.536) rotate(180)"/>
        <path id="Path_1-6" data-name="Path 1" class="cls-4" d="M6.831,11.954A2.376,2.376,0,0,0,5.8,10.547a5.156,5.156,0,0,0,.775-3.534,7.089,7.089,0,0,0-.216-1.57,3.089,3.089,0,0,0-.488-1.068A2.348,2.348,0,0,0,5.2,3.759a2.682,2.682,0,0,0-.828-.308V0H3.46V3.355q-.236,0-.721.028V0H1.827V3.451q-.2.014-.574.014L0,3.451V5.7H.655q.449,0,.524.931v3.931a.269.269,0,0,1,.094.014H1.182v5.5q-.047.7-.343.7H.184L0,19.281H1.183q.113,0,.328.007t.319.007v3.492h.909V19.335q.248.014.721.014v3.437h.911V19.294a3.287,3.287,0,0,0,.86-.205,2.318,2.318,0,0,0,.721-.473,2.671,2.671,0,0,0,.573-.8A5.276,5.276,0,0,0,6.9,16.6,11,11,0,0,0,7.1,14.885,8.589,8.589,0,0,0,6.831,11.954ZM2.756,5.847l.234-.007.319-.014a1.507,1.507,0,0,1,.343.034,1.572,1.572,0,0,1,.364.109,1.385,1.385,0,0,1,.328.226,1.172,1.172,0,0,1,.284.383,2.654,2.654,0,0,1,.18.575,3.888,3.888,0,0,1,.074.8,4.216,4.216,0,0,1-.053.7,1.879,1.879,0,0,1-.16.524,2.78,2.78,0,0,1-.219.369.852.852,0,0,1-.287.254,3.314,3.314,0,0,1-.3.151,1.155,1.155,0,0,1-.328.075q-.2.02-.3.028a2.748,2.748,0,0,1-.275,0l-.2-.007v-4.2Zm2.485,9.325a3.07,3.07,0,0,1-.143.55,1.482,1.482,0,0,1-.234.411,1.936,1.936,0,0,1-.278.286,1.393,1.393,0,0,1-.328.192,2.132,2.132,0,0,1-.337.117,2.743,2.743,0,0,1-.346.055q-.2.02-.313.02c-.075,0-.17,0-.284-.007s-.187-.007-.219-.007V12.16q.047,0,.281-.014t.381-.014a2.761,2.761,0,0,1,.408.041,1.661,1.661,0,0,1,.438.123,1.887,1.887,0,0,1,.387.254,1.339,1.339,0,0,1,.34.417,2.639,2.639,0,0,1,.219.63,3.9,3.9,0,0,1,.089.877,3.986,3.986,0,0,1-.062.7Z" transform="translate(32.421 8.393) rotate(90)"/>
      </g>
    </g>
    <g id="Group_109" data-name="Group 109" class="cls-10" transform="translate(1711.808 813.964) rotate(-7.992)">
      <g id="Group_88-7" data-name="Group 88" transform="translate(0 68.27) rotate(-56.993)">
        <g id="Ellipse_6-4" data-name="Ellipse 6" class="cls-3" transform="translate(0.006 5.239)">
          <ellipse class="cls-13" cx="40.682" cy="23.115" rx="40.682" ry="23.115"/>
          <ellipse class="cls-14" cx="40.682" cy="23.115" rx="39.682" ry="22.115"/>
        </g>
        <g id="Ellipse_5-4" data-name="Ellipse 5" class="cls-3" transform="translate(0.006 0)">
          <ellipse class="cls-13" cx="40.682" cy="23.115" rx="40.682" ry="23.115"/>
          <ellipse class="cls-14" cx="40.682" cy="23.115" rx="39.682" ry="22.115"/>
        </g>
        <path id="Path_27-7" data-name="Path 27" class="cls-4" d="M1.574,0V5.272L0,2.339Z" transform="translate(79.797 23.115)"/>
        <path id="Path_28-7" data-name="Path 28" class="cls-4" d="M1.547,0V4.774L0,2.1Z" transform="translate(1.547 28.148) rotate(180)"/>
        <path id="Path_1-7" data-name="Path 1" class="cls-4" d="M13.226,23.149a4.6,4.6,0,0,0-2.005-2.731q1.706-2.016,1.5-6.842A13.727,13.727,0,0,0,12.3,10.54a5.983,5.983,0,0,0-.945-2.068,4.546,4.546,0,0,0-1.294-1.194,5.193,5.193,0,0,0-1.6-.595V0H6.7V6.493q-.458,0-1.4.053V0H3.539V6.684q-.382.027-1.11.027L0,6.684v4.349H1.271q.871,0,1.019,1.8v7.611a.52.52,0,0,1,.183.027H2.292V31.127q-.1,1.352-.668,1.352H.355L0,37.333H2.292q.218,0,.63.012t.619.013v6.762H5.3V37.437q.477.027,1.4.027v6.655H8.463V37.362a6.365,6.365,0,0,0,1.666-.4,4.488,4.488,0,0,0,1.391-.916A5.172,5.172,0,0,0,12.63,34.5a10.217,10.217,0,0,0,.737-2.36,21.292,21.292,0,0,0,.371-3.315,16.632,16.632,0,0,0-.513-5.674ZM5.336,11.322q.08,0,.453-.013t.619-.027a2.924,2.924,0,0,1,.668.067,3.048,3.048,0,0,1,.7.212A2.681,2.681,0,0,1,8.41,12a2.27,2.27,0,0,1,.55.742,5.14,5.14,0,0,1,.349,1.114A7.529,7.529,0,0,1,9.453,15.4a8.164,8.164,0,0,1-.1,1.353,3.639,3.639,0,0,1-.309,1.021,5.382,5.382,0,0,1-.424.716,1.644,1.644,0,0,1-.556.491,6.418,6.418,0,0,1-.589.291,2.236,2.236,0,0,1-.63.146q-.382.039-.573.053a5.321,5.321,0,0,1-.539,0q-.338-.013-.4-.013V11.322h0ZM10.152,29.38a5.946,5.946,0,0,1-.281,1.062,2.871,2.871,0,0,1-.453.8,3.749,3.749,0,0,1-.544.557,2.7,2.7,0,0,1-.636.371,4.128,4.128,0,0,1-.653.225,5.31,5.31,0,0,1-.668.106q-.39.039-.607.039c-.145,0-.328,0-.55-.013s-.363-.012-.424-.012V23.546q.1,0,.544-.027c.3-.018.548-.026.739-.026a5.348,5.348,0,0,1,.791.079,3.217,3.217,0,0,1,.848.238,3.654,3.654,0,0,1,.75.491,2.592,2.592,0,0,1,.659.809,5.109,5.109,0,0,1,.424,1.22,7.552,7.552,0,0,1,.172,1.7,7.721,7.721,0,0,1-.11,1.352Z" transform="translate(62.78 16.252) rotate(90)"/>
      </g>
    </g>
    <g id="Group_88-8" data-name="Group 88" class="cls-11" transform="translate(483.522 767.415) rotate(-115.985)">
      <g id="Ellipse_6-5" data-name="Ellipse 6" class="cls-3" transform="translate(0.006 5.239)">
        <ellipse class="cls-13" cx="40.682" cy="23.115" rx="40.682" ry="23.115"/>
        <ellipse class="cls-14" cx="40.682" cy="23.115" rx="39.682" ry="22.115"/>
      </g>
      <g id="Ellipse_5-5" data-name="Ellipse 5" class="cls-3" transform="translate(0.006 0)">
        <ellipse class="cls-13" cx="40.682" cy="23.115" rx="40.682" ry="23.115"/>
        <ellipse class="cls-14" cx="40.682" cy="23.115" rx="39.682" ry="22.115"/>
      </g>
      <path id="Path_27-8" data-name="Path 27" class="cls-4" d="M1.574,0V5.272L0,2.339Z" transform="translate(79.797 23.115)"/>
      <path id="Path_28-8" data-name="Path 28" class="cls-4" d="M1.547,0V4.774L0,2.1Z" transform="translate(1.547 28.148) rotate(180)"/>
      <path id="Path_1-8" data-name="Path 1" class="cls-4" d="M13.226,23.149a4.6,4.6,0,0,0-2.005-2.731q1.706-2.016,1.5-6.842A13.727,13.727,0,0,0,12.3,10.54a5.983,5.983,0,0,0-.945-2.068,4.546,4.546,0,0,0-1.294-1.194,5.193,5.193,0,0,0-1.6-.595V0H6.7V6.493q-.458,0-1.4.053V0H3.539V6.684q-.382.027-1.11.027L0,6.684v4.349H1.271q.871,0,1.019,1.8v7.611a.52.52,0,0,1,.183.027H2.292V31.127q-.1,1.352-.668,1.352H.355L0,37.333H2.292q.218,0,.63.012t.619.013v6.762H5.3V37.437q.477.027,1.4.027v6.655H8.463V37.362a6.365,6.365,0,0,0,1.666-.4,4.488,4.488,0,0,0,1.391-.916A5.172,5.172,0,0,0,12.63,34.5a10.217,10.217,0,0,0,.737-2.36,21.292,21.292,0,0,0,.371-3.315,16.632,16.632,0,0,0-.513-5.674ZM5.336,11.322q.08,0,.453-.013t.619-.027a2.924,2.924,0,0,1,.668.067,3.048,3.048,0,0,1,.7.212A2.681,2.681,0,0,1,8.41,12a2.27,2.27,0,0,1,.55.742,5.14,5.14,0,0,1,.349,1.114A7.529,7.529,0,0,1,9.453,15.4a8.164,8.164,0,0,1-.1,1.353,3.639,3.639,0,0,1-.309,1.021,5.382,5.382,0,0,1-.424.716,1.644,1.644,0,0,1-.556.491,6.418,6.418,0,0,1-.589.291,2.236,2.236,0,0,1-.63.146q-.382.039-.573.053a5.321,5.321,0,0,1-.539,0q-.338-.013-.4-.013V11.322h0ZM10.152,29.38a5.946,5.946,0,0,1-.281,1.062,2.871,2.871,0,0,1-.453.8,3.749,3.749,0,0,1-.544.557,2.7,2.7,0,0,1-.636.371,4.128,4.128,0,0,1-.653.225,5.31,5.31,0,0,1-.668.106q-.39.039-.607.039c-.145,0-.328,0-.55-.013s-.363-.012-.424-.012V23.546q.1,0,.544-.027c.3-.018.548-.026.739-.026a5.348,5.348,0,0,1,.791.079,3.217,3.217,0,0,1,.848.238,3.654,3.654,0,0,1,.75.491,2.592,2.592,0,0,1,.659.809,5.109,5.109,0,0,1,.424,1.22,7.552,7.552,0,0,1,.172,1.7,7.721,7.721,0,0,1-.11,1.352Z" transform="translate(62.78 16.252) rotate(90)"/>
    </g>
    <g id="Group_125" data-name="Group 125" class="cls-9" transform="translate(1278.66 846.471) rotate(70.007)">
      <g id="Group_88-9" data-name="Group 88" transform="translate(0 53.48) rotate(-56.993)">
        <g id="Ellipse_6-6" data-name="Ellipse 6" class="cls-3" transform="translate(84.771 -46.255)">
          <ellipse class="cls-13" cx="31.869" cy="18.107" rx="31.869" ry="18.107"/>
          <ellipse class="cls-14" cx="31.869" cy="18.107" rx="30.869" ry="17.107"/>
        </g>
        <g id="Ellipse_5-6" data-name="Ellipse 5" class="cls-3" transform="translate(84.771 -50.359)">
          <ellipse class="cls-13" cx="31.869" cy="18.107" rx="31.869" ry="18.107"/>
          <ellipse class="cls-14" cx="31.869" cy="18.107" rx="30.869" ry="17.107"/>
        </g>
        <path id="Path_27-9" data-name="Path 27" class="cls-4" d="M1.233,0V4.131L0,1.832Z" transform="translate(147.275 -32.252)"/>
        <path id="Path_28-9" data-name="Path 28" class="cls-4" d="M1.212,0V3.738L0,1.645Z" transform="translate(85.977 -28.309) rotate(180)"/>
        <path id="Path_1-9" data-name="Path 1" class="cls-4" d="M10.361,18.133a3.6,3.6,0,0,0-1.57-2.139q1.337-1.579,1.175-5.359a10.753,10.753,0,0,0-.328-2.377A4.686,4.686,0,0,0,8.9,6.634,3.561,3.561,0,0,0,7.885,5.7a4.068,4.068,0,0,0-1.256-.467V0H5.251V5.089q-.359,0-1.094.042V0H2.769V5.234q-.3.021-.87.021L0,5.234V8.641H1q.682,0,.8,1.412v5.962a.408.408,0,0,1,.143.021H1.794v8.35q-.075,1.06-.52,1.06h-1L0,29.247H1.794q.171,0,.494.01t.484.011v5.3H4.153V29.33q.376.021,1.094.021v5.213H6.629v-5.3a4.986,4.986,0,0,0,1.305-.311,3.518,3.518,0,0,0,1.09-.717,4.051,4.051,0,0,0,.87-1.215,8,8,0,0,0,.579-1.849,16.681,16.681,0,0,0,.291-2.6,13.028,13.028,0,0,0-.4-4.446ZM4.18,8.871q.063,0,.354-.011t.484-.021a2.292,2.292,0,0,1,.519.05,2.387,2.387,0,0,1,.552.166,2.1,2.1,0,0,1,.494.343,1.778,1.778,0,0,1,.431.581,4.025,4.025,0,0,1,.273.873A5.9,5.9,0,0,1,7.4,12.068a6.4,6.4,0,0,1-.08,1.06,2.851,2.851,0,0,1-.243.8,4.216,4.216,0,0,1-.332.56,1.288,1.288,0,0,1-.435.382,5.028,5.028,0,0,1-.462.228,1.752,1.752,0,0,1-.494.115q-.3.031-.449.042a4.166,4.166,0,0,1-.417,0q-.264-.01-.309-.011V8.869h0Zm3.772,14.14a4.658,4.658,0,0,1-.22.832,2.249,2.249,0,0,1-.354.623,2.937,2.937,0,0,1-.426.436,2.113,2.113,0,0,1-.5.286,3.233,3.233,0,0,1-.512.177,4.162,4.162,0,0,1-.525.083q-.3.031-.477.031c-.114,0-.257,0-.431-.011s-.286-.01-.332-.01V18.445q.072,0,.426-.021c.236-.014.429-.02.579-.02a4.189,4.189,0,0,1,.619.062,2.52,2.52,0,0,1,.668.191,2.864,2.864,0,0,1,.587.382,2.031,2.031,0,0,1,.516.633,4,4,0,0,1,.332.955,5.92,5.92,0,0,1,.135,1.329A6.048,6.048,0,0,1,7.953,23.011Z" transform="translate(133.945 -37.628) rotate(90)"/>
      </g>
    </g>
    <g id="Group_118" data-name="Group 118" class="cls-1" transform="translate(817.696 785.006) rotate(39)">
      <g id="Group_88-10" data-name="Group 88" transform="translate(0 68.27) rotate(-56.993)">
        <g id="Ellipse_6-7" data-name="Ellipse 6" class="cls-3" transform="translate(0.006 5.239)">
          <ellipse class="cls-13" cx="40.682" cy="23.115" rx="40.682" ry="23.115"/>
          <ellipse class="cls-14" cx="40.682" cy="23.115" rx="39.682" ry="22.115"/>
        </g>
        <g id="Ellipse_5-7" data-name="Ellipse 5" class="cls-3" transform="translate(0.006 0)">
          <ellipse class="cls-13" cx="40.682" cy="23.115" rx="40.682" ry="23.115"/>
          <ellipse class="cls-14" cx="40.682" cy="23.115" rx="39.682" ry="22.115"/>
        </g>
        <path id="Path_27-10" data-name="Path 27" class="cls-4" d="M1.574,0V5.272L0,2.339Z" transform="translate(79.797 23.115)"/>
        <path id="Path_28-10" data-name="Path 28" class="cls-4" d="M1.547,0V4.774L0,2.1Z" transform="translate(1.547 28.148) rotate(180)"/>
        <path id="Path_1-10" data-name="Path 1" class="cls-4" d="M13.226,23.149a4.6,4.6,0,0,0-2.005-2.731q1.706-2.016,1.5-6.842A13.727,13.727,0,0,0,12.3,10.54a5.983,5.983,0,0,0-.945-2.068,4.546,4.546,0,0,0-1.294-1.194,5.193,5.193,0,0,0-1.6-.595V0H6.7V6.493q-.458,0-1.4.053V0H3.539V6.684q-.382.027-1.11.027L0,6.684v4.349H1.271q.871,0,1.019,1.8v7.611a.52.52,0,0,1,.183.027H2.292V31.127q-.1,1.352-.668,1.352H.355L0,37.333H2.292q.218,0,.63.012t.619.013v6.762H5.3V37.437q.477.027,1.4.027v6.655H8.463V37.362a6.365,6.365,0,0,0,1.666-.4,4.488,4.488,0,0,0,1.391-.916A5.172,5.172,0,0,0,12.63,34.5a10.217,10.217,0,0,0,.737-2.36,21.292,21.292,0,0,0,.371-3.315,16.632,16.632,0,0,0-.513-5.674ZM5.336,11.322q.08,0,.453-.013t.619-.027a2.924,2.924,0,0,1,.668.067,3.048,3.048,0,0,1,.7.212A2.681,2.681,0,0,1,8.41,12a2.27,2.27,0,0,1,.55.742,5.14,5.14,0,0,1,.349,1.114A7.529,7.529,0,0,1,9.453,15.4a8.164,8.164,0,0,1-.1,1.353,3.639,3.639,0,0,1-.309,1.021,5.382,5.382,0,0,1-.424.716,1.644,1.644,0,0,1-.556.491,6.418,6.418,0,0,1-.589.291,2.236,2.236,0,0,1-.63.146q-.382.039-.573.053a5.321,5.321,0,0,1-.539,0q-.338-.013-.4-.013V11.322h0ZM10.152,29.38a5.946,5.946,0,0,1-.281,1.062,2.871,2.871,0,0,1-.453.8,3.749,3.749,0,0,1-.544.557,2.7,2.7,0,0,1-.636.371,4.128,4.128,0,0,1-.653.225,5.31,5.31,0,0,1-.668.106q-.39.039-.607.039c-.145,0-.328,0-.55-.013s-.363-.012-.424-.012V23.546q.1,0,.544-.027c.3-.018.548-.026.739-.026a5.348,5.348,0,0,1,.791.079,3.217,3.217,0,0,1,.848.238,3.654,3.654,0,0,1,.75.491,2.592,2.592,0,0,1,.659.809,5.109,5.109,0,0,1,.424,1.22,7.552,7.552,0,0,1,.172,1.7,7.721,7.721,0,0,1-.11,1.352Z" transform="translate(62.78 16.252) rotate(90)"/>
      </g>
    </g>
    <g id="Group_110" data-name="Group 110" class="cls-11" transform="matrix(0.946, 0.326, -0.326, 0.946, 1656.176, 592.232)">
      <g id="Group_88-11" data-name="Group 88" transform="translate(0 68.27) rotate(-56.993)">
        <g id="Ellipse_6-8" data-name="Ellipse 6" class="cls-3" transform="translate(0.006 5.239)">
          <ellipse class="cls-13" cx="40.682" cy="23.115" rx="40.682" ry="23.115"/>
          <ellipse class="cls-14" cx="40.682" cy="23.115" rx="39.682" ry="22.115"/>
        </g>
        <g id="Ellipse_5-8" data-name="Ellipse 5" class="cls-3" transform="translate(0.006 0)">
          <ellipse class="cls-13" cx="40.682" cy="23.115" rx="40.682" ry="23.115"/>
          <ellipse class="cls-14" cx="40.682" cy="23.115" rx="39.682" ry="22.115"/>
        </g>
        <path id="Path_27-11" data-name="Path 27" class="cls-4" d="M1.574,0V5.272L0,2.339Z" transform="translate(79.797 23.115)"/>
        <path id="Path_28-11" data-name="Path 28" class="cls-4" d="M1.547,0V4.774L0,2.1Z" transform="translate(1.547 28.148) rotate(180)"/>
        <path id="Path_1-11" data-name="Path 1" class="cls-4" d="M13.226,23.149a4.6,4.6,0,0,0-2.005-2.731q1.706-2.016,1.5-6.842A13.727,13.727,0,0,0,12.3,10.54a5.983,5.983,0,0,0-.945-2.068,4.546,4.546,0,0,0-1.294-1.194,5.193,5.193,0,0,0-1.6-.595V0H6.7V6.493q-.458,0-1.4.053V0H3.539V6.684q-.382.027-1.11.027L0,6.684v4.349H1.271q.871,0,1.019,1.8v7.611a.52.52,0,0,1,.183.027H2.292V31.127q-.1,1.352-.668,1.352H.355L0,37.333H2.292q.218,0,.63.012t.619.013v6.762H5.3V37.437q.477.027,1.4.027v6.655H8.463V37.362a6.365,6.365,0,0,0,1.666-.4,4.488,4.488,0,0,0,1.391-.916A5.172,5.172,0,0,0,12.63,34.5a10.217,10.217,0,0,0,.737-2.36,21.292,21.292,0,0,0,.371-3.315,16.632,16.632,0,0,0-.513-5.674ZM5.336,11.322q.08,0,.453-.013t.619-.027a2.924,2.924,0,0,1,.668.067,3.048,3.048,0,0,1,.7.212A2.681,2.681,0,0,1,8.41,12a2.27,2.27,0,0,1,.55.742,5.14,5.14,0,0,1,.349,1.114A7.529,7.529,0,0,1,9.453,15.4a8.164,8.164,0,0,1-.1,1.353,3.639,3.639,0,0,1-.309,1.021,5.382,5.382,0,0,1-.424.716,1.644,1.644,0,0,1-.556.491,6.418,6.418,0,0,1-.589.291,2.236,2.236,0,0,1-.63.146q-.382.039-.573.053a5.321,5.321,0,0,1-.539,0q-.338-.013-.4-.013V11.322h0ZM10.152,29.38a5.946,5.946,0,0,1-.281,1.062,2.871,2.871,0,0,1-.453.8,3.749,3.749,0,0,1-.544.557,2.7,2.7,0,0,1-.636.371,4.128,4.128,0,0,1-.653.225,5.31,5.31,0,0,1-.668.106q-.39.039-.607.039c-.145,0-.328,0-.55-.013s-.363-.012-.424-.012V23.546q.1,0,.544-.027c.3-.018.548-.026.739-.026a5.348,5.348,0,0,1,.791.079,3.217,3.217,0,0,1,.848.238,3.654,3.654,0,0,1,.75.491,2.592,2.592,0,0,1,.659.809,5.109,5.109,0,0,1,.424,1.22,7.552,7.552,0,0,1,.172,1.7,7.721,7.721,0,0,1-.11,1.352Z" transform="translate(62.78 16.252) rotate(90)"/>
      </g>
    </g>
    <g id="Group_117" data-name="Group 117" class="cls-12" transform="matrix(0.946, 0.326, -0.326, 0.946, 1786.579, 664.819)">
      <g id="Group_88-12" data-name="Group 88" transform="translate(27.249 57.682) rotate(-123.007)">
        <path id="Path_178" data-name="Path 178" class="cls-3" d="M23.848,25.677c13.106.119,23.679-5.53,23.612-12.62S36.718.123,23.612,0-.065,5.534,0,12.624,10.743,25.558,23.848,25.677Z" transform="translate(1.255 0)"/>
        <path id="Path_179" data-name="Path 179" class="cls-3" d="M23.848,25.677c13.106.119,23.679-5.53,23.612-12.62S36.718.123,23.612,0-.065,5.534,0,12.624,10.743,25.558,23.848,25.677Z" transform="translate(1.285 3.191)"/>
        <path id="Path_27-12" data-name="Path 27" class="cls-4" d="M.98,3.212.95,0,0,1.778Z" transform="translate(49.018 13.048)"/>
        <path id="Path_28-12" data-name="Path 28" class="cls-4" d="M.961,2.906.935,0,0,1.623Z" transform="translate(0.961 15.645) rotate(180)"/>
        <path id="Path_1-12" data-name="Path 1" class="cls-4" d="M8.148,12.855a2.9,2.9,0,0,1-1.236,1.688q1.028,1.228.876,4.194A8.56,8.56,0,0,1,7.516,20.6a3.765,3.765,0,0,1-.587,1.276,2.854,2.854,0,0,1-.8.74,3.205,3.205,0,0,1-.98.375L5.117,27.1l-1.074.01.036-3.989q-.279,0-.851-.025l-.036,4.022-1.074.01.037-4.106q-.23-.014-.676-.011L0,23.04l.024-2.673L.8,20.36q.53,0,.631-1.113l.043-4.674a.317.317,0,0,0,.112-.017H1.472l.055-6.541q-.048-.83-.4-.827l-.774.007L.172,4.216,1.567,4.2q.133,0,.382-.011t.377-.011L2.365.028,3.437.018,3.4,4.124q.293-.019.851-.024L4.29.01,5.364,0,5.326,4.152a3.8,3.8,0,0,1,1.013.235,2.666,2.666,0,0,1,.842.555,3.1,3.1,0,0,1,.668.946,6.214,6.214,0,0,1,.436,1.445A13.1,13.1,0,0,1,8.5,9.367a10.35,10.35,0,0,1-.349,3.488Zm-4.87,7.306.275.006q.226.006.376.013a1.777,1.777,0,0,0,.4-.045A1.874,1.874,0,0,0,4.765,20a1.675,1.675,0,0,0,.382-.272,1.432,1.432,0,0,0,.339-.459,3.225,3.225,0,0,0,.219-.686,4.685,4.685,0,0,0,.1-.955,5.034,5.034,0,0,0-.052-.824,2.214,2.214,0,0,0-.182-.625,3.233,3.233,0,0,0-.254-.437.978.978,0,0,0-.335-.3,3.811,3.811,0,0,0-.357-.176,1.337,1.337,0,0,0-.382-.086q-.23-.022-.349-.03a3.214,3.214,0,0,0-.325,0l-.241.011-.046,5h0ZM6.31,9.045a3.628,3.628,0,0,0-.165-.65,1.726,1.726,0,0,0-.271-.486,2.231,2.231,0,0,0-.328-.339,1.6,1.6,0,0,0-.382-.224,2.459,2.459,0,0,0-.4-.135A3.183,3.183,0,0,0,4.36,7.15q-.237-.022-.37-.021c-.089,0-.2,0-.335.011s-.221.01-.258.011l-.055,5.5q.055,0,.331.013t.45.011a3.246,3.246,0,0,0,.477-.053,1.976,1.976,0,0,0,.518-.151,2.28,2.28,0,0,0,.459-.306,1.632,1.632,0,0,0,.406-.5,3.209,3.209,0,0,0,.264-.751,4.7,4.7,0,0,0,.115-1.044,4.759,4.759,0,0,0-.052-.829Z" transform="translate(11.476 20.297) rotate(-90)"/>
      </g>
    </g>
    <g id="Group_111" data-name="Group 111" class="cls-12" transform="translate(1826.015 448.398) rotate(82)">
      <g id="Group_88-13" data-name="Group 88" transform="translate(0 51.561) rotate(-56.993)">
        <g id="Ellipse_6-9" data-name="Ellipse 6" class="cls-3" transform="translate(0.005 3.957)">
          <ellipse class="cls-13" cx="30.725" cy="17.458" rx="30.725" ry="17.458"/>
          <ellipse class="cls-14" cx="30.725" cy="17.458" rx="29.725" ry="16.458"/>
        </g>
        <g id="Ellipse_5-9" data-name="Ellipse 5" class="cls-3" transform="translate(0.005 0)">
          <ellipse class="cls-13" cx="30.725" cy="17.458" rx="30.725" ry="17.458"/>
          <ellipse class="cls-14" cx="30.725" cy="17.458" rx="29.725" ry="16.458"/>
        </g>
        <path id="Path_27-13" data-name="Path 27" class="cls-4" d="M1.189,0V3.983L0,1.767Z" transform="translate(60.267 17.458)"/>
        <path id="Path_28-13" data-name="Path 28" class="cls-4" d="M1.169,0V3.6L0,1.586Z" transform="translate(1.169 21.259) rotate(180)"/>
        <path id="Path_1-13" data-name="Path 1" class="cls-4" d="M9.989,17.483A3.476,3.476,0,0,0,8.476,15.42Q9.765,13.9,9.609,10.253a10.367,10.367,0,0,0-.316-2.292A4.518,4.518,0,0,0,8.579,6.4,3.437,3.437,0,0,0,7.6,5.5a3.922,3.922,0,0,0-1.211-.451V0H5.061V4.907q-.346,0-1.05.04V0H2.673V5.047q-.286.02-.839.02L0,5.047V8.332H.96q.657,0,.77,1.362v5.748a.393.393,0,0,1,.138.02H1.73v8.05q-.069,1.021-.5,1.022H.268L0,28.2H1.73q.164,0,.477.01t.467.011v5.1H4.011V28.278q.363.02,1.05.02v5.025h1.33V28.218a4.807,4.807,0,0,0,1.258-.3,3.39,3.39,0,0,0,1.05-.691,3.906,3.906,0,0,0,.838-1.172,7.717,7.717,0,0,0,.558-1.783,16.084,16.084,0,0,0,.281-2.5,12.562,12.562,0,0,0-.388-4.285ZM4.03,8.551q.06,0,.342-.011t.467-.02a2.209,2.209,0,0,1,.5.051,2.3,2.3,0,0,1,.532.16,2.025,2.025,0,0,1,.477.33,1.719,1.719,0,0,1,.415.56,3.881,3.881,0,0,1,.264.841,5.687,5.687,0,0,1,.108,1.172,6.165,6.165,0,0,1-.077,1.022,2.748,2.748,0,0,1-.233.771,4.066,4.066,0,0,1-.32.54,1.241,1.241,0,0,1-.419.37,4.848,4.848,0,0,1-.445.221,1.689,1.689,0,0,1-.477.11q-.286.03-.433.04a4.018,4.018,0,0,1-.4,0l-.3-.011V8.551h0ZM7.667,22.189a4.488,4.488,0,0,1-.212.8,2.168,2.168,0,0,1-.342.6,2.831,2.831,0,0,1-.411.42,2.038,2.038,0,0,1-.477.281,3.118,3.118,0,0,1-.5.171,4.01,4.01,0,0,1-.506.08q-.294.03-.458.03c-.11,0-.248,0-.415-.011s-.274-.01-.32-.01v-6.77q.069,0,.411-.02c.228-.013.413-.02.558-.02a4.038,4.038,0,0,1,.6.06,2.43,2.43,0,0,1,.64.18,2.76,2.76,0,0,1,.566.37,1.957,1.957,0,0,1,.5.611,3.859,3.859,0,0,1,.32.921,5.7,5.7,0,0,1,.13,1.281,5.831,5.831,0,0,1-.08,1.023Z" transform="translate(47.415 12.275) rotate(90)"/>
      </g>
    </g>
    <g id="Group_120" data-name="Group 120" class="cls-9" transform="translate(1413.196 403.275) rotate(12.007)">
      <g id="Group_88-14" data-name="Group 88" transform="translate(0 59.328) rotate(-56.993)">
        <g id="Ellipse_6-10" data-name="Ellipse 6" class="cls-3" transform="translate(0.005 4.554)">
          <ellipse class="cls-13" cx="35.354" cy="20.087" rx="35.354" ry="20.087"/>
          <ellipse class="cls-14" cx="35.354" cy="20.087" rx="34.354" ry="19.087"/>
        </g>
        <g id="Ellipse_5-10" data-name="Ellipse 5" class="cls-3" transform="translate(0.005 0)">
          <ellipse class="cls-13" cx="35.354" cy="20.087" rx="35.354" ry="20.087"/>
          <ellipse class="cls-14" cx="35.354" cy="20.087" rx="34.354" ry="19.087"/>
        </g>
        <path id="Path_27-14" data-name="Path 27" class="cls-4" d="M1.367,0V4.583L0,2.033Z" transform="translate(69.344 20.087)"/>
        <path id="Path_28-14" data-name="Path 28" class="cls-4" d="M1.344,0V4.147L0,1.826Z" transform="translate(1.344 24.461) rotate(180)"/>
        <path id="Path_1-14" data-name="Path 1" class="cls-4" d="M11.494,20.116a4,4,0,0,0-1.742-2.373q1.483-1.751,1.3-5.946a11.929,11.929,0,0,0-.362-2.638,5.2,5.2,0,0,0-.821-1.8A3.951,3.951,0,0,0,8.747,6.326a4.513,4.513,0,0,0-1.395-.518V0H5.824V5.646q-.4,0-1.214.046V0H3.075V5.807q-.328.023-.965.023L0,5.807V9.586H1.1q.756,0,.886,1.567v6.614a.453.453,0,0,1,.159.023H1.99v9.262q-.08,1.176-.577,1.177H.308L0,32.446H1.991q.191,0,.547.011t.538.008V38.34H4.608v-5.8q.418.024,1.214.023v5.783H7.352v-5.88A5.53,5.53,0,0,0,8.8,32.118a3.9,3.9,0,0,0,1.209-.8,4.494,4.494,0,0,0,.972-1.342,8.88,8.88,0,0,0,.642-2.051,18.506,18.506,0,0,0,.323-2.881,14.454,14.454,0,0,0-.451-4.934ZM4.638,9.835q.07,0,.393-.011T5.568,9.8a2.541,2.541,0,0,1,.573.057,2.649,2.649,0,0,1,.612.184,2.33,2.33,0,0,1,.547.382,1.973,1.973,0,0,1,.477.645,4.467,4.467,0,0,1,.3.968,6.543,6.543,0,0,1,.124,1.348,7.094,7.094,0,0,1-.09,1.177,3.162,3.162,0,0,1-.268.887,4.679,4.679,0,0,1-.369.623A1.432,1.432,0,0,1,7,16.5a5.577,5.577,0,0,1-.513.253,1.943,1.943,0,0,1-.547.127q-.328.034-.5.046a4.623,4.623,0,0,1-.463,0q-.294-.011-.344-.011V9.835h0Zm4.185,15.7a5.167,5.167,0,0,1-.243.922,2.5,2.5,0,0,1-.393.691,3.258,3.258,0,0,1-.473.484,2.344,2.344,0,0,1-.552.323,3.587,3.587,0,0,1-.567.2,4.614,4.614,0,0,1-.582.1q-.338.034-.527.034c-.126,0-.286,0-.477-.011s-.315-.011-.369-.011V20.462q.079,0,.477-.023c.263-.015.477-.023.642-.023a4.646,4.646,0,0,1,.687.069,2.8,2.8,0,0,1,.736.207,3.176,3.176,0,0,1,.652.427,2.252,2.252,0,0,1,.573.7,4.441,4.441,0,0,1,.369,1.06,6.562,6.562,0,0,1,.15,1.475A6.709,6.709,0,0,1,8.822,25.532Z" transform="translate(54.557 14.124) rotate(90)"/>
      </g>
    </g>
    <g id="Group_121" data-name="Group 121" class="cls-8" transform="matrix(0.891, -0.454, 0.454, 0.891, 357.364, 857.275)">
      <g id="Group_88-15" data-name="Group 88" transform="translate(40.544 88.547) rotate(-123.007)">
        <path id="Path_180" data-name="Path 180" class="cls-3" d="M34.662,42.73c19.9-1.391,36.665-12.051,37.435-23.808S57.364-1.241,37.463.151.8,12.2.028,23.959,14.763,44.121,34.662,42.73Z" transform="translate(1.295 0)"/>
        <path id="Path_181" data-name="Path 181" class="cls-3" d="M34.662,42.73c19.9-1.391,36.665-12.051,37.435-23.808S57.364-1.241,37.463.151.8,12.2.028,23.959,14.763,44.121,34.662,42.73Z" transform="translate(0.961 5.066)"/>
        <path id="Path_27-15" data-name="Path 27" class="cls-4" d="M1.283,5.1,1.619,0,0,2.936Z" transform="translate(72.774 18.819)"/>
        <path id="Path_28-15" data-name="Path 28" class="cls-4" d="M1.275,4.615,1.578,0,0,2.682Z" transform="translate(1.578 28.842) rotate(180)"/>
        <path id="Path_1-15" data-name="Path 1" class="cls-4" d="M13.693,19.714a3.5,3.5,0,0,1-1.764,2.358q1.778,1.943,1.886,6.324a11.257,11.257,0,0,1-.211,2.736,4.541,4.541,0,0,1-.782,1.823,3.526,3.526,0,0,1-1.175,1,4.627,4.627,0,0,1-1.512.441l.425,6.08-1.705-.113L8.44,34.455q-.443-.03-1.354-.137L7.5,40.28,5.8,40.167l-.425-6.083Q5,34.035,4.3,33.989l-2.346-.13L1.673,29.9l1.229.081q.841.055.871-1.576l-.483-6.928a.508.508,0,0,0,.176-.012l-.178-.011-.678-9.7q-.175-1.241-.729-1.274L.652,10.394,0,5.954,2.215,6.1q.21.013.608.029t.6.027L2.99,0,4.695.113,5.12,6.2q.463.006,1.349.065L6.046.2,7.751.314,8.182,6.47a7.122,7.122,0,0,1,1.637.468,5.241,5.241,0,0,1,1.4.921,5.736,5.736,0,0,1,1.173,1.483,10.14,10.14,0,0,1,.865,2.2,19.416,19.416,0,0,1,.573,3.041,13.863,13.863,0,0,1-.139,5.135ZM6.818,29.978q.077,0,.438.041t.6.064a2.923,2.923,0,0,0,.638-.018,2.791,2.791,0,0,0,.668-.148,2.165,2.165,0,0,0,.581-.358,1.71,1.71,0,0,0,.484-.641,4,4,0,0,0,.264-.993,6.282,6.282,0,0,0,.04-1.4,7.324,7.324,0,0,0-.185-1.241,3.6,3.6,0,0,0-.364-.949,5.825,5.825,0,0,0-.455-.679,1.9,1.9,0,0,0-.573-.477q-.338-.191-.588-.3a2.5,2.5,0,0,0-.619-.173q-.368-.06-.557-.085t-.512-.037q-.326-.01-.382-.013l.518,7.41h0Zm3.508-16.136a5.785,5.785,0,0,0-.339-.984,3.087,3.087,0,0,0-.488-.752,4.3,4.3,0,0,0-.561-.541,3.151,3.151,0,0,0-.638-.382,4.717,4.717,0,0,0-.645-.246A5.824,5.824,0,0,0,7,10.8q-.382-.06-.589-.074c-.14-.01-.317-.016-.531-.023s-.349-.011-.409-.015l.573,8.16q.089.006.528.059t.716.071a5.341,5.341,0,0,0,.764-.022,2.97,2.97,0,0,0,.8-.162,2.977,2.977,0,0,0,.694-.4,1.96,1.96,0,0,0,.585-.694,3.942,3.942,0,0,0,.332-1.084,6.279,6.279,0,0,0,.058-1.534,6.941,6.941,0,0,0-.2-1.235Z" transform="translate(16.755 34.112) rotate(-90)"/>
      </g>
    </g>
  </g>
</svg>
