<svg xmlns="http://www.w3.org/2000/svg" viewBox="233.671 3104.072 194.731 187.84">
  <defs>
    <style>
      .cls-1 {
        fill: #fff;
        stroke: #475058;
        stroke-width: 6px;
      }

      .cls-2 {
        fill: #475058;
      }

      .cls-3 {
        fill: #48bddb;
      }

      .cls-4 {
        stroke: none;
      }

      .cls-5 {
        fill: none;
      }
    </style>
  </defs>
  <g id="Group_95" data-name="Group 95" transform="translate(-210 -240)">
    <g id="Group_75" data-name="Group 75" transform="translate(443.671 3473.929) rotate(-90)">
      <g id="Ellipse_5" data-name="Ellipse 5" class="cls-1" transform="translate(0.018 0)">
        <ellipse class="cls-4" cx="64.92" cy="64.865" rx="64.92" ry="64.865"/>
        <ellipse class="cls-5" cx="64.92" cy="64.865" rx="61.92" ry="61.865"/>
      </g>
      <path id="Path_29" data-name="Path 29" class="cls-2" d="M7.474,4.466A46.351,46.351,0,0,0,2.843,4.7a2.73,2.73,0,0,1-.3.016A2.452,2.452,0,0,1,.017,2.742,2.319,2.319,0,0,1,2.252.266,51.3,51.3,0,0,1,7.52,0h.031l.033,2.233V0a2.354,2.354,0,0,1,2.494,2.233A2.459,2.459,0,0,1,7.474,4.466Z" transform="translate(115.152 57.301) rotate(90)"/>
      <path id="Path_30" data-name="Path 30" class="cls-2" d="M8.067,4.227A44.875,44.875,0,0,0,3.94,6.311a2.788,2.788,0,0,1-1.388.364A2.665,2.665,0,0,1,.414,5.661a2.072,2.072,0,0,1,.744-3.09A49.724,49.724,0,0,1,5.774.24,2.723,2.723,0,0,1,9.2,1.229,2.113,2.113,0,0,1,8.067,4.227Z" transform="translate(111.083 38.503) rotate(90)"/>
      <path id="Path_31" data-name="Path 31" class="cls-2" d="M5.019,7.019a2.508,2.508,0,0,1-2.469,1.69,2.961,2.961,0,0,1-.622-.067A2.229,2.229,0,0,1,.077,5.934C.5,4.449,1,2.96,1.572,1.509A2.649,2.649,0,0,1,4.81.122,2.181,2.181,0,0,1,6.4,2.96C5.873,4.288,5.412,5.655,5.019,7.019Z" transform="translate(84.626 16.102) rotate(90)"/>
      <path id="Path_32" data-name="Path 32" class="cls-2" d="M4.523.821C5.535,1.91,6.613,2.964,7.731,3.956a2.041,2.041,0,0,1-.025,3.157,2.807,2.807,0,0,1-3.6-.018C2.875,6,1.688,4.842.572,3.643A2.049,2.049,0,0,1,.941.5,2.8,2.8,0,0,1,4.523.821Z" transform="translate(34.382 27.076) rotate(90)"/>
      <path id="Path_33" data-name="Path 33" class="cls-2" d="M.439,4.525C1.425,3.25,2.49,2,3.6.814A2.8,2.8,0,0,1,7.19.508a2.053,2.053,0,0,1,.349,3.144C6.525,4.733,5.555,5.869,4.658,7.03a2.66,2.66,0,0,1-2.112.98,2.805,2.805,0,0,1-1.427-.384A2.068,2.068,0,0,1,.439,4.525Z" transform="translate(100.029 24.262) rotate(90)"/>
      <path id="Path_34" data-name="Path 34" class="cls-2" d="M3.716.248a44.83,44.83,0,0,0,4.346,1.69A2.16,2.16,0,0,1,9.547,4.814,2.558,2.558,0,0,1,7.162,6.261a2.87,2.87,0,0,1-.9-.145,50.741,50.741,0,0,1-4.879-1.9,2.108,2.108,0,0,1-1.1-3.005A2.73,2.73,0,0,1,3.716.248Z" transform="translate(23.237 42.579) rotate(90)"/>
      <path id="Path_35" data-name="Path 35" class="cls-2" d="M2.657.258A45.579,45.579,0,0,0,7.388.012a2.492,2.492,0,0,1,2.833,1.954A2.32,2.32,0,0,1,7.995,4.449a51.785,51.785,0,0,1-5.34.277H2.438A2.3,2.3,0,0,1,0,2.493,2.513,2.513,0,0,1,2.657.258Z" transform="translate(19.295 62.118) rotate(90)"/>
      <path id="Path_36" data-name="Path 36" class="cls-2" d="M1.734.12a2.641,2.641,0,0,1,3.228,1.4c.515,1.335,1.1,2.664,1.74,3.952a2.136,2.136,0,0,1-1.32,2.938A2.831,2.831,0,0,1,4.368,8.6,2.586,2.586,0,0,1,2.029,7.256C1.334,5.851.7,4.4.136,2.946A2.175,2.175,0,0,1,1.734.12Z" transform="translate(49.839 17.434) rotate(90)"/>
      <path id="Path_37" data-name="Path 37" class="cls-2" d="M2.548,0A2.461,2.461,0,0,1,5.1,2.3c0,1.378.059,2.76.178,4.106a2.345,2.345,0,0,1-2.344,2.4c-.066,0-.135.007-.2.007A2.436,2.436,0,0,1,.194,6.754C.064,5.294,0,3.8,0,2.3V2.161A2.35,2.35,0,0,1,2.548,0Z" transform="translate(67.166 14.245) rotate(90)"/>
      <path id="Path_38" data-name="Path 38" class="cls-2" d="M.2,6.605c0-1.391-.064-2.8-.189-4.2A2.349,2.349,0,0,1,2.349,0a2.494,2.494,0,0,1,2.739,2.05c.135,1.509.2,3.041.2,4.548V6.65A2.386,2.386,0,0,1,2.744,8.858,2.421,2.421,0,0,1,.2,6.605Z" transform="translate(71.467 110.011) rotate(90)"/>
      <path id="Path_39" data-name="Path 39" class="cls-2" d="M1.5,1.695A2.592,2.592,0,0,1,4.591.067,2.231,2.231,0,0,1,6.448,2.773C6.025,4.26,5.524,5.749,4.958,7.2a2.546,2.546,0,0,1-2.41,1.512,2.914,2.914,0,0,1-.823-.121A2.18,2.18,0,0,1,.138,5.756C.655,4.428,1.114,3.061,1.5,1.695Z" transform="translate(53.901 106.951) rotate(90)"/>
      <path id="Path_40" data-name="Path 40" class="cls-2" d="M7.163,6.25a2.835,2.835,0,0,1-1.154-.243A45.345,45.345,0,0,0,1.655,4.326,2.164,2.164,0,0,1,.162,1.452,2.657,2.657,0,0,1,3.44.144,50.849,50.849,0,0,1,8.322,2.03a2.109,2.109,0,0,1,1.113,3A2.614,2.614,0,0,1,7.163,6.25Z" transform="translate(112.782 77.156) rotate(90)"/>
      <path id="Path_41" data-name="Path 41" class="cls-2" d="M1.526.193A2.682,2.682,0,0,1,4.881,1.34c.7,1.4,1.34,2.847,1.906,4.307A2.185,2.185,0,0,1,5.192,8.481a2.876,2.876,0,0,1-.818.118A2.548,2.548,0,0,1,1.962,7.083C1.445,5.743.856,4.415.214,3.135A2.138,2.138,0,0,1,1.526.193Z" transform="translate(88.577 105.158) rotate(90)"/>
      <path id="Path_42" data-name="Path 42" class="cls-2" d="M1.4,2.459A44.8,44.8,0,0,0,5.52.365a2.778,2.778,0,0,1,3.528.645A2.072,2.072,0,0,1,8.312,4.1,50.415,50.415,0,0,1,3.7,6.44a2.809,2.809,0,0,1-1.149.241A2.611,2.611,0,0,1,.277,5.46,2.108,2.108,0,0,1,1.4,2.459Z" transform="translate(25.365 81.675) rotate(90)"/>
      <path id="Path_43" data-name="Path 43" class="cls-2" d="M3.45.983a2.78,2.78,0,0,1,3.539-.6,2.07,2.07,0,0,1,.683,3.1c-1,1.293-2.058,2.543-3.154,3.715a2.7,2.7,0,0,1-1.972.817A2.756,2.756,0,0,1,.933,7.51,2.052,2.052,0,0,1,.576,4.366C1.57,3.3,2.538,2.162,3.45.983Z" transform="translate(37.786 97.242) rotate(90)"/>
      <path id="Path_44" data-name="Path 44" class="cls-2" d="M4.357.66C5.585,1.745,6.777,2.906,7.9,4.108a2.048,2.048,0,0,1-.362,3.141,2.767,2.767,0,0,1-1.61.5,2.693,2.693,0,0,1-1.974-.819C2.936,5.843,1.855,4.791.739,3.806A2.041,2.041,0,0,1,.755.649,2.8,2.8,0,0,1,4.357.66Z" transform="translate(103.167 93.93) rotate(90)"/>
      <path id="Path_136" data-name="Path 136" class="cls-3" d="M281.4,240.838H296.13a4.209,4.209,0,1,0,0-8.418h-8.418V228.21a4.209,4.209,0,1,0-8.418,0v4.422a14.7,14.7,0,0,0,2.1,29.251h4.209a6.314,6.314,0,0,1,0,12.627H270.875a4.209,4.209,0,1,0,0,8.418h8.418v4.209a4.209,4.209,0,1,0,8.418,0v-4.422a14.7,14.7,0,0,0-2.1-29.251H281.4a6.314,6.314,0,1,1,0-12.627Z" transform="translate(320.278 -217.836) rotate(90)"/>
    </g>
    <g id="Group_76" data-name="Group 76" transform="translate(508.671 3531.929) rotate(-90)">
      <g id="Ellipse_5-2" data-name="Ellipse 5" class="cls-1" transform="translate(0.018 0)">
        <ellipse class="cls-4" cx="64.92" cy="64.865" rx="64.92" ry="64.865"/>
        <ellipse class="cls-5" cx="64.92" cy="64.865" rx="61.92" ry="61.865"/>
      </g>
      <path id="Path_1" data-name="Path 1" class="cls-3" d="M37.116,36.94a9.6,9.6,0,0,0-5.624-4.358q4.788-3.216,4.21-10.918a13.294,13.294,0,0,0-1.173-4.844,8.724,8.724,0,0,0-2.652-3.3,12.823,12.823,0,0,0-3.631-1.9,22.4,22.4,0,0,0-4.5-.952V0H18.8V10.367q-1.285,0-3.92.085V0H9.93V10.663q-1.061.042-3.117.043L0,10.663V17.6H3.567q2.442,0,2.86,2.877V32.625a2.5,2.5,0,0,1,.514.043H6.427v17.01q-.257,2.158-1.864,2.158H1L0,59.58H6.427q.611,0,1.767.02t1.735.021v10.79h4.95V59.748q1.349.043,3.92.043V70.412h4.948V59.621a29.582,29.582,0,0,0,4.675-.635,15.68,15.68,0,0,0,3.9-1.461,10.5,10.5,0,0,0,3.116-2.476,12.092,12.092,0,0,0,2.073-3.766,20.164,20.164,0,0,0,1.043-5.29Q38.981,40.114,37.116,36.94ZM14.975,18.068q.225,0,1.269-.021T17.98,18a14.265,14.265,0,0,1,1.864.106,13.727,13.727,0,0,1,1.976.339,9.13,9.13,0,0,1,1.767.7,4.723,4.723,0,0,1,1.542,1.185,6.082,6.082,0,0,1,.98,1.777,7.06,7.06,0,0,1,.4,2.475,7.573,7.573,0,0,1-.289,2.159,4.255,4.255,0,0,1-.867,1.629,9.382,9.382,0,0,1-1.189,1.143,4.751,4.751,0,0,1-1.558.783q-.947.3-1.654.465a10.413,10.413,0,0,1-1.767.233q-1.061.063-1.607.085t-1.494,0q-.949-.021-1.109-.021V18.067h0ZM28.488,46.884a6.572,6.572,0,0,1-.787,1.694,4.853,4.853,0,0,1-1.27,1.269,9.8,9.8,0,0,1-1.526.889,9.97,9.97,0,0,1-1.783.593,18.217,18.217,0,0,1-1.833.36q-.787.106-1.88.17t-1.7.063q-.611,0-1.543-.021t-1.189-.02v-14.3q.257,0,1.526-.043t2.073-.042q.8,0,2.218.127A14.637,14.637,0,0,1,23.17,38a12.853,12.853,0,0,1,2.1.783,5.827,5.827,0,0,1,1.848,1.29,6.344,6.344,0,0,1,1.189,1.947,7.811,7.811,0,0,1,.177,4.867Z" transform="translate(100.192 45.608) rotate(90)"/>
      <path id="Path_29-2" data-name="Path 29" class="cls-2" d="M7.474,4.466A46.351,46.351,0,0,0,2.843,4.7a2.73,2.73,0,0,1-.3.016A2.452,2.452,0,0,1,.017,2.742,2.319,2.319,0,0,1,2.252.266,51.3,51.3,0,0,1,7.52,0h.031l.033,2.233V0a2.354,2.354,0,0,1,2.494,2.233A2.459,2.459,0,0,1,7.474,4.466Z" transform="translate(115.152 57.301) rotate(90)"/>
      <path id="Path_30-2" data-name="Path 30" class="cls-2" d="M8.067,4.227A44.875,44.875,0,0,0,3.94,6.311a2.788,2.788,0,0,1-1.388.364A2.665,2.665,0,0,1,.414,5.661a2.072,2.072,0,0,1,.744-3.09A49.724,49.724,0,0,1,5.774.24,2.723,2.723,0,0,1,9.2,1.229,2.113,2.113,0,0,1,8.067,4.227Z" transform="translate(111.083 38.503) rotate(90)"/>
      <path id="Path_31-2" data-name="Path 31" class="cls-2" d="M5.019,7.019a2.508,2.508,0,0,1-2.469,1.69,2.961,2.961,0,0,1-.622-.067A2.229,2.229,0,0,1,.077,5.934C.5,4.449,1,2.96,1.572,1.509A2.649,2.649,0,0,1,4.81.122,2.181,2.181,0,0,1,6.4,2.96C5.873,4.288,5.412,5.655,5.019,7.019Z" transform="translate(84.626 16.102) rotate(90)"/>
      <path id="Path_32-2" data-name="Path 32" class="cls-2" d="M4.523.821C5.535,1.91,6.613,2.964,7.731,3.956a2.041,2.041,0,0,1-.025,3.157,2.807,2.807,0,0,1-3.6-.018C2.875,6,1.688,4.842.572,3.643A2.049,2.049,0,0,1,.941.5,2.8,2.8,0,0,1,4.523.821Z" transform="translate(34.382 27.076) rotate(90)"/>
      <path id="Path_33-2" data-name="Path 33" class="cls-2" d="M.439,4.525C1.425,3.25,2.49,2,3.6.814A2.8,2.8,0,0,1,7.19.508a2.053,2.053,0,0,1,.349,3.144C6.525,4.733,5.555,5.869,4.658,7.03a2.66,2.66,0,0,1-2.112.98,2.805,2.805,0,0,1-1.427-.384A2.068,2.068,0,0,1,.439,4.525Z" transform="translate(100.029 24.262) rotate(90)"/>
      <path id="Path_34-2" data-name="Path 34" class="cls-2" d="M3.716.248a44.83,44.83,0,0,0,4.346,1.69A2.16,2.16,0,0,1,9.547,4.814,2.558,2.558,0,0,1,7.162,6.261a2.87,2.87,0,0,1-.9-.145,50.741,50.741,0,0,1-4.879-1.9,2.108,2.108,0,0,1-1.1-3.005A2.73,2.73,0,0,1,3.716.248Z" transform="translate(23.237 42.579) rotate(90)"/>
      <path id="Path_35-2" data-name="Path 35" class="cls-2" d="M2.657.258A45.579,45.579,0,0,0,7.388.012a2.492,2.492,0,0,1,2.833,1.954A2.32,2.32,0,0,1,7.995,4.449a51.785,51.785,0,0,1-5.34.277H2.438A2.3,2.3,0,0,1,0,2.493,2.513,2.513,0,0,1,2.657.258Z" transform="translate(19.295 62.118) rotate(90)"/>
      <path id="Path_36-2" data-name="Path 36" class="cls-2" d="M1.734.12a2.641,2.641,0,0,1,3.228,1.4c.515,1.335,1.1,2.664,1.74,3.952a2.136,2.136,0,0,1-1.32,2.938A2.831,2.831,0,0,1,4.368,8.6,2.586,2.586,0,0,1,2.029,7.256C1.334,5.851.7,4.4.136,2.946A2.175,2.175,0,0,1,1.734.12Z" transform="translate(49.839 17.434) rotate(90)"/>
      <path id="Path_37-2" data-name="Path 37" class="cls-2" d="M2.548,0A2.461,2.461,0,0,1,5.1,2.3c0,1.378.059,2.76.178,4.106a2.345,2.345,0,0,1-2.344,2.4c-.066,0-.135.007-.2.007A2.436,2.436,0,0,1,.194,6.754C.064,5.294,0,3.8,0,2.3V2.161A2.35,2.35,0,0,1,2.548,0Z" transform="translate(67.166 14.245) rotate(90)"/>
      <path id="Path_38-2" data-name="Path 38" class="cls-2" d="M.2,6.605c0-1.391-.064-2.8-.189-4.2A2.349,2.349,0,0,1,2.349,0a2.494,2.494,0,0,1,2.739,2.05c.135,1.509.2,3.041.2,4.548V6.65A2.386,2.386,0,0,1,2.744,8.858,2.421,2.421,0,0,1,.2,6.605Z" transform="translate(71.467 110.011) rotate(90)"/>
      <path id="Path_39-2" data-name="Path 39" class="cls-2" d="M1.5,1.695A2.592,2.592,0,0,1,4.591.067,2.231,2.231,0,0,1,6.448,2.773C6.025,4.26,5.524,5.749,4.958,7.2a2.546,2.546,0,0,1-2.41,1.512,2.914,2.914,0,0,1-.823-.121A2.18,2.18,0,0,1,.138,5.756C.655,4.428,1.114,3.061,1.5,1.695Z" transform="translate(53.901 106.951) rotate(90)"/>
      <path id="Path_40-2" data-name="Path 40" class="cls-2" d="M7.163,6.25a2.835,2.835,0,0,1-1.154-.243A45.345,45.345,0,0,0,1.655,4.326,2.164,2.164,0,0,1,.162,1.452,2.657,2.657,0,0,1,3.44.144,50.849,50.849,0,0,1,8.322,2.03a2.109,2.109,0,0,1,1.113,3A2.614,2.614,0,0,1,7.163,6.25Z" transform="translate(112.782 77.156) rotate(90)"/>
      <path id="Path_41-2" data-name="Path 41" class="cls-2" d="M1.526.193A2.682,2.682,0,0,1,4.881,1.34c.7,1.4,1.34,2.847,1.906,4.307A2.185,2.185,0,0,1,5.192,8.481a2.876,2.876,0,0,1-.818.118A2.548,2.548,0,0,1,1.962,7.083C1.445,5.743.856,4.415.214,3.135A2.138,2.138,0,0,1,1.526.193Z" transform="translate(88.577 105.158) rotate(90)"/>
      <path id="Path_42-2" data-name="Path 42" class="cls-2" d="M1.4,2.459A44.8,44.8,0,0,0,5.52.365a2.778,2.778,0,0,1,3.528.645A2.072,2.072,0,0,1,8.312,4.1,50.415,50.415,0,0,1,3.7,6.44a2.809,2.809,0,0,1-1.149.241A2.611,2.611,0,0,1,.277,5.46,2.108,2.108,0,0,1,1.4,2.459Z" transform="translate(25.365 81.675) rotate(90)"/>
      <path id="Path_43-2" data-name="Path 43" class="cls-2" d="M3.45.983a2.78,2.78,0,0,1,3.539-.6,2.07,2.07,0,0,1,.683,3.1c-1,1.293-2.058,2.543-3.154,3.715a2.7,2.7,0,0,1-1.972.817A2.756,2.756,0,0,1,.933,7.51,2.052,2.052,0,0,1,.576,4.366C1.57,3.3,2.538,2.162,3.45.983Z" transform="translate(37.786 97.242) rotate(90)"/>
      <path id="Path_44-2" data-name="Path 44" class="cls-2" d="M4.357.66C5.585,1.745,6.777,2.906,7.9,4.108a2.048,2.048,0,0,1-.362,3.141,2.767,2.767,0,0,1-1.61.5,2.693,2.693,0,0,1-1.974-.819C2.936,5.843,1.855,4.791.739,3.806A2.041,2.041,0,0,1,.755.649,2.8,2.8,0,0,1,4.357.66Z" transform="translate(103.167 93.93) rotate(90)"/>
    </g>
  </g>
</svg>
