<svg xmlns="http://www.w3.org/2000/svg" viewBox="1062.457 7338.44 237.385 150.153">
  <defs>
    <style>
      .cls-1 {
        fill: #ddd;
      }

      .cls-1, .cls-2 {
        stroke: #475058;
        stroke-width: 6px;
      }

      .cls-2, .cls-5 {
        fill: #fff;
      }

      .cls-3 {
        fill: #475058;
      }

      .cls-4 {
        fill: #465057;
      }

      .cls-6 {
        fill: #47bcdb;
      }

      .cls-7 {
        stroke: none;
      }

      .cls-8 {
        fill: none;
      }
    </style>
  </defs>
  <g id="Group_244" data-name="Group 244" transform="translate(-210 6821)">
    <g id="Group_166" data-name="Group 166" transform="translate(1272.457 517.44)">
      <g id="Ellipse_6" data-name="Ellipse 6" class="cls-1" transform="translate(0.017 15.285)">
        <ellipse class="cls-7" cx="118.684" cy="67.434" rx="118.684" ry="67.434"/>
        <ellipse class="cls-8" cx="118.684" cy="67.434" rx="115.684" ry="64.434"/>
      </g>
      <g id="Ellipse_5" data-name="Ellipse 5" class="cls-2" transform="translate(0.017)">
        <ellipse class="cls-7" cx="118.684" cy="67.434" rx="118.684" ry="67.434"/>
        <ellipse class="cls-8" cx="118.684" cy="67.434" rx="115.684" ry="64.434"/>
      </g>
      <path id="Path_27" data-name="Path 27" class="cls-3" d="M1301.485,993v15.382l-4.591-8.557Z" transform="translate(-1064.099 -925.566)"/>
      <path id="Path_28" data-name="Path 28" class="cls-3" d="M4.513,0V13.921L0,6.127Z" transform="translate(4.513 82.118) rotate(180)"/>
      <path id="Path_29" data-name="Path 29" class="cls-3" d="M7.77,8.164a27.658,27.658,0,0,0-4.815.429,1.63,1.63,0,0,1-.31.029C1.319,8.621.174,7.09.018,5.013-.151,2.776.889.747,2.341.486A30.613,30.613,0,0,1,7.818,0H7.85l.034,4.082V0c1.465,0,2.593,1.825,2.593,4.082S9.235,8.164,7.77,8.164Z" transform="translate(210.502 59.57) rotate(90)"/>
      <path id="Path_30" data-name="Path 30" class="cls-3" d="M8.387,7.728A45.127,45.127,0,0,0,4.1,11.537a2.031,2.031,0,0,1-1.443.665A2.614,2.614,0,0,1,.431,10.349,5.553,5.553,0,0,1,1.2,4.7,50.017,50.017,0,0,1,6,.438C7.314-.578,8.9.234,9.56,2.246S9.692,6.712,8.387,7.728Z" transform="translate(203.062 40.027) rotate(90)"/>
      <path id="Path_31" data-name="Path 31" class="cls-3" d="M5.218,12.832c-.3,1.853-1.38,3.09-2.566,3.09a1.823,1.823,0,0,1-.646-.122C.586,15.253-.275,13.036.08,10.848c.442-2.714.964-5.437,1.555-8.09C2.111.627,3.616-.511,5,.223S7.122,3.276,6.648,5.411C6.105,7.84,5.626,10.338,5.218,12.832Z" transform="translate(154.694 16.74) rotate(90)"/>
      <path id="Path_32" data-name="Path 32" class="cls-3" d="M4.7,1.5C5.754,3.492,6.874,5.419,8.037,7.231A5.75,5.75,0,0,1,8.011,13a2.286,2.286,0,0,1-1.859,1.18,2.3,2.3,0,0,1-1.886-1.212c-1.277-2-2.511-4.119-3.671-6.311A5.7,5.7,0,0,1,.979.917C2.115-.5,3.781-.246,4.7,1.5Z" transform="translate(62.84 28.149) rotate(90)"/>
      <path id="Path_33" data-name="Path 33" class="cls-3" d="M.456,8.272C1.481,5.942,2.588,3.66,3.746,1.488,4.678-.25,6.341-.5,7.475.929a5.724,5.724,0,0,1,.363,5.747c-1.054,1.976-2.063,4.053-3,6.176a2.574,2.574,0,0,1-2.2,1.792,2.063,2.063,0,0,1-1.483-.7A5.589,5.589,0,0,1,.456,8.272Z" transform="translate(182.854 25.223) rotate(90)"/>
      <path id="Path_34" data-name="Path 34" class="cls-3" d="M3.863.454a38.164,38.164,0,0,0,4.518,3.09C9.75,4.336,10.442,6.691,9.925,8.8c-.4,1.637-1.406,2.645-2.479,2.645a1.852,1.852,0,0,1-.935-.265A43.175,43.175,0,0,1,1.439,7.716C.139,6.687-.375,4.226.292,2.222S2.557-.583,3.863.454Z" transform="translate(42.466 44.265) rotate(90)"/>
      <path id="Path_35" data-name="Path 35" class="cls-3" d="M2.762.471A27.211,27.211,0,0,0,7.681.022c1.494-.229,2.773,1.335,2.945,3.572s-.863,4.27-2.315,4.539a30.915,30.915,0,0,1-5.551.506H2.535C1.07,8.639,0,6.81,0,4.557S1.3.471,2.762.471Z" transform="translate(35.258 64.578) rotate(90)"/>
      <path id="Path_36" data-name="Path 36" class="cls-3" d="M1.8.219c1.383-.731,2.89.429,3.356,2.563.535,2.441,1.144,4.87,1.809,7.225.585,2.065-.032,4.474-1.372,5.372a1.87,1.87,0,0,1-1.054.339c-1.025,0-2-.918-2.431-2.453C1.386,10.7.724,8.048.142,5.387-.33,3.256.414.941,1.8.219Z" transform="translate(91.098 18.124) rotate(90)"/>
      <path id="Path_37" data-name="Path 37" class="cls-3" d="M2.649,0C4.113,0,5.3,1.959,5.3,4.212c0,2.518.061,5.045.185,7.507.114,2.249-.977,4.212-2.437,4.384a1.787,1.787,0,0,1-.207.012C1.467,16.115.31,14.491.2,12.348.066,9.678,0,6.939,0,4.212V3.951C0,1.694,1.184,0,2.649,0Z" transform="translate(122.775 14.809) rotate(90)"/>
      <path id="Path_38" data-name="Path 38" class="cls-3" d="M.2,12.075C.2,9.532.138,6.948.008,4.4-.106,2.152.983.189,2.442.009c1.433-.147,2.731,1.5,2.847,3.747.14,2.759.212,5.559.212,8.315v.086c0,2.253-1.184,4.037-2.649,4.037S.2,14.328.2,12.075Z" transform="translate(130.638 114.368) rotate(90)"/>
      <path id="Path_39" data-name="Path 39" class="cls-3" d="M1.563,3.1C1.918.91,3.359-.424,4.773.123S7.056,2.882,6.7,5.07c-.44,2.719-.961,5.441-1.549,8.094-.376,1.7-1.4,2.763-2.506,2.763a1.853,1.853,0,0,1-.855-.22C.411,14.976-.331,12.658.143,10.523.681,8.094,1.158,5.6,1.563,3.1Z" transform="translate(98.525 111.187) rotate(90)"/>
      <path id="Path_40" data-name="Path 40" class="cls-3" d="M7.446,11.427a1.934,1.934,0,0,1-1.2-.445A38.449,38.449,0,0,0,1.72,7.908C.351,7.12-.343,4.765.168,2.655S2.2-.533,3.577.263A43.139,43.139,0,0,1,8.651,3.712c1.3,1.02,1.822,3.482,1.157,5.49C9.34,10.614,8.41,11.427,7.446,11.427Z" transform="translate(206.169 80.211) rotate(90)"/>
      <path id="Path_41" data-name="Path 41" class="cls-3" d="M1.586.352c1.348-.922,2.9.033,3.488,2.1.726,2.555,1.393,5.2,1.981,7.874.469,2.135-.275,4.453-1.658,5.18a1.827,1.827,0,0,1-.85.216c-1.1,0-2.135-1.074-2.508-2.772C1.5,10.5.89,8.071.222,5.732-.363,3.667.246,1.258,1.586.352Z" transform="translate(161.917 109.323) rotate(90)"/>
      <path id="Path_42" data-name="Path 42" class="cls-3" d="M1.453,4.5A45.26,45.26,0,0,0,5.738.667C6.962-.57,8.6-.035,9.407,1.847A5.558,5.558,0,0,1,8.641,7.5a50.892,50.892,0,0,1-4.794,4.278,1.914,1.914,0,0,1-1.194.441c-.967,0-1.9-.816-2.365-2.233C-.374,7.973.145,5.516,1.453,4.5Z" transform="translate(46.356 84.909) rotate(90)"/>
      <path id="Path_43" data-name="Path 43" class="cls-3" d="M3.587,1.8C4.408-.072,6.053-.561,7.266.7a5.594,5.594,0,0,1,.71,5.67C6.937,8.733,5.835,11.019,4.7,13.162a2.436,2.436,0,0,1-2.05,1.494A2.157,2.157,0,0,1,.97,13.729,5.717,5.717,0,0,1,.6,7.982C1.632,6.035,2.639,3.953,3.587,1.8Z" transform="translate(69.064 101.093) rotate(90)"/>
      <path id="Path_44" data-name="Path 44" class="cls-3" d="M4.53,1.207c1.277,1.984,2.516,4.106,3.681,6.3a5.7,5.7,0,0,1-.376,5.743,2.163,2.163,0,0,1-1.674.922,2.434,2.434,0,0,1-2.053-1.5c-1.057-2-2.18-3.919-3.34-5.719A5.75,5.75,0,0,1,.785,1.187,2.063,2.063,0,0,1,4.53,1.207Z" transform="translate(188.59 97.65) rotate(90)"/>
      <rect id="Rectangle_23" data-name="Rectangle 23" class="cls-3" width="5.395" height="15.285" transform="translate(219.403 97.105)"/>
      <rect id="Rectangle_24" data-name="Rectangle 24" class="cls-3" width="5.395" height="15.285" transform="translate(205.017 108.794)"/>
      <rect id="Rectangle_25" data-name="Rectangle 25" class="cls-3" width="5.395" height="15.285" transform="translate(190.631 117.785)"/>
      <rect id="Rectangle_26" data-name="Rectangle 26" class="cls-3" width="5.395" height="15.285" transform="translate(176.245 122.281)"/>
    </g>
    <g id="Group_167" data-name="Group 167" transform="translate(1436.146 555.99) rotate(90)">
      <g id="bottomleft" transform="translate(0 48.701)">
        <path id="Path_187" data-name="Path 187" class="cls-4" d="M24.871,38.178c0,1.856-.9,3.361-2.012,3.361H2.012C.9,41.539,0,40.035,0,38.178V3.361C0,1.5.9,0,2.012,0H24.871V38.178Z" transform="translate(0)"/>
        <path id="Path_193" data-name="Path 193" class="cls-5" d="M7.129,0,0,7.42V24.609H14.259V12.585H7.129Z" transform="translate(5.307 8.605)"/>
      </g>
      <g id="bottomright" transform="translate(29.16 48.702)">
        <path id="Path_188" data-name="Path 188" class="cls-6" d="M22.859,0c1.111,0,2.012,1.5,2.012,3.361V38.178c0,1.857-.9,3.362-2.013,3.361H2.012C.9,41.539,0,40.035,0,38.179V0H22.859Z" transform="translate(0 0)"/>
        <path id="Path_194" data-name="Path 194" class="cls-5" d="M0,12.864V24.888H14.258V7.7L7.4,0,7.129.279V12.864Z" transform="translate(5.306 8.325)"/>
      </g>
      <g id="topleft" transform="translate(0 0)">
        <path id="Path_190" data-name="Path 190" class="cls-4" d="M2.012,41.539C.9,41.539,0,40.035,0,38.178V3.362C0,1.505.9,0,2.012,0H22.859c1.112,0,2.012,1.505,2.012,3.361V41.539H2.012Z" transform="translate(0 0)"/>
        <path id="Path_191" data-name="Path 191" class="cls-5" d="M14.258,13.411V7.7L7.4,0,0,7.7V24.888H7.129V13.411Z" transform="translate(5.307 7.36)"/>
      </g>
      <g id="topright" transform="translate(29.16)">
        <path id="Path_189" data-name="Path 189" class="cls-6" d="M0,3.361C0,1.5.9,0,2.012,0H22.859c1.112,0,2.013,1.505,2.012,3.362V38.179c0,1.856-.9,3.36-2.012,3.36H0V3.361Z" transform="translate(0)"/>
        <path id="Path_192" data-name="Path 192" class="cls-5" d="M7.129,24.888h7.129V7.7L7.4,0,0,7.7v5.712H7.129Z" transform="translate(5.306 7.359)"/>
      </g>
    </g>
  </g>
</svg>
