<svg xmlns="http://www.w3.org/2000/svg" viewBox="4169.491 130.048 1784.615 574.536">
  <defs>
    <style>
      .cls-1 {
        opacity: 0.6;
      }

      .cls-2 {
        opacity: 0.7;
      }

      .cls-3 {
        fill: #41bddd;
      }

      .cls-3, .cls-7 {
        stroke: #fff;
        stroke-width: 2px;
      }

      .cls-4 {
        fill: #fff;
      }

      .cls-5 {
        opacity: 0.45;
      }

      .cls-6 {
        opacity: 0.55;
      }

      .cls-7 {
        fill: #48bddb;
      }

      .cls-8 {
        opacity: 0.65;
      }

      .cls-9 {
        opacity: 0.75;
      }

      .cls-10 {
        opacity: 0.4;
      }

      .cls-11 {
        opacity: 0.5;
      }

      .cls-12 {
        opacity: 0.8;
      }

      .cls-13 {
        stroke: none;
      }

      .cls-14 {
        fill: none;
      }
    </style>
  </defs>
  <g id="Group_126" data-name="Group 126" class="cls-1" transform="translate(4090 -240)">
    <g id="Group_107" data-name="Group 107" class="cls-2" transform="matrix(0.966, 0.259, -0.259, 0.966, -259.516, -525.774)">
      <g id="Group_88" data-name="Group 88" transform="matrix(0.545, -0.839, 0.839, 0.545, 620.503, 919.198)">
        <g id="Ellipse_6" data-name="Ellipse 6" class="cls-3" transform="translate(0.005 4.308)">
          <ellipse class="cls-13" cx="33.453" cy="19.007" rx="33.453" ry="19.007"/>
          <ellipse class="cls-14" cx="33.453" cy="19.007" rx="32.453" ry="18.007"/>
        </g>
        <g id="Ellipse_5" data-name="Ellipse 5" class="cls-3" transform="translate(0.005 0)">
          <ellipse class="cls-13" cx="33.453" cy="19.007" rx="33.453" ry="19.007"/>
          <ellipse class="cls-14" cx="33.453" cy="19.007" rx="32.453" ry="18.007"/>
        </g>
        <path id="Path_27" data-name="Path 27" class="cls-4" d="M1.294,0V4.336L0,1.924Z" transform="translate(65.616 19.007)"/>
        <path id="Path_28" data-name="Path 28" class="cls-4" d="M1.272,0V3.924L0,1.727Z" transform="translate(1.272 23.146) rotate(180)"/>
        <path id="Path_1" data-name="Path 1" class="cls-4" d="M10.876,19.035a3.784,3.784,0,0,0-1.648-2.246q1.4-1.657,1.234-5.626a11.288,11.288,0,0,0-.344-2.5,4.92,4.92,0,0,0-.777-1.7,3.738,3.738,0,0,0-1.064-.981,4.271,4.271,0,0,0-1.318-.491V0H5.509V5.342q-.377,0-1.149.044V0H2.91V5.495Q2.6,5.517,2,5.517L0,5.495V9.071H1.045q.716,0,.838,1.483v6.258a.428.428,0,0,1,.151.022H1.883V25.6q-.075,1.112-.546,1.112H.292L0,30.7H1.883q.179,0,.518.01t.508.011v5.56H4.36V30.788q.4.022,1.149.022v5.473h1.45v-5.56a5.233,5.233,0,0,0,1.37-.327,3.692,3.692,0,0,0,1.144-.753,4.253,4.253,0,0,0,.913-1.276,8.4,8.4,0,0,0,.608-1.941A17.511,17.511,0,0,0,11.3,23.7,13.677,13.677,0,0,0,10.876,19.035ZM4.388,9.31q.066,0,.372-.011t.509-.022a2.4,2.4,0,0,1,.546.055,2.506,2.506,0,0,1,.579.174,2.2,2.2,0,0,1,.518.36,1.867,1.867,0,0,1,.452.61,4.226,4.226,0,0,1,.287.916,6.191,6.191,0,0,1,.118,1.275,6.713,6.713,0,0,1-.085,1.112,2.992,2.992,0,0,1-.254.839,4.426,4.426,0,0,1-.349.589,1.352,1.352,0,0,1-.457.4,5.277,5.277,0,0,1-.485.24,1.839,1.839,0,0,1-.518.12q-.311.033-.471.044a4.374,4.374,0,0,1-.438,0Q4.435,16,4.388,16V9.31h0Zm3.96,14.849a4.889,4.889,0,0,1-.231.873,2.361,2.361,0,0,1-.372.654,3.083,3.083,0,0,1-.447.458,2.218,2.218,0,0,1-.523.305,3.394,3.394,0,0,1-.537.185,4.368,4.368,0,0,1-.551.087q-.32.032-.5.032c-.119,0-.27,0-.452-.011s-.3-.01-.348-.01v-7.37q.075,0,.447-.022c.248-.015.45-.021.607-.021a4.4,4.4,0,0,1,.65.065,2.645,2.645,0,0,1,.7.2,3,3,0,0,1,.617.4,2.132,2.132,0,0,1,.542.665,4.2,4.2,0,0,1,.348,1,6.209,6.209,0,0,1,.141,1.4A6.349,6.349,0,0,1,8.348,24.159Z" transform="translate(51.624 13.364) rotate(90)"/>
      </g>
    </g>
    <g id="Group_123" data-name="Group 123" class="cls-5" transform="matrix(-0.995, -0.105, 0.105, -0.995, 867.725, 1376.584)">
      <g id="Group_88-2" data-name="Group 88" transform="matrix(-0.545, -0.839, 0.839, -0.545, 657.336, 942.54)">
        <path id="Path_174" data-name="Path 174" class="cls-3" d="M33,35.7c18.046.317,32.533-7.416,32.357-17.273S50.405.326,32.359.009-.174,7.426,0,17.283,14.95,35.387,33,35.7Z" transform="translate(1.007 0)"/>
        <path id="Path_175" data-name="Path 175" class="cls-3" d="M33,35.7c18.046.317,32.533-7.416,32.357-17.273S50.405.326,32.359.009-.174,7.426,0,17.283,14.95,35.387,33,35.7Z" transform="translate(1.083 4.27)"/>
        <path id="Path_27-2" data-name="Path 27" class="cls-4" d="M1.337,4.3,1.26,0,0,2.368Z" transform="translate(66.106 18.421)"/>
        <path id="Path_28-2" data-name="Path 28" class="cls-4" d="M1.311,3.889,1.242,0,0,2.155Z" transform="translate(1.311 21.322) rotate(180)"/>
        <path id="Path_1-2" data-name="Path 1" class="cls-4" d="M11.019,17.3a3.993,3.993,0,0,1-1.673,2.29q1.361,1.644,1.123,5.643a11.71,11.71,0,0,1-.385,2.519,5.193,5.193,0,0,1-.8,1.726,3.927,3.927,0,0,1-1.072,1.007A4.343,4.343,0,0,1,6.9,31l-.1,5.533-1.437.026.095-5.379q-.373.007-1.138-.024l-.1,5.423L2.787,36.6l.1-5.533q-.308-.017-.9-.006L0,31.122l.063-3.6L1.1,27.5q.709-.013.857-1.508l.111-6.3a.425.425,0,0,0,.15-.025l-.149,0,.155-8.825Q2.167,9.729,1.7,9.737L.665,9.755.446,5.743l1.867-.033q.177,0,.513-.019t.5-.02l.1-5.6L4.866.046l-.1,5.532q.392-.029,1.139-.042L6,.026,7.442,0l-.1,5.6A5,5,0,0,1,8.7,5.9a3.482,3.482,0,0,1,1.121.738A4.074,4.074,0,0,1,10.7,7.909a8.307,8.307,0,0,1,.568,1.943,17.7,17.7,0,0,1,.255,2.739A14.133,14.133,0,0,1,11.019,17.3ZM4.417,27.2q.065,0,.368,0t.5.013a2.372,2.372,0,0,0,.542-.065,2.53,2.53,0,0,0,.577-.186,2.3,2.3,0,0,0,.52-.371,1.974,1.974,0,0,0,.459-.623,4.438,4.438,0,0,0,.3-.927,6.4,6.4,0,0,0,.139-1.286,6.815,6.815,0,0,0-.064-1.119,2.962,2.962,0,0,0-.237-.841,4.271,4.271,0,0,0-.335-.587,1.279,1.279,0,0,0-.445-.4,4.981,4.981,0,0,0-.476-.233,1.757,1.757,0,0,0-.511-.112q-.307-.027-.466-.036a4.27,4.27,0,0,0-.434.008q-.276.016-.322.017L4.417,27.2h0ZM8.6,12.182a4.86,4.86,0,0,0-.213-.875,2.282,2.282,0,0,0-.357-.652A2.922,2.922,0,0,0,7.6,10.2a2.091,2.091,0,0,0-.513-.3,3.222,3.222,0,0,0-.529-.177,4.2,4.2,0,0,0-.544-.078q-.317-.027-.494-.024c-.118,0-.268.009-.448.019s-.3.016-.346.017l-.13,7.421q.075,0,.443.014c.246.01.446.014.6.011a4.339,4.339,0,0,0,.645-.077,2.666,2.666,0,0,0,.694-.209A3.122,3.122,0,0,0,7.6,16.4a2.252,2.252,0,0,0,.548-.679,4.419,4.419,0,0,0,.363-1.016,7.127,7.127,0,0,0,.1-2.526Z" transform="translate(15.497 27.944) rotate(-90)"/>
      </g>
    </g>
    <g id="Group_124" data-name="Group 124" class="cls-6" transform="matrix(-0.309, -0.951, 0.951, -0.309, -243.514, 1334.418)">
      <g id="Group_88-3" data-name="Group 88" transform="matrix(-0.545, -0.839, 0.839, -0.545, 645.714, 917.754)">
        <path id="Path_174-2" data-name="Path 174" class="cls-3" d="M22.556,24.408c12.337.217,22.24-5.07,22.12-11.808S34.457.223,22.121.006-.119,5.076,0,11.815,10.22,24.191,22.556,24.408Z" transform="translate(0.688 0)"/>
        <path id="Path_175-2" data-name="Path 175" class="cls-3" d="M22.556,24.408c12.337.217,22.24-5.07,22.12-11.808S34.457.223,22.121.006-.119,5.076,0,11.815,10.22,24.191,22.556,24.408Z" transform="translate(0.741 2.919)"/>
        <path id="Path_27-3" data-name="Path 27" class="cls-4" d="M.914,2.938.861,0,0,1.618Z" transform="translate(45.191 12.593)"/>
        <path id="Path_28-3" data-name="Path 28" class="cls-4" d="M.9,2.658.849,0,0,1.473Z" transform="translate(0.896 14.576) rotate(180)"/>
        <path id="Path_1-3" data-name="Path 1" class="cls-4" d="M7.533,11.824A2.73,2.73,0,0,1,6.389,13.39q.931,1.124.768,3.857a8,8,0,0,1-.263,1.722,3.55,3.55,0,0,1-.547,1.18,2.685,2.685,0,0,1-.733.688,2.969,2.969,0,0,1-.9.354l-.066,3.782-.982.018.065-3.677q-.255,0-.778-.016L2.887,25l-.983.018.066-3.782q-.21-.011-.619,0L0,21.276l.043-2.461L.751,18.8q.485-.009.586-1.031l.076-4.307a.291.291,0,0,0,.1-.017l-.1,0,.106-6.033q-.038-.764-.357-.759l-.708.013L.3,3.926,1.581,3.9q.121,0,.351-.013t.345-.014L2.344.049,3.326.031,3.26,3.813q.268-.02.779-.029L4.1.018,5.087,0,5.02,3.827a3.418,3.418,0,0,1,.924.208,2.38,2.38,0,0,1,.766.5,2.785,2.785,0,0,1,.6.867A5.679,5.679,0,0,1,7.7,6.735a12.1,12.1,0,0,1,.174,1.873A9.661,9.661,0,0,1,7.533,11.824ZM3.019,18.6l.252,0q.207,0,.344.009a1.622,1.622,0,0,0,.371-.044,1.73,1.73,0,0,0,.394-.127,1.569,1.569,0,0,0,.355-.254,1.349,1.349,0,0,0,.314-.426,3.034,3.034,0,0,0,.206-.634,4.373,4.373,0,0,0,.1-.879,4.658,4.658,0,0,0-.044-.765,2.025,2.025,0,0,0-.162-.575,2.919,2.919,0,0,0-.229-.4.874.874,0,0,0-.3-.272,3.4,3.4,0,0,0-.326-.159A1.2,1.2,0,0,0,3.936,14q-.21-.019-.319-.024a2.919,2.919,0,0,0-.3.005l-.22.011L3.019,18.6h0ZM5.882,8.328a3.322,3.322,0,0,0-.146-.6,1.56,1.56,0,0,0-.244-.445,2,2,0,0,0-.3-.31,1.43,1.43,0,0,0-.35-.2,2.2,2.2,0,0,0-.362-.121A2.87,2.87,0,0,0,4.11,6.6q-.216-.018-.338-.016c-.081,0-.183.006-.306.013s-.2.011-.236.011l-.089,5.073q.051,0,.3.01c.168.007.3.009.411.007a2.966,2.966,0,0,0,.441-.053A1.822,1.822,0,0,0,4.77,11.5a2.134,2.134,0,0,0,.423-.285,1.539,1.539,0,0,0,.375-.464,3.021,3.021,0,0,0,.248-.695,4.872,4.872,0,0,0,.065-1.727Z" transform="translate(10.594 19.103) rotate(-90)"/>
      </g>
    </g>
    <g id="Group_108" data-name="Group 108" class="cls-2" transform="matrix(0.174, 0.985, -0.985, 0.174, 1743.916, -96.203)">
      <g id="Group_88-4" data-name="Group 88" transform="matrix(0.545, -0.839, 0.839, 0.545, 620.503, 919.198)">
        <g id="Ellipse_6-2" data-name="Ellipse 6" class="cls-7" transform="translate(0.005 4.308)">
          <ellipse class="cls-13" cx="33.453" cy="19.007" rx="33.453" ry="19.007"/>
          <ellipse class="cls-14" cx="33.453" cy="19.007" rx="32.453" ry="18.007"/>
        </g>
        <g id="Ellipse_5-2" data-name="Ellipse 5" class="cls-7" transform="translate(0.005 0)">
          <ellipse class="cls-13" cx="33.453" cy="19.007" rx="33.453" ry="19.007"/>
          <ellipse class="cls-14" cx="33.453" cy="19.007" rx="32.453" ry="18.007"/>
        </g>
        <path id="Path_27-4" data-name="Path 27" class="cls-4" d="M1.294,0V4.336L0,1.924Z" transform="translate(65.616 19.007)"/>
        <path id="Path_28-4" data-name="Path 28" class="cls-4" d="M1.272,0V3.924L0,1.727Z" transform="translate(1.272 23.146) rotate(180)"/>
        <path id="Path_1-4" data-name="Path 1" class="cls-4" d="M10.876,19.035a3.784,3.784,0,0,0-1.648-2.246q1.4-1.657,1.234-5.626a11.288,11.288,0,0,0-.344-2.5,4.92,4.92,0,0,0-.777-1.7,3.738,3.738,0,0,0-1.064-.981,4.271,4.271,0,0,0-1.318-.491V0H5.509V5.342q-.377,0-1.149.044V0H2.91V5.495Q2.6,5.517,2,5.517L0,5.495V9.071H1.045q.716,0,.838,1.483v6.258a.428.428,0,0,1,.151.022H1.883V25.6q-.075,1.112-.546,1.112H.292L0,30.7H1.883q.179,0,.518.01t.508.011v5.56H4.36V30.788q.4.022,1.149.022v5.473h1.45v-5.56a5.233,5.233,0,0,0,1.37-.327,3.692,3.692,0,0,0,1.144-.753,4.253,4.253,0,0,0,.913-1.276,8.4,8.4,0,0,0,.608-1.941A17.511,17.511,0,0,0,11.3,23.7,13.677,13.677,0,0,0,10.876,19.035ZM4.388,9.31q.066,0,.372-.011t.509-.022a2.4,2.4,0,0,1,.546.055,2.506,2.506,0,0,1,.579.174,2.2,2.2,0,0,1,.518.36,1.867,1.867,0,0,1,.452.61,4.226,4.226,0,0,1,.287.916,6.191,6.191,0,0,1,.118,1.275,6.713,6.713,0,0,1-.085,1.112,2.992,2.992,0,0,1-.254.839,4.426,4.426,0,0,1-.349.589,1.352,1.352,0,0,1-.457.4,5.277,5.277,0,0,1-.485.24,1.839,1.839,0,0,1-.518.12q-.311.033-.471.044a4.374,4.374,0,0,1-.438,0Q4.435,16,4.388,16V9.31h0Zm3.96,14.849a4.889,4.889,0,0,1-.231.873,2.361,2.361,0,0,1-.372.654,3.083,3.083,0,0,1-.447.458,2.218,2.218,0,0,1-.523.305,3.394,3.394,0,0,1-.537.185,4.368,4.368,0,0,1-.551.087q-.32.032-.5.032c-.119,0-.27,0-.452-.011s-.3-.01-.348-.01v-7.37q.075,0,.447-.022c.248-.015.45-.021.607-.021a4.4,4.4,0,0,1,.65.065,2.645,2.645,0,0,1,.7.2,3,3,0,0,1,.617.4,2.132,2.132,0,0,1,.542.665,4.2,4.2,0,0,1,.348,1,6.209,6.209,0,0,1,.141,1.4A6.349,6.349,0,0,1,8.348,24.159Z" transform="translate(51.624 13.364) rotate(90)"/>
      </g>
    </g>
    <g id="Group_115" data-name="Group 115" class="cls-1" transform="translate(-985.21 661.492) rotate(-44)">
      <g id="Group_88-5" data-name="Group 88" transform="matrix(-0.545, -0.839, 0.839, -0.545, 710.337, 907.859)">
        <path id="Path_176" data-name="Path 176" class="cls-3" d="M38.849,44.352C60.3,44.644,77.566,35.307,77.4,23.5S59.715,1.878,38.26,1.586-.457,10.631-.295,22.44,17.393,44.06,38.849,44.352Z" transform="translate(0.914 1.02)"/>
        <path id="Path_177" data-name="Path 177" class="cls-3" d="M38.849,44.352C60.3,44.644,77.566,35.307,77.4,23.5S59.715,1.878,38.26,1.586-.457,10.631-.295,22.44,17.393,44.06,38.849,44.352Z" transform="translate(0.983 6.089)"/>
        <path id="Path_27-5" data-name="Path 27" class="cls-4" d="M1.541,5.143l-.07-5.1-1.5,2.817Z" transform="translate(77.837 24.457)"/>
        <path id="Path_28-5" data-name="Path 28" class="cls-4" d="M1.515,4.658,1.451.041-.028,2.605Z" transform="translate(1.14 28.303) rotate(180)"/>
        <path id="Path_1-5" data-name="Path 1" class="cls-4" d="M13.1,20.548a4.673,4.673,0,0,1-1.975,2.7q1.624,1.951,1.36,6.68a13.756,13.756,0,0,1-.445,2.978,6.077,6.077,0,0,1-.942,2.038,4.6,4.6,0,0,1-1.268,1.186,5.124,5.124,0,0,1-1.559.606l-.089,6.544L6.481,43.3l.087-6.362q-.443.006-1.351-.033l-.087,6.414-1.706.024L3.512,36.8q-.365-.021-1.074-.011L.089,36.85l.058-4.259,1.23-.017q.842-.012,1.01-1.779l.1-7.453a.5.5,0,0,0,.178-.029l-.177,0,.142-10.439q-.071-1.323-.624-1.316l-1.23.017L.5,6.831,2.713,6.8q.211,0,.609-.021t.6-.021L4.011.136,5.718.113,5.629,6.657q.466-.033,1.352-.045L7.069.094,8.775.071l-.09,6.622a5.984,5.984,0,0,1,1.606.367,4.18,4.18,0,0,1,1.334.878,4.873,4.873,0,0,1,1.054,1.5,9.864,9.864,0,0,1,.683,2.3,20.918,20.918,0,0,1,.316,3.241A16.617,16.617,0,0,1,13.1,20.548ZM5.313,32.235q.078,0,.437.007t.6.018a2.819,2.819,0,0,0,.644-.074,2.99,2.99,0,0,0,.684-.217,2.694,2.694,0,0,0,.615-.437,2.309,2.309,0,0,0,.542-.734,5.2,5.2,0,0,0,.353-1.1,7.521,7.521,0,0,0,.159-1.521,8.044,8.044,0,0,0-.082-1.323,3.516,3.516,0,0,0-.285-1,5.1,5.1,0,0,0-.4-.7,1.535,1.535,0,0,0-.531-.473,5.979,5.979,0,0,0-.566-.278,2.1,2.1,0,0,0-.607-.134q-.365-.034-.553-.044a5.085,5.085,0,0,0-.515.007q-.327.017-.382.018l-.108,7.972h0Zm4.9-17.748a5.764,5.764,0,0,0-.257-1.036,2.724,2.724,0,0,0-.427-.772,3.5,3.5,0,0,0-.519-.538,2.511,2.511,0,0,0-.61-.355,3.862,3.862,0,0,0-.629-.212,5.018,5.018,0,0,0-.647-.1q-.376-.033-.587-.031c-.14,0-.318.009-.532.021s-.351.017-.41.018l-.119,8.778q.089,0,.526.019c.292.013.53.018.714.016a5.155,5.155,0,0,0,.766-.088,3.152,3.152,0,0,0,.823-.244,3.666,3.666,0,0,0,.732-.491,2.635,2.635,0,0,0,.648-.8,5.175,5.175,0,0,0,.426-1.2A7.548,7.548,0,0,0,10.3,15.81,7.6,7.6,0,0,0,10.213,14.487Z" transform="translate(17.871 35.991) rotate(-90)"/>
      </g>
    </g>
    <g id="Group_113" data-name="Group 113" class="cls-8" transform="matrix(0.616, -0.788, 0.788, 0.616, -204.36, 503.836)">
      <g id="Group_88-6" data-name="Group 88" transform="matrix(0.545, -0.839, 0.839, 0.545, 620.503, 916.879)">
        <g id="Ellipse_6-3" data-name="Ellipse 6" class="cls-7" transform="translate(0.005 4.13)">
          <ellipse class="cls-13" cx="32.07" cy="18.222" rx="32.07" ry="18.222"/>
          <ellipse class="cls-14" cx="32.07" cy="18.222" rx="31.07" ry="17.222"/>
        </g>
        <g id="Ellipse_5-3" data-name="Ellipse 5" class="cls-7" transform="translate(0.005 0)">
          <ellipse class="cls-13" cx="32.07" cy="18.222" rx="32.07" ry="18.222"/>
          <ellipse class="cls-14" cx="32.07" cy="18.222" rx="31.07" ry="17.222"/>
        </g>
        <path id="Path_27-6" data-name="Path 27" class="cls-4" d="M1.24,0V4.156L0,1.844Z" transform="translate(62.905 18.222)"/>
        <path id="Path_28-6" data-name="Path 28" class="cls-4" d="M1.219,0V3.762L0,1.656Z" transform="translate(1.219 22.19) rotate(180)"/>
        <path id="Path_1-6" data-name="Path 1" class="cls-4" d="M10.427,18.248A3.627,3.627,0,0,0,8.847,16.1q1.345-1.589,1.183-5.394A10.822,10.822,0,0,0,9.7,8.309a4.716,4.716,0,0,0-.745-1.63,3.584,3.584,0,0,0-1.02-.941,4.094,4.094,0,0,0-1.264-.47V0H5.281V5.121q-.361,0-1.1.042V0H2.789V5.268q-.3.021-.876.021L0,5.268V8.7H1q.686,0,.8,1.421v6a.41.41,0,0,1,.144.021H1.805v8.4q-.072,1.066-.524,1.066h-1L0,29.432H1.806q.172,0,.5.01t.487.011v5.33H4.18V29.515q.379.021,1.1.021v5.247h1.39v-5.33a5.017,5.017,0,0,0,1.313-.313,3.539,3.539,0,0,0,1.1-.722,4.077,4.077,0,0,0,.875-1.223,8.054,8.054,0,0,0,.582-1.86,16.787,16.787,0,0,0,.293-2.613A13.111,13.111,0,0,0,10.427,18.248ZM4.207,8.925q.063,0,.357-.011t.487-.021a2.3,2.3,0,0,1,.524.052,2.4,2.4,0,0,1,.555.167,2.114,2.114,0,0,1,.5.345,1.789,1.789,0,0,1,.433.585,4.051,4.051,0,0,1,.275.878,5.935,5.935,0,0,1,.113,1.223,6.436,6.436,0,0,1-.081,1.066,2.869,2.869,0,0,1-.244.8,4.243,4.243,0,0,1-.334.564,1.3,1.3,0,0,1-.438.387,5.059,5.059,0,0,1-.465.23,1.763,1.763,0,0,1-.5.115q-.3.031-.451.042a4.194,4.194,0,0,1-.42,0q-.266-.01-.311-.011V8.925h0ZM8,23.16A4.687,4.687,0,0,1,7.782,24a2.263,2.263,0,0,1-.357.627A2.955,2.955,0,0,1,7,25.063a2.126,2.126,0,0,1-.5.293,3.254,3.254,0,0,1-.515.178,4.187,4.187,0,0,1-.528.084q-.307.031-.478.031c-.114,0-.259,0-.433-.011s-.286-.01-.334-.01V18.562q.072,0,.429-.021c.238-.014.432-.021.582-.021a4.215,4.215,0,0,1,.623.063,2.536,2.536,0,0,1,.668.188,2.881,2.881,0,0,1,.591.387,2.044,2.044,0,0,1,.519.637,4.028,4.028,0,0,1,.334.962,5.953,5.953,0,0,1,.136,1.338A6.086,6.086,0,0,1,8,23.16Z" transform="translate(49.491 12.812) rotate(90)"/>
      </g>
    </g>
    <g id="Group_109" data-name="Group 109" class="cls-9" transform="matrix(0.99, -0.139, 0.139, 0.99, 1005.372, 66.979)">
      <g id="Group_88-7" data-name="Group 88" transform="matrix(0.545, -0.839, 0.839, 0.545, 620.503, 934.555)">
        <g id="Ellipse_6-4" data-name="Ellipse 6" class="cls-3" transform="translate(0.006 5.487)">
          <ellipse class="cls-13" cx="42.607" cy="24.209" rx="42.607" ry="24.209"/>
          <ellipse class="cls-14" cx="42.607" cy="24.209" rx="41.607" ry="23.209"/>
        </g>
        <g id="Ellipse_5-4" data-name="Ellipse 5" class="cls-3" transform="translate(0.006 0)">
          <ellipse class="cls-13" cx="42.607" cy="24.209" rx="42.607" ry="24.209"/>
          <ellipse class="cls-14" cx="42.607" cy="24.209" rx="41.607" ry="23.209"/>
        </g>
        <path id="Path_27-7" data-name="Path 27" class="cls-4" d="M1.648,0V5.522L0,2.45Z" transform="translate(83.573 24.209)"/>
        <path id="Path_28-7" data-name="Path 28" class="cls-4" d="M1.62,0V5L0,2.2Z" transform="translate(1.62 29.48) rotate(180)"/>
        <path id="Path_1-7" data-name="Path 1" class="cls-4" d="M13.852,24.244a4.819,4.819,0,0,0-2.1-2.86q1.787-2.111,1.571-7.166a14.377,14.377,0,0,0-.438-3.179,6.266,6.266,0,0,0-.99-2.166,4.761,4.761,0,0,0-1.355-1.25A5.439,5.439,0,0,0,8.863,7V0H7.016V6.8q-.48,0-1.463.056V0H3.706V7q-.4.028-1.163.028L0,7v4.555H1.331q.912,0,1.067,1.888v7.971a.545.545,0,0,1,.192.028H2.4V32.6q-.1,1.416-.7,1.416H.372L0,39.1H2.4q.228,0,.66.013t.648.014v7.082H5.553v-7q.5.028,1.463.028v6.97H8.863V39.13a6.666,6.666,0,0,0,1.745-.416,4.7,4.7,0,0,0,1.457-.959,5.417,5.417,0,0,0,1.163-1.625A10.7,10.7,0,0,0,14,33.658a22.3,22.3,0,0,0,.389-3.472A17.419,17.419,0,0,0,13.852,24.244ZM5.589,11.858q.084,0,.474-.014t.648-.028a3.062,3.062,0,0,1,.7.07,3.192,3.192,0,0,1,.737.222,2.808,2.808,0,0,1,.66.458,2.377,2.377,0,0,1,.576.777,5.383,5.383,0,0,1,.366,1.167,7.885,7.885,0,0,1,.15,1.624,8.55,8.55,0,0,1-.108,1.417,3.811,3.811,0,0,1-.324,1.069,5.637,5.637,0,0,1-.444.75,1.722,1.722,0,0,1-.582.514,6.722,6.722,0,0,1-.617.305,2.342,2.342,0,0,1-.66.153q-.4.041-.6.056A5.572,5.572,0,0,1,6,20.4q-.354-.014-.414-.014V11.858h0ZM10.632,30.77a6.227,6.227,0,0,1-.294,1.112,3.007,3.007,0,0,1-.474.833,3.926,3.926,0,0,1-.57.583,2.825,2.825,0,0,1-.666.389,4.323,4.323,0,0,1-.684.236,5.563,5.563,0,0,1-.7.111q-.408.041-.636.041c-.152,0-.344-.005-.576-.014s-.38-.013-.444-.013V24.66q.1,0,.57-.028c.316-.019.574-.027.774-.027a5.6,5.6,0,0,1,.828.083,3.369,3.369,0,0,1,.888.249,3.827,3.827,0,0,1,.785.514,2.715,2.715,0,0,1,.69.847,5.351,5.351,0,0,1,.444,1.278,7.909,7.909,0,0,1,.18,1.778A8.086,8.086,0,0,1,10.632,30.77Z" transform="translate(65.751 17.021) rotate(90)"/>
      </g>
    </g>
    <g id="Group_125" data-name="Group 125" class="cls-8" transform="matrix(0.342, 0.94, -0.94, 0.342, 1935.324, -9.241)">
      <g id="Group_88-8" data-name="Group 88" transform="matrix(0.545, -0.839, 0.839, 0.545, 620.503, 919.071)">
        <g id="Ellipse_6-5" data-name="Ellipse 6" class="cls-3" transform="translate(0.005 4.299)">
          <ellipse class="cls-13" cx="33.377" cy="18.964" rx="33.377" ry="18.964"/>
          <ellipse class="cls-14" cx="33.377" cy="18.964" rx="32.377" ry="17.964"/>
        </g>
        <g id="Ellipse_5-5" data-name="Ellipse 5" class="cls-3" transform="translate(0.005 0)">
          <ellipse class="cls-13" cx="33.377" cy="18.964" rx="33.377" ry="18.964"/>
          <ellipse class="cls-14" cx="33.377" cy="18.964" rx="32.377" ry="17.964"/>
        </g>
        <path id="Path_27-8" data-name="Path 27" class="cls-4" d="M1.291,0V4.326L0,1.919Z" transform="translate(65.467 18.964)"/>
        <path id="Path_28-8" data-name="Path 28" class="cls-4" d="M1.269,0V3.915L0,1.723Z" transform="translate(1.269 23.094) rotate(180)"/>
        <path id="Path_1-8" data-name="Path 1" class="cls-4" d="M10.851,18.991a3.775,3.775,0,0,0-1.644-2.24q1.4-1.654,1.231-5.613a11.262,11.262,0,0,0-.343-2.49,4.908,4.908,0,0,0-.775-1.7,3.73,3.73,0,0,0-1.062-.979,4.261,4.261,0,0,0-1.315-.489V0H5.5V5.33q-.376,0-1.146.044V0H2.9V5.482q-.31.022-.911.022L0,5.482V9.05H1.043q.714,0,.836,1.479v6.244a.427.427,0,0,1,.15.022h-.15v8.745Q1.8,26.65,1.334,26.65H.291L0,30.631H1.879q.179,0,.517.01t.507.011V36.2H4.35V30.718q.394.022,1.146.022V36.2H6.943V30.653a5.222,5.222,0,0,0,1.367-.326,3.684,3.684,0,0,0,1.142-.751,4.243,4.243,0,0,0,.911-1.273,8.382,8.382,0,0,0,.606-1.936,17.471,17.471,0,0,0,.305-2.72A13.645,13.645,0,0,0,10.851,18.991Zm-6.473-9.7q.066,0,.371-.011t.507-.022A2.4,2.4,0,0,1,5.8,9.31a2.5,2.5,0,0,1,.578.174,2.2,2.2,0,0,1,.517.359,1.862,1.862,0,0,1,.451.609,4.216,4.216,0,0,1,.286.914,6.177,6.177,0,0,1,.118,1.273,6.7,6.7,0,0,1-.084,1.11,2.986,2.986,0,0,1-.254.838,4.416,4.416,0,0,1-.348.587,1.349,1.349,0,0,1-.456.4,5.265,5.265,0,0,1-.484.239,1.835,1.835,0,0,1-.517.12q-.31.032-.47.044a4.364,4.364,0,0,1-.437,0q-.277-.011-.324-.011V9.289h0ZM8.329,24.1a4.878,4.878,0,0,1-.23.871,2.355,2.355,0,0,1-.371.652,3.076,3.076,0,0,1-.446.457,2.213,2.213,0,0,1-.521.3,3.386,3.386,0,0,1-.536.185,4.358,4.358,0,0,1-.55.087q-.319.032-.5.032c-.119,0-.269,0-.451-.011s-.3-.01-.348-.01V19.318q.075,0,.446-.022c.247-.015.449-.021.606-.021a4.387,4.387,0,0,1,.648.065,2.639,2.639,0,0,1,.7.2,3,3,0,0,1,.615.4,2.127,2.127,0,0,1,.54.663,4.192,4.192,0,0,1,.348,1,6.2,6.2,0,0,1,.141,1.392A6.334,6.334,0,0,1,8.329,24.1Z" transform="translate(51.507 13.334) rotate(90)"/>
      </g>
    </g>
    <g id="Group_118" data-name="Group 118" class="cls-10" transform="translate(914.395 -256.393) rotate(39)">
      <g id="Group_88-9" data-name="Group 88" transform="matrix(0.545, -0.839, 0.839, 0.545, 620.503, 934.555)">
        <g id="Ellipse_6-6" data-name="Ellipse 6" class="cls-3" transform="translate(0.006 5.487)">
          <ellipse class="cls-13" cx="42.607" cy="24.209" rx="42.607" ry="24.209"/>
          <ellipse class="cls-14" cx="42.607" cy="24.209" rx="41.607" ry="23.209"/>
        </g>
        <g id="Ellipse_5-6" data-name="Ellipse 5" class="cls-3" transform="translate(0.006 0)">
          <ellipse class="cls-13" cx="42.607" cy="24.209" rx="42.607" ry="24.209"/>
          <ellipse class="cls-14" cx="42.607" cy="24.209" rx="41.607" ry="23.209"/>
        </g>
        <path id="Path_27-9" data-name="Path 27" class="cls-4" d="M1.648,0V5.522L0,2.45Z" transform="translate(83.573 24.209)"/>
        <path id="Path_28-9" data-name="Path 28" class="cls-4" d="M1.62,0V5L0,2.2Z" transform="translate(1.62 29.48) rotate(180)"/>
        <path id="Path_1-9" data-name="Path 1" class="cls-4" d="M13.852,24.244a4.819,4.819,0,0,0-2.1-2.86q1.787-2.111,1.571-7.166a14.377,14.377,0,0,0-.438-3.179,6.266,6.266,0,0,0-.99-2.166,4.761,4.761,0,0,0-1.355-1.25A5.439,5.439,0,0,0,8.863,7V0H7.016V6.8q-.48,0-1.463.056V0H3.706V7q-.4.028-1.163.028L0,7v4.555H1.331q.912,0,1.067,1.888v7.971a.545.545,0,0,1,.192.028H2.4V32.6q-.1,1.416-.7,1.416H.372L0,39.1H2.4q.228,0,.66.013t.648.014v7.082H5.553v-7q.5.028,1.463.028v6.97H8.863V39.13a6.666,6.666,0,0,0,1.745-.416,4.7,4.7,0,0,0,1.457-.959,5.417,5.417,0,0,0,1.163-1.625A10.7,10.7,0,0,0,14,33.658a22.3,22.3,0,0,0,.389-3.472A17.419,17.419,0,0,0,13.852,24.244ZM5.589,11.858q.084,0,.474-.014t.648-.028a3.062,3.062,0,0,1,.7.07,3.192,3.192,0,0,1,.737.222,2.808,2.808,0,0,1,.66.458,2.377,2.377,0,0,1,.576.777,5.383,5.383,0,0,1,.366,1.167,7.885,7.885,0,0,1,.15,1.624,8.55,8.55,0,0,1-.108,1.417,3.811,3.811,0,0,1-.324,1.069,5.637,5.637,0,0,1-.444.75,1.722,1.722,0,0,1-.582.514,6.722,6.722,0,0,1-.617.305,2.342,2.342,0,0,1-.66.153q-.4.041-.6.056A5.572,5.572,0,0,1,6,20.4q-.354-.014-.414-.014V11.858h0ZM10.632,30.77a6.227,6.227,0,0,1-.294,1.112,3.007,3.007,0,0,1-.474.833,3.926,3.926,0,0,1-.57.583,2.825,2.825,0,0,1-.666.389,4.323,4.323,0,0,1-.684.236,5.563,5.563,0,0,1-.7.111q-.408.041-.636.041c-.152,0-.344-.005-.576-.014s-.38-.013-.444-.013V24.66q.1,0,.57-.028c.316-.019.574-.027.774-.027a5.6,5.6,0,0,1,.828.083,3.369,3.369,0,0,1,.888.249,3.827,3.827,0,0,1,.785.514,2.715,2.715,0,0,1,.69.847,5.351,5.351,0,0,1,.444,1.278,7.909,7.909,0,0,1,.18,1.778A8.086,8.086,0,0,1,10.632,30.77Z" transform="translate(65.751 17.021) rotate(90)"/>
      </g>
    </g>
    <g id="Group_110" data-name="Group 110" class="cls-11" transform="matrix(0.946, 0.326, -0.326, 0.946, 1375.729, -415.806)">
      <g id="Group_88-10" data-name="Group 88" transform="matrix(0.545, -0.839, 0.839, 0.545, 620.503, 934.555)">
        <g id="Ellipse_6-7" data-name="Ellipse 6" class="cls-3" transform="translate(0.006 5.487)">
          <ellipse class="cls-13" cx="42.607" cy="24.209" rx="42.607" ry="24.209"/>
          <ellipse class="cls-14" cx="42.607" cy="24.209" rx="41.607" ry="23.209"/>
        </g>
        <g id="Ellipse_5-7" data-name="Ellipse 5" class="cls-3" transform="translate(0.006 0)">
          <ellipse class="cls-13" cx="42.607" cy="24.209" rx="42.607" ry="24.209"/>
          <ellipse class="cls-14" cx="42.607" cy="24.209" rx="41.607" ry="23.209"/>
        </g>
        <path id="Path_27-10" data-name="Path 27" class="cls-4" d="M1.648,0V5.522L0,2.45Z" transform="translate(83.573 24.209)"/>
        <path id="Path_28-10" data-name="Path 28" class="cls-4" d="M1.62,0V5L0,2.2Z" transform="translate(1.62 29.48) rotate(180)"/>
        <path id="Path_1-10" data-name="Path 1" class="cls-4" d="M13.852,24.244a4.819,4.819,0,0,0-2.1-2.86q1.787-2.111,1.571-7.166a14.377,14.377,0,0,0-.438-3.179,6.266,6.266,0,0,0-.99-2.166,4.761,4.761,0,0,0-1.355-1.25A5.439,5.439,0,0,0,8.863,7V0H7.016V6.8q-.48,0-1.463.056V0H3.706V7q-.4.028-1.163.028L0,7v4.555H1.331q.912,0,1.067,1.888v7.971a.545.545,0,0,1,.192.028H2.4V32.6q-.1,1.416-.7,1.416H.372L0,39.1H2.4q.228,0,.66.013t.648.014v7.082H5.553v-7q.5.028,1.463.028v6.97H8.863V39.13a6.666,6.666,0,0,0,1.745-.416,4.7,4.7,0,0,0,1.457-.959,5.417,5.417,0,0,0,1.163-1.625A10.7,10.7,0,0,0,14,33.658a22.3,22.3,0,0,0,.389-3.472A17.419,17.419,0,0,0,13.852,24.244ZM5.589,11.858q.084,0,.474-.014t.648-.028a3.062,3.062,0,0,1,.7.07,3.192,3.192,0,0,1,.737.222,2.808,2.808,0,0,1,.66.458,2.377,2.377,0,0,1,.576.777,5.383,5.383,0,0,1,.366,1.167,7.885,7.885,0,0,1,.15,1.624,8.55,8.55,0,0,1-.108,1.417,3.811,3.811,0,0,1-.324,1.069,5.637,5.637,0,0,1-.444.75,1.722,1.722,0,0,1-.582.514,6.722,6.722,0,0,1-.617.305,2.342,2.342,0,0,1-.66.153q-.4.041-.6.056A5.572,5.572,0,0,1,6,20.4q-.354-.014-.414-.014V11.858h0ZM10.632,30.77a6.227,6.227,0,0,1-.294,1.112,3.007,3.007,0,0,1-.474.833,3.926,3.926,0,0,1-.57.583,2.825,2.825,0,0,1-.666.389,4.323,4.323,0,0,1-.684.236,5.563,5.563,0,0,1-.7.111q-.408.041-.636.041c-.152,0-.344-.005-.576-.014s-.38-.013-.444-.013V24.66q.1,0,.57-.028c.316-.019.574-.027.774-.027a5.6,5.6,0,0,1,.828.083,3.369,3.369,0,0,1,.888.249,3.827,3.827,0,0,1,.785.514,2.715,2.715,0,0,1,.69.847,5.351,5.351,0,0,1,.444,1.278,7.909,7.909,0,0,1,.18,1.778A8.086,8.086,0,0,1,10.632,30.77Z" transform="translate(65.751 17.021) rotate(90)"/>
      </g>
    </g>
    <g id="Group_117" data-name="Group 117" class="cls-12" transform="matrix(0.946, 0.326, -0.326, 0.946, 1511.985, -340.656)">
      <g id="Group_88-11" data-name="Group 88" transform="matrix(-0.545, -0.839, 0.839, -0.545, 649.628, 924.186)">
        <path id="Path_178" data-name="Path 178" class="cls-3" d="M24.976,26.89c13.726.125,24.8-5.792,24.729-13.217S38.455.127,24.729,0-.068,5.794,0,13.219,11.251,26.765,24.976,26.89Z" transform="translate(1.315 0)"/>
        <path id="Path_179" data-name="Path 179" class="cls-3" d="M24.976,26.89c13.726.125,24.8-5.792,24.729-13.217S38.455.127,24.729,0-.068,5.794,0,13.219,11.251,26.765,24.976,26.89Z" transform="translate(1.346 3.342)"/>
        <path id="Path_27-11" data-name="Path 27" class="cls-4" d="M1.026,3.364.995,0,0,1.862Z" transform="translate(51.338 13.663)"/>
        <path id="Path_28-11" data-name="Path 28" class="cls-4" d="M1.007,3.044.979,0,0,1.7Z" transform="translate(1.007 16.383) rotate(180)"/>
        <path id="Path_1-11" data-name="Path 1" class="cls-4" d="M8.534,13.463A3.032,3.032,0,0,1,7.24,15.231q1.077,1.286.917,4.392a8.965,8.965,0,0,1-.285,1.955,3.943,3.943,0,0,1-.615,1.336,2.989,2.989,0,0,1-.833.775,3.357,3.357,0,0,1-1.026.393l-.039,4.3-1.125.01.038-4.178q-.292,0-.891-.026L3.343,28.4l-1.125.01.039-4.3q-.241-.015-.708-.011L0,24.13l.025-2.8.811-.007q.555-.005.661-1.166l.045-4.895a.332.332,0,0,0,.117-.018H1.542L1.6,8.393q-.05-.869-.416-.866l-.811.007L.18,4.415,1.641,4.4q.139,0,.4-.012t.395-.012L2.477.029,3.6.019l-.039,4.3q.307-.02.891-.025L4.493.01,5.618,0l-.04,4.349a3.983,3.983,0,0,1,1.061.246,2.792,2.792,0,0,1,.882.581,3.242,3.242,0,0,1,.7.991A6.508,6.508,0,0,1,8.678,7.68,13.722,13.722,0,0,1,8.9,9.81,10.84,10.84,0,0,1,8.534,13.463Zm-5.1,7.652q.051,0,.288.006t.394.014a1.861,1.861,0,0,0,.424-.047,1.963,1.963,0,0,0,.45-.141,1.754,1.754,0,0,0,.4-.285,1.5,1.5,0,0,0,.355-.481,3.378,3.378,0,0,0,.229-.718,4.907,4.907,0,0,0,.1-1A5.272,5.272,0,0,0,6.02,17.6a2.319,2.319,0,0,0-.191-.655,3.386,3.386,0,0,0-.266-.458,1.024,1.024,0,0,0-.351-.312,3.992,3.992,0,0,0-.374-.184,1.4,1.4,0,0,0-.4-.09q-.241-.023-.365-.031a3.366,3.366,0,0,0-.34,0l-.252.011-.048,5.236h0ZM6.609,9.473a3.8,3.8,0,0,0-.173-.681,1.808,1.808,0,0,0-.284-.509,2.337,2.337,0,0,0-.344-.355,1.677,1.677,0,0,0-.4-.235,2.575,2.575,0,0,0-.415-.141,3.334,3.334,0,0,0-.427-.064q-.248-.023-.387-.022c-.093,0-.209.005-.351.012s-.231.01-.27.011L3.5,13.253q.058,0,.347.014c.192.01.349.014.471.012a3.4,3.4,0,0,0,.5-.056,2.07,2.07,0,0,0,.542-.158,2.388,2.388,0,0,0,.481-.32,1.709,1.709,0,0,0,.425-.524,3.361,3.361,0,0,0,.277-.787,4.923,4.923,0,0,0,.12-1.093A4.984,4.984,0,0,0,6.609,9.473Z" transform="translate(12.019 21.256) rotate(-90)"/>
      </g>
    </g>
    <g id="Group_111" data-name="Group 111" class="cls-12" transform="translate(2627.553 -282.29) rotate(82)">
      <g id="Group_88-12" data-name="Group 88" transform="matrix(0.545, -0.839, 0.839, 0.545, 620.503, 917.062)">
        <g id="Ellipse_6-8" data-name="Ellipse 6" class="cls-3" transform="translate(0.005 4.144)">
          <ellipse class="cls-13" cx="32.179" cy="18.284" rx="32.179" ry="18.284"/>
          <ellipse class="cls-14" cx="32.179" cy="18.284" rx="31.179" ry="17.284"/>
        </g>
        <g id="Ellipse_5-8" data-name="Ellipse 5" class="cls-3" transform="translate(0.005 0)">
          <ellipse class="cls-13" cx="32.179" cy="18.284" rx="32.179" ry="18.284"/>
          <ellipse class="cls-14" cx="32.179" cy="18.284" rx="31.179" ry="17.284"/>
        </g>
        <path id="Path_27-12" data-name="Path 27" class="cls-4" d="M1.245,0V4.171L0,1.851Z" transform="translate(63.119 18.284)"/>
        <path id="Path_28-12" data-name="Path 28" class="cls-4" d="M1.224,0V3.774L0,1.661Z" transform="translate(1.224 22.265) rotate(180)"/>
        <path id="Path_1-12" data-name="Path 1" class="cls-4" d="M10.462,18.31a3.64,3.64,0,0,0-1.585-2.16q1.35-1.594,1.187-5.412a10.858,10.858,0,0,0-.331-2.4A4.732,4.732,0,0,0,8.985,6.7a3.6,3.6,0,0,0-1.024-.944,4.108,4.108,0,0,0-1.268-.472V0H5.3V5.139q-.362,0-1.1.042V0H2.8V5.286q-.3.021-.879.021L0,5.286v3.44H1.005q.688,0,.806,1.426v6.02a.412.412,0,0,1,.145.021H1.812v8.431q-.072,1.069-.525,1.07H.281L0,29.533H1.812q.172,0,.5.01t.489.011V34.9h1.4V29.616q.38.021,1.1.021V34.9H6.694V29.553a5.034,5.034,0,0,0,1.318-.315,3.551,3.551,0,0,0,1.1-.724,4.091,4.091,0,0,0,.878-1.227,8.082,8.082,0,0,0,.584-1.867,16.845,16.845,0,0,0,.294-2.622A13.156,13.156,0,0,0,10.462,18.31ZM4.221,8.956q.063,0,.358-.011t.489-.021a2.313,2.313,0,0,1,.525.053,2.41,2.41,0,0,1,.557.168,2.121,2.121,0,0,1,.5.346,1.8,1.8,0,0,1,.435.587,4.065,4.065,0,0,1,.276.881,5.956,5.956,0,0,1,.113,1.227,6.457,6.457,0,0,1-.081,1.07,2.878,2.878,0,0,1-.244.808,4.258,4.258,0,0,1-.335.566,1.3,1.3,0,0,1-.439.388,5.077,5.077,0,0,1-.466.231,1.769,1.769,0,0,1-.5.115q-.3.031-.453.042a4.208,4.208,0,0,1-.421,0q-.267-.01-.313-.011V8.956h0ZM8.03,23.239a4.7,4.7,0,0,1-.222.839,2.271,2.271,0,0,1-.358.629,2.965,2.965,0,0,1-.43.44,2.134,2.134,0,0,1-.5.294A3.265,3.265,0,0,1,6,25.62a4.2,4.2,0,0,1-.53.084q-.308.031-.48.031c-.115,0-.26,0-.435-.011s-.287-.01-.335-.01v-7.09q.072,0,.43-.021c.239-.014.433-.021.584-.021a4.229,4.229,0,0,1,.625.063,2.545,2.545,0,0,1,.67.188,2.891,2.891,0,0,1,.593.388,2.05,2.05,0,0,1,.521.64,4.042,4.042,0,0,1,.335.965,5.973,5.973,0,0,1,.136,1.342A6.107,6.107,0,0,1,8.03,23.239Z" transform="translate(49.659 12.856) rotate(90)"/>
      </g>
    </g>
    <g id="Group_120" data-name="Group 120" class="cls-8" transform="matrix(0.978, 0.208, -0.208, 0.978, 918.911, -583.816)">
      <g id="Group_88-13" data-name="Group 88" transform="matrix(0.545, -0.839, 0.839, 0.545, 620.503, 925.193)">
        <g id="Ellipse_6-9" data-name="Ellipse 6" class="cls-3" transform="translate(0.005 4.769)">
          <ellipse class="cls-13" cx="37.027" cy="21.038" rx="37.027" ry="21.038"/>
          <ellipse class="cls-14" cx="37.027" cy="21.038" rx="36.027" ry="20.038"/>
        </g>
        <g id="Ellipse_5-9" data-name="Ellipse 5" class="cls-3" transform="translate(0.005 0)">
          <ellipse class="cls-13" cx="37.027" cy="21.038" rx="37.027" ry="21.038"/>
          <ellipse class="cls-14" cx="37.027" cy="21.038" rx="36.027" ry="20.038"/>
        </g>
        <path id="Path_27-13" data-name="Path 27" class="cls-4" d="M1.432,0V4.8L0,2.129Z" transform="translate(72.626 21.038)"/>
        <path id="Path_28-13" data-name="Path 28" class="cls-4" d="M1.408,0V4.343L0,1.912Z" transform="translate(1.408 25.619) rotate(180)"/>
        <path id="Path_1-13" data-name="Path 1" class="cls-4" d="M12.038,21.068a4.188,4.188,0,0,0-1.824-2.485q1.553-1.834,1.365-6.227A12.494,12.494,0,0,0,11.2,9.593a5.445,5.445,0,0,0-.86-1.882A4.138,4.138,0,0,0,9.161,6.625,4.727,4.727,0,0,0,7.7,6.082V0H6.1V5.913q-.417,0-1.271.048V0H3.22V6.082q-.344.024-1.011.024L0,6.082V10.04H1.157q.792,0,.928,1.641v6.927a.474.474,0,0,1,.167.024H2.084v9.7Q2,29.564,1.48,29.565H.323L0,33.981H2.085q.2,0,.573.011T3.221,34v6.154H4.826V34.077q.438.025,1.271.024v6.057H7.7V34a5.792,5.792,0,0,0,1.516-.362,4.086,4.086,0,0,0,1.266-.833A4.707,4.707,0,0,0,11.5,31.4a9.3,9.3,0,0,0,.672-2.148,19.382,19.382,0,0,0,.338-3.017A15.138,15.138,0,0,0,12.038,21.068ZM4.857,10.3q.073,0,.412-.012t.563-.024a2.661,2.661,0,0,1,.6.06,2.774,2.774,0,0,1,.641.193,2.44,2.44,0,0,1,.573.4,2.066,2.066,0,0,1,.5.676,4.678,4.678,0,0,1,.318,1.014,6.853,6.853,0,0,1,.13,1.412A7.43,7.43,0,0,1,8.5,15.252a3.312,3.312,0,0,1-.281.929,4.9,4.9,0,0,1-.386.652,1.5,1.5,0,0,1-.505.446,5.841,5.841,0,0,1-.537.265,2.035,2.035,0,0,1-.573.133q-.344.036-.521.048a4.842,4.842,0,0,1-.485,0q-.308-.012-.36-.012V10.3h0ZM9.24,26.74a5.412,5.412,0,0,1-.255.966,2.613,2.613,0,0,1-.412.724,3.412,3.412,0,0,1-.495.507,2.455,2.455,0,0,1-.578.338,3.757,3.757,0,0,1-.594.205,4.833,4.833,0,0,1-.61.1q-.354.036-.552.036c-.132,0-.3,0-.5-.012s-.33-.012-.386-.012V21.43q.083,0,.5-.024c.275-.016.5-.024.672-.024a4.866,4.866,0,0,1,.719.072,2.928,2.928,0,0,1,.771.217,3.326,3.326,0,0,1,.683.447,2.359,2.359,0,0,1,.6.736,4.651,4.651,0,0,1,.386,1.11,6.873,6.873,0,0,1,.157,1.545A7.027,7.027,0,0,1,9.24,26.74Z" transform="translate(57.139 14.792) rotate(90)"/>
      </g>
    </g>
    <g id="Group_121" data-name="Group 121" class="cls-1" transform="matrix(0.891, -0.454, 0.454, 0.891, -575.629, 397.286)">
      <g id="Group_88-14" data-name="Group 88" transform="matrix(-0.545, -0.839, 0.839, -0.545, 664.624, 956.536)">
        <path id="Path_180" data-name="Path 180" class="cls-3" d="M37.74,47.232c20.843-1.457,38.4-12.621,39.207-24.935S61.517,1.181,40.674,2.638,2.277,15.258,1.467,27.573,16.9,48.689,37.74,47.232Z" transform="translate(1.476 1.186)"/>
        <path id="Path_181" data-name="Path 181" class="cls-3" d="M37.74,47.232c20.843-1.457,38.4-12.621,39.207-24.935S61.517,1.181,40.674,2.638,2.277,15.258,1.467,27.573,16.9,48.689,37.74,47.232Z" transform="translate(1.126 6.492)"/>
        <path id="Path_27-14" data-name="Path 27" class="cls-4" d="M1.5,5.34,1.852,0,.156,3.075Z" transform="translate(77.62 23.376)"/>
        <path id="Path_28-14" data-name="Path 28" class="cls-4" d="M1.475,4.833,1.793,0,.14,2.809Z" transform="translate(3.351 33.873) rotate(180)"/>
        <path id="Path_1-14" data-name="Path 1" class="cls-4" d="M11.853,21.8a3.662,3.662,0,0,1-1.848,2.47q1.862,2.035,1.975,6.623a11.79,11.79,0,0,1-.221,2.866,4.756,4.756,0,0,1-.819,1.909,3.693,3.693,0,0,1-1.231,1.052,4.846,4.846,0,0,1-1.584.462L8.57,43.55l-1.786-.118-.433-6.194q-.464-.031-1.418-.144l.436,6.245-1.786-.118-.445-6.371q-.385-.051-1.127-.1l-2.457-.136-.29-4.146,1.287.085q.881.058.912-1.651L.957,23.646a.532.532,0,0,0,.184-.013l-.186-.012L.245,13.458q-.183-1.3-.763-1.334l-1.287-.085-.683-4.65,2.32.153q.22.014.637.03t.625.028L.643,1.153l1.786.118.445,6.371q.485.006,1.413.068L3.844,1.364l1.786.118.451,6.447a7.459,7.459,0,0,1,1.714.49,5.489,5.489,0,0,1,1.47.965,6.007,6.007,0,0,1,1.228,1.553,10.62,10.62,0,0,1,.906,2.3,20.335,20.335,0,0,1,.6,3.185A14.519,14.519,0,0,1,11.853,21.8Zm-7.2,10.75q.081.005.459.043t.628.067a3.061,3.061,0,0,0,.668-.019,2.923,2.923,0,0,0,.7-.155,2.267,2.267,0,0,0,.609-.375,1.791,1.791,0,0,0,.507-.671A4.184,4.184,0,0,0,8.5,30.4a6.579,6.579,0,0,0,.042-1.469,7.671,7.671,0,0,0-.194-1.3,3.767,3.767,0,0,0-.381-.994,6.1,6.1,0,0,0-.477-.711,1.992,1.992,0,0,0-.6-.5q-.354-.2-.616-.317a2.617,2.617,0,0,0-.648-.181q-.385-.063-.583-.089T4.507,24.8q-.341-.01-.4-.014l.542,7.761h0Zm3.674-16.9a6.059,6.059,0,0,0-.355-1.031,3.233,3.233,0,0,0-.511-.788,4.508,4.508,0,0,0-.588-.567,3.3,3.3,0,0,0-.668-.4,4.94,4.94,0,0,0-.676-.258,6.1,6.1,0,0,0-.685-.146q-.4-.063-.617-.078c-.147-.01-.332-.017-.556-.024s-.366-.012-.428-.016l.6,8.546q.093.006.553.062t.75.074a5.594,5.594,0,0,0,.8-.023,3.111,3.111,0,0,0,.842-.17,3.118,3.118,0,0,0,.727-.418,2.053,2.053,0,0,0,.613-.727,4.129,4.129,0,0,0,.348-1.135,6.576,6.576,0,0,0,.061-1.607A7.269,7.269,0,0,0,8.323,15.651Z" transform="translate(17.953 36.905) rotate(-90)"/>
      </g>
    </g>
  </g>
</svg>
