<svg xmlns="http://www.w3.org/2000/svg" viewBox="1107.631 8790.854 263.857 241.332">
  <defs>
    <style>
      .cls-1, .cls-4 {
        fill: #fff;
      }

      .cls-1, .cls-6 {
        stroke: #475058;
        stroke-width: 6px;
      }

      .cls-2 {
        fill: #475058;
      }

      .cls-3 {
        fill: #465057;
      }

      .cls-5 {
        fill: #47bcdb;
      }

      .cls-6 {
        fill: #ddd;
      }

      .cls-7 {
        stroke: none;
      }

      .cls-8 {
        fill: none;
      }
    </style>
  </defs>
  <g id="Group_248" data-name="Group 248" transform="translate(-210 6821)">
    <g id="Group_179" data-name="Group 179" transform="translate(1317.631 2133.983) rotate(-90)">
      <g id="Ellipse_5" data-name="Ellipse 5" class="cls-1" transform="translate(0.018 0)">
        <ellipse class="cls-7" cx="82.055" cy="81.986" rx="82.055" ry="81.986"/>
        <ellipse class="cls-8" cx="82.055" cy="81.986" rx="79.055" ry="78.986"/>
      </g>
      <path id="Path_29" data-name="Path 29" class="cls-2" d="M9.447,5.644a58.586,58.586,0,0,0-5.854.3,3.451,3.451,0,0,1-.377.02A3.1,3.1,0,0,1,.022,3.466,2.932,2.932,0,0,1,2.846.336,64.841,64.841,0,0,1,9.505,0h.039l.042,2.822V0a2.975,2.975,0,0,1,3.152,2.822A3.108,3.108,0,0,1,9.447,5.644Z" transform="translate(145.542 72.425) rotate(90)"/>
      <path id="Path_30" data-name="Path 30" class="cls-2" d="M10.2,5.343A56.72,56.72,0,0,0,4.98,7.976a3.524,3.524,0,0,1-1.755.46,3.368,3.368,0,0,1-2.7-1.281,2.619,2.619,0,0,1,.94-3.906A62.849,62.849,0,0,1,7.3.3a3.442,3.442,0,0,1,4.325,1.25A2.67,2.67,0,0,1,10.2,5.343Z" transform="translate(140.398 48.665) rotate(90)"/>
      <path id="Path_31" data-name="Path 31" class="cls-2" d="M6.344,8.872a3.17,3.17,0,0,1-3.12,2.136,3.742,3.742,0,0,1-.786-.085A2.818,2.818,0,0,1,.1,7.5c.538-1.877,1.172-3.759,1.89-5.593A3.348,3.348,0,0,1,6.08.154a2.757,2.757,0,0,1,2,3.587C7.423,5.42,6.84,7.147,6.344,8.872Z" transform="translate(106.958 20.352) rotate(90)"/>
      <path id="Path_32" data-name="Path 32" class="cls-2" d="M5.717,1.037C7,2.415,8.358,3.747,9.772,5a2.58,2.58,0,0,1-.032,3.99,3.548,3.548,0,0,1-4.553-.023C3.634,7.588,2.133,6.12.723,4.6A2.59,2.59,0,0,1,1.19.634,3.537,3.537,0,0,1,5.717,1.037Z" transform="translate(43.452 34.223) rotate(90)"/>
      <path id="Path_33" data-name="Path 33" class="cls-2" d="M.555,5.719c1.246-1.611,2.592-3.189,4-4.69A3.543,3.543,0,0,1,9.088.642a2.6,2.6,0,0,1,.441,3.973c-1.282,1.366-2.508,2.8-3.642,4.27a3.362,3.362,0,0,1-2.669,1.239,3.546,3.546,0,0,1-1.8-.485A2.614,2.614,0,0,1,.555,5.719Z" transform="translate(126.427 30.666) rotate(90)"/>
      <path id="Path_34" data-name="Path 34" class="cls-2" d="M4.7.314A56.662,56.662,0,0,0,10.19,2.45a2.73,2.73,0,0,1,1.877,3.635A3.233,3.233,0,0,1,9.053,7.914a3.627,3.627,0,0,1-1.137-.183,64.134,64.134,0,0,1-6.166-2.4,2.665,2.665,0,0,1-1.394-3.8A3.451,3.451,0,0,1,4.7.314Z" transform="translate(29.366 53.818) rotate(90)"/>
      <path id="Path_35" data-name="Path 35" class="cls-2" d="M3.359.326a57.61,57.61,0,0,0,5.98-.31,3.15,3.15,0,0,1,3.581,2.469A2.932,2.932,0,0,1,10.1,5.623a65.453,65.453,0,0,1-6.749.35H3.082A2.912,2.912,0,0,1,0,3.151,3.176,3.176,0,0,1,3.359.326Z" transform="translate(24.383 78.514) rotate(90)"/>
      <path id="Path_36" data-name="Path 36" class="cls-2" d="M2.191.151a3.338,3.338,0,0,1,4.08,1.772c.65,1.688,1.391,3.367,2.2,5A2.7,2.7,0,0,1,6.8,10.633a3.579,3.579,0,0,1-1.282.234,3.268,3.268,0,0,1-2.956-1.7C1.686,7.4.881,5.564.172,3.724A2.749,2.749,0,0,1,2.191.151Z" transform="translate(62.989 22.035) rotate(90)"/>
      <path id="Path_37" data-name="Path 37" class="cls-2" d="M3.22,0A3.11,3.11,0,0,1,6.44,2.912c0,1.741.074,3.488.225,5.19A2.964,2.964,0,0,1,3.7,11.133c-.084.006-.171.008-.251.008a3.079,3.079,0,0,1-3.207-2.6C.081,6.691,0,4.8,0,2.912V2.732A2.97,2.97,0,0,1,3.22,0Z" transform="translate(84.89 18.005) rotate(90)"/>
      <path id="Path_38" data-name="Path 38" class="cls-2" d="M.248,8.348C.248,6.59.168,4.8.01,3.043A2.969,2.969,0,0,1,2.969.006,3.153,3.153,0,0,1,6.431,2.6c.171,1.908.258,3.844.258,5.749V8.4A3.016,3.016,0,0,1,3.468,11.2,3.059,3.059,0,0,1,.248,8.348Z" transform="translate(90.326 139.048) rotate(90)"/>
      <path id="Path_39" data-name="Path 39" class="cls-2" d="M1.9,2.142A3.276,3.276,0,0,1,5.8.085,2.82,2.82,0,0,1,8.15,3.505c-.535,1.88-1.169,3.762-1.884,5.6A3.218,3.218,0,0,1,3.22,11.012a3.683,3.683,0,0,1-1.04-.152A2.756,2.756,0,0,1,.174,7.275C.828,5.6,1.407,3.869,1.9,2.142Z" transform="translate(68.124 135.181) rotate(90)"/>
      <path id="Path_40" data-name="Path 40" class="cls-2" d="M9.053,7.9a3.583,3.583,0,0,1-1.459-.308,57.314,57.314,0,0,0-5.5-2.125A2.735,2.735,0,0,1,.2,1.835,3.358,3.358,0,0,1,4.349.182a64.271,64.271,0,0,1,6.17,2.385,2.665,2.665,0,0,1,1.407,3.8A3.3,3.3,0,0,1,9.053,7.9Z" transform="translate(142.546 97.521) rotate(90)"/>
      <path id="Path_41" data-name="Path 41" class="cls-2" d="M1.929.244A3.39,3.39,0,0,1,6.17,1.694c.882,1.767,1.694,3.6,2.409,5.444a2.762,2.762,0,0,1-2.016,3.581,3.635,3.635,0,0,1-1.034.15A3.221,3.221,0,0,1,2.479,8.953C1.826,7.259,1.082,5.58.27,3.963A2.7,2.7,0,0,1,1.929.244Z" transform="translate(111.952 132.914) rotate(90)"/>
      <path id="Path_42" data-name="Path 42" class="cls-2" d="M1.767,3.108A56.621,56.621,0,0,0,6.977.461a3.511,3.511,0,0,1,4.46.816,2.619,2.619,0,0,1-.931,3.906A63.722,63.722,0,0,1,4.678,8.14a3.55,3.55,0,0,1-1.452.3A3.3,3.3,0,0,1,.35,6.9,2.664,2.664,0,0,1,1.767,3.108Z" transform="translate(32.056 103.233) rotate(90)"/>
      <path id="Path_43" data-name="Path 43" class="cls-2" d="M4.361,1.243A3.513,3.513,0,0,1,8.833.484,2.617,2.617,0,0,1,9.7,4.4C8.434,6.038,7.095,7.618,5.71,9.1a3.41,3.41,0,0,1-2.492,1.033,3.483,3.483,0,0,1-2.038-.641A2.594,2.594,0,0,1,.729,5.518C1.984,4.172,3.208,2.733,4.361,1.243Z" transform="translate(47.755 122.909) rotate(90)"/>
      <path id="Path_44" data-name="Path 44" class="cls-2" d="M5.507.835C7.059,2.206,8.566,3.674,9.983,5.192a2.589,2.589,0,0,1-.457,3.971A3.5,3.5,0,0,1,7.491,9.8,3.4,3.4,0,0,1,5,8.765C3.71,7.385,2.345,6.056.935,4.811A2.58,2.58,0,0,1,.954.821,3.545,3.545,0,0,1,5.507.835Z" transform="translate(130.392 118.723) rotate(90)"/>
      <g id="Group_165" data-name="Group 165" transform="translate(114.777 49.595) rotate(90)">
        <g id="bottomleft" transform="translate(0 35.403)">
          <path id="Path_187" data-name="Path 187" class="cls-3" d="M30.2,27.753A2.443,2.443,0,0,1,27.753,30.2H2.443A2.443,2.443,0,0,1,0,27.753V2.443A2.443,2.443,0,0,1,2.443,0H30.2V27.753Z"/>
          <path id="Path_193" data-name="Path 193" class="cls-4" d="M8.655,0,0,5.394v12.5H17.312V9.149H8.655Z" transform="translate(6.443 6.255)"/>
        </g>
        <g id="bottomright" transform="translate(35.403 35.403)">
          <path id="Path_188" data-name="Path 188" class="cls-5" d="M27.753,0A2.443,2.443,0,0,1,30.2,2.443v25.31A2.443,2.443,0,0,1,27.753,30.2H2.443A2.442,2.442,0,0,1,0,27.754V0H27.753Z" transform="translate(0 0)"/>
          <path id="Path_194" data-name="Path 194" class="cls-4" d="M0,9.352v8.74H17.311V5.6L8.981,0,8.655.2V9.352Z" transform="translate(6.442 6.052)"/>
        </g>
        <g id="topleft" transform="translate(0)">
          <path id="Path_190" data-name="Path 190" class="cls-3" d="M2.443,30.2A2.443,2.443,0,0,1,0,27.753V2.444A2.443,2.443,0,0,1,2.443,0h25.31A2.442,2.442,0,0,1,30.2,2.443V30.2H2.443Z"/>
          <path id="Path_191" data-name="Path 191" class="cls-4" d="M17.311,9.749V5.6L8.981,0,0,5.6v12.5H8.655V9.749Z" transform="translate(6.443 5.351)"/>
        </g>
        <g id="topright" transform="translate(35.403)">
          <path id="Path_189" data-name="Path 189" class="cls-5" d="M0,2.443A2.443,2.443,0,0,1,2.443,0h25.31A2.443,2.443,0,0,1,30.2,2.444v25.31A2.442,2.442,0,0,1,27.754,30.2H0V2.443Z" transform="translate(0)"/>
          <path id="Path_192" data-name="Path 192" class="cls-4" d="M8.655,18.092h8.655V5.6L8.981,0,0,5.6V9.749H8.655Z" transform="translate(6.442 5.349)"/>
        </g>
      </g>
    </g>
    <g id="Group_180" data-name="Group 180" transform="translate(-36 -31)">
      <g id="Group_166" data-name="Group 166" transform="matrix(0.819, -0.574, 0.574, 0.819, 1416.813, 2154.223)">
        <g id="Ellipse_6" data-name="Ellipse 6" class="cls-6" transform="translate(0.012 10.932)">
          <ellipse class="cls-7" cx="84.884" cy="48.23" rx="84.884" ry="48.23"/>
          <ellipse class="cls-8" cx="84.884" cy="48.23" rx="81.884" ry="45.23"/>
        </g>
        <g id="Ellipse_5-2" data-name="Ellipse 5" class="cls-1" transform="translate(0.012 0)">
          <ellipse class="cls-7" cx="84.884" cy="48.23" rx="84.884" ry="48.23"/>
          <ellipse class="cls-8" cx="84.884" cy="48.23" rx="81.884" ry="45.23"/>
        </g>
        <path id="Path_27" data-name="Path 27" class="cls-2" d="M3.283,0V11L0,4.881Z" transform="translate(166.498 48.23)"/>
        <path id="Path_28" data-name="Path 28" class="cls-2" d="M3.227,0V9.956L0,4.382Z" transform="translate(3.227 58.732) rotate(180)"/>
        <path id="Path_29-2" data-name="Path 29" class="cls-2" d="M5.557,5.839a19.781,19.781,0,0,0-3.444.307,1.166,1.166,0,0,1-.222.02C.943,6.166.125,5.071.013,3.585-.108,1.985.636.534,1.674.347A21.9,21.9,0,0,1,5.592,0h.023l.025,2.919V0C6.686,0,7.493,1.3,7.493,2.919S6.6,5.839,5.557,5.839Z" transform="translate(150.554 42.605) rotate(90)"/>
        <path id="Path_30-2" data-name="Path 30" class="cls-2" d="M6,5.527A32.275,32.275,0,0,0,2.93,8.251,1.453,1.453,0,0,1,1.9,8.727,1.869,1.869,0,0,1,.308,7.4a3.972,3.972,0,0,1,.553-4.04A35.773,35.773,0,0,1,4.293.313C5.231-.413,6.368.167,6.837,1.607A3.79,3.79,0,0,1,6,5.527Z" transform="translate(145.233 28.628) rotate(90)"/>
        <path id="Path_31-2" data-name="Path 31" class="cls-2" d="M3.732,9.178c-.214,1.325-.987,2.21-1.836,2.21a1.3,1.3,0,0,1-.462-.088C.419,10.909-.2,9.324.057,7.759.373,5.817.747,3.87,1.169,1.973,1.51.449,2.586-.366,3.577.16S5.094,2.343,4.755,3.87C4.367,5.607,4.024,7.394,3.732,9.178Z" transform="translate(110.639 11.973) rotate(90)"/>
        <path id="Path_32-2" data-name="Path 32" class="cls-2" d="M3.363,1.073c.752,1.425,1.553,2.8,2.385,4.1A4.112,4.112,0,0,1,5.729,9.3a1.635,1.635,0,0,1-1.33.844,1.648,1.648,0,0,1-1.349-.867C2.138,7.849,1.255,6.331.425,4.763A4.078,4.078,0,0,1,.7.656C1.513-.36,2.7-.176,3.363,1.073Z" transform="translate(44.944 20.132) rotate(90)"/>
        <path id="Path_33-2" data-name="Path 33" class="cls-2" d="M.326,5.917c.733-1.667,1.525-3.3,2.353-4.852C3.346-.179,4.535-.36,5.346.665a4.094,4.094,0,0,1,.26,4.11c-.754,1.413-1.476,2.9-2.142,4.417a1.841,1.841,0,0,1-1.57,1.282,1.475,1.475,0,0,1-1.061-.5A4,4,0,0,1,.326,5.917Z" transform="translate(130.78 18.04) rotate(90)"/>
        <path id="Path_34-2" data-name="Path 34" class="cls-2" d="M2.763.325a27.3,27.3,0,0,0,3.232,2.21C6.974,3.1,7.468,4.786,7.1,6.3,6.814,7.466,6.093,8.187,5.326,8.187A1.325,1.325,0,0,1,4.657,8,30.88,30.88,0,0,1,1.029,5.518a3.8,3.8,0,0,1-.82-3.929C.687.156,1.829-.417,2.763.325Z" transform="translate(30.372 31.659) rotate(90)"/>
        <path id="Path_35-2" data-name="Path 35" class="cls-2" d="M1.976.337A19.462,19.462,0,0,0,5.493.016C6.562-.148,7.477.97,7.6,2.57S6.982,5.624,5.944,5.817a22.111,22.111,0,0,1-3.97.362H1.813C.765,6.179,0,4.871,0,3.259S.928.337,1.976.337Z" transform="translate(25.217 46.187) rotate(90)"/>
        <path id="Path_36-2" data-name="Path 36" class="cls-2" d="M1.289.157c.989-.523,2.067.307,2.4,1.833.383,1.746.818,3.483,1.294,5.167A3.668,3.668,0,0,1,4,11a1.337,1.337,0,0,1-.754.242c-.733,0-1.428-.657-1.739-1.755C.992,7.651.518,5.756.1,3.853-.236,2.329.3.673,1.289.157Z" transform="translate(65.155 12.963) rotate(90)"/>
        <path id="Path_37-2" data-name="Path 37" class="cls-2" d="M1.894,0C2.942,0,3.789,1.4,3.789,3.013c0,1.8.044,3.608.133,5.369.081,1.609-.7,3.013-1.743,3.135a1.278,1.278,0,0,1-.148.009c-.981,0-1.809-1.162-1.887-2.695C.047,6.922,0,4.963,0,3.013V2.826C0,1.212.847,0,1.894,0Z" transform="translate(87.81 10.592) rotate(90)"/>
        <path id="Path_38-2" data-name="Path 38" class="cls-2" d="M.146,8.636C.146,6.817.1,4.969.006,3.148-.076,1.539.7.135,1.747.007,2.771-.1,3.7,1.081,3.783,2.687c.1,1.974.152,3.976.152,5.947v.061c0,1.611-.847,2.887-1.894,2.887S.146,10.248.146,8.636Z" transform="translate(93.434 81.797) rotate(90)"/>
        <path id="Path_39-2" data-name="Path 39" class="cls-2" d="M1.118,2.216C1.372.651,2.4-.3,3.414.088S5.047,2.061,4.795,3.626C4.48,5.57,4.107,7.518,3.686,9.415c-.269,1.214-1,1.976-1.792,1.976a1.325,1.325,0,0,1-.612-.158C.294,10.711-.237,9.053.1,7.526.487,5.789.828,4,1.118,2.216Z" transform="translate(70.466 79.522) rotate(90)"/>
        <path id="Path_40-2" data-name="Path 40" class="cls-2" d="M5.326,8.172a1.383,1.383,0,0,1-.858-.318,27.5,27.5,0,0,0-3.237-2.2C.251,5.093-.245,3.408.12,1.9S1.573-.381,2.558.188A30.853,30.853,0,0,1,6.188,2.655a3.793,3.793,0,0,1,.828,3.927C6.68,7.592,6.015,8.172,5.326,8.172Z" transform="translate(147.454 57.368) rotate(90)"/>
        <path id="Path_41-2" data-name="Path 41" class="cls-2" d="M1.135.252c.964-.66,2.076.023,2.495,1.5.519,1.828,1,3.722,1.417,5.631.335,1.527-.2,3.185-1.186,3.7a1.306,1.306,0,0,1-.608.155c-.79,0-1.527-.768-1.794-1.982C1.074,7.51.636,5.772.159,4.1A3.68,3.68,0,0,1,1.135.252Z" transform="translate(115.805 78.189) rotate(90)"/>
        <path id="Path_42-2" data-name="Path 42" class="cls-2" d="M1.039,3.215A32.371,32.371,0,0,0,4.1.477c.875-.885,2.048-.5,2.624.844a3.975,3.975,0,0,1-.547,4.04,36.4,36.4,0,0,1-3.429,3.06,1.369,1.369,0,0,1-.854.315c-.691,0-1.358-.584-1.692-1.6A3.785,3.785,0,0,1,1.039,3.215Z" transform="translate(33.155 60.728) rotate(90)"/>
        <path id="Path_43-2" data-name="Path 43" class="cls-2" d="M2.565,1.286C3.153-.051,4.329-.4,5.2.5A4,4,0,0,1,5.7,4.556c-.743,1.69-1.531,3.325-2.345,4.858a1.742,1.742,0,0,1-1.466,1.068,1.543,1.543,0,0,1-1.2-.663A4.089,4.089,0,0,1,.429,5.709C1.167,4.316,1.887,2.827,2.565,1.286Z" transform="translate(49.395 72.303) rotate(90)"/>
        <path id="Path_44-2" data-name="Path 44" class="cls-2" d="M3.24.863c.913,1.419,1.8,2.937,2.633,4.508A4.078,4.078,0,0,1,5.6,9.479a1.547,1.547,0,0,1-1.2.66A1.741,1.741,0,0,1,2.938,9.067C2.183,7.639,1.38,6.264.55,4.977A4.112,4.112,0,0,1,.561.849,1.476,1.476,0,0,1,3.24.863Z" transform="translate(134.882 69.84) rotate(90)"/>
        <rect id="Rectangle_23" data-name="Rectangle 23" class="cls-2" width="3.858" height="10.932" transform="translate(156.92 69.451)"/>
        <rect id="Rectangle_24" data-name="Rectangle 24" class="cls-2" width="3.858" height="10.932" transform="translate(146.631 77.811)"/>
        <rect id="Rectangle_25" data-name="Rectangle 25" class="cls-2" width="3.858" height="10.932" transform="translate(136.342 84.241)"/>
        <rect id="Rectangle_26" data-name="Rectangle 26" class="cls-2" width="3.858" height="10.932" transform="translate(126.053 87.457)"/>
      </g>
      <g id="Group_167" data-name="Group 167" transform="matrix(0.574, 0.819, -0.819, 0.574, 1528.528, 2109.658)">
        <g id="bottomleft-2" data-name="bottomleft" transform="translate(0 34.832)">
          <path id="Path_187-2" data-name="Path 187" class="cls-3" d="M17.788,27.306c0,1.328-.644,2.4-1.439,2.4H1.439C.644,29.709,0,28.633,0,27.306V2.4C0,1.076.644,0,1.439,0H17.788V27.306Z"/>
          <path id="Path_193-2" data-name="Path 193" class="cls-4" d="M5.1,0,0,5.307V17.6H10.2V9H5.1Z" transform="translate(3.795 6.154)"/>
        </g>
        <g id="bottomright-2" data-name="bottomright" transform="translate(20.855 34.832)">
          <path id="Path_188-2" data-name="Path 188" class="cls-5" d="M16.349,0c.795,0,1.439,1.076,1.439,2.4v24.9c0,1.328-.645,2.4-1.44,2.4H1.439c-.8,0-1.439-1.076-1.439-2.4V0H16.349Z" transform="translate(0 0)"/>
          <path id="Path_194-2" data-name="Path 194" class="cls-4" d="M0,9.2v8.6H10.2V5.506L5.291,0,5.1.2v9Z" transform="translate(3.795 5.954)"/>
        </g>
        <g id="topleft-2" data-name="topleft" transform="translate(0 0)">
          <path id="Path_190-2" data-name="Path 190" class="cls-3" d="M1.439,29.709C.644,29.709,0,28.633,0,27.306V2.4C0,1.076.644,0,1.439,0h14.91c.8,0,1.439,1.076,1.439,2.4V29.709H1.439Z"/>
          <path id="Path_191-2" data-name="Path 191" class="cls-4" d="M10.2,9.592V5.507L5.291,0,0,5.507V17.8H5.1V9.592Z" transform="translate(3.795 5.264)"/>
        </g>
        <g id="topright-2" data-name="topright" transform="translate(20.855 0)">
          <path id="Path_189-2" data-name="Path 189" class="cls-5" d="M0,2.4C0,1.076.644,0,1.439,0h14.91c.8,0,1.44,1.077,1.439,2.4v24.9c0,1.328-.644,2.4-1.439,2.4H0V2.4Z" transform="translate(0 0)"/>
          <path id="Path_192-2" data-name="Path 192" class="cls-4" d="M5.1,17.8h5.1V5.507L5.291,0,0,5.507V9.592H5.1Z" transform="translate(3.795 5.263)"/>
        </g>
      </g>
    </g>
  </g>
</svg>
