<svg xmlns="http://www.w3.org/2000/svg" viewBox="871.881 3159.033 78.086 78.086">
  <defs>
    <style>
      .cls-1 {
        fill: #48bddb;
      }

      .cls-2 {
        fill: #475058;
        stroke: #eff7fb;
      }
    </style>
  </defs>
  <g id="Group_72" data-name="Group 72" transform="translate(872.381 3159.533)">
    <circle id="Ellipse_20" data-name="Ellipse 20" class="cls-1" cx="16" cy="16" r="16" transform="translate(22.619 22.467)"/>
    <path id="Path_130" data-name="Path 130" class="cls-2" d="M202.4,147.866a38.543,38.543,0,1,0,0,54.534A38.605,38.605,0,0,0,202.4,147.866Zm3.991,23.725h-9.876a21.43,21.43,0,0,0-3.758-9.074l6.995-6.995A31.323,31.323,0,0,1,206.391,171.591Zm-27.717-27.716a31.324,31.324,0,0,1,16.069,6.639l-6.995,6.995a21.422,21.422,0,0,0-9.074-3.758Zm-7.082,0v9.876a21.426,21.426,0,0,0-9.074,3.758l-6.995-6.995A31.323,31.323,0,0,1,171.592,143.875Zm-21.077,11.648,6.995,6.995a21.426,21.426,0,0,0-3.758,9.074h-9.876A31.322,31.322,0,0,1,150.515,155.523Zm-6.639,23.151h9.876a21.426,21.426,0,0,0,3.758,9.074l-6.995,6.995A31.32,31.32,0,0,1,143.875,178.674Zm27.716,27.717a31.324,31.324,0,0,1-16.069-6.64l6.995-6.995a21.426,21.426,0,0,0,9.074,3.758Zm-6.776-20.941a14.591,14.591,0,1,1,10.318,4.274A14.494,14.494,0,0,1,164.815,185.45Zm13.859,20.941v-9.876a21.426,21.426,0,0,0,9.074-3.758l6.995,6.995A31.32,31.32,0,0,1,178.674,206.391Zm21.077-11.649-6.995-6.995a21.421,21.421,0,0,0,3.758-9.074h9.876A31.317,31.317,0,0,1,199.751,194.742Z" transform="translate(-136.59 -136.59)"/>
  </g>
</svg>
