<svg xmlns="http://www.w3.org/2000/svg" viewBox="616 4856 129 129">
  <defs>
    <style>
      .cls-1 {
        fill: #fff;
      }

      .cls-2 {
        fill: #475058;
      }

      .cls-3 {
        fill: #48bddb;
        stroke: #475058;
        stroke-width: 3px;
      }
    </style>
  </defs>
  <g id="Group_94" data-name="Group 94" transform="translate(42 -240)">
    <g id="linkedin" transform="translate(574 5096)">
      <circle id="Ellipse_17" data-name="Ellipse 17" class="cls-1" cx="62.463" cy="62.463" r="62.463" transform="translate(2.037 2.037)"/>
      <path id="Path_111" data-name="Path 111" class="cls-2" d="M110.108,18.892a64.5,64.5,0,1,0-91.217,91.216,64.5,64.5,0,1,0,91.217-91.216ZM64.5,124.926A60.426,60.426,0,1,1,124.926,64.5,60.495,60.495,0,0,1,64.5,124.926Z"/>
    </g>
    <path id="Path_169" data-name="Path 169" class="cls-3" d="M133.9,115.352a4.318,4.318,0,0,0-5.962,1.31,22.535,22.535,0,1,1-.31-24.719,4.316,4.316,0,0,0,7.153-4.833,31.167,31.167,0,1,0,.43,34.2A4.317,4.317,0,0,0,133.9,115.352Z" transform="translate(531.733 5056.129)"/>
  </g>
</svg>
