<svg xmlns="http://www.w3.org/2000/svg" viewBox="655.76 9613.487 1011.623 1160.924">
  <defs>
    <style>
      .cls-1 {
        fill: #fff;
      }

      .cls-2 {
        fill: #475058;
      }

      .cls-3 {
        fill: #2ecc71;
      }

      .cls-4 {
        fill: #b2b2b2;
      }

      .cls-5 {
        fill: #9d9d9d;
      }

      .cls-6 {
        fill: #646464;
      }
    </style>
  </defs>
  <g id="Group_303" data-name="Group 303" transform="translate(-2473 8162)">
    <path id="Path_216" data-name="Path 216" class="cls-1" d="M12.711.5H218.889L241.324,46v17.75s-57.634-1.68-72.376,0C121.4,69.164,57.7,66.764,29.909,66.575-22.831,66.216-12.681,46-12.681,46Z" transform="translate(3891.443 1871.223)"/>
    <g id="laptop" transform="translate(3873.226 1722.712)">
      <g id="Group_182" data-name="Group 182" transform="translate(26.62 0)">
        <g id="Group_181" data-name="Group 181" transform="translate(0 0)">
          <rect id="Rectangle_139" data-name="Rectangle 139" class="cls-1" width="202.43" height="144.326" transform="translate(5.245 5.623)"/>
          <path id="Path_204" data-name="Path 204" class="cls-2" d="M253.305,47.354H61.991A10.793,10.793,0,0,0,51.209,58.136V196.569a4.157,4.157,0,0,0,4.158,4.158H259.926a4.157,4.157,0,0,0,4.158-4.158V58.136A10.793,10.793,0,0,0,253.305,47.354Zm2.461,145.056H59.525V58.135a2.468,2.468,0,0,1,2.466-2.466H253.305a2.467,2.467,0,0,1,2.461,2.466Z" transform="translate(-51.209 -47.354)"/>
          <rect id="Rectangle_140" data-name="Rectangle 140" class="cls-2" width="168.691" height="108.713" transform="translate(22.114 22.492)"/>
        </g>
      </g>
      <g id="Group_184" data-name="Group 184" transform="translate(43.257 16.632)">
        <g id="Group_183" data-name="Group 183" transform="translate(0 0)">
          <path id="Path_205" data-name="Path 205" class="cls-2" d="M258.659,79.349H87.37a4.16,4.16,0,0,0-4.158,4.158V195.3a4.157,4.157,0,0,0,4.158,4.158H258.659a4.157,4.157,0,0,0,4.158-4.158V83.507A4.157,4.157,0,0,0,258.659,79.349ZM254.5,191.14H91.528V87.665H254.5Z" transform="translate(-83.212 -79.349)"/>
        </g>
      </g>
      <g id="Group_186" data-name="Group 186" transform="translate(0.001 145.056)">
        <g id="Group_185" data-name="Group 185">
          <path id="Path_206" data-name="Path 206" class="cls-2" d="M265.566,374.837l-26.624-46.355a4.156,4.156,0,0,0-3.605-2.087H30.779a4.152,4.152,0,0,0-3.605,2.087L.554,374.837a4.159,4.159,0,0,0,3.605,6.229h257.8a4.159,4.159,0,0,0,3.605-6.229ZM11.344,372.749l21.843-38.039H232.929l21.851,38.039Z" transform="translate(-0.001 -326.395)"/>
        </g>
      </g>
      <g id="Group_188" data-name="Group 188" transform="translate(101.313 176.184)">
        <g id="Group_187" data-name="Group 187">
          <path id="Path_207" data-name="Path 207" class="cls-2" d="M249.58,386.274H203.7l-.709.839-8.1,9.589h63.49Z" transform="translate(-194.893 -386.274)"/>
        </g>
      </g>
      <g id="Group_190" data-name="Group 190" transform="translate(0 191.411)">
        <g id="Group_189" data-name="Group 189" transform="translate(0 0)">
          <path id="Path_208" data-name="Path 208" class="cls-2" d="M266.136,421.017l-.017-1.294a4.155,4.155,0,0,0-4.158-4.158H4.158A4.157,4.157,0,0,0,0,419.723c0,7.285,3.26,17.165,12.45,21.032a4.146,4.146,0,0,0,1.614.324H256.285a4.193,4.193,0,0,0,2.291-.686C266.389,435.242,266.223,425.986,266.136,421.017Zm-11.252,11.747H14.978c-3.8-1.95-5.431-5.846-6.129-8.882H257.82C257.728,427.475,257.158,430.7,254.884,432.763Z" transform="translate(0 -415.565)"/>
        </g>
      </g>
    </g>
    <path id="Path_216-2" data-name="Path 216" class="cls-1" d="M12.711.5H218.889L241.324,46v17.75s-57.634-1.68-72.376,0C121.4,69.164,57.7,66.764,29.909,66.575-22.831,66.216-12.681,46-12.681,46Z" transform="translate(3147.977 1871.223)"/>
    <g id="laptop-2" data-name="laptop" transform="translate(3129.76 1722.712)">
      <g id="Group_182-2" data-name="Group 182" transform="translate(26.62 0)">
        <g id="Group_181-2" data-name="Group 181" transform="translate(0 0)">
          <rect id="Rectangle_139-2" data-name="Rectangle 139" class="cls-1" width="202.43" height="144.326" transform="translate(5.245 5.623)"/>
          <path id="Path_204-2" data-name="Path 204" class="cls-2" d="M253.305,47.354H61.991A10.793,10.793,0,0,0,51.209,58.136V196.569a4.157,4.157,0,0,0,4.158,4.158H259.926a4.157,4.157,0,0,0,4.158-4.158V58.136A10.793,10.793,0,0,0,253.305,47.354Zm2.461,145.056H59.525V58.135a2.468,2.468,0,0,1,2.466-2.466H253.305a2.467,2.467,0,0,1,2.461,2.466Z" transform="translate(-51.209 -47.354)"/>
          <rect id="Rectangle_140-2" data-name="Rectangle 140" class="cls-2" width="168.691" height="108.713" transform="translate(22.114 22.492)"/>
        </g>
      </g>
      <g id="Group_184-2" data-name="Group 184" transform="translate(43.257 16.632)">
        <g id="Group_183-2" data-name="Group 183" transform="translate(0 0)">
          <path id="Path_205-2" data-name="Path 205" class="cls-2" d="M258.659,79.349H87.37a4.16,4.16,0,0,0-4.158,4.158V195.3a4.157,4.157,0,0,0,4.158,4.158H258.659a4.157,4.157,0,0,0,4.158-4.158V83.507A4.157,4.157,0,0,0,258.659,79.349ZM254.5,191.14H91.528V87.665H254.5Z" transform="translate(-83.212 -79.349)"/>
        </g>
      </g>
      <g id="Group_186-2" data-name="Group 186" transform="translate(0.001 145.056)">
        <g id="Group_185-2" data-name="Group 185">
          <path id="Path_206-2" data-name="Path 206" class="cls-2" d="M265.566,374.837l-26.624-46.355a4.156,4.156,0,0,0-3.605-2.087H30.779a4.152,4.152,0,0,0-3.605,2.087L.554,374.837a4.159,4.159,0,0,0,3.605,6.229h257.8a4.159,4.159,0,0,0,3.605-6.229ZM11.344,372.749l21.843-38.039H232.929l21.851,38.039Z" transform="translate(-0.001 -326.395)"/>
        </g>
      </g>
      <g id="Group_188-2" data-name="Group 188" transform="translate(101.313 176.184)">
        <g id="Group_187-2" data-name="Group 187">
          <path id="Path_207-2" data-name="Path 207" class="cls-2" d="M249.58,386.274H203.7l-.709.839-8.1,9.589h63.49Z" transform="translate(-194.893 -386.274)"/>
        </g>
      </g>
      <g id="Group_190-2" data-name="Group 190" transform="translate(0 191.411)">
        <g id="Group_189-2" data-name="Group 189" transform="translate(0 0)">
          <path id="Path_208-2" data-name="Path 208" class="cls-2" d="M266.136,421.017l-.017-1.294a4.155,4.155,0,0,0-4.158-4.158H4.158A4.157,4.157,0,0,0,0,419.723c0,7.285,3.26,17.165,12.45,21.032a4.146,4.146,0,0,0,1.614.324H256.285a4.193,4.193,0,0,0,2.291-.686C266.389,435.242,266.223,425.986,266.136,421.017Zm-11.252,11.747H14.978c-3.8-1.95-5.431-5.846-6.129-8.882H257.82C257.728,427.475,257.158,430.7,254.884,432.763Z" transform="translate(0 -415.565)"/>
        </g>
      </g>
    </g>
    <g id="check" transform="translate(3274.067 1778.351)">
      <ellipse id="Ellipse_75" data-name="Ellipse 75" class="cls-1" cx="23.084" cy="23.084" rx="23.084" ry="23.084" transform="translate(0 0)"/>
      <path id="Path_203" data-name="Path 203" class="cls-3" d="M30.347,60.529,13.854,77.02a3.129,3.129,0,0,1-4.425,0L.916,68.506A3.129,3.129,0,0,1,5.34,64.081l6.3,6.3L25.922,56.1a3.129,3.129,0,0,1,4.425,4.425Z" transform="translate(7.875 -42.895)"/>
    </g>
    <path id="Path_216-3" data-name="Path 216" class="cls-1" d="M12.711.5H218.889L241.324,46v17.75s-57.634-1.68-72.376,0C121.4,69.164,57.7,66.764,29.909,66.575-22.831,66.216-12.681,46-12.681,46Z" transform="translate(3146.977 2286.998)"/>
    <path id="Path_287" data-name="Path 287" class="cls-1" d="M12.711.5H218.889L241.324,46v17.75s-57.634-1.68-72.376,0C121.4,69.164,57.7,66.764,29.909,66.575-22.831,66.216-12.681,46-12.681,46Z" transform="translate(3524.977 2543.998)"/>
    <path id="Path_288" data-name="Path 288" class="cls-1" d="M12.711.5H218.889L241.324,46v17.75s-57.634-1.68-72.376,0C121.4,69.164,57.7,66.764,29.909,66.575-22.831,66.216-12.681,46-12.681,46Z" transform="translate(3524.977 1599.998)"/>
    <g id="laptop-3" data-name="laptop" transform="translate(3128.76 2138.487)">
      <g id="Group_182-3" data-name="Group 182" transform="translate(26.62 0)">
        <g id="Group_181-3" data-name="Group 181" transform="translate(0 0)">
          <rect id="Rectangle_139-3" data-name="Rectangle 139" class="cls-1" width="202.43" height="144.326" transform="translate(5.245 5.623)"/>
          <path id="Path_204-3" data-name="Path 204" class="cls-2" d="M253.305,47.354H61.991A10.793,10.793,0,0,0,51.209,58.136V196.569a4.157,4.157,0,0,0,4.158,4.158H259.926a4.157,4.157,0,0,0,4.158-4.158V58.136A10.793,10.793,0,0,0,253.305,47.354Zm2.461,145.056H59.525V58.135a2.468,2.468,0,0,1,2.466-2.466H253.305a2.467,2.467,0,0,1,2.461,2.466Z" transform="translate(-51.209 -47.354)"/>
          <rect id="Rectangle_140-3" data-name="Rectangle 140" class="cls-2" width="168.691" height="108.713" transform="translate(22.114 22.492)"/>
        </g>
      </g>
      <g id="Group_184-3" data-name="Group 184" transform="translate(43.257 16.632)">
        <g id="Group_183-3" data-name="Group 183" transform="translate(0 0)">
          <path id="Path_205-3" data-name="Path 205" class="cls-2" d="M258.659,79.349H87.37a4.16,4.16,0,0,0-4.158,4.158V195.3a4.157,4.157,0,0,0,4.158,4.158H258.659a4.157,4.157,0,0,0,4.158-4.158V83.507A4.157,4.157,0,0,0,258.659,79.349ZM254.5,191.14H91.528V87.665H254.5Z" transform="translate(-83.212 -79.349)"/>
        </g>
      </g>
      <g id="Group_186-3" data-name="Group 186" transform="translate(0.001 145.056)">
        <g id="Group_185-3" data-name="Group 185">
          <path id="Path_206-3" data-name="Path 206" class="cls-2" d="M265.566,374.837l-26.624-46.355a4.156,4.156,0,0,0-3.605-2.087H30.779a4.152,4.152,0,0,0-3.605,2.087L.554,374.837a4.159,4.159,0,0,0,3.605,6.229h257.8a4.159,4.159,0,0,0,3.605-6.229ZM11.344,372.749l21.843-38.039H232.929l21.851,38.039Z" transform="translate(-0.001 -326.395)"/>
        </g>
      </g>
      <g id="Group_188-3" data-name="Group 188" transform="translate(101.313 176.184)">
        <g id="Group_187-3" data-name="Group 187">
          <path id="Path_207-3" data-name="Path 207" class="cls-2" d="M249.58,386.274H203.7l-.709.839-8.1,9.589h63.49Z" transform="translate(-194.893 -386.274)"/>
        </g>
      </g>
      <g id="Group_190-3" data-name="Group 190" transform="translate(0 191.411)">
        <g id="Group_189-3" data-name="Group 189" transform="translate(0 0)">
          <path id="Path_208-3" data-name="Path 208" class="cls-2" d="M266.136,421.017l-.017-1.294a4.155,4.155,0,0,0-4.158-4.158H4.158A4.157,4.157,0,0,0,0,419.723c0,7.285,3.26,17.165,12.45,21.032a4.146,4.146,0,0,0,1.614.324H256.285a4.193,4.193,0,0,0,2.291-.686C266.389,435.242,266.223,425.986,266.136,421.017Zm-11.252,11.747H14.978c-3.8-1.95-5.431-5.846-6.129-8.882H257.82C257.728,427.475,257.158,430.7,254.884,432.763Z" transform="translate(0 -415.565)"/>
        </g>
      </g>
    </g>
    <g id="laptop-4" data-name="laptop" transform="translate(3506.76 2395.487)">
      <g id="Group_182-4" data-name="Group 182" transform="translate(26.62 0)">
        <g id="Group_181-4" data-name="Group 181" transform="translate(0 0)">
          <rect id="Rectangle_139-4" data-name="Rectangle 139" class="cls-1" width="202.43" height="144.326" transform="translate(5.245 5.623)"/>
          <path id="Path_204-4" data-name="Path 204" class="cls-2" d="M253.305,47.354H61.991A10.793,10.793,0,0,0,51.209,58.136V196.569a4.157,4.157,0,0,0,4.158,4.158H259.926a4.157,4.157,0,0,0,4.158-4.158V58.136A10.793,10.793,0,0,0,253.305,47.354Zm2.461,145.056H59.525V58.135a2.468,2.468,0,0,1,2.466-2.466H253.305a2.467,2.467,0,0,1,2.461,2.466Z" transform="translate(-51.209 -47.354)"/>
          <rect id="Rectangle_140-4" data-name="Rectangle 140" class="cls-2" width="168.691" height="108.713" transform="translate(22.114 22.492)"/>
        </g>
      </g>
      <g id="Group_184-4" data-name="Group 184" transform="translate(43.257 16.632)">
        <g id="Group_183-4" data-name="Group 183" transform="translate(0 0)">
          <path id="Path_205-4" data-name="Path 205" class="cls-2" d="M258.659,79.349H87.37a4.16,4.16,0,0,0-4.158,4.158V195.3a4.157,4.157,0,0,0,4.158,4.158H258.659a4.157,4.157,0,0,0,4.158-4.158V83.507A4.157,4.157,0,0,0,258.659,79.349ZM254.5,191.14H91.528V87.665H254.5Z" transform="translate(-83.212 -79.349)"/>
        </g>
      </g>
      <g id="Group_186-4" data-name="Group 186" transform="translate(0.001 145.056)">
        <g id="Group_185-4" data-name="Group 185">
          <path id="Path_206-4" data-name="Path 206" class="cls-2" d="M265.566,374.837l-26.624-46.355a4.156,4.156,0,0,0-3.605-2.087H30.779a4.152,4.152,0,0,0-3.605,2.087L.554,374.837a4.159,4.159,0,0,0,3.605,6.229h257.8a4.159,4.159,0,0,0,3.605-6.229ZM11.344,372.749l21.843-38.039H232.929l21.851,38.039Z" transform="translate(-0.001 -326.395)"/>
        </g>
      </g>
      <g id="Group_188-4" data-name="Group 188" transform="translate(101.313 176.184)">
        <g id="Group_187-4" data-name="Group 187">
          <path id="Path_207-4" data-name="Path 207" class="cls-2" d="M249.58,386.274H203.7l-.709.839-8.1,9.589h63.49Z" transform="translate(-194.893 -386.274)"/>
        </g>
      </g>
      <g id="Group_190-4" data-name="Group 190" transform="translate(0 191.411)">
        <g id="Group_189-4" data-name="Group 189" transform="translate(0 0)">
          <path id="Path_208-4" data-name="Path 208" class="cls-2" d="M266.136,421.017l-.017-1.294a4.155,4.155,0,0,0-4.158-4.158H4.158A4.157,4.157,0,0,0,0,419.723c0,7.285,3.26,17.165,12.45,21.032a4.146,4.146,0,0,0,1.614.324H256.285a4.193,4.193,0,0,0,2.291-.686C266.389,435.242,266.223,425.986,266.136,421.017Zm-11.252,11.747H14.978c-3.8-1.95-5.431-5.846-6.129-8.882H257.82C257.728,427.475,257.158,430.7,254.884,432.763Z" transform="translate(0 -415.565)"/>
        </g>
      </g>
    </g>
    <g id="laptop-5" data-name="laptop" transform="translate(3506.76 1451.487)">
      <g id="Group_182-5" data-name="Group 182" transform="translate(26.62 0)">
        <g id="Group_181-5" data-name="Group 181" transform="translate(0 0)">
          <rect id="Rectangle_139-5" data-name="Rectangle 139" class="cls-1" width="202.43" height="144.326" transform="translate(5.245 5.623)"/>
          <path id="Path_204-5" data-name="Path 204" class="cls-2" d="M253.305,47.354H61.991A10.793,10.793,0,0,0,51.209,58.136V196.569a4.157,4.157,0,0,0,4.158,4.158H259.926a4.157,4.157,0,0,0,4.158-4.158V58.136A10.793,10.793,0,0,0,253.305,47.354Zm2.461,145.056H59.525V58.135a2.468,2.468,0,0,1,2.466-2.466H253.305a2.467,2.467,0,0,1,2.461,2.466Z" transform="translate(-51.209 -47.354)"/>
          <rect id="Rectangle_140-5" data-name="Rectangle 140" class="cls-2" width="168.691" height="108.713" transform="translate(22.114 22.492)"/>
        </g>
      </g>
      <g id="Group_184-5" data-name="Group 184" transform="translate(43.257 16.632)">
        <g id="Group_183-5" data-name="Group 183" transform="translate(0 0)">
          <path id="Path_205-5" data-name="Path 205" class="cls-2" d="M258.659,79.349H87.37a4.16,4.16,0,0,0-4.158,4.158V195.3a4.157,4.157,0,0,0,4.158,4.158H258.659a4.157,4.157,0,0,0,4.158-4.158V83.507A4.157,4.157,0,0,0,258.659,79.349ZM254.5,191.14H91.528V87.665H254.5Z" transform="translate(-83.212 -79.349)"/>
        </g>
      </g>
      <g id="Group_186-5" data-name="Group 186" transform="translate(0.001 145.056)">
        <g id="Group_185-5" data-name="Group 185">
          <path id="Path_206-5" data-name="Path 206" class="cls-2" d="M265.566,374.837l-26.624-46.355a4.156,4.156,0,0,0-3.605-2.087H30.779a4.152,4.152,0,0,0-3.605,2.087L.554,374.837a4.159,4.159,0,0,0,3.605,6.229h257.8a4.159,4.159,0,0,0,3.605-6.229ZM11.344,372.749l21.843-38.039H232.929l21.851,38.039Z" transform="translate(-0.001 -326.395)"/>
        </g>
      </g>
      <g id="Group_188-5" data-name="Group 188" transform="translate(101.313 176.184)">
        <g id="Group_187-5" data-name="Group 187">
          <path id="Path_207-5" data-name="Path 207" class="cls-2" d="M249.58,386.274H203.7l-.709.839-8.1,9.589h63.49Z" transform="translate(-194.893 -386.274)"/>
        </g>
      </g>
      <g id="Group_190-5" data-name="Group 190" transform="translate(0 191.411)">
        <g id="Group_189-5" data-name="Group 189" transform="translate(0 0)">
          <path id="Path_208-5" data-name="Path 208" class="cls-2" d="M266.136,421.017l-.017-1.294a4.155,4.155,0,0,0-4.158-4.158H4.158A4.157,4.157,0,0,0,0,419.723c0,7.285,3.26,17.165,12.45,21.032a4.146,4.146,0,0,0,1.614.324H256.285a4.193,4.193,0,0,0,2.291-.686C266.389,435.242,266.223,425.986,266.136,421.017Zm-11.252,11.747H14.978c-3.8-1.95-5.431-5.846-6.129-8.882H257.82C257.728,427.475,257.158,430.7,254.884,432.763Z" transform="translate(0 -415.565)"/>
        </g>
      </g>
    </g>
    <path id="Path_216-4" data-name="Path 216" class="cls-1" d="M12.711.5H218.889L241.324,46v17.75s-57.634-1.68-72.376,0C121.4,69.164,57.7,66.764,29.909,66.575-22.831,66.216-12.681,46-12.681,46Z" transform="translate(3892.443 2286.998)"/>
    <g id="laptop-6" data-name="laptop" transform="translate(3874.226 2138.487)">
      <g id="Group_182-6" data-name="Group 182" transform="translate(26.62 0)">
        <g id="Group_181-6" data-name="Group 181" transform="translate(0 0)">
          <rect id="Rectangle_139-6" data-name="Rectangle 139" class="cls-1" width="202.43" height="144.326" transform="translate(5.245 5.623)"/>
          <path id="Path_204-6" data-name="Path 204" class="cls-2" d="M253.305,47.354H61.991A10.793,10.793,0,0,0,51.209,58.136V196.569a4.157,4.157,0,0,0,4.158,4.158H259.926a4.157,4.157,0,0,0,4.158-4.158V58.136A10.793,10.793,0,0,0,253.305,47.354Zm2.461,145.056H59.525V58.135a2.468,2.468,0,0,1,2.466-2.466H253.305a2.467,2.467,0,0,1,2.461,2.466Z" transform="translate(-51.209 -47.354)"/>
          <rect id="Rectangle_140-6" data-name="Rectangle 140" class="cls-2" width="168.691" height="108.713" transform="translate(22.114 22.492)"/>
        </g>
      </g>
      <g id="Group_184-6" data-name="Group 184" transform="translate(43.257 16.632)">
        <g id="Group_183-6" data-name="Group 183" transform="translate(0 0)">
          <path id="Path_205-6" data-name="Path 205" class="cls-2" d="M258.659,79.349H87.37a4.16,4.16,0,0,0-4.158,4.158V195.3a4.157,4.157,0,0,0,4.158,4.158H258.659a4.157,4.157,0,0,0,4.158-4.158V83.507A4.157,4.157,0,0,0,258.659,79.349ZM254.5,191.14H91.528V87.665H254.5Z" transform="translate(-83.212 -79.349)"/>
        </g>
      </g>
      <g id="Group_186-6" data-name="Group 186" transform="translate(0.001 145.056)">
        <g id="Group_185-6" data-name="Group 185">
          <path id="Path_206-6" data-name="Path 206" class="cls-2" d="M265.566,374.837l-26.624-46.355a4.156,4.156,0,0,0-3.605-2.087H30.779a4.152,4.152,0,0,0-3.605,2.087L.554,374.837a4.159,4.159,0,0,0,3.605,6.229h257.8a4.159,4.159,0,0,0,3.605-6.229ZM11.344,372.749l21.843-38.039H232.929l21.851,38.039Z" transform="translate(-0.001 -326.395)"/>
        </g>
      </g>
      <g id="Group_188-6" data-name="Group 188" transform="translate(101.313 176.184)">
        <g id="Group_187-6" data-name="Group 187">
          <path id="Path_207-6" data-name="Path 207" class="cls-2" d="M249.58,386.274H203.7l-.709.839-8.1,9.589h63.49Z" transform="translate(-194.893 -386.274)"/>
        </g>
      </g>
      <g id="Group_190-6" data-name="Group 190" transform="translate(0 191.411)">
        <g id="Group_189-6" data-name="Group 189" transform="translate(0 0)">
          <path id="Path_208-6" data-name="Path 208" class="cls-2" d="M266.136,421.017l-.017-1.294a4.155,4.155,0,0,0-4.158-4.158H4.158A4.157,4.157,0,0,0,0,419.723c0,7.285,3.26,17.165,12.45,21.032a4.146,4.146,0,0,0,1.614.324H256.285a4.193,4.193,0,0,0,2.291-.686C266.389,435.242,266.223,425.986,266.136,421.017Zm-11.252,11.747H14.978c-3.8-1.95-5.431-5.846-6.129-8.882H257.82C257.728,427.475,257.158,430.7,254.884,432.763Z" transform="translate(0 -415.565)"/>
        </g>
      </g>
    </g>
    <g id="check-2" data-name="check" transform="translate(4016.607 1778.351)">
      <ellipse id="Ellipse_75-2" data-name="Ellipse 75" class="cls-3" cx="23.084" cy="23.084" rx="23.084" ry="23.084" transform="translate(0 0)"/>
      <path id="Path_203-2" data-name="Path 203" class="cls-1" d="M30.347,60.529,13.854,77.02a3.129,3.129,0,0,1-4.425,0L.916,68.506A3.129,3.129,0,0,1,5.34,64.081l6.3,6.3L25.922,56.1a3.129,3.129,0,0,1,4.425,4.425Z" transform="translate(7.875 -42.895)"/>
    </g>
    <g id="check-3" data-name="check" transform="translate(4017.607 2193.56)">
      <ellipse id="Ellipse_75-3" data-name="Ellipse 75" class="cls-3" cx="23.084" cy="23.084" rx="23.084" ry="23.084" transform="translate(0 0)"/>
      <path id="Path_203-3" data-name="Path 203" class="cls-1" d="M30.347,60.529,13.854,77.02a3.129,3.129,0,0,1-4.425,0L.916,68.506A3.129,3.129,0,0,1,5.34,64.081l6.3,6.3L25.922,56.1a3.129,3.129,0,0,1,4.425,4.425Z" transform="translate(7.875 -42.895)"/>
    </g>
    <g id="check-4" data-name="check" transform="translate(3273.067 2193.56)">
      <ellipse id="Ellipse_75-4" data-name="Ellipse 75" class="cls-3" cx="23.084" cy="23.084" rx="23.084" ry="23.084" transform="translate(0 0)"/>
      <path id="Path_203-4" data-name="Path 203" class="cls-1" d="M30.347,60.529,13.854,77.02a3.129,3.129,0,0,1-4.425,0L.916,68.506A3.129,3.129,0,0,1,5.34,64.081l6.3,6.3L25.922,56.1a3.129,3.129,0,0,1,4.425,4.425Z" transform="translate(7.875 -42.895)"/>
    </g>
    <g id="check-5" data-name="check" transform="translate(3651.067 2450.56)">
      <ellipse id="Ellipse_75-5" data-name="Ellipse 75" class="cls-3" cx="23.084" cy="23.084" rx="23.084" ry="23.084" transform="translate(0 0)"/>
      <path id="Path_203-5" data-name="Path 203" class="cls-1" d="M30.347,60.529,13.854,77.02a3.129,3.129,0,0,1-4.425,0L.916,68.506A3.129,3.129,0,0,1,5.34,64.081l6.3,6.3L25.922,56.1a3.129,3.129,0,0,1,4.425,4.425Z" transform="translate(7.875 -42.895)"/>
    </g>
    <g id="check-6" data-name="check" transform="translate(3651.067 1506.56)">
      <ellipse id="Ellipse_75-6" data-name="Ellipse 75" class="cls-3" cx="23.084" cy="23.084" rx="23.084" ry="23.084" transform="translate(0 0)"/>
      <path id="Path_203-6" data-name="Path 203" class="cls-1" d="M30.347,60.529,13.854,77.02a3.129,3.129,0,0,1-4.425,0L.916,68.506A3.129,3.129,0,0,1,5.34,64.081l6.3,6.3L25.922,56.1a3.129,3.129,0,0,1,4.425,4.425Z" transform="translate(7.875 -42.895)"/>
    </g>
    <g id="ethereum-1" transform="translate(3949.238 1763.451)">
      <path id="Path_257" data-name="Path 257" class="cls-4" d="M125.678,0l-.512,1.742V52.276l.512.511,23.458-13.866Z" transform="translate(-102.221 -1)"/>
      <path id="Path_258" data-name="Path 258" class="cls-1" d="M23.458,0,0,38.922,23.458,52.788V0Z" transform="translate(0 -1)"/>
      <path id="Path_259" data-name="Path 259" class="cls-5" d="M126.675,250.446l-.289.352v18l.289.843,23.472-33.056Z" transform="translate(-103.217 -193.216)"/>
      <path id="Path_260" data-name="Path 260" class="cls-1" d="M23.458,269.641v-19.2L0,236.585Z" transform="translate(0 -193.215)"/>
      <path id="Path_261" data-name="Path 261" class="cls-6" d="M127.961,178.687l23.457-13.866-23.457-10.662Z" transform="translate(-104.504 -126.899)"/>
      <path id="Path_262" data-name="Path 262" class="cls-5" d="M0,164.82l23.457,13.866V154.158Z" transform="translate(0 -126.898)"/>
    </g>
    <g id="ethereum-1-2" data-name="ethereum-1" transform="translate(3206.238 1763.451)">
      <path id="Path_257-2" data-name="Path 257" class="cls-4" d="M125.678,0l-.512,1.742V52.276l.512.511,23.458-13.866Z" transform="translate(-102.221 -1)"/>
      <path id="Path_258-2" data-name="Path 258" class="cls-1" d="M23.458,0,0,38.922,23.458,52.788V0Z" transform="translate(0 -1)"/>
      <path id="Path_259-2" data-name="Path 259" class="cls-5" d="M126.675,250.446l-.289.352v18l.289.843,23.472-33.056Z" transform="translate(-103.217 -193.216)"/>
      <path id="Path_260-2" data-name="Path 260" class="cls-1" d="M23.458,269.641v-19.2L0,236.585Z" transform="translate(0 -193.215)"/>
      <path id="Path_261-2" data-name="Path 261" class="cls-6" d="M127.961,178.687l23.457-13.866-23.457-10.662Z" transform="translate(-104.504 -126.899)"/>
      <path id="Path_262-2" data-name="Path 262" class="cls-5" d="M0,164.82l23.457,13.866V154.158Z" transform="translate(0 -126.898)"/>
    </g>
    <g id="ethereum-1-3" data-name="ethereum-1" transform="translate(3949.238 2178.451)">
      <path id="Path_257-3" data-name="Path 257" class="cls-4" d="M125.678,0l-.512,1.742V52.276l.512.511,23.458-13.866Z" transform="translate(-102.221 -1)"/>
      <path id="Path_258-3" data-name="Path 258" class="cls-1" d="M23.458,0,0,38.922,23.458,52.788V0Z" transform="translate(0 -1)"/>
      <path id="Path_259-3" data-name="Path 259" class="cls-5" d="M126.675,250.446l-.289.352v18l.289.843,23.472-33.056Z" transform="translate(-103.217 -193.216)"/>
      <path id="Path_260-3" data-name="Path 260" class="cls-1" d="M23.458,269.641v-19.2L0,236.585Z" transform="translate(0 -193.215)"/>
      <path id="Path_261-3" data-name="Path 261" class="cls-6" d="M127.961,178.687l23.457-13.866-23.457-10.662Z" transform="translate(-104.504 -126.899)"/>
      <path id="Path_262-3" data-name="Path 262" class="cls-5" d="M0,164.82l23.457,13.866V154.158Z" transform="translate(0 -126.898)"/>
    </g>
    <g id="ethereum-1-4" data-name="ethereum-1" transform="translate(3204.238 2178.451)">
      <path id="Path_257-4" data-name="Path 257" class="cls-4" d="M125.678,0l-.512,1.742V52.276l.512.511,23.458-13.866Z" transform="translate(-102.221 -1)"/>
      <path id="Path_258-4" data-name="Path 258" class="cls-1" d="M23.458,0,0,38.922,23.458,52.788V0Z" transform="translate(0 -1)"/>
      <path id="Path_259-4" data-name="Path 259" class="cls-5" d="M126.675,250.446l-.289.352v18l.289.843,23.472-33.056Z" transform="translate(-103.217 -193.216)"/>
      <path id="Path_260-4" data-name="Path 260" class="cls-1" d="M23.458,269.641v-19.2L0,236.585Z" transform="translate(0 -193.215)"/>
      <path id="Path_261-4" data-name="Path 261" class="cls-6" d="M127.961,178.687l23.457-13.866-23.457-10.662Z" transform="translate(-104.504 -126.899)"/>
      <path id="Path_262-4" data-name="Path 262" class="cls-5" d="M0,164.82l23.457,13.866V154.158Z" transform="translate(0 -126.898)"/>
    </g>
    <g id="ethereum-1-5" data-name="ethereum-1" transform="translate(3580.238 2435.451)">
      <path id="Path_257-5" data-name="Path 257" class="cls-4" d="M125.678,0l-.512,1.742V52.276l.512.511,23.458-13.866Z" transform="translate(-102.221 -1)"/>
      <path id="Path_258-5" data-name="Path 258" class="cls-1" d="M23.458,0,0,38.922,23.458,52.788V0Z" transform="translate(0 -1)"/>
      <path id="Path_259-5" data-name="Path 259" class="cls-5" d="M126.675,250.446l-.289.352v18l.289.843,23.472-33.056Z" transform="translate(-103.217 -193.216)"/>
      <path id="Path_260-5" data-name="Path 260" class="cls-1" d="M23.458,269.641v-19.2L0,236.585Z" transform="translate(0 -193.215)"/>
      <path id="Path_261-5" data-name="Path 261" class="cls-6" d="M127.961,178.687l23.457-13.866-23.457-10.662Z" transform="translate(-104.504 -126.899)"/>
      <path id="Path_262-5" data-name="Path 262" class="cls-5" d="M0,164.82l23.457,13.866V154.158Z" transform="translate(0 -126.898)"/>
    </g>
    <g id="ethereum-1-6" data-name="ethereum-1" transform="translate(3580.238 1491.451)">
      <path id="Path_257-6" data-name="Path 257" class="cls-4" d="M125.678,0l-.512,1.742V52.276l.512.511,23.458-13.866Z" transform="translate(-102.221 -1)"/>
      <path id="Path_258-6" data-name="Path 258" class="cls-1" d="M23.458,0,0,38.922,23.458,52.788V0Z" transform="translate(0 -1)"/>
      <path id="Path_259-6" data-name="Path 259" class="cls-5" d="M126.675,250.446l-.289.352v18l.289.843,23.472-33.056Z" transform="translate(-103.217 -193.216)"/>
      <path id="Path_260-6" data-name="Path 260" class="cls-1" d="M23.458,269.641v-19.2L0,236.585Z" transform="translate(0 -193.215)"/>
      <path id="Path_261-6" data-name="Path 261" class="cls-6" d="M127.961,178.687l23.457-13.866-23.457-10.662Z" transform="translate(-104.504 -126.899)"/>
      <path id="Path_262-6" data-name="Path 262" class="cls-5" d="M0,164.82l23.457,13.866V154.158Z" transform="translate(0 -126.898)"/>
    </g>
    <g id="check-7" data-name="check" transform="translate(3274.067 1778.351)">
      <ellipse id="Ellipse_75-7" data-name="Ellipse 75" class="cls-3" cx="23.084" cy="23.084" rx="23.084" ry="23.084" transform="translate(0 0)"/>
      <path id="Path_203-7" data-name="Path 203" class="cls-1" d="M30.347,60.529,13.854,77.02a3.129,3.129,0,0,1-4.425,0L.916,68.506A3.129,3.129,0,0,1,5.34,64.081l6.3,6.3L25.922,56.1a3.129,3.129,0,0,1,4.425,4.425Z" transform="translate(7.875 -42.895)"/>
    </g>
    <g id="Group_319" data-name="Group 319" transform="translate(88 236)">
      <ellipse id="Ellipse_105" data-name="Ellipse 105" class="cls-2" cx="9.838" cy="9.838" rx="9.838" ry="9.838" transform="matrix(0.616, -0.788, 0.788, 0.616, 3160.434, 1828.1)"/>
      <ellipse id="Ellipse_108" data-name="Ellipse 108" class="cls-2" cx="9.838" cy="9.838" rx="9.838" ry="9.838" transform="matrix(0.616, -0.788, 0.788, 0.616, 3160.434, 1742.1)"/>
      <ellipse id="Ellipse_107" data-name="Ellipse 107" class="cls-2" cx="9.838" cy="9.838" rx="9.838" ry="9.838" transform="matrix(0.616, -0.788, 0.788, 0.616, 3160.434, 1871.1)"/>
      <ellipse id="Ellipse_104" data-name="Ellipse 104" class="cls-2" cx="9.838" cy="9.838" rx="9.838" ry="9.838" transform="matrix(0.616, -0.788, 0.788, 0.616, 3160.434, 1785.1)"/>
    </g>
    <g id="Group_337" data-name="Group 337" transform="translate(-449.963 1901.243) rotate(-25)">
      <g id="Group_332" data-name="Group 332" transform="translate(5300.148 -1320.34) rotate(90)">
        <ellipse id="Ellipse_105-2" data-name="Ellipse 105" class="cls-2" cx="9.838" cy="9.838" rx="9.838" ry="9.838" transform="matrix(0.616, -0.788, 0.788, 0.616, 3160.434, 1828.1)"/>
        <ellipse id="Ellipse_108-2" data-name="Ellipse 108" class="cls-2" cx="9.838" cy="9.838" rx="9.838" ry="9.838" transform="matrix(0.616, -0.788, 0.788, 0.616, 3160.434, 1742.1)"/>
        <ellipse id="Ellipse_107-2" data-name="Ellipse 107" class="cls-2" cx="9.838" cy="9.838" rx="9.838" ry="9.838" transform="matrix(0.616, -0.788, 0.788, 0.616, 3160.434, 1871.1)"/>
        <ellipse id="Ellipse_109" data-name="Ellipse 109" class="cls-2" cx="9.838" cy="9.838" rx="9.838" ry="9.838" transform="matrix(0.616, -0.788, 0.788, 0.616, 3161.594, 1913.569)"/>
        <ellipse id="Ellipse_104-2" data-name="Ellipse 104" class="cls-2" cx="9.838" cy="9.838" rx="9.838" ry="9.838" transform="matrix(0.616, -0.788, 0.788, 0.616, 3160.434, 1785.1)"/>
      </g>
      <g id="Group_333" data-name="Group 333" transform="translate(5472.148 -1320.34) rotate(90)">
        <ellipse id="Ellipse_105-3" data-name="Ellipse 105" class="cls-2" cx="9.838" cy="9.838" rx="9.838" ry="9.838" transform="matrix(0.616, -0.788, 0.788, 0.616, 3160.434, 1828.1)"/>
        <ellipse id="Ellipse_108-3" data-name="Ellipse 108" class="cls-2" cx="9.838" cy="9.838" rx="9.838" ry="9.838" transform="matrix(0.616, -0.788, 0.788, 0.616, 3160.434, 1742.1)"/>
        <ellipse id="Ellipse_107-3" data-name="Ellipse 107" class="cls-2" cx="9.838" cy="9.838" rx="9.838" ry="9.838" transform="matrix(0.616, -0.788, 0.788, 0.616, 3160.434, 1871.1)"/>
        <ellipse id="Ellipse_104-3" data-name="Ellipse 104" class="cls-2" cx="9.838" cy="9.838" rx="9.838" ry="9.838" transform="matrix(0.616, -0.788, 0.788, 0.616, 3160.434, 1785.1)"/>
      </g>
      <g id="Group_334" data-name="Group 334" transform="translate(5643.148 -1320.34) rotate(90)">
        <ellipse id="Ellipse_105-4" data-name="Ellipse 105" class="cls-2" cx="9.838" cy="9.838" rx="9.838" ry="9.838" transform="matrix(0.616, -0.788, 0.788, 0.616, 3160.434, 1828.1)"/>
        <ellipse id="Ellipse_107-4" data-name="Ellipse 107" class="cls-2" cx="9.838" cy="9.838" rx="9.838" ry="9.838" transform="matrix(0.616, -0.788, 0.788, 0.616, 3160.434, 1871.1)"/>
        <ellipse id="Ellipse_104-4" data-name="Ellipse 104" class="cls-2" cx="9.838" cy="9.838" rx="9.838" ry="9.838" transform="matrix(0.616, -0.788, 0.788, 0.616, 3160.434, 1785.1)"/>
      </g>
    </g>
    <g id="Group_328" data-name="Group 328" transform="translate(277.029 4268.428) rotate(-60)">
      <ellipse id="Ellipse_105-5" data-name="Ellipse 105" class="cls-2" cx="9.838" cy="9.838" rx="9.838" ry="9.838" transform="matrix(0.616, -0.788, 0.788, 0.616, 3160.434, 1828.1)"/>
      <ellipse id="Ellipse_108-4" data-name="Ellipse 108" class="cls-2" cx="9.838" cy="9.838" rx="9.838" ry="9.838" transform="matrix(0.616, -0.788, 0.788, 0.616, 3160.434, 1742.1)"/>
      <ellipse id="Ellipse_107-5" data-name="Ellipse 107" class="cls-2" cx="9.838" cy="9.838" rx="9.838" ry="9.838" transform="matrix(0.616, -0.788, 0.788, 0.616, 3160.434, 1871.1)"/>
      <ellipse id="Ellipse_104-5" data-name="Ellipse 104" class="cls-2" cx="9.838" cy="9.838" rx="9.838" ry="9.838" transform="matrix(0.616, -0.788, 0.788, 0.616, 3160.434, 1785.1)"/>
    </g>
    <g id="Group_330" data-name="Group 330" transform="translate(3441.273 5303.332) rotate(-120)">
      <ellipse id="Ellipse_105-6" data-name="Ellipse 105" class="cls-2" cx="9.838" cy="9.838" rx="9.838" ry="9.838" transform="matrix(0.616, -0.788, 0.788, 0.616, 3160.434, 1828.1)"/>
      <ellipse id="Ellipse_108-5" data-name="Ellipse 108" class="cls-2" cx="9.838" cy="9.838" rx="9.838" ry="9.838" transform="matrix(0.616, -0.788, 0.788, 0.616, 3160.434, 1742.1)"/>
      <ellipse id="Ellipse_107-6" data-name="Ellipse 107" class="cls-2" cx="9.838" cy="9.838" rx="9.838" ry="9.838" transform="matrix(0.616, -0.788, 0.788, 0.616, 3160.434, 1871.1)"/>
      <ellipse id="Ellipse_104-6" data-name="Ellipse 104" class="cls-2" cx="9.838" cy="9.838" rx="9.838" ry="9.838" transform="matrix(0.616, -0.788, 0.788, 0.616, 3160.434, 1785.1)"/>
    </g>
    <g id="Group_331" data-name="Group 331" transform="translate(7015.459 -194.62) rotate(120)">
      <ellipse id="Ellipse_105-7" data-name="Ellipse 105" class="cls-2" cx="9.838" cy="9.838" rx="9.838" ry="9.838" transform="matrix(0.616, -0.788, 0.788, 0.616, 3160.434, 1828.1)"/>
      <ellipse id="Ellipse_108-6" data-name="Ellipse 108" class="cls-2" cx="9.838" cy="9.838" rx="9.838" ry="9.838" transform="matrix(0.616, -0.788, 0.788, 0.616, 3160.434, 1742.1)"/>
      <ellipse id="Ellipse_107-7" data-name="Ellipse 107" class="cls-2" cx="9.838" cy="9.838" rx="9.838" ry="9.838" transform="matrix(0.616, -0.788, 0.788, 0.616, 3160.434, 1871.1)"/>
      <ellipse id="Ellipse_104-7" data-name="Ellipse 104" class="cls-2" cx="9.838" cy="9.838" rx="9.838" ry="9.838" transform="matrix(0.616, -0.788, 0.788, 0.616, 3160.434, 1785.1)"/>
    </g>
    <g id="Group_320" data-name="Group 320" transform="translate(833 236)">
      <ellipse id="Ellipse_105-8" data-name="Ellipse 105" class="cls-2" cx="9.838" cy="9.838" rx="9.838" ry="9.838" transform="matrix(0.616, -0.788, 0.788, 0.616, 3160.434, 1828.1)"/>
      <ellipse id="Ellipse_108-7" data-name="Ellipse 108" class="cls-2" cx="9.838" cy="9.838" rx="9.838" ry="9.838" transform="matrix(0.616, -0.788, 0.788, 0.616, 3160.434, 1742.1)"/>
      <ellipse id="Ellipse_107-8" data-name="Ellipse 107" class="cls-2" cx="9.838" cy="9.838" rx="9.838" ry="9.838" transform="matrix(0.616, -0.788, 0.788, 0.616, 3160.434, 1871.1)"/>
      <ellipse id="Ellipse_104-8" data-name="Ellipse 104" class="cls-2" cx="9.838" cy="9.838" rx="9.838" ry="9.838" transform="matrix(0.616, -0.788, 0.788, 0.616, 3160.434, 1785.1)"/>
    </g>
    <g id="Group_329" data-name="Group 329" transform="translate(3823.215 -1229.524) rotate(60)">
      <ellipse id="Ellipse_105-9" data-name="Ellipse 105" class="cls-2" cx="9.838" cy="9.838" rx="9.838" ry="9.838" transform="matrix(0.616, -0.788, 0.788, 0.616, 3160.434, 1828.1)"/>
      <ellipse id="Ellipse_108-8" data-name="Ellipse 108" class="cls-2" cx="9.838" cy="9.838" rx="9.838" ry="9.838" transform="matrix(0.616, -0.788, 0.788, 0.616, 3160.434, 1742.1)"/>
      <ellipse id="Ellipse_107-9" data-name="Ellipse 107" class="cls-2" cx="9.838" cy="9.838" rx="9.838" ry="9.838" transform="matrix(0.616, -0.788, 0.788, 0.616, 3160.434, 1871.1)"/>
      <ellipse id="Ellipse_104-9" data-name="Ellipse 104" class="cls-2" cx="9.838" cy="9.838" rx="9.838" ry="9.838" transform="matrix(0.616, -0.788, 0.788, 0.616, 3160.434, 1785.1)"/>
    </g>
    <g id="Group_338" data-name="Group 338" transform="translate(1117.025 -1179.85) rotate(25)">
      <g id="Group_332-2" data-name="Group 332" transform="translate(5300.148 -1320.34) rotate(90)">
        <ellipse id="Ellipse_105-10" data-name="Ellipse 105" class="cls-2" cx="9.838" cy="9.838" rx="9.838" ry="9.838" transform="matrix(0.616, -0.788, 0.788, 0.616, 3160.434, 1828.1)"/>
        <ellipse id="Ellipse_108-9" data-name="Ellipse 108" class="cls-2" cx="9.838" cy="9.838" rx="9.838" ry="9.838" transform="matrix(0.616, -0.788, 0.788, 0.616, 3160.434, 1742.1)"/>
        <ellipse id="Ellipse_107-10" data-name="Ellipse 107" class="cls-2" cx="9.838" cy="9.838" rx="9.838" ry="9.838" transform="matrix(0.616, -0.788, 0.788, 0.616, 3160.434, 1871.1)"/>
        <ellipse id="Ellipse_104-10" data-name="Ellipse 104" class="cls-2" cx="9.838" cy="9.838" rx="9.838" ry="9.838" transform="matrix(0.616, -0.788, 0.788, 0.616, 3160.434, 1785.1)"/>
      </g>
      <g id="Group_333-2" data-name="Group 333" transform="translate(5472.148 -1320.34) rotate(90)">
        <ellipse id="Ellipse_105-11" data-name="Ellipse 105" class="cls-2" cx="9.838" cy="9.838" rx="9.838" ry="9.838" transform="matrix(0.616, -0.788, 0.788, 0.616, 3160.434, 1828.1)"/>
        <ellipse id="Ellipse_108-10" data-name="Ellipse 108" class="cls-2" cx="9.838" cy="9.838" rx="9.838" ry="9.838" transform="matrix(0.616, -0.788, 0.788, 0.616, 3160.434, 1742.1)"/>
        <ellipse id="Ellipse_107-11" data-name="Ellipse 107" class="cls-2" cx="9.838" cy="9.838" rx="9.838" ry="9.838" transform="matrix(0.616, -0.788, 0.788, 0.616, 3160.434, 1871.1)"/>
        <ellipse id="Ellipse_104-11" data-name="Ellipse 104" class="cls-2" cx="9.838" cy="9.838" rx="9.838" ry="9.838" transform="matrix(0.616, -0.788, 0.788, 0.616, 3160.434, 1785.1)"/>
      </g>
      <g id="Group_334-2" data-name="Group 334" transform="translate(5643.148 -1320.34) rotate(90)">
        <ellipse id="Ellipse_105-12" data-name="Ellipse 105" class="cls-2" cx="9.838" cy="9.838" rx="9.838" ry="9.838" transform="matrix(0.616, -0.788, 0.788, 0.616, 3160.434, 1828.1)"/>
        <ellipse id="Ellipse_107-12" data-name="Ellipse 107" class="cls-2" cx="9.838" cy="9.838" rx="9.838" ry="9.838" transform="matrix(0.616, -0.788, 0.788, 0.616, 3160.434, 1871.1)"/>
        <ellipse id="Ellipse_104-12" data-name="Ellipse 104" class="cls-2" cx="9.838" cy="9.838" rx="9.838" ry="9.838" transform="matrix(0.616, -0.788, 0.788, 0.616, 3160.434, 1785.1)"/>
      </g>
      <ellipse id="Ellipse_110" data-name="Ellipse 110" class="cls-2" cx="9.838" cy="9.838" rx="9.838" ry="9.838" transform="translate(3888.908 1848.25) rotate(-12)"/>
    </g>
  </g>
</svg>
