<svg xmlns="http://www.w3.org/2000/svg" viewBox="616 4686 129 129">
  <defs>
    <style>
      .cls-1 {
        fill: #fff;
      }

      .cls-2 {
        fill: #475058;
      }

      .cls-3 {
        fill: #48bddb;
        stroke: #475058;
        stroke-width: 3px;
      }
    </style>
  </defs>
  <g id="Group_92" data-name="Group 92" transform="translate(-210 -240)">
    <g id="linkedin" transform="translate(826 4926)">
      <circle id="Ellipse_17" data-name="Ellipse 17" class="cls-1" cx="62.463" cy="62.463" r="62.463" transform="translate(2.037 2.037)"/>
      <path id="Path_111" data-name="Path 111" class="cls-2" d="M110.108,18.892a64.5,64.5,0,1,0-91.217,91.216,64.5,64.5,0,1,0,91.217-91.216ZM64.5,124.926A60.426,60.426,0,1,1,124.926,64.5,60.495,60.495,0,0,1,64.5,124.926Z"/>
    </g>
    <g id="facebook" transform="translate(654.789 4843.582)">
      <g id="facebook_1_" data-name="facebook(1)" transform="translate(218.623 114.204)">
        <path id="XMLID_835_" class="cls-3" d="M77.761,34.94h7.191v29.6A1.058,1.058,0,0,0,86.01,65.6H98.2a1.058,1.058,0,0,0,1.058-1.058V35.079h8.267a1.058,1.058,0,0,0,1.051-.937l1.256-10.9a1.058,1.058,0,0,0-1.051-1.179H99.261V15.232c0-2.059,1.109-3.1,3.3-3.1h6.226a1.058,1.058,0,0,0,1.058-1.058v-10A1.058,1.058,0,0,0,108.783.008H100.2C100.143,0,100.008,0,99.81,0A16.442,16.442,0,0,0,89.059,4.053,11.274,11.274,0,0,0,85.31,14.075v7.989H77.761A1.058,1.058,0,0,0,76.7,23.122v10.76A1.058,1.058,0,0,0,77.761,34.94Z" transform="translate(-76.703)"/>
      </g>
    </g>
  </g>
</svg>
