<svg xmlns="http://www.w3.org/2000/svg" viewBox="174 8752 192.571 284.145">
  <defs>
    <style>
      .cls-1 {
        fill: #fff;
      }

      .cls-2 {
        fill: #48bddb;
      }

      .cls-3 {
        fill: #e4e4e4;
      }

      .cls-4 {
        fill: #475058;
      }

      .cls-5 {
        fill: #dbdbdb;
      }

      .cls-6 {
        opacity: 0.1;
      }

      .cls-7 {
        fill: none;
        stroke: #475058;
        stroke-width: 6px;
      }
    </style>
  </defs>
  <g id="Group_247" data-name="Group 247" transform="translate(-210 6821)">
    <g id="employee_1_" data-name="employee (1)" transform="translate(303.839 1931)">
      <path id="Path_187" data-name="Path 187" class="cls-1" d="M255.32,282.986l-27.2-10.7H131.547l-27.2,10.7a26.336,26.336,0,0,0-16.673,25.562l3.64,90.891H268.353l3.64-90.891A26.336,26.336,0,0,0,255.32,282.986Z" transform="translate(-3.387 -123.189)"/>
      <path id="Path_188" data-name="Path 188" class="cls-2" d="M242.181,304.1l-8.144,109.735h24.05L250.716,304.1Z" transform="translate(-69.618 -137.582)"/>
      <rect id="Rectangle_125" data-name="Rectangle 125" class="cls-1" width="61.454" height="52.671" transform="translate(145.72 113.84)"/>
      <path id="Path_189" data-name="Path 189" class="cls-3" d="M199.884,229.6a56.792,56.792,0,0,0,61.452,0V207.9H199.884Z" transform="translate(-54.166 -94.061)"/>
      <path id="Path_190" data-name="Path 190" class="cls-4" d="M212.477,7.635C190.562,8.819,178.093,20.8,178.093,20.8S159.8,20.8,159.8,42.75c0,17.557,4.389,34.977,4.389,34.977H265.15C273.928,29.445,253.079,5.44,212.477,7.635Z" transform="translate(-36.033 -3.392)"/>
      <path id="Path_191" data-name="Path 191" class="cls-4" d="M194.919,71.165C168.583,49.218,178.093,31.8,178.093,31.8S159.8,31.8,159.8,53.745c0,17.557,4.389,34.977,4.389,34.977h30.726V71.165Z" transform="translate(-36.033 -14.386)"/>
      <path id="Path_192" data-name="Path 192" class="cls-1" d="M257.133,113.234h-4.389l-7.316-13.351c-36.116,7.524-54.136-4.206-54.136-4.206l-21.947,21.947-8.928-4.389h-.007a8.564,8.564,0,0,0-1.465.155c-4.275.822-7.158,4.908-7.158,9.262v3.181a9.22,9.22,0,0,0,6.778,9.114,8.687,8.687,0,0,0,2.673.207,4.275,4.275,0,0,1,4.481,3.568,43.843,43.843,0,0,0,86.259,0,4.263,4.263,0,0,1,4.249-3.541h.9a8.779,8.779,0,0,0,8.779-8.779v-4.389A8.777,8.777,0,0,0,257.133,113.234Z" transform="translate(-32.406 -43.287)"/>
      <g id="Group_157" data-name="Group 157" transform="translate(84.261 170.567)">
        <path id="Path_193" data-name="Path 193" class="cls-1" d="M110.666,330.595l-19.1-19.1a26.25,26.25,0,0,0-3.9,14.792l3.64,90.891h27.07V349.217A26.337,26.337,0,0,0,110.666,330.595Z" transform="translate(-87.649 -311.498)"/>
        <path id="Path_194" data-name="Path 194" class="cls-1" d="M375.939,330.595l19.1-19.1a26.251,26.251,0,0,1,3.9,14.792l-3.64,90.891h-27.07V349.217A26.333,26.333,0,0,1,375.939,330.595Z" transform="translate(-214.59 -311.498)"/>
      </g>
      <path id="Path_195" data-name="Path 195" class="cls-2" d="M257.636,326.043,248.694,304.1h-2.411l-7.5,21.947Z" transform="translate(-71.764 -137.582)"/>
      <g id="Group_158" data-name="Group 158" transform="translate(128.161 135.926)">
        <path id="Path_196" data-name="Path 196" class="cls-5" d="M205.357,289.512l-30.373-33.371-7.163,5.262L188.217,292c3.073,4.609,5.4,7.3,9.322,3.381Z" transform="translate(-167.821 -248.235)"/>
        <path id="Path_197" data-name="Path 197" class="cls-1" d="M256,278.961l35.115-30.726L304.281,261.4,283.885,292a8.779,8.779,0,0,1-13.512,1.338Z" transform="translate(-207.715 -248.235)"/>
      </g>
      <path id="Path_198" data-name="Path 198" class="cls-6" d="M182.514,138.044V111.708l-13.168,13.168-8.928-4.389h-.007a8.607,8.607,0,0,0-1.465.154c-4.276.822-7.158,4.908-7.158,9.262v3.181a9.219,9.219,0,0,0,6.778,9.114,8.708,8.708,0,0,0,2.674.208,4.274,4.274,0,0,1,4.48,3.568,43.733,43.733,0,0,0,51.834,35.07A43.908,43.908,0,0,1,182.514,138.044Z" transform="translate(-32.407 -50.54)"/>
      <path id="Path_199" data-name="Path 199" class="cls-4" d="M190,376.757H172.444a4.107,4.107,0,0,0,0,8.214H190a4.107,4.107,0,1,0,0-8.214Z" transform="translate(-39.893 -170.456)"/>
      <path id="Path_200" data-name="Path 200" class="cls-4" d="M253.241,156.035l-25.664-9.9-13.114-13.114a4.1,4.1,0,0,0-3.186-1.192V120.643A47.782,47.782,0,0,0,223.6,96.369a.547.547,0,0,1,.255-.261,12.827,12.827,0,0,0,3.45-.233,13.3,13.3,0,0,0,10.306-13.2V79.256a13.47,13.47,0,0,0-4.2-9.8c4.222-22.53.88-40.867-9.7-53.09C213.539,4.624,197.117-.987,176.222.142c-19.614,1.06-32.142,10.2-35.863,13.3-5.227.652-20.695,4.4-20.695,25.917a116.25,116.25,0,0,0,3.377,27.686,13.279,13.279,0,0,0-7.767,12.263v3.369a13.3,13.3,0,0,0,10.306,13.2,12.785,12.785,0,0,0,3.45.233.551.551,0,0,1,.254.257,47.794,47.794,0,0,0,12.327,24.278V131.83a4.1,4.1,0,0,0-3.186,1.192l-13.113,13.113-25.664,9.9a30.434,30.434,0,0,0-19.463,29.622l3.635,90.758a4.107,4.107,0,0,0,4.1,3.943q.084,0,.168,0a4.107,4.107,0,0,0,3.939-4.268l-3.635-90.758a22.2,22.2,0,0,1,1.048-7.7l14.935,14.935a22.085,22.085,0,0,1,6.511,15.719V276.25a4.107,4.107,0,1,0,8.214,0V208.285a30.244,30.244,0,0,0-8.917-21.527l-16.61-16.609a22.192,22.192,0,0,1,9.031-6.452l24.148-9.314,18.389,27.583a12.838,12.838,0,0,0,9.452,5.675q.644.064,1.284.064a12.819,12.819,0,0,0,7.242-2.238l-3.945,90.6a4.107,4.107,0,0,0,3.924,4.281c.061,0,.122,0,.182,0a4.106,4.106,0,0,0,4.1-3.928l3.645-83.722h10.841l3.645,83.722a4.107,4.107,0,0,0,4.1,3.928c.06,0,.121,0,.182,0a4.107,4.107,0,0,0,3.924-4.281l-3.945-90.6a12.813,12.813,0,0,0,7.242,2.238c.426,0,.855-.021,1.284-.064a12.841,12.841,0,0,0,9.452-5.675l18.388-27.583,24.148,9.314a22.2,22.2,0,0,1,9.031,6.452l-16.61,16.609a30.244,30.244,0,0,0-8.917,21.527V276.25a4.107,4.107,0,1,0,8.214,0V208.286a22.085,22.085,0,0,1,6.511-15.719l14.935-14.935a22.2,22.2,0,0,1,1.048,7.7l-3.634,90.758a4.107,4.107,0,0,0,3.939,4.268c.056,0,.112,0,.168,0a4.107,4.107,0,0,0,4.1-3.943l3.635-90.757A30.443,30.443,0,0,0,253.241,156.035Zm-76.8,5.16L149.825,137.9V127.569a47.913,47.913,0,0,0,53.238,0V137.9ZM128.48,87.913a4.587,4.587,0,0,1-1.252-.085,5.139,5.139,0,0,1-3.74-5.151V79.308a4.977,4.977,0,0,1,3.795-5.039,4.657,4.657,0,0,1,4.579,1.757,5.957,5.957,0,0,0,8.191,1.291,33.684,33.684,0,0,0,9.05-9.559,4.107,4.107,0,1,0-6.938-4.4,25.785,25.785,0,0,1-5.273,6.036,12.842,12.842,0,0,0-5.532-3.005,107.708,107.708,0,0,1-3.484-27.033c0-17.135,12.757-17.819,14.182-17.84a4.106,4.106,0,0,0,2.846-1.146c.114-.109,11.6-10.939,31.759-12.028,18.266-.987,32.388,3.647,40.837,13.4,8.6,9.932,11.407,25.2,8.183,44.283a19.5,19.5,0,0,0-4.832.325l-4.589-11.019a4.111,4.111,0,0,0-4.831-2.394c-.439.114-44.125,11.2-62.534-11.72a4.107,4.107,0,1,0-6.4,5.143c18.6,23.155,55.86,17.711,67.515,15.32l3.594,8.629a7.127,7.127,0,0,0,8.237,4.225,10.646,10.646,0,0,1,3.76-.262,5.019,5.019,0,0,1,3.8,4.977v3.421a5.139,5.139,0,0,1-3.74,5.151,4.583,4.583,0,0,1-1.252.085,8.551,8.551,0,0,0-8.883,6.968,39.737,39.737,0,0,1-78.162,0A8.542,8.542,0,0,0,128.48,87.913ZM155.4,179.468a4.657,4.657,0,0,1-3.427-2.058l-18.529-27.794,8.071-8.071,28.92,25.3-11.271,11.271A4.651,4.651,0,0,1,155.4,179.468Zm15.98,5.023.317-7.287,4.746-4.746,4.745,4.746.317,7.287Zm29.533-7.081a4.672,4.672,0,0,1-7.191.712l-11.271-11.271,28.92-25.3,8.071,8.071Z"/>
    </g>
    <path id="Path_245" data-name="Path 245" class="cls-7" d="M2813.581,10161.251a27.7,27.7,0,0,0,28.4,0" transform="translate(-2422.28 -7953.069)"/>
    <path id="Path_246" data-name="Path 246" class="cls-7" d="M2813.582,10161.251a36.266,36.266,0,0,0,32.822,0" transform="translate(-2349.263 -7955.069)"/>
    <path id="Path_247" data-name="Path 247" class="cls-7" d="M2813.581,10161.251a79.765,79.765,0,0,0,49.546,0" transform="translate(-2395.323 -7953.069)"/>
    <path id="Path_248" data-name="Path 248" class="cls-7" d="M2813.582,10161.251a77.479,77.479,0,0,0,48.81,0" transform="translate(-2320.674 -7953.069)"/>
    <path id="Path_249" data-name="Path 249" class="cls-7" d="M2813.22,10161.474a27.568,27.568,0,0,0,27.946-.528" transform="translate(-2271.187 -7953.182)"/>
  </g>
</svg>
