<svg xmlns="http://www.w3.org/2000/svg" viewBox="364 4856 129 129">
  <defs>
    <style>
      .cls-1 {
        fill: #fff;
      }

      .cls-2 {
        fill: #475058;
      }

      .cls-3 {
        fill: #48bddb;
        stroke: #475058;
        stroke-width: 3px;
      }
    </style>
  </defs>
  <g id="Group_93" data-name="Group 93" transform="translate(-210 -240)">
    <g id="linkedin" transform="translate(574 5096)">
      <circle id="Ellipse_17" data-name="Ellipse 17" class="cls-1" cx="62.463" cy="62.463" r="62.463" transform="translate(2.037 2.037)"/>
      <path id="Path_111" data-name="Path 111" class="cls-2" d="M110.108,18.892a64.5,64.5,0,1,0-91.217,91.216,64.5,64.5,0,1,0,91.217-91.216ZM64.5,124.926A60.426,60.426,0,1,1,124.926,64.5,60.495,60.495,0,0,1,64.5,124.926Z"/>
    </g>
    <g id="github-big-logo" transform="translate(901.834 5150.321)">
      <g id="Group_90" data-name="Group 90" transform="translate(-293.051 -24)">
        <path id="Path_166" data-name="Path 166" class="cls-3" d="M106.609,31.018a42.362,42.362,0,0,0,.489-5.777c-.017-9.157-4.4-12.4-5.243-13.916,1.242-6.938-.206-10.094-.879-11.174-2.484-.882-8.641,2.275-12.005,4.5C83.485,3.044,71.894,3.2,67.547,5.065,59.526-.678,55.284.2,55.284.2s-2.743,4.918-.725,12.112c-2.639,3.363-4.606,5.741-4.606,12.047a37.244,37.244,0,0,0,.253,4.311c2.273,11.95,11.741,17.1,21.042,17.994a8.374,8.374,0,0,0-3.312,5.408c-1.759,1.137-5.3,1.513-8.047.648-3.854-1.218-5.33-8.851-11.1-7.762-1.249.234-1,1.057.081,1.76a11.35,11.35,0,0,1,4.691,5.592c.98,2.329,3.043,6.488,9.563,6.488a29.24,29.24,0,0,0,4.4-.306s.049,5.936.049,8.251c0,2.664-3.6,3.412-3.6,4.69,0,.508,1.19.557,2.146.557,1.89,0,5.822-1.574,5.822-4.343,0-2.2.035-9.595.035-10.89,0-2.829,1.516-3.73,1.516-3.73s.186,15.1-.365,17.129c-.646,2.381-1.815,2.043-1.815,3.1,0,1.582,4.728.387,6.3-3.075,1.213-2.7.67-17.516.67-17.516l1.265-.028s.015,6.784-.029,9.883c-.046,3.21-.377,7.268,1.53,9.183,1.251,1.26,5.085,3.47,5.085,1.45,0-1.171-2.685-2.138-2.685-5.309V53.236c1.631,0,1.968,4.8,1.968,4.8L86,66.96s-.39,3.256,3.517,4.614c1.379.483,4.33.615,4.469-.2s-3.553-2.015-3.588-4.535c-.019-1.535.069-2.433.069-9.108s-.9-9.14-4.019-11.107C95.508,45.7,104.915,41.654,106.609,31.018Z" transform="translate(-47.949 0)"/>
      </g>
    </g>
  </g>
</svg>
