<svg xmlns="http://www.w3.org/2000/svg" viewBox="2391 7319 1338 1013">
  <defs>
    <style>
      .cls-1, .cls-11, .cls-29, .cls-9 {
        fill: none;
      }

      .cls-1 {
        stroke: #48bddb;
      }

      .cls-1, .cls-9 {
        stroke-width: 6px;
      }

      .cls-14, .cls-15, .cls-16, .cls-2, .cls-21, .cls-6 {
        fill: #475058;
      }

      .cls-2 {
        font-size: 30px;
      }

      .cls-2, .cls-21 {
        font-family: Roboto-Regular, Roboto;
      }

      .cls-10, .cls-12, .cls-3 {
        fill: #fff;
      }

      .cls-4 {
        fill: #48bddb;
      }

      .cls-5 {
        fill: #e4e4e4;
      }

      .cls-7 {
        fill: #dbdbdb;
      }

      .cls-8 {
        opacity: 0.1;
      }

      .cls-10, .cls-11, .cls-12, .cls-15, .cls-9 {
        stroke: #475058;
      }

      .cls-10, .cls-11 {
        stroke-width: 5px;
      }

      .cls-12 {
        stroke-width: 4px;
      }

      .cls-13 {
        fill: #49bddb;
      }

      .cls-13, .cls-14 {
        stroke: #fff;
        stroke-width: 3px;
      }

      .cls-15 {
        stroke-width: 2px;
      }

      .cls-16 {
        stroke: #465057;
      }

      .cls-17 {
        opacity: 0.073;
      }

      .cls-18 {
        fill: #465057;
      }

      .cls-19 {
        fill: #47bcdb;
      }

      .cls-20 {
        fill: #25282b;
      }

      .cls-21 {
        font-size: 20px;
      }

      .cls-22 {
        fill: #46bddb;
        font-size: 45px;
        font-family: Roboto-Light, Roboto;
        font-weight: 300;
      }

      .cls-23 {
        fill: #343434;
      }

      .cls-24 {
        fill: #8c8c8c;
      }

      .cls-25 {
        fill: #3c3c3b;
      }

      .cls-26 {
        fill: #141414;
      }

      .cls-27 {
        fill: #393939;
      }

      .cls-28 {
        stroke: none;
      }
    </style>
  </defs>
  <g id="Group_250" data-name="Group 250" transform="translate(2108 6821)">
    <g id="Rectangle_156" data-name="Rectangle 156" class="cls-1" transform="translate(333 1391)">
      <rect class="cls-28" width="1254" height="120" rx="8"/>
      <rect class="cls-29" x="3" y="3" width="1248" height="114" rx="5"/>
    </g>
    <g id="Group_232" data-name="Group 232" transform="translate(-6 40)">
      <text id="INVESTOR" class="cls-2" transform="translate(896 683)"><tspan x="0" y="0">INVESTOR</tspan></text>
      <g id="Group_242" data-name="Group 242" transform="translate(1)">
        <g id="Group_231" data-name="Group 231" transform="translate(47 89)">
          <g id="employee_1_" data-name="employee (1)" transform="translate(846 369)">
            <path id="Path_187" data-name="Path 187" class="cls-3" d="M194.411,279.1l-17.322-6.815H115.6L98.278,279.1a16.769,16.769,0,0,0-10.616,16.276l2.318,57.873h112.73l2.318-57.873A16.769,16.769,0,0,0,194.411,279.1Z" transform="translate(-85.038 -177.349)"/>
            <path id="Path_188" data-name="Path 188" class="cls-4" d="M239.222,304.1l-5.185,69.872h15.314L244.657,304.1Z" transform="translate(-180.387 -198.071)"/>
            <rect id="Rectangle_125" data-name="Rectangle 125" class="cls-3" width="39.13" height="33.538" transform="translate(41.744 72.486)"/>
            <path id="Path_189" data-name="Path 189" class="cls-5" d="M199.884,221.717a36.162,36.162,0,0,0,39.128,0V207.9H199.884Z" transform="translate(-158.142 -135.415)"/>
            <path id="Path_190" data-name="Path 190" class="cls-6" d="M193.343,7.585c-13.954.754-21.893,8.385-21.893,8.385s-11.646,0-11.646,13.975A104.417,104.417,0,0,0,162.6,52.215h64.283C232.471,21.472,219.2,6.187,193.343,7.585Z" transform="translate(-132.036 -4.883)"/>
            <path id="Path_191" data-name="Path 191" class="cls-6" d="M182.163,56.864C165.394,42.89,171.45,31.8,171.45,31.8S159.8,31.8,159.8,45.773A104.417,104.417,0,0,0,162.6,68.044h19.564V56.864Z" transform="translate(-132.036 -20.711)"/>
            <path id="Path_192" data-name="Path 192" class="cls-3" d="M218.865,106.856H216.07l-4.658-8.5c-23,4.791-34.47-2.678-34.47-2.678l-13.975,13.975-5.685-2.795h0a5.453,5.453,0,0,0-.933.1,5.909,5.909,0,0,0-4.558,5.9v2.025a5.871,5.871,0,0,0,4.316,5.8,5.531,5.531,0,0,0,1.7.132,2.722,2.722,0,0,1,2.853,2.272,27.917,27.917,0,0,0,54.924,0,2.715,2.715,0,0,1,2.706-2.255h.576a5.59,5.59,0,0,0,5.59-5.59v-2.795A5.589,5.589,0,0,0,218.865,106.856Z" transform="translate(-126.814 -62.318)"/>
            <g id="Group_157" data-name="Group 157" transform="translate(2.611 108.606)">
              <path id="Path_193" data-name="Path 193" class="cls-3" d="M102.3,323.657,90.145,311.5a16.715,16.715,0,0,0-2.483,9.418L89.98,378.79h17.236V335.515A16.77,16.77,0,0,0,102.3,323.657Z" transform="translate(-87.649 -311.498)"/>
              <path id="Path_194" data-name="Path 194" class="cls-3" d="M373.137,323.657,385.3,311.5a16.715,16.715,0,0,1,2.483,9.418l-2.318,57.873H368.225V335.515A16.767,16.767,0,0,1,373.137,323.657Z" transform="translate(-270.4 -311.498)"/>
            </g>
            <path id="Path_195" data-name="Path 195" class="cls-4" d="M250.786,318.071,245.092,304.1h-1.535l-4.778,13.975Z" transform="translate(-183.476 -198.071)"/>
            <g id="Group_158" data-name="Group 158" transform="translate(30.563 86.549)">
              <path id="Path_196" data-name="Path 196" class="cls-7" d="M191.722,277.39l-19.34-21.249-4.561,3.35,12.987,19.481c1.957,2.935,3.441,4.647,5.936,2.153Z" transform="translate(-167.821 -251.107)"/>
              <path id="Path_197" data-name="Path 197" class="cls-3" d="M256,267.8l22.359-19.564,8.385,8.385L273.754,276.1a5.59,5.59,0,0,1-8.6.852Z" transform="translate(-225.254 -248.235)"/>
            </g>
            <path id="Path_198" data-name="Path 198" class="cls-8" d="M171.353,128.477V111.708l-8.385,8.385-5.685-2.795h0a5.48,5.48,0,0,0-.933.1,5.908,5.908,0,0,0-4.558,5.9v2.025a5.87,5.87,0,0,0,4.316,5.8,5.545,5.545,0,0,0,1.7.132,2.721,2.721,0,0,1,2.853,2.272,27.847,27.847,0,0,0,33,22.33A27.958,27.958,0,0,1,171.353,128.477Z" transform="translate(-126.815 -72.76)"/>
            <path id="Path_199" data-name="Path 199" class="cls-6" d="M182.131,376.757H170.952a2.615,2.615,0,1,0,0,5.23h11.179a2.615,2.615,0,0,0,0-5.23Z" transform="translate(-137.594 -245.398)"/>
            <path id="Path_200" data-name="Path 200" class="cls-6" d="M190.367,99.353l-16.341-6.3-8.35-8.35a2.609,2.609,0,0,0-2.029-.759V76.818A30.425,30.425,0,0,0,171.5,61.362a.349.349,0,0,1,.162-.166,8.167,8.167,0,0,0,2.2-.149,8.467,8.467,0,0,0,6.562-8.4V50.465a8.577,8.577,0,0,0-2.672-6.237c2.688-14.346.56-26.021-6.179-33.8C165.088,2.944,154.631-.629,141.327.091a39.528,39.528,0,0,0-22.835,8.468c-3.328.415-13.177,2.8-13.177,16.5a74.021,74.021,0,0,0,2.151,17.629A8.456,8.456,0,0,0,102.52,50.5v2.145a8.468,8.468,0,0,0,6.562,8.4,8.141,8.141,0,0,0,2.2.149.351.351,0,0,1,.162.164,30.432,30.432,0,0,0,7.849,15.458v7.123a2.609,2.609,0,0,0-2.029.759l-8.35,8.35-16.341,6.3a19.379,19.379,0,0,0-12.393,18.861L82.491,176a2.615,2.615,0,0,0,2.611,2.51l.107,0a2.615,2.615,0,0,0,2.508-2.717L85.4,118a14.134,14.134,0,0,1,.667-4.9l9.51,9.51a14.062,14.062,0,0,1,4.146,10.009V175.9a2.615,2.615,0,1,0,5.23,0V132.623a19.258,19.258,0,0,0-5.678-13.707L88.7,108.34a14.13,14.13,0,0,1,5.75-4.108L109.828,98.3l11.709,17.563a8.174,8.174,0,0,0,6.019,3.613q.41.041.817.04a8.163,8.163,0,0,0,4.611-1.425l-2.512,57.691a2.615,2.615,0,0,0,2.5,2.726l.116,0a2.615,2.615,0,0,0,2.61-2.5l2.321-53.309h6.9l2.321,53.309a2.615,2.615,0,0,0,2.61,2.5l.116,0a2.615,2.615,0,0,0,2.5-2.726l-2.512-57.69a8.158,8.158,0,0,0,4.611,1.425c.271,0,.544-.014.817-.04a8.177,8.177,0,0,0,6.019-3.614L173.111,98.3l15.376,5.931a14.134,14.134,0,0,1,5.75,4.108l-10.576,10.576a19.258,19.258,0,0,0-5.678,13.707V175.9a2.615,2.615,0,1,0,5.23,0V132.624a14.062,14.062,0,0,1,4.146-10.009l9.51-9.51a14.134,14.134,0,0,1,.667,4.9l-2.314,57.789a2.615,2.615,0,0,0,2.508,2.717l.107,0a2.615,2.615,0,0,0,2.611-2.51l2.314-57.788A19.384,19.384,0,0,0,190.367,99.353Zm-48.9,3.286L124.519,87.808V81.228a30.508,30.508,0,0,0,33.9,0v6.58ZM110.927,55.977a2.921,2.921,0,0,1-.8-.054,3.272,3.272,0,0,1-2.381-3.28V50.5a3.169,3.169,0,0,1,2.416-3.208,2.965,2.965,0,0,1,2.916,1.118,3.793,3.793,0,0,0,5.216.822,21.448,21.448,0,0,0,5.762-6.087,2.615,2.615,0,1,0-4.417-2.8,16.418,16.418,0,0,1-3.357,3.844,8.177,8.177,0,0,0-3.522-1.913,68.581,68.581,0,0,1-2.218-17.213c0-10.91,8.123-11.346,9.03-11.36a2.614,2.614,0,0,0,1.812-.73c.073-.069,7.387-6.965,20.222-7.659,11.631-.628,20.623,2.322,26,8.534,5.477,6.324,7.263,16.045,5.21,28.2a12.415,12.415,0,0,0-3.077.207l-2.922-7.016a2.617,2.617,0,0,0-3.076-1.524c-.279.073-28.1,7.129-39.817-7.462a2.615,2.615,0,1,0-4.077,3.275c11.842,14.744,35.568,11.277,42.989,9.755l2.288,5.494a4.538,4.538,0,0,0,5.245,2.69,6.779,6.779,0,0,1,2.394-.167,3.2,3.2,0,0,1,2.419,3.169v2.178a3.272,3.272,0,0,1-2.381,3.28,2.918,2.918,0,0,1-.8.054,5.445,5.445,0,0,0-5.656,4.437,25.3,25.3,0,0,1-49.769,0A5.439,5.439,0,0,0,110.927,55.977Zm17.142,58.3a2.965,2.965,0,0,1-2.182-1.31l-11.8-17.7,5.139-5.139,18.414,16.113-7.176,7.177A2.961,2.961,0,0,1,128.069,114.274Zm10.175,3.2.2-4.64,3.022-3.022,3.021,3.022.2,4.64Zm18.8-4.509a2.975,2.975,0,0,1-4.579.453l-7.176-7.177,18.414-16.113,5.139,5.139Z" transform="translate(-80.161 0)"/>
          </g>
          <path id="Path_250" data-name="Path 250" class="cls-9" d="M2813.581,10161.252a17.641,17.641,0,0,0,18.081,0" transform="translate(-1962.932 -9615.76)"/>
          <path id="Path_251" data-name="Path 251" class="cls-9" d="M2813.582,10161.252a23.094,23.094,0,0,0,20.9,0" transform="translate(-1916.44 -9617.033)"/>
          <path id="Path_252" data-name="Path 252" class="cls-9" d="M2813.581,10161.252a50.793,50.793,0,0,0,31.548,0" transform="translate(-1945.767 -9615.76)"/>
          <path id="Path_253" data-name="Path 253" class="cls-9" d="M2813.582,10161.252a49.336,49.336,0,0,0,31.079,0" transform="translate(-1898.236 -9615.76)"/>
          <path id="Path_254" data-name="Path 254" class="cls-9" d="M2813.22,10161.282a17.553,17.553,0,0,0,17.794-.337" transform="translate(-1866.594 -9615.72)"/>
        </g>
        <g id="Group_75" data-name="Group 75" transform="translate(979.293 641.949) rotate(-90)">
          <g id="Ellipse_5" data-name="Ellipse 5" class="cls-10" transform="translate(0 0)">
            <ellipse class="cls-28" cx="33.965" cy="33.937" rx="33.965" ry="33.937"/>
            <ellipse class="cls-29" cx="33.965" cy="33.937" rx="31.465" ry="31.437"/>
          </g>
          <path id="Path_29" data-name="Path 29" class="cls-6" d="M3.9,2.339a24.25,24.25,0,0,0-2.423.122,1.428,1.428,0,0,1-.157.008A1.283,1.283,0,0,1,0,1.437,1.213,1.213,0,0,1,1.172.141,26.84,26.84,0,0,1,3.928,0h.016l.017,1.168V0a1.232,1.232,0,0,1,1.3,1.168A1.287,1.287,0,0,1,3.9,2.339Z" transform="translate(60.239 29.985) rotate(90)"/>
          <path id="Path_30" data-name="Path 30" class="cls-6" d="M4.217,2.217a23.479,23.479,0,0,0-2.159,1.09,1.459,1.459,0,0,1-.726.19A1.394,1.394,0,0,1,.213,2.968,1.084,1.084,0,0,1,.6,1.351,26.015,26.015,0,0,1,3.017.132,1.425,1.425,0,0,1,4.81.649a1.105,1.105,0,0,1-.593,1.569Z" transform="translate(58.114 20.148) rotate(90)"/>
          <path id="Path_31" data-name="Path 31" class="cls-6" d="M2.616,3.68a1.312,1.312,0,0,1-1.292.884A1.549,1.549,0,0,1,1,4.529,1.166,1.166,0,0,1,.03,3.113C.251,2.336.513,1.557.812.8A1.386,1.386,0,0,1,2.506.072a1.141,1.141,0,0,1,.832,1.485C3.062,2.251,2.821,2.967,2.616,3.68Z" transform="translate(44.274 8.435) rotate(90)"/>
          <path id="Path_32" data-name="Path 32" class="cls-6" d="M2.366.43C2.9,1,3.46,1.552,4.045,2.071a1.068,1.068,0,0,1-.013,1.652,1.469,1.469,0,0,1-1.883-.009C1.5,3.14.883,2.534.3,1.907A1.072,1.072,0,0,1,.492.263,1.465,1.465,0,0,1,2.366.43Z" transform="translate(17.98 14.166) rotate(90)"/>
          <path id="Path_33" data-name="Path 33" class="cls-6" d="M.227,2.369C.743,1.7,1.3,1.048,1.88.428A1.465,1.465,0,0,1,3.759.267a1.074,1.074,0,0,1,.183,1.645C3.411,2.478,2.9,3.072,2.434,3.68a1.392,1.392,0,0,1-1.1.513,1.468,1.468,0,0,1-.747-.2A1.082,1.082,0,0,1,.227,2.369Z" transform="translate(52.326 12.697) rotate(90)"/>
          <path id="Path_34" data-name="Path 34" class="cls-6" d="M1.937.135a23.455,23.455,0,0,0,2.274.884,1.13,1.13,0,0,1,.777,1.5,1.338,1.338,0,0,1-1.248.757,1.5,1.5,0,0,1-.471-.076A26.546,26.546,0,0,1,.716,2.211,1.1,1.1,0,0,1,.141.639a1.428,1.428,0,0,1,1.8-.5Z" transform="translate(12.153 22.284) rotate(90)"/>
          <path id="Path_35" data-name="Path 35" class="cls-6" d="M1.39.145A23.851,23.851,0,0,0,3.866.016,1.3,1.3,0,0,1,5.347,1.039a1.214,1.214,0,0,1-1.165,1.3,27.093,27.093,0,0,1-2.794.145H1.276A1.2,1.2,0,0,1,0,1.314,1.315,1.315,0,0,1,1.39.145Z" transform="translate(10.096 32.499) rotate(90)"/>
          <path id="Path_36" data-name="Path 36" class="cls-6" d="M.9.07A1.382,1.382,0,0,1,2.586.8c.269.7.576,1.394.91,2.068a1.118,1.118,0,0,1-.691,1.537,1.481,1.481,0,0,1-.531.1,1.353,1.353,0,0,1-1.224-.7C.687,3.069.356,2.31.061,1.549A1.138,1.138,0,0,1,.9.07Z" transform="translate(26.073 9.132) rotate(90)"/>
          <path id="Path_37" data-name="Path 37" class="cls-6" d="M1.333,0a1.288,1.288,0,0,1,1.335,1.2c0,.721.031,1.444.093,2.148A1.227,1.227,0,0,1,1.535,4.612c-.035,0-.071,0-.1,0A1.274,1.274,0,0,1,.1,3.538C.033,2.774,0,1.993,0,1.208V1.135A1.229,1.229,0,0,1,1.333,0Z" transform="translate(35.136 7.453) rotate(90)"/>
          <path id="Path_38" data-name="Path 38" class="cls-6" d="M.1,3.464C.1,2.736.066,2,0,1.267A1.229,1.229,0,0,1,1.224.008,1.3,1.3,0,0,1,2.657,1.081c.071.789.1,1.591.1,2.379v.027A1.248,1.248,0,0,1,1.43,4.643,1.267,1.267,0,0,1,.1,3.464Z" transform="translate(37.39 57.562) rotate(90)"/>
          <path id="Path_39" data-name="Path 39" class="cls-6" d="M.774.9A1.356,1.356,0,0,1,2.391.044,1.167,1.167,0,0,1,3.363,1.46c-.221.778-.483,1.557-.78,2.316a1.332,1.332,0,0,1-1.261.791A1.525,1.525,0,0,1,.892,4.5,1.141,1.141,0,0,1,.062,3.02C.332,2.326.572,1.61.774.9Z" transform="translate(28.2 55.966) rotate(90)"/>
          <path id="Path_40" data-name="Path 40" class="cls-6" d="M3.738,3.278a1.483,1.483,0,0,1-.6-.127A23.723,23.723,0,0,0,.856,2.271,1.132,1.132,0,0,1,.075.767,1.39,1.39,0,0,1,1.79.083a26.6,26.6,0,0,1,2.554.987,1.1,1.1,0,0,1,.582,1.57,1.368,1.368,0,0,1-1.189.638Z" transform="translate(59.004 40.377) rotate(90)"/>
          <path id="Path_41" data-name="Path 41" class="cls-6" d="M.79.107a1.4,1.4,0,0,1,1.755.6c.366.732.7,1.49,1,2.253a1.143,1.143,0,0,1-.834,1.483A1.5,1.5,0,0,1,2.28,4.5a1.333,1.333,0,0,1-1.262-.793c-.27-.7-.579-1.4-.915-2.066A1.119,1.119,0,0,1,.79.107Z" transform="translate(46.339 55.026) rotate(90)"/>
          <path id="Path_42" data-name="Path 42" class="cls-6" d="M.725,1.288A23.439,23.439,0,0,0,2.881.193,1.453,1.453,0,0,1,4.727.53a1.084,1.084,0,0,1-.385,1.617A26.377,26.377,0,0,1,1.929,3.371a1.47,1.47,0,0,1-.6.126,1.366,1.366,0,0,1-1.19-.639,1.1,1.1,0,0,1,.588-1.57Z" transform="translate(13.263 42.738) rotate(90)"/>
          <path id="Path_43" data-name="Path 43" class="cls-6" d="M1.8.516A1.454,1.454,0,0,1,3.656.2a1.083,1.083,0,0,1,.357,1.622c-.523.676-1.077,1.33-1.65,1.944A1.413,1.413,0,0,1,1.332,4.2a1.442,1.442,0,0,1-.844-.264A1.074,1.074,0,0,1,.3,2.286C.821,1.729,1.327,1.133,1.8.516Z" transform="translate(19.762 50.876) rotate(90)"/>
          <path id="Path_44" data-name="Path 44" class="cls-6" d="M2.28.346c.642.568,1.266,1.175,1.854,1.8a1.071,1.071,0,0,1-.189,1.643,1.448,1.448,0,0,1-.842.262,1.409,1.409,0,0,1-1.033-.428C1.536,3.058.971,2.507.387,1.992A1.068,1.068,0,0,1,.4.34,1.465,1.465,0,0,1,2.28.346Z" transform="translate(53.967 49.143) rotate(90)"/>
          <path id="Path_136" data-name="Path 136" class="cls-4" d="M7.709,8.809h7.707a2.2,2.2,0,1,0,0-4.4h-4.4V2.2a2.2,2.2,0,0,0-4.4,0V4.516a7.691,7.691,0,0,0,1.1,15.3h2.2a3.3,3.3,0,1,1,0,6.607H2.2a2.2,2.2,0,1,0,0,4.4h4.4v2.2a2.2,2.2,0,0,0,4.4,0V30.718a7.691,7.691,0,0,0-1.1-15.3h-2.2a3.3,3.3,0,1,1,0-6.607Z" transform="translate(50.361 25.547) rotate(90)"/>
        </g>
      </g>
    </g>
    <g id="Group_233" data-name="Group 233" transform="translate(-35 441)">
      <text id="BLOQ_INVESTOR" data-name="BLOQ INVESTOR" class="cls-2" transform="translate(884 683)"><tspan x="0" y="0">BLOQ INVESTOR</tspan></text>
      <g id="Group_231-2" data-name="Group 231" transform="translate(88 89)">
        <g id="employee_1_2" data-name="employee (1)" transform="translate(846 369)">
          <path id="Path_187-2" data-name="Path 187" class="cls-3" d="M194.411,279.1l-17.322-6.815H115.6L98.278,279.1a16.769,16.769,0,0,0-10.616,16.276l2.318,57.873h112.73l2.318-57.873A16.769,16.769,0,0,0,194.411,279.1Z" transform="translate(-85.038 -177.349)"/>
          <path id="Path_188-2" data-name="Path 188" class="cls-4" d="M239.222,304.1l-5.185,69.872h15.314L244.657,304.1Z" transform="translate(-180.387 -198.071)"/>
          <rect id="Rectangle_125-2" data-name="Rectangle 125" class="cls-3" width="39.13" height="33.538" transform="translate(41.744 72.486)"/>
          <path id="Path_189-2" data-name="Path 189" class="cls-5" d="M199.884,221.717a36.162,36.162,0,0,0,39.128,0V207.9H199.884Z" transform="translate(-158.142 -135.415)"/>
          <path id="Path_190-2" data-name="Path 190" class="cls-6" d="M193.343,7.585c-13.954.754-21.893,8.385-21.893,8.385s-11.646,0-11.646,13.975A104.417,104.417,0,0,0,162.6,52.215h64.283C232.471,21.472,219.2,6.187,193.343,7.585Z" transform="translate(-132.036 -4.883)"/>
          <path id="Path_191-2" data-name="Path 191" class="cls-6" d="M182.163,56.864C165.394,42.89,171.45,31.8,171.45,31.8S159.8,31.8,159.8,45.773A104.417,104.417,0,0,0,162.6,68.044h19.564V56.864Z" transform="translate(-132.036 -20.711)"/>
          <path id="Path_192-2" data-name="Path 192" class="cls-3" d="M218.865,106.856H216.07l-4.658-8.5c-23,4.791-34.47-2.678-34.47-2.678l-13.975,13.975-5.685-2.795h0a5.453,5.453,0,0,0-.933.1,5.909,5.909,0,0,0-4.558,5.9v2.025a5.871,5.871,0,0,0,4.316,5.8,5.531,5.531,0,0,0,1.7.132,2.722,2.722,0,0,1,2.853,2.272,27.917,27.917,0,0,0,54.924,0,2.715,2.715,0,0,1,2.706-2.255h.576a5.59,5.59,0,0,0,5.59-5.59v-2.795A5.589,5.589,0,0,0,218.865,106.856Z" transform="translate(-126.814 -62.318)"/>
          <g id="Group_157-2" data-name="Group 157" transform="translate(2.611 108.606)">
            <path id="Path_193-2" data-name="Path 193" class="cls-3" d="M102.3,323.657,90.145,311.5a16.715,16.715,0,0,0-2.483,9.418L89.98,378.79h17.236V335.515A16.77,16.77,0,0,0,102.3,323.657Z" transform="translate(-87.649 -311.498)"/>
            <path id="Path_194-2" data-name="Path 194" class="cls-3" d="M373.137,323.657,385.3,311.5a16.715,16.715,0,0,1,2.483,9.418l-2.318,57.873H368.225V335.515A16.767,16.767,0,0,1,373.137,323.657Z" transform="translate(-270.4 -311.498)"/>
          </g>
          <path id="Path_195-2" data-name="Path 195" class="cls-4" d="M250.786,318.071,245.092,304.1h-1.535l-4.778,13.975Z" transform="translate(-183.476 -198.071)"/>
          <g id="Group_158-2" data-name="Group 158" transform="translate(30.563 86.549)">
            <path id="Path_196-2" data-name="Path 196" class="cls-7" d="M191.722,277.39l-19.34-21.249-4.561,3.35,12.987,19.481c1.957,2.935,3.441,4.647,5.936,2.153Z" transform="translate(-167.821 -251.107)"/>
            <path id="Path_197-2" data-name="Path 197" class="cls-3" d="M256,267.8l22.359-19.564,8.385,8.385L273.754,276.1a5.59,5.59,0,0,1-8.6.852Z" transform="translate(-225.254 -248.235)"/>
          </g>
          <path id="Path_198-2" data-name="Path 198" class="cls-8" d="M171.353,128.477V111.708l-8.385,8.385-5.685-2.795h0a5.48,5.48,0,0,0-.933.1,5.908,5.908,0,0,0-4.558,5.9v2.025a5.87,5.87,0,0,0,4.316,5.8,5.545,5.545,0,0,0,1.7.132,2.721,2.721,0,0,1,2.853,2.272,27.847,27.847,0,0,0,33,22.33A27.958,27.958,0,0,1,171.353,128.477Z" transform="translate(-126.815 -72.76)"/>
          <path id="Path_199-2" data-name="Path 199" class="cls-6" d="M182.131,376.757H170.952a2.615,2.615,0,1,0,0,5.23h11.179a2.615,2.615,0,0,0,0-5.23Z" transform="translate(-137.594 -245.398)"/>
          <path id="Path_200-2" data-name="Path 200" class="cls-6" d="M190.367,99.353l-16.341-6.3-8.35-8.35a2.609,2.609,0,0,0-2.029-.759V76.818A30.425,30.425,0,0,0,171.5,61.362a.349.349,0,0,1,.162-.166,8.167,8.167,0,0,0,2.2-.149,8.467,8.467,0,0,0,6.562-8.4V50.465a8.577,8.577,0,0,0-2.672-6.237c2.688-14.346.56-26.021-6.179-33.8C165.088,2.944,154.631-.629,141.327.091a39.528,39.528,0,0,0-22.835,8.468c-3.328.415-13.177,2.8-13.177,16.5a74.021,74.021,0,0,0,2.151,17.629A8.456,8.456,0,0,0,102.52,50.5v2.145a8.468,8.468,0,0,0,6.562,8.4,8.141,8.141,0,0,0,2.2.149.351.351,0,0,1,.162.164,30.432,30.432,0,0,0,7.849,15.458v7.123a2.609,2.609,0,0,0-2.029.759l-8.35,8.35-16.341,6.3a19.379,19.379,0,0,0-12.393,18.861L82.491,176a2.615,2.615,0,0,0,2.611,2.51l.107,0a2.615,2.615,0,0,0,2.508-2.717L85.4,118a14.134,14.134,0,0,1,.667-4.9l9.51,9.51a14.062,14.062,0,0,1,4.146,10.009V175.9a2.615,2.615,0,1,0,5.23,0V132.623a19.258,19.258,0,0,0-5.678-13.707L88.7,108.34a14.13,14.13,0,0,1,5.75-4.108L109.828,98.3l11.709,17.563a8.174,8.174,0,0,0,6.019,3.613q.41.041.817.04a8.163,8.163,0,0,0,4.611-1.425l-2.512,57.691a2.615,2.615,0,0,0,2.5,2.726l.116,0a2.615,2.615,0,0,0,2.61-2.5l2.321-53.309h6.9l2.321,53.309a2.615,2.615,0,0,0,2.61,2.5l.116,0a2.615,2.615,0,0,0,2.5-2.726l-2.512-57.69a8.158,8.158,0,0,0,4.611,1.425c.271,0,.544-.014.817-.04a8.177,8.177,0,0,0,6.019-3.614L173.111,98.3l15.376,5.931a14.134,14.134,0,0,1,5.75,4.108l-10.576,10.576a19.258,19.258,0,0,0-5.678,13.707V175.9a2.615,2.615,0,1,0,5.23,0V132.624a14.062,14.062,0,0,1,4.146-10.009l9.51-9.51a14.134,14.134,0,0,1,.667,4.9l-2.314,57.789a2.615,2.615,0,0,0,2.508,2.717l.107,0a2.615,2.615,0,0,0,2.611-2.51l2.314-57.788A19.384,19.384,0,0,0,190.367,99.353Zm-48.9,3.286L124.519,87.808V81.228a30.508,30.508,0,0,0,33.9,0v6.58ZM110.927,55.977a2.921,2.921,0,0,1-.8-.054,3.272,3.272,0,0,1-2.381-3.28V50.5a3.169,3.169,0,0,1,2.416-3.208,2.965,2.965,0,0,1,2.916,1.118,3.793,3.793,0,0,0,5.216.822,21.448,21.448,0,0,0,5.762-6.087,2.615,2.615,0,1,0-4.417-2.8,16.418,16.418,0,0,1-3.357,3.844,8.177,8.177,0,0,0-3.522-1.913,68.581,68.581,0,0,1-2.218-17.213c0-10.91,8.123-11.346,9.03-11.36a2.614,2.614,0,0,0,1.812-.73c.073-.069,7.387-6.965,20.222-7.659,11.631-.628,20.623,2.322,26,8.534,5.477,6.324,7.263,16.045,5.21,28.2a12.415,12.415,0,0,0-3.077.207l-2.922-7.016a2.617,2.617,0,0,0-3.076-1.524c-.279.073-28.1,7.129-39.817-7.462a2.615,2.615,0,1,0-4.077,3.275c11.842,14.744,35.568,11.277,42.989,9.755l2.288,5.494a4.538,4.538,0,0,0,5.245,2.69,6.779,6.779,0,0,1,2.394-.167,3.2,3.2,0,0,1,2.419,3.169v2.178a3.272,3.272,0,0,1-2.381,3.28,2.918,2.918,0,0,1-.8.054,5.445,5.445,0,0,0-5.656,4.437,25.3,25.3,0,0,1-49.769,0A5.439,5.439,0,0,0,110.927,55.977Zm17.142,58.3a2.965,2.965,0,0,1-2.182-1.31l-11.8-17.7,5.139-5.139,18.414,16.113-7.176,7.177A2.961,2.961,0,0,1,128.069,114.274Zm10.175,3.2.2-4.64,3.022-3.022,3.021,3.022.2,4.64Zm18.8-4.509a2.975,2.975,0,0,1-4.579.453l-7.176-7.177,18.414-16.113,5.139,5.139Z" transform="translate(-80.161 0)"/>
        </g>
        <path id="Path_250-2" data-name="Path 250" class="cls-11" d="M2813.581,10161.252a15.166,15.166,0,0,0,18.081,0" transform="translate(-1962.932 -9616.76)"/>
        <path id="Path_251-2" data-name="Path 251" class="cls-9" d="M2813.582,10161.252a23.094,23.094,0,0,0,20.9,0" transform="translate(-1916.44 -9617.033)"/>
        <path id="Path_252-2" data-name="Path 252" class="cls-9" d="M2813.581,10161.252a50.793,50.793,0,0,0,31.548,0" transform="translate(-1945.767 -9615.76)"/>
        <path id="Path_253-2" data-name="Path 253" class="cls-9" d="M2813.582,10161.252a49.336,49.336,0,0,0,31.079,0" transform="translate(-1898.236 -9615.76)"/>
        <path id="Path_254-2" data-name="Path 254" class="cls-9" d="M2813.22,10161.282a17.553,17.553,0,0,0,17.794-.337" transform="translate(-1866.594 -9615.72)"/>
      </g>
    </g>
    <g id="Group_241" data-name="Group 241" transform="translate(-551 441)">
      <text id="BLOQ_MANAGER" data-name="BLOQ MANAGER" class="cls-2" transform="translate(884 683)"><tspan x="0" y="0">BLOQ MANAGER</tspan></text>
      <g id="Group_231-3" data-name="Group 231" transform="translate(90 89)">
        <g id="employee_1_3" data-name="employee (1)" transform="translate(846 369)">
          <path id="Path_187-3" data-name="Path 187" class="cls-4" d="M194.411,279.1l-17.322-6.815H115.6L98.278,279.1a16.769,16.769,0,0,0-10.616,16.276l2.318,57.873h112.73l2.318-57.873A16.769,16.769,0,0,0,194.411,279.1Z" transform="translate(-85.038 -177.349)"/>
          <path id="Path_188-3" data-name="Path 188" class="cls-3" d="M239.222,304.1l-5.185,69.872h15.314L244.657,304.1Z" transform="translate(-180.387 -198.071)"/>
          <rect id="Rectangle_125-3" data-name="Rectangle 125" class="cls-3" width="39.13" height="33.538" transform="translate(41.744 72.486)"/>
          <path id="Path_189-3" data-name="Path 189" class="cls-5" d="M199.884,221.717a36.162,36.162,0,0,0,39.128,0V207.9H199.884Z" transform="translate(-158.142 -135.415)"/>
          <path id="Path_190-3" data-name="Path 190" class="cls-6" d="M193.343,7.585c-13.954.754-21.893,8.385-21.893,8.385s-11.646,0-11.646,13.975A104.417,104.417,0,0,0,162.6,52.215h64.283C232.471,21.472,219.2,6.187,193.343,7.585Z" transform="translate(-132.036 -4.883)"/>
          <path id="Path_191-3" data-name="Path 191" class="cls-6" d="M182.163,56.864C165.394,42.89,171.45,31.8,171.45,31.8S159.8,31.8,159.8,45.773A104.417,104.417,0,0,0,162.6,68.044h19.564V56.864Z" transform="translate(-132.036 -20.711)"/>
          <path id="Path_192-3" data-name="Path 192" class="cls-3" d="M218.865,106.856H216.07l-4.658-8.5c-23,4.791-34.47-2.678-34.47-2.678l-13.975,13.975-5.685-2.795h0a5.453,5.453,0,0,0-.933.1,5.909,5.909,0,0,0-4.558,5.9v2.025a5.871,5.871,0,0,0,4.316,5.8,5.531,5.531,0,0,0,1.7.132,2.722,2.722,0,0,1,2.853,2.272,27.917,27.917,0,0,0,54.924,0,2.715,2.715,0,0,1,2.706-2.255h.576a5.59,5.59,0,0,0,5.59-5.59v-2.795A5.589,5.589,0,0,0,218.865,106.856Z" transform="translate(-126.814 -62.318)"/>
          <g id="Group_157-3" data-name="Group 157" transform="translate(2.611 108.606)">
            <path id="Path_193-3" data-name="Path 193" class="cls-4" d="M102.3,323.657,90.145,311.5a16.715,16.715,0,0,0-2.483,9.418L89.98,378.79h17.236V335.515A16.77,16.77,0,0,0,102.3,323.657Z" transform="translate(-87.649 -311.498)"/>
            <path id="Path_194-3" data-name="Path 194" class="cls-4" d="M373.137,323.657,385.3,311.5a16.715,16.715,0,0,1,2.483,9.418l-2.318,57.873H368.225V335.515A16.767,16.767,0,0,1,373.137,323.657Z" transform="translate(-270.4 -311.498)"/>
          </g>
          <path id="Path_195-3" data-name="Path 195" class="cls-3" d="M250.786,318.071,245.092,304.1h-1.535l-4.778,13.975Z" transform="translate(-183.476 -198.071)"/>
          <g id="Group_158-3" data-name="Group 158" transform="translate(30.563 86.549)">
            <path id="Path_196-3" data-name="Path 196" class="cls-4" d="M196.46,271.741l-20.24-18.135-8.4,5.885,12.987,19.481c1.957,2.935,3.441,4.647,5.936,2.153Z" transform="translate(-167.821 -251.107)"/>
            <path id="Path_197-3" data-name="Path 197" class="cls-4" d="M256,267.8l22.359-19.564,8.385,8.385L273.754,276.1a5.59,5.59,0,0,1-8.6.852Z" transform="translate(-225.254 -248.235)"/>
          </g>
          <path id="Path_198-3" data-name="Path 198" class="cls-8" d="M171.353,128.477V111.708l-8.385,8.385-5.685-2.795h0a5.48,5.48,0,0,0-.933.1,5.908,5.908,0,0,0-4.558,5.9v2.025a5.87,5.87,0,0,0,4.316,5.8,5.545,5.545,0,0,0,1.7.132,2.721,2.721,0,0,1,2.853,2.272,27.847,27.847,0,0,0,33,22.33A27.958,27.958,0,0,1,171.353,128.477Z" transform="translate(-126.815 -72.76)"/>
          <path id="Path_199-3" data-name="Path 199" class="cls-6" d="M182.131,376.757H170.952a2.615,2.615,0,1,0,0,5.23h11.179a2.615,2.615,0,0,0,0-5.23Z" transform="translate(-137.594 -245.398)"/>
          <path id="Path_200-3" data-name="Path 200" class="cls-6" d="M190.367,99.353l-16.341-6.3-8.35-8.35a2.609,2.609,0,0,0-2.029-.759V76.818A30.425,30.425,0,0,0,171.5,61.362a.349.349,0,0,1,.162-.166,8.167,8.167,0,0,0,2.2-.149,8.467,8.467,0,0,0,6.562-8.4V50.465a8.577,8.577,0,0,0-2.672-6.237c2.688-14.346.56-26.021-6.179-33.8C165.088,2.944,154.631-.629,141.327.091a39.528,39.528,0,0,0-22.835,8.468c-3.328.415-13.177,2.8-13.177,16.5a74.021,74.021,0,0,0,2.151,17.629A8.456,8.456,0,0,0,102.52,50.5v2.145a8.468,8.468,0,0,0,6.562,8.4,8.141,8.141,0,0,0,2.2.149.351.351,0,0,1,.162.164,30.432,30.432,0,0,0,7.849,15.458v7.123a2.609,2.609,0,0,0-2.029.759l-8.35,8.35-16.341,6.3a19.379,19.379,0,0,0-12.393,18.861L82.491,176a2.615,2.615,0,0,0,2.611,2.51l.107,0a2.615,2.615,0,0,0,2.508-2.717L85.4,118a14.134,14.134,0,0,1,.667-4.9l9.51,9.51a14.062,14.062,0,0,1,4.146,10.009V175.9a2.615,2.615,0,1,0,5.23,0V132.623a19.258,19.258,0,0,0-5.678-13.707L88.7,108.34a14.13,14.13,0,0,1,5.75-4.108L109.828,98.3l11.709,17.563a8.174,8.174,0,0,0,6.019,3.613q.41.041.817.04a8.163,8.163,0,0,0,4.611-1.425l-2.512,57.691a2.615,2.615,0,0,0,2.5,2.726l.116,0a2.615,2.615,0,0,0,2.61-2.5l2.321-53.309h6.9l2.321,53.309a2.615,2.615,0,0,0,2.61,2.5l.116,0a2.615,2.615,0,0,0,2.5-2.726l-2.512-57.69a8.158,8.158,0,0,0,4.611,1.425c.271,0,.544-.014.817-.04a8.177,8.177,0,0,0,6.019-3.614L173.111,98.3l15.376,5.931a14.134,14.134,0,0,1,5.75,4.108l-10.576,10.576a19.258,19.258,0,0,0-5.678,13.707V175.9a2.615,2.615,0,1,0,5.23,0V132.624a14.062,14.062,0,0,1,4.146-10.009l9.51-9.51a14.134,14.134,0,0,1,.667,4.9l-2.314,57.789a2.615,2.615,0,0,0,2.508,2.717l.107,0a2.615,2.615,0,0,0,2.611-2.51l2.314-57.788A19.384,19.384,0,0,0,190.367,99.353Zm-48.9,3.286L124.519,87.808V81.228a30.508,30.508,0,0,0,33.9,0v6.58ZM110.927,55.977a2.921,2.921,0,0,1-.8-.054,3.272,3.272,0,0,1-2.381-3.28V50.5a3.169,3.169,0,0,1,2.416-3.208,2.965,2.965,0,0,1,2.916,1.118,3.793,3.793,0,0,0,5.216.822,21.448,21.448,0,0,0,5.762-6.087,2.615,2.615,0,1,0-4.417-2.8,16.418,16.418,0,0,1-3.357,3.844,8.177,8.177,0,0,0-3.522-1.913,68.581,68.581,0,0,1-2.218-17.213c0-10.91,8.123-11.346,9.03-11.36a2.614,2.614,0,0,0,1.812-.73c.073-.069,7.387-6.965,20.222-7.659,11.631-.628,20.623,2.322,26,8.534,5.477,6.324,7.263,16.045,5.21,28.2a12.415,12.415,0,0,0-3.077.207l-2.922-7.016a2.617,2.617,0,0,0-3.076-1.524c-.279.073-28.1,7.129-39.817-7.462a2.615,2.615,0,1,0-4.077,3.275c11.842,14.744,35.568,11.277,42.989,9.755l2.288,5.494a4.538,4.538,0,0,0,5.245,2.69,6.779,6.779,0,0,1,2.394-.167,3.2,3.2,0,0,1,2.419,3.169v2.178a3.272,3.272,0,0,1-2.381,3.28,2.918,2.918,0,0,1-.8.054,5.445,5.445,0,0,0-5.656,4.437,25.3,25.3,0,0,1-49.769,0A5.439,5.439,0,0,0,110.927,55.977Zm17.142,58.3a2.965,2.965,0,0,1-2.182-1.31l-11.8-17.7,5.139-5.139,18.414,16.113-7.176,7.177A2.961,2.961,0,0,1,128.069,114.274Zm10.175,3.2.2-4.64,3.022-3.022,3.021,3.022.2,4.64Zm18.8-4.509a2.975,2.975,0,0,1-4.579.453l-7.176-7.177,18.414-16.113,5.139,5.139Z" transform="translate(-80.161 0)"/>
        </g>
        <path id="Path_250-3" data-name="Path 250" class="cls-11" d="M2813.581,10161.252a15.166,15.166,0,0,0,18.081,0" transform="translate(-1962.932 -9616.76)"/>
        <path id="Path_251-3" data-name="Path 251" class="cls-9" d="M2813.582,10161.252a23.094,23.094,0,0,0,20.9,0" transform="translate(-1916.44 -9617.033)"/>
        <path id="Path_252-3" data-name="Path 252" class="cls-9" d="M2813.581,10161.252a50.793,50.793,0,0,0,31.548,0" transform="translate(-1945.767 -9615.76)"/>
        <path id="Path_253-3" data-name="Path 253" class="cls-9" d="M2813.582,10161.252a49.336,49.336,0,0,0,31.079,0" transform="translate(-1898.236 -9615.76)"/>
        <path id="Path_254-3" data-name="Path 254" class="cls-9" d="M2813.22,10161.282a17.553,17.553,0,0,0,17.794-.337" transform="translate(-1866.594 -9615.72)"/>
      </g>
    </g>
    <g id="Group_238" data-name="Group 238" transform="translate(75.723 -2306.97) rotate(-5)">
      <g id="Rectangle_137" data-name="Rectangle 137" class="cls-12" transform="translate(1037.388 3456.155) rotate(-90)">
        <rect class="cls-28" width="120.367" height="74.767" rx="15"/>
        <rect class="cls-29" x="2" y="2" width="116.367" height="70.767" rx="13"/>
      </g>
      <rect id="Rectangle_138" data-name="Rectangle 138" class="cls-6" width="120.367" height="17.665" transform="translate(1050.534 3456.155) rotate(-90)"/>
      <g id="Ellipse_92" data-name="Ellipse 92" class="cls-13" transform="translate(1078.88 3382.62) rotate(-90)">
        <ellipse class="cls-28" cx="10.706" cy="10.706" rx="10.706" ry="10.706"/>
        <ellipse class="cls-29" cx="10.706" cy="10.706" rx="9.206" ry="9.206"/>
      </g>
      <g id="Ellipse_93" data-name="Ellipse 93" class="cls-14" transform="translate(1078.88 3367.835) rotate(-90)">
        <ellipse class="cls-28" cx="10.706" cy="10.706" rx="10.706" ry="10.706"/>
        <ellipse class="cls-29" cx="10.706" cy="10.706" rx="9.206" ry="9.206"/>
      </g>
    </g>
    <g id="Group_237" data-name="Group 237" transform="translate(380.612 -2430.565)">
      <g id="Rectangle_137-2" data-name="Rectangle 137" class="cls-12" transform="translate(1037.388 3456.155) rotate(-90)">
        <rect class="cls-28" width="120.367" height="74.767" rx="15"/>
        <rect class="cls-29" x="2" y="2" width="116.367" height="70.767" rx="13"/>
      </g>
      <rect id="Rectangle_138-2" data-name="Rectangle 138" class="cls-6" width="120.367" height="17.665" transform="translate(1050.534 3456.155) rotate(-90)"/>
      <g id="Ellipse_92-2" data-name="Ellipse 92" class="cls-13" transform="translate(1078.88 3382.62) rotate(-90)">
        <ellipse class="cls-28" cx="10.706" cy="10.706" rx="10.706" ry="10.706"/>
        <ellipse class="cls-29" cx="10.706" cy="10.706" rx="9.206" ry="9.206"/>
      </g>
      <g id="Ellipse_93-2" data-name="Ellipse 93" class="cls-14" transform="translate(1078.88 3367.835) rotate(-90)">
        <ellipse class="cls-28" cx="10.706" cy="10.706" rx="10.706" ry="10.706"/>
        <ellipse class="cls-29" cx="10.706" cy="10.706" rx="9.206" ry="9.206"/>
      </g>
    </g>
    <g id="Group_236" data-name="Group 236" transform="translate(0 139)">
      <g id="Group_235" data-name="Group 235" transform="translate(468 302)">
        <text id="BLOQ_WALLET" data-name="BLOQ WALLET" class="cls-2" transform="translate(884 683)"><tspan x="0" y="0">BLOQ WALLET</tspan></text>
      </g>
      <g id="wallet2" transform="translate(1337 981.328) rotate(-90)">
        <g id="Group_86" data-name="Group 86" transform="translate(50 64)">
          <g id="Group_85" data-name="Group 85">
            <g id="Group_100" data-name="Group 100">
              <rect id="Rectangle_62" data-name="Rectangle 62" class="cls-3" width="110.117" height="94.517" rx="10" transform="translate(2.198 1.827)"/>
              <g id="Group_99" data-name="Group 99">
                <rect id="Rectangle_63" data-name="Rectangle 63" class="cls-3" width="7.634" height="27.218" rx="3.817" transform="translate(107.542 35.477)"/>
                <path id="Path_144" data-name="Path 144" class="cls-15" d="M164.151,98.177h-.146V73.2a9.214,9.214,0,0,0-9.2-9.2H59.2A9.214,9.214,0,0,0,50,73.2v79.471a9.214,9.214,0,0,0,9.2,9.2h95.6a9.214,9.214,0,0,0,9.2-9.2V127.7h.146a2.846,2.846,0,0,0,3.075-3.075V101.252A2.871,2.871,0,0,0,164.151,98.177Zm-3.075,54.5c0,4.791-3.616,6.274-6.274,6.274H59.2a6.317,6.317,0,0,1-6.274-6.274V151.8h6.276c1.21,0,1.828-.742,1.828-1.465s-.618-1.465-1.828-1.465H52.929V77.005H59.2c1.21,0,1.828-.629,1.828-1.465s-.618-1.465-1.828-1.465H52.929V73.2A6.341,6.341,0,0,1,59.2,66.929h95.6a6.332,6.332,0,0,1,6.274,6.274V98.177H131.428c-8.941,0-14.762,5.821-14.762,14.762s5.821,14.762,14.762,14.762h29.648Zm3.221-28.049a.146.146,0,0,1-.146.146H131.428c-8.647,0-11.833-5.308-11.833-11.833s3.83-11.833,11.833-11.833h32.723a.146.146,0,0,1,.146.146Z" transform="translate(-50 -64)"/>
                <path id="Path_160" data-name="Path 160" class="cls-16" d="M394.2,349.994h2.337c1.387,0,1.465-.1,1.465-1.465v-2.337c0-.69.047-2.191-1.465-2.191s-1.465,1.708-1.465,2.918v.146h-.146c-1.47,0-2.918.1-2.918,1.465C392.006,349.771,392.987,349.994,394.2,349.994Z" transform="translate(-294.069 -262.192)"/>
                <path id="Path_170" data-name="Path 170" class="cls-16" d="M2.191,5.993H4.529c1.387,0,1.465-.1,1.465-1.465V2.191C5.993,1.5,6.041,0,4.529,0S3.064,1.708,3.064,2.918v.146H2.918C1.448,3.064,0,3.167,0,4.529,0,5.77.981,5.993,2.191,5.993Z" transform="translate(97.938 15.86) rotate(-90)"/>
                <circle id="Ellipse_25" data-name="Ellipse 25" class="cls-4" cx="6.932" cy="6.932" r="6.932" transform="matrix(0.966, -0.259, 0.259, 0.966, 73.016, 44.092)"/>
                <path id="Path_162" data-name="Path 162" class="cls-17" d="M13.864.323A6.932,6.932,0,1,1,0,.323C0-1.534.141,4.985,6.757,4.874,13.788,4.757,13.864-1.649,13.864.323Z" transform="matrix(0.966, -0.259, 0.259, 0.966, 74.726, 50.476)"/>
                <g id="Rectangle_76" data-name="Rectangle 76" class="cls-16" transform="translate(65.234 84.707)">
                  <rect class="cls-28" width="11.264" height="3.27" rx="1.635"/>
                  <rect class="cls-29" x="0.5" y="0.5" width="10.264" height="2.27" rx="1.135"/>
                </g>
                <g id="Rectangle_84" data-name="Rectangle 84" class="cls-16" transform="translate(65.234 9.858)">
                  <rect class="cls-28" width="11.264" height="3.27" rx="1.635"/>
                  <rect class="cls-29" x="0.5" y="0.5" width="10.264" height="2.27" rx="1.135"/>
                </g>
                <g id="Rectangle_80" data-name="Rectangle 80" class="cls-16" transform="translate(81.585 84.707)">
                  <rect class="cls-28" width="11.264" height="3.27" rx="1.635"/>
                  <rect class="cls-29" x="0.5" y="0.5" width="10.264" height="2.27" rx="1.135"/>
                </g>
                <g id="Rectangle_83" data-name="Rectangle 83" class="cls-16" transform="translate(81.585 9.858)">
                  <rect class="cls-28" width="11.264" height="3.27" rx="1.635"/>
                  <rect class="cls-29" x="0.5" y="0.5" width="10.264" height="2.27" rx="1.135"/>
                </g>
                <g id="Rectangle_81" data-name="Rectangle 81" class="cls-16" transform="translate(104.112 66.54) rotate(90)">
                  <rect class="cls-28" width="11.264" height="3.27" rx="1.635"/>
                  <rect class="cls-29" x="0.5" y="0.5" width="10.264" height="2.27" rx="1.135"/>
                </g>
                <g id="Rectangle_82" data-name="Rectangle 82" class="cls-16" transform="translate(104.112 20.032) rotate(90)">
                  <rect class="cls-28" width="11.264" height="3.27" rx="1.635"/>
                  <rect class="cls-29" x="0.5" y="0.5" width="10.264" height="2.27" rx="1.135"/>
                </g>
                <g id="Rectangle_79" data-name="Rectangle 79" class="cls-16" transform="translate(32.533 84.707)">
                  <rect class="cls-28" width="11.264" height="3.27" rx="1.635"/>
                  <rect class="cls-29" x="0.5" y="0.5" width="10.264" height="2.27" rx="1.135"/>
                </g>
                <g id="Rectangle_86" data-name="Rectangle 86" class="cls-16" transform="translate(32.533 9.858)">
                  <rect class="cls-28" width="11.264" height="3.27" rx="1.635"/>
                  <rect class="cls-29" x="0.5" y="0.5" width="10.264" height="2.27" rx="1.135"/>
                </g>
                <g id="Rectangle_77" data-name="Rectangle 77" class="cls-16" transform="translate(48.884 84.707)">
                  <rect class="cls-28" width="11.264" height="3.27" rx="1.635"/>
                  <rect class="cls-29" x="0.5" y="0.5" width="10.264" height="2.27" rx="1.135"/>
                </g>
                <g id="Rectangle_85" data-name="Rectangle 85" class="cls-16" transform="translate(48.884 9.858)">
                  <rect class="cls-28" width="11.264" height="3.27" rx="1.635"/>
                  <rect class="cls-29" x="0.5" y="0.5" width="10.264" height="2.27" rx="1.135"/>
                </g>
                <g id="Rectangle_78" data-name="Rectangle 78" class="cls-16" transform="translate(16.183 84.707)">
                  <rect class="cls-28" width="11.264" height="3.27" rx="1.635"/>
                  <rect class="cls-29" x="0.5" y="0.5" width="10.264" height="2.27" rx="1.135"/>
                </g>
                <g id="Rectangle_87" data-name="Rectangle 87" class="cls-16" transform="translate(16.183 9.858)">
                  <rect class="cls-28" width="11.264" height="3.27" rx="1.635"/>
                  <rect class="cls-29" x="0.5" y="0.5" width="10.264" height="2.27" rx="1.135"/>
                </g>
              </g>
            </g>
          </g>
        </g>
      </g>
    </g>
    <g id="Group_75-2" data-name="Group 75" transform="translate(985.293 1082.949) rotate(-90)">
      <g id="Ellipse_5-2" data-name="Ellipse 5" class="cls-10" transform="translate(0 0)">
        <ellipse class="cls-28" cx="33.965" cy="33.937" rx="33.965" ry="33.937"/>
        <ellipse class="cls-29" cx="33.965" cy="33.937" rx="31.465" ry="31.437"/>
      </g>
      <path id="Path_29-2" data-name="Path 29" class="cls-6" d="M3.9,2.339a24.25,24.25,0,0,0-2.423.122,1.428,1.428,0,0,1-.157.008A1.283,1.283,0,0,1,0,1.437,1.213,1.213,0,0,1,1.172.141,26.84,26.84,0,0,1,3.928,0h.016l.017,1.168V0a1.232,1.232,0,0,1,1.3,1.168A1.287,1.287,0,0,1,3.9,2.339Z" transform="translate(60.239 29.985) rotate(90)"/>
      <path id="Path_30-2" data-name="Path 30" class="cls-6" d="M4.217,2.217a23.479,23.479,0,0,0-2.159,1.09,1.459,1.459,0,0,1-.726.19A1.394,1.394,0,0,1,.213,2.968,1.084,1.084,0,0,1,.6,1.351,26.015,26.015,0,0,1,3.017.132,1.425,1.425,0,0,1,4.81.649a1.105,1.105,0,0,1-.593,1.569Z" transform="translate(58.114 20.148) rotate(90)"/>
      <path id="Path_31-2" data-name="Path 31" class="cls-6" d="M2.616,3.68a1.312,1.312,0,0,1-1.292.884A1.549,1.549,0,0,1,1,4.529,1.166,1.166,0,0,1,.03,3.113C.251,2.336.513,1.557.812.8A1.386,1.386,0,0,1,2.506.072a1.141,1.141,0,0,1,.832,1.485C3.062,2.251,2.821,2.967,2.616,3.68Z" transform="translate(44.274 8.435) rotate(90)"/>
      <path id="Path_32-2" data-name="Path 32" class="cls-6" d="M2.366.43C2.9,1,3.46,1.552,4.045,2.071a1.068,1.068,0,0,1-.013,1.652,1.469,1.469,0,0,1-1.883-.009C1.5,3.14.883,2.534.3,1.907A1.072,1.072,0,0,1,.492.263,1.465,1.465,0,0,1,2.366.43Z" transform="translate(17.98 14.166) rotate(90)"/>
      <path id="Path_33-2" data-name="Path 33" class="cls-6" d="M.227,2.369C.743,1.7,1.3,1.048,1.88.428A1.465,1.465,0,0,1,3.759.267a1.074,1.074,0,0,1,.183,1.645C3.411,2.478,2.9,3.072,2.434,3.68a1.392,1.392,0,0,1-1.1.513,1.468,1.468,0,0,1-.747-.2A1.082,1.082,0,0,1,.227,2.369Z" transform="translate(52.326 12.697) rotate(90)"/>
      <path id="Path_34-2" data-name="Path 34" class="cls-6" d="M1.937.135a23.455,23.455,0,0,0,2.274.884,1.13,1.13,0,0,1,.777,1.5,1.338,1.338,0,0,1-1.248.757,1.5,1.5,0,0,1-.471-.076A26.546,26.546,0,0,1,.716,2.211,1.1,1.1,0,0,1,.141.639a1.428,1.428,0,0,1,1.8-.5Z" transform="translate(12.153 22.284) rotate(90)"/>
      <path id="Path_35-2" data-name="Path 35" class="cls-6" d="M1.39.145A23.851,23.851,0,0,0,3.866.016,1.3,1.3,0,0,1,5.347,1.039a1.214,1.214,0,0,1-1.165,1.3,27.093,27.093,0,0,1-2.794.145H1.276A1.2,1.2,0,0,1,0,1.314,1.315,1.315,0,0,1,1.39.145Z" transform="translate(10.096 32.499) rotate(90)"/>
      <path id="Path_36-2" data-name="Path 36" class="cls-6" d="M.9.07A1.382,1.382,0,0,1,2.586.8c.269.7.576,1.394.91,2.068a1.118,1.118,0,0,1-.691,1.537,1.481,1.481,0,0,1-.531.1,1.353,1.353,0,0,1-1.224-.7C.687,3.069.356,2.31.061,1.549A1.138,1.138,0,0,1,.9.07Z" transform="translate(26.073 9.132) rotate(90)"/>
      <path id="Path_37-2" data-name="Path 37" class="cls-6" d="M1.333,0a1.288,1.288,0,0,1,1.335,1.2c0,.721.031,1.444.093,2.148A1.227,1.227,0,0,1,1.535,4.612c-.035,0-.071,0-.1,0A1.274,1.274,0,0,1,.1,3.538C.033,2.774,0,1.993,0,1.208V1.135A1.229,1.229,0,0,1,1.333,0Z" transform="translate(35.136 7.453) rotate(90)"/>
      <path id="Path_38-2" data-name="Path 38" class="cls-6" d="M.1,3.464C.1,2.736.066,2,0,1.267A1.229,1.229,0,0,1,1.224.008,1.3,1.3,0,0,1,2.657,1.081c.071.789.1,1.591.1,2.379v.027A1.248,1.248,0,0,1,1.43,4.643,1.267,1.267,0,0,1,.1,3.464Z" transform="translate(37.39 57.562) rotate(90)"/>
      <path id="Path_39-2" data-name="Path 39" class="cls-6" d="M.774.9A1.356,1.356,0,0,1,2.391.044,1.167,1.167,0,0,1,3.363,1.46c-.221.778-.483,1.557-.78,2.316a1.332,1.332,0,0,1-1.261.791A1.525,1.525,0,0,1,.892,4.5,1.141,1.141,0,0,1,.062,3.02C.332,2.326.572,1.61.774.9Z" transform="translate(28.2 55.966) rotate(90)"/>
      <path id="Path_40-2" data-name="Path 40" class="cls-6" d="M3.738,3.278a1.483,1.483,0,0,1-.6-.127A23.723,23.723,0,0,0,.856,2.271,1.132,1.132,0,0,1,.075.767,1.39,1.39,0,0,1,1.79.083a26.6,26.6,0,0,1,2.554.987,1.1,1.1,0,0,1,.582,1.57,1.368,1.368,0,0,1-1.189.638Z" transform="translate(59.004 40.377) rotate(90)"/>
      <path id="Path_41-2" data-name="Path 41" class="cls-6" d="M.79.107a1.4,1.4,0,0,1,1.755.6c.366.732.7,1.49,1,2.253a1.143,1.143,0,0,1-.834,1.483A1.5,1.5,0,0,1,2.28,4.5a1.333,1.333,0,0,1-1.262-.793c-.27-.7-.579-1.4-.915-2.066A1.119,1.119,0,0,1,.79.107Z" transform="translate(46.339 55.026) rotate(90)"/>
      <path id="Path_42-2" data-name="Path 42" class="cls-6" d="M.725,1.288A23.439,23.439,0,0,0,2.881.193,1.453,1.453,0,0,1,4.727.53a1.084,1.084,0,0,1-.385,1.617A26.377,26.377,0,0,1,1.929,3.371a1.47,1.47,0,0,1-.6.126,1.366,1.366,0,0,1-1.19-.639,1.1,1.1,0,0,1,.588-1.57Z" transform="translate(13.263 42.738) rotate(90)"/>
      <path id="Path_43-2" data-name="Path 43" class="cls-6" d="M1.8.516A1.454,1.454,0,0,1,3.656.2a1.083,1.083,0,0,1,.357,1.622c-.523.676-1.077,1.33-1.65,1.944A1.413,1.413,0,0,1,1.332,4.2a1.442,1.442,0,0,1-.844-.264A1.074,1.074,0,0,1,.3,2.286C.821,1.729,1.327,1.133,1.8.516Z" transform="translate(19.762 50.876) rotate(90)"/>
      <path id="Path_44-2" data-name="Path 44" class="cls-6" d="M2.28.346c.642.568,1.266,1.175,1.854,1.8a1.071,1.071,0,0,1-.189,1.643,1.448,1.448,0,0,1-.842.262,1.409,1.409,0,0,1-1.033-.428C1.536,3.058.971,2.507.387,1.992A1.068,1.068,0,0,1,.4.34,1.465,1.465,0,0,1,2.28.346Z" transform="translate(53.967 49.143) rotate(90)"/>
    </g>
    <g id="Group_239" data-name="Group 239" transform="translate(1005.063 1035.158)">
      <g id="bottomleft" transform="translate(0 14.909)">
        <path id="Path_187-4" data-name="Path 187" class="cls-18" d="M12.716,11.687a1.029,1.029,0,0,1-1.029,1.029H1.029A1.029,1.029,0,0,1,0,11.687V1.029A1.029,1.029,0,0,1,1.029,0H12.716V11.687Z"/>
        <path id="Path_193-4" data-name="Path 193" class="cls-3" d="M3.645,0,0,2.271V7.533H7.29V3.853H3.645Z" transform="translate(2.713 2.634)"/>
      </g>
      <g id="bottomright" transform="translate(14.909 14.909)">
        <path id="Path_188-4" data-name="Path 188" class="cls-19" d="M11.687,0a1.029,1.029,0,0,1,1.029,1.029V11.687a1.029,1.029,0,0,1-1.029,1.029H1.029A1.029,1.029,0,0,1,0,11.688V0H11.687Z" transform="translate(0 0)"/>
        <path id="Path_194-4" data-name="Path 194" class="cls-3" d="M0,3.938V7.619H7.29V2.357L3.782,0,3.645.086V3.938Z" transform="translate(2.713 2.549)"/>
      </g>
      <g id="topleft" transform="translate(0 0)">
        <path id="Path_190-4" data-name="Path 190" class="cls-18" d="M1.029,12.716A1.029,1.029,0,0,1,0,11.687V1.029A1.029,1.029,0,0,1,1.029,0H11.687a1.029,1.029,0,0,1,1.029,1.029V12.716H1.029Z" transform="translate(0)"/>
        <path id="Path_191-4" data-name="Path 191" class="cls-3" d="M7.29,4.105V2.357L3.782,0,0,2.357V7.619H3.645V4.105Z" transform="translate(2.713 2.253)"/>
      </g>
      <g id="topright" transform="translate(14.909)">
        <path id="Path_189-4" data-name="Path 189" class="cls-19" d="M0,1.029A1.029,1.029,0,0,1,1.029,0H11.687a1.029,1.029,0,0,1,1.029,1.029V11.688a1.028,1.028,0,0,1-1.029,1.028H0V1.029Z" transform="translate(0)"/>
        <path id="Path_192-4" data-name="Path 192" class="cls-3" d="M3.645,7.619H7.29V2.357L3.782,0,0,2.357V4.105H3.645Z" transform="translate(2.713 2.253)"/>
      </g>
    </g>
    <g id="sunglasses" transform="translate(414.725 843.233)">
      <g id="Group_240" data-name="Group 240" transform="translate(0 94.124)">
        <path id="Path_256" data-name="Path 256" class="cls-20" d="M60.872,99.372H58.5a7.74,7.74,0,0,0-6.286-4.766c-2.477-.4-8.979-.482-8.979-.482H19.311s-6.5.086-8.979.482a7.74,7.74,0,0,0-6.286,4.766H1.679a1.679,1.679,0,1,0,0,3.358H3.27a15.565,15.565,0,0,0,2.15,8.786c3.685,6.079,11.592,8.661,19.608.417a16.023,16.023,0,0,0,4.388-7.006s.1-.518.16-.691a1.826,1.826,0,0,1,1.682-1.3h.035a1.832,1.832,0,0,1,1.664,1.254c.066.188.17.691.173.7a16.094,16.094,0,0,0,4.393,7.058c8.016,8.243,15.923,5.632,19.608-.446a16.316,16.316,0,0,0,2.114-8.777h1.627a1.679,1.679,0,1,0,0-3.358ZM32.98,99.88a5.105,5.105,0,0,0-1.687-.3h-.035a5.105,5.105,0,0,0-1.687.3,8.37,8.37,0,0,0-1.081-2.4h5.571A8.365,8.365,0,0,0,32.98,99.88Z" transform="translate(0 -94.124)"/>
      </g>
    </g>
    <rect id="Rectangle_143" data-name="Rectangle 143" class="cls-4" width="8" height="132" rx="4" transform="translate(916 748)"/>
    <rect id="Rectangle_145" data-name="Rectangle 145" class="cls-4" width="8" height="242.051" rx="4" transform="translate(1405 637.949)"/>
    <rect id="Rectangle_149" data-name="Rectangle 149" class="cls-4" width="8" height="234.837" rx="4" transform="translate(1405 1159)"/>
    <rect id="Rectangle_152" data-name="Rectangle 152" class="cls-4" width="8" height="234.923" rx="4" transform="translate(359 1159.79)"/>
    <rect id="Rectangle_144" data-name="Rectangle 144" class="cls-4" width="8" height="132" rx="4" transform="translate(999 748)"/>
    <rect id="Rectangle_147" data-name="Rectangle 147" class="cls-4" width="8" height="337.316" rx="4" transform="translate(1412.316 638) rotate(90)"/>
    <rect id="Rectangle_154" data-name="Rectangle 154" class="cls-4" width="8" height="337.316" rx="4" transform="translate(875.316 1007) rotate(90)"/>
    <rect id="Rectangle_148" data-name="Rectangle 148" class="cls-4" width="8" height="473.32" rx="4" transform="translate(1495.316 555) rotate(90)"/>
    <rect id="Rectangle_146" data-name="Rectangle 146" class="cls-4" width="8" height="325.051" rx="4" transform="translate(1488 554.949)"/>
    <rect id="Rectangle_150" data-name="Rectangle 150" class="cls-4" width="8" height="235.468" rx="4" transform="translate(1488 1159.245)"/>
    <rect id="Rectangle_151" data-name="Rectangle 151" class="cls-4" width="8" height="235.555" rx="4" transform="translate(442 1159.157)"/>
    <rect id="Rectangle_153" data-name="Rectangle 153" class="cls-4" width="8" height="235.555" rx="4" transform="translate(525 1159)"/>
    <text id="Collect_dividend" data-name="Collect dividend" class="cls-21" transform="translate(1188 676)"><tspan x="0" y="0">Collect dividend</tspan></text>
    <text id="Collect_dividend-2" data-name="Collect
dividend" class="cls-21" transform="translate(1310 1272)"><tspan x="0" y="0">Collect</tspan><tspan x="0" y="24">dividend</tspan></text>
    <text id="Transaction_settlement" data-name="Transaction
settlement" class="cls-21" transform="translate(1516 1272)"><tspan x="0" y="0">Transaction</tspan><tspan x="0" y="24">settlement</tspan></text>
    <text id="Onboarding_request" data-name="Onboarding
request" class="cls-21" transform="translate(787 809)"><tspan x="0" y="0">Onboarding</tspan><tspan x="0" y="24">request</tspan></text>
    <text id="Deploy_token" data-name="Deploy
token" class="cls-21" transform="translate(283 1272)"><tspan x="0" y="0">Deploy</tspan><tspan x="0" y="24">token</tspan></text>
    <text id="Disburse_dividend" data-name="Disburse
dividend" class="cls-21" transform="translate(548.5 1272)"><tspan x="0" y="0">Disburse</tspan><tspan x="0" y="24">dividend</tspan></text>
    <text id="Payment" class="cls-21" transform="translate(1033 818)"><tspan x="0" y="0">Payment</tspan></text>
    <text id="Onboarding_request-2" data-name="Onboarding request" class="cls-21" transform="translate(619 993)"><tspan x="0" y="0">Onboarding request</tspan></text>
    <text id="Peer-to-peer_trading" data-name="Peer-to-peer trading" class="cls-21" transform="translate(1171 592)"><tspan x="0" y="0">Peer-to-peer trading</tspan></text>
    <rect id="Rectangle_155" data-name="Rectangle 155" class="cls-3" width="114" height="62" transform="translate(389 1246)"/>
    <text id="Whitelist_address" data-name="Whitelist
address" class="cls-21" transform="translate(408 1272)"><tspan x="0" y="0">Whitelist</tspan><tspan x="0" y="24">address</tspan></text>
    <g id="Group_243" data-name="Group 243" transform="translate(22.603 27.1)">
      <text id="ETHEREUM_BLOCKCHAIN" data-name="ETHEREUM BLOCKCHAIN" class="cls-22" transform="translate(707 1441)"><tspan x="0" y="0">ETHEREUM </tspan><tspan class="cls-6" y="0">BLOCKCHAIN</tspan></text>
      <g id="ethereum-1" transform="translate(648.397 1389.9)">
        <path id="Path_257" data-name="Path 257" class="cls-23" d="M125.616,0l-.45,1.529V45.9l.45.449,20.6-12.175Z" transform="translate(-105.019)"/>
        <path id="Path_258" data-name="Path 258" class="cls-24" d="M20.6,0,0,34.175,20.6,46.35V0Z"/>
        <path id="Path_259" data-name="Path 259" class="cls-25" d="M126.64,248.756l-.254.309v15.806l.254.74,20.609-29.024Z" transform="translate(-106.043 -198.506)"/>
        <path id="Path_260" data-name="Path 260" class="cls-24" d="M20.6,265.609V248.754L0,236.585Z" transform="translate(0 -198.504)"/>
        <path id="Path_261" data-name="Path 261" class="cls-26" d="M127.961,175.7l20.6-12.175-20.6-9.362Z" transform="translate(-107.364 -129.346)"/>
        <path id="Path_262" data-name="Path 262" class="cls-27" d="M0,163.52l20.6,12.175V154.158Z" transform="translate(0 -129.345)"/>
      </g>
    </g>
  </g>
</svg>
