<svg xmlns="http://www.w3.org/2000/svg" viewBox="2808 10247.855 143.048 214.298">
  <defs>
    <style>
      .cls-1 {
        fill: #fff;
      }

      .cls-2, .cls-8 {
        fill: #48bddb;
      }

      .cls-3 {
        fill: #e4e4e4;
      }

      .cls-4 {
        fill: #475058;
      }

      .cls-5 {
        fill: #dbdbdb;
      }

      .cls-6 {
        opacity: 0.1;
      }

      .cls-7 {
        fill: #3e3e3e;
      }

      .cls-10, .cls-8 {
        stroke: #475058;
      }

      .cls-8 {
        stroke-width: 3px;
      }

      .cls-9 {
        fill: #3d3d3b;
      }

      .cls-10 {
        fill: none;
        stroke-width: 6px;
      }
    </style>
  </defs>
  <g id="Group_251" data-name="Group 251" transform="translate(2108 6821)">
    <g id="employee_1_" data-name="employee (1)" transform="translate(619.839 3430.099)">
      <path id="Path_187" data-name="Path 187" class="cls-1" d="M212.2,280.233l-20.209-7.95H120.258l-20.209,7.95a19.563,19.563,0,0,0-12.385,18.988l2.7,67.517H221.881l2.7-67.517A19.563,19.563,0,0,0,212.2,280.233Z" transform="translate(-4.442 -161.531)"/>
      <path id="Path_188" data-name="Path 188" class="cls-2" d="M240.086,304.1l-6.049,84.566H251.9L246.427,304.1Z" transform="translate(-91.287 -180.404)"/>
      <path id="Path_231" data-name="Path 231" class="cls-1" d="M-2.532,0h45.65V39.126H-2.532L-9.845,26.415V23.534l4.163-2.982Z" transform="translate(131.392 84.564)"/>
      <path id="Path_189" data-name="Path 189" class="cls-3" d="M199.884,224.019a42.187,42.187,0,0,0,45.648,0V207.9H199.884Z" transform="translate(-71.025 -123.337)"/>
      <path id="Path_190" data-name="Path 190" class="cls-4" d="M198.931,7.6c-16.279.88-25.541,9.782-25.541,9.782s-13.586,0-13.586,16.3a121.816,121.816,0,0,0,3.261,25.982h74.994C244.579,23.8,229.092,5.969,198.931,7.6Z" transform="translate(-47.248 -4.448)"/>
      <path id="Path_191" data-name="Path 191" class="cls-4" d="M185.889,61.041c-19.564-16.3-12.5-29.243-12.5-29.243S159.8,31.8,159.8,48.1a121.816,121.816,0,0,0,3.261,25.982h22.824V61.041Z" transform="translate(-47.248 -18.864)"/>
      <path id="Path_192" data-name="Path 192" class="cls-1" d="M230.041,108.719h-3.261L221.346,98.8c-26.828,5.589-40.214-3.125-40.214-3.125l-16.3,16.3L158.2,108.72h0a6.362,6.362,0,0,0-1.088.115,6.893,6.893,0,0,0-5.317,6.88v2.363a6.849,6.849,0,0,0,5.035,6.77,6.453,6.453,0,0,0,1.986.154,3.176,3.176,0,0,1,3.328,2.65,32.568,32.568,0,0,0,64.076,0,3.167,3.167,0,0,1,3.156-2.63h.672a6.521,6.521,0,0,0,6.521-6.521v-3.261A6.52,6.52,0,0,0,230.041,108.719Z" transform="translate(-42.492 -56.76)"/>
      <g id="Group_157" data-name="Group 157" transform="translate(83.207 126.703)">
        <path id="Path_193" data-name="Path 193" class="cls-1" d="M104.747,325.684,90.561,311.5a19.5,19.5,0,0,0-2.9,10.988L90.369,390h20.108V339.517A19.564,19.564,0,0,0,104.747,325.684Z" transform="translate(-87.649 -311.498)"/>
        <path id="Path_194" data-name="Path 194" class="cls-1" d="M373.955,325.684,388.141,311.5a19.5,19.5,0,0,1,2.9,10.988L388.333,390H368.225V339.517A19.561,19.561,0,0,1,373.955,325.684Z" transform="translate(-254.1 -311.498)"/>
      </g>
      <path id="Path_195" data-name="Path 195" class="cls-2" d="M252.786,320.4l-6.642-16.3h-1.791l-5.574,16.3Z" transform="translate(-94.1 -180.404)"/>
      <g id="Group_158" data-name="Group 158" transform="translate(115.817 100.97)">
        <path id="Path_196" data-name="Path 196" class="cls-5" d="M195.7,280.93l-22.562-24.789-5.321,3.909,15.151,22.727c2.283,3.424,4.015,5.421,6.925,2.511Z" transform="translate(-167.821 -250.268)"/>
        <path id="Path_197" data-name="Path 197" class="cls-1" d="M256,271.059l26.085-22.824,9.782,9.782-15.151,22.727a6.521,6.521,0,0,1-10.037.994Z" transform="translate(-220.132 -248.235)"/>
      </g>
      <path id="Path_198" data-name="Path 198" class="cls-6" d="M174.613,131.272V111.708l-9.782,9.782-6.632-3.261h0a6.394,6.394,0,0,0-1.088.115,6.893,6.893,0,0,0-5.317,6.88v2.363a6.848,6.848,0,0,0,5.035,6.77,6.469,6.469,0,0,0,1.986.154,3.175,3.175,0,0,1,3.328,2.65,32.486,32.486,0,0,0,38.5,26.051A32.616,32.616,0,0,1,174.613,131.272Z" transform="translate(-42.493 -66.27)"/>
      <path id="Path_199" data-name="Path 199" class="cls-4" d="M184.43,376.757H171.388a3.051,3.051,0,1,0,0,6.1H184.43a3.051,3.051,0,0,0,0-6.1Z" transform="translate(-52.31 -223.51)"/>
      <path id="Path_200" data-name="Path 200" class="cls-4" d="M208.73,115.908l-19.064-7.354-9.741-9.741a3.043,3.043,0,0,0-2.367-.885v-8.31a35.494,35.494,0,0,0,9.156-18.032.407.407,0,0,1,.19-.194,9.528,9.528,0,0,0,2.563-.173,9.878,9.878,0,0,0,7.656-9.8V58.874A10.006,10.006,0,0,0,194,51.6c3.136-16.736-.737-27.384-8.6-36.464C177.848,6.408,167.04-.733,151.518.106a46.114,46.114,0,0,0-26.64,9.879c-2.788,4.025-12.864,3.272-12.864,19.252,0,9.042-1.014,16.528,0,20.566a9.864,9.864,0,0,0-5.769,9.11v2.5a9.879,9.879,0,0,0,7.655,9.8,9.5,9.5,0,0,0,2.563.173.409.409,0,0,1,.189.191,35.5,35.5,0,0,0,9.157,18.034v8.31a3.044,3.044,0,0,0-2.367.885l-9.741,9.741-19.064,7.354a22.608,22.608,0,0,0-14.458,22l2.7,67.418a3.051,3.051,0,0,0,3.046,2.929l.124,0a3.051,3.051,0,0,0,2.926-3.17l-2.7-67.418a16.489,16.489,0,0,1,.779-5.716l11.094,11.094a16.405,16.405,0,0,1,4.837,11.677v50.485a3.051,3.051,0,1,0,6.1,0V154.721a22.466,22.466,0,0,0-6.624-15.991L90.125,126.392a16.485,16.485,0,0,1,6.709-4.793l17.938-6.919,13.66,20.49a9.536,9.536,0,0,0,7.021,4.216q.478.048.953.047a9.523,9.523,0,0,0,5.38-1.663l-2.93,67.3a3.051,3.051,0,0,0,2.915,3.18c.045,0,.09,0,.135,0a3.05,3.05,0,0,0,3.045-2.918l2.708-62.192h8.053l2.708,62.192a3.051,3.051,0,0,0,3.045,2.918c.045,0,.09,0,.135,0a3.051,3.051,0,0,0,2.915-3.18l-2.93-67.3a9.518,9.518,0,0,0,5.38,1.663c.316,0,.635-.016.953-.047a9.539,9.539,0,0,0,7.021-4.216l13.66-20.49,17.938,6.919a16.489,16.489,0,0,1,6.709,4.793l-12.338,12.338a22.466,22.466,0,0,0-6.624,15.991v50.485a3.051,3.051,0,1,0,6.1,0V154.722a16.405,16.405,0,0,1,4.837-11.677l11.094-11.094a16.489,16.489,0,0,1,.779,5.716l-2.7,67.418a3.051,3.051,0,0,0,2.926,3.17l.124,0a3.051,3.051,0,0,0,3.046-2.929l2.7-67.417A22.614,22.614,0,0,0,208.73,115.908Zm-57.047,3.833-19.773-17.3V94.762a35.592,35.592,0,0,0,39.547,0v7.677ZM116.054,65.3a3.407,3.407,0,0,1-.93-.063,3.818,3.818,0,0,1-2.778-3.826v-2.5a3.7,3.7,0,0,1,2.819-3.743,3.459,3.459,0,0,1,3.4,1.3,4.425,4.425,0,0,0,6.085.959,25.021,25.021,0,0,0,6.722-7.1,3.051,3.051,0,1,0-5.154-3.266A19.154,19.154,0,0,1,122.3,51.55a9.54,9.54,0,0,0-4.109-2.232,80.009,80.009,0,0,1-2.588-20.081c0-12.728,9.477-13.237,10.535-13.252a3.05,3.05,0,0,0,2.114-.851c.085-.081,8.618-8.126,23.592-8.935,13.569-.733,24.059,2.709,30.335,9.957,6.39,7.378,8.473,18.718,6.079,32.895a14.484,14.484,0,0,0-3.59.242l-3.409-8.185a3.054,3.054,0,0,0-3.589-1.778c-.326.085-32.778,8.317-46.452-8.706a3.051,3.051,0,1,0-4.757,3.821c13.815,17.2,41.495,13.156,50.152,11.38l2.67,6.41a5.294,5.294,0,0,0,6.118,3.139,7.908,7.908,0,0,1,2.793-.194,3.728,3.728,0,0,1,2.822,3.7v2.541a3.818,3.818,0,0,1-2.778,3.826,3.4,3.4,0,0,1-.93.063,6.352,6.352,0,0,0-6.6,5.176,29.518,29.518,0,0,1-58.062,0A6.345,6.345,0,0,0,116.054,65.3Zm20,68.01a3.459,3.459,0,0,1-2.546-1.529L119.742,111.14l6-6,21.483,18.8-8.372,8.373A3.455,3.455,0,0,1,136.052,133.315Zm11.871,3.732.236-5.413,3.525-3.525,3.525,3.525.236,5.413Zm21.938-5.26a3.471,3.471,0,0,1-5.342.529l-8.372-8.373,21.483-18.8,6,6Z" transform="translate(0 0)"/>
    </g>
    <g id="customer-service" transform="translate(712.188 3421.396)">
      <g id="Group_217" data-name="Group 217" transform="translate(-15 60.944)">
        <path id="Path_233" data-name="Path 233" class="cls-7" d="M263.456,317.462h25.923a29.2,29.2,0,0,0,17.675-5.58c4.56-3.478,7.072-8.037,7.072-12.837V278.072a2.658,2.658,0,0,1,2.75-2.555h2.75a2.562,2.562,0,1,1,0,5.11v18.418c0,12.973-13.569,23.527-30.246,23.527H272.456v-5.11Z" transform="translate(-201.002 -275.517)"/>
      </g>
      <path id="Path_234" data-name="Path 234" class="cls-8" d="M219.333,448.546H209.021a6.4,6.4,0,1,0,0,12.775h10.311C223.129,461.32,223.129,448.546,219.333,448.546Z" transform="translate(-149.226 -349.49)"/>
      <path id="Path_235" data-name="Path 235" class="cls-9" d="M140.472,60.856h-4.986V50.094c0-21.795-17.3-39.526-38.571-39.526S58.342,28.3,58.342,50.095V60.856H53.356V50.095c0-24.612,19.54-44.636,43.558-44.636s43.558,20.024,43.558,44.636Z" transform="translate(-37.227)"/>
      <g id="Group_219" data-name="Group 219" transform="translate(9.645 50.637)">
        <path id="Path_238" data-name="Path 238" class="cls-7" d="M74.406,210.564c-5.042,0-9.13,3.432-9.13,7.665v18.4c0,4.233,4.088,7.665,9.13,7.665s9.13-3.432,9.13-7.665v-18.4C83.536,214,79.448,210.564,74.406,210.564Z" transform="translate(-65.276 -210.564)"/>
        <path id="Path_239" data-name="Path 239" class="cls-7" d="M386.58,210.564c-5.043,0-9.13,3.432-9.13,7.665v18.4c0,4.233,4.088,7.665,9.13,7.665s9.13-3.432,9.13-7.665v-18.4C395.71,214,391.622,210.564,386.58,210.564Z" transform="translate(-295.542 -210.564)"/>
      </g>
    </g>
    <path id="Path_240" data-name="Path 240" class="cls-10" d="M2813.582,10161.252a19.922,19.922,0,0,0,20.589,0" transform="translate(-2108 -6526)"/>
    <path id="Path_244" data-name="Path 244" class="cls-10" d="M2813.582,10161.252a19.922,19.922,0,0,0,20.589,0" transform="translate(-2052 -6526)"/>
    <path id="Path_242" data-name="Path 242" class="cls-10" d="M2813.582,10161.252a55.712,55.712,0,0,0,35.407,0" transform="translate(-2087 -6526)"/>
    <path id="Path_243" data-name="Path 243" class="cls-10" d="M2813.582,10161.252a57.323,57.323,0,0,0,35.931,0" transform="translate(-2032.524 -6526)"/>
    <path id="Path_241" data-name="Path 241" class="cls-10" d="M2813.22,10161.332a20.431,20.431,0,0,0,20.6-.387" transform="translate(-1996 -6526)"/>
  </g>
</svg>
