<svg xmlns="http://www.w3.org/2000/svg" viewBox="364 4686 129 129">
  <defs>
    <style>
      .cls-1 {
        fill: #fff;
      }

      .cls-2 {
        fill: #475058;
      }

      .cls-3 {
        fill: #48bddb;
        stroke: #475058;
        stroke-width: 3px;
      }
    </style>
  </defs>
  <g id="Group_91" data-name="Group 91" transform="translate(-210 -240)">
    <g id="linkedin" transform="translate(574 4926)">
      <circle id="Ellipse_17" data-name="Ellipse 17" class="cls-1" cx="62.463" cy="62.463" r="62.463" transform="translate(2.037 2.037)"/>
      <path id="Path_111" data-name="Path 111" class="cls-2" d="M110.108,18.892a64.5,64.5,0,1,0-91.217,91.216,64.5,64.5,0,1,0,91.217-91.216ZM64.5,124.926A60.426,60.426,0,1,1,124.926,64.5,60.495,60.495,0,0,1,64.5,124.926Z"/>
    </g>
    <g id="linkedin-2" data-name="linkedin" transform="translate(610.058 4957.444)">
      <path id="XMLID_802_" class="cls-3" d="M17.821,99.73H5.886a.959.959,0,0,0-.959.959V139.03a.959.959,0,0,0,.959.959H17.821a.959.959,0,0,0,.959-.959V100.689A.959.959,0,0,0,17.821,99.73Z" transform="translate(-3.982 -80.329)"/>
      <path id="XMLID_803_" class="cls-3" d="M7.875.341a7.868,7.868,0,1,0,7.869,7.867A7.88,7.88,0,0,0,7.875.341Z" transform="translate(0 0)"/>
      <path id="XMLID_804_" class="cls-3" d="M130.009,94.761a14.017,14.017,0,0,0-10.486,4.4v-2.49a.959.959,0,0,0-.959-.959h-11.43a.959.959,0,0,0-.959.959v38.341a.959.959,0,0,0,.959.959h11.909a.959.959,0,0,0,.959-.959v-18.97c0-6.392,1.736-8.883,6.192-8.883,4.853,0,5.239,3.992,5.239,9.212v18.641a.959.959,0,0,0,.959.959h11.913a.959.959,0,0,0,.959-.959V113.983C145.264,104.478,143.452,94.761,130.009,94.761Z" transform="translate(-85.814 -76.313)"/>
    </g>
  </g>
</svg>
