<svg xmlns="http://www.w3.org/2000/svg" viewBox="2593 9502 200.073 350.012">
  <defs>
    <style>
      .cls-1 {
        fill: #475058;
      }

      .cls-1, .cls-2 {
        stroke: #fff;
        stroke-width: 4px;
      }

      .cls-2 {
        fill: #49bddb;
      }
    </style>
  </defs>
  <g id="smartphone" transform="translate(2520.036 9504)">
    <path id="Path_212" data-name="Path 212" class="cls-1" d="M183.67,0H38.4A25.439,25.439,0,0,0,13,25.4V320.6a25.44,25.44,0,0,0,25.4,25.409H183.664a25.44,25.44,0,0,0,25.409-25.4V25.4A25.439,25.439,0,0,0,183.67,0ZM24.534,46.135H197.539V265.275H24.534ZM38.4,11.534H183.664A13.887,13.887,0,0,1,197.539,25.4v9.2H24.534V25.4A13.886,13.886,0,0,1,38.4,11.534ZM183.67,334.478H38.4a13.886,13.886,0,0,1-13.869-13.869v-43.8H197.539v43.8A13.886,13.886,0,0,1,183.67,334.478Z" transform="translate(61.964)"/>
    <path id="Path_213" data-name="Path 213" class="cls-2" d="M49.067,49A23.067,23.067,0,1,0,72.135,72.067,23.091,23.091,0,0,0,49.067,49Zm0,34.6A11.534,11.534,0,1,1,60.6,72.067,11.545,11.545,0,0,1,49.067,83.6Z" transform="translate(123.934 233.576)"/>
    <path id="Path_214" data-name="Path 214" class="cls-1" d="M30.767,14.534H53.834A5.767,5.767,0,1,0,53.834,3H30.767a5.767,5.767,0,1,0,0,11.534Z" transform="translate(119.167 14.301)"/>
    <path id="Path_215" data-name="Path 215" class="cls-1" d="M37.767,14.534h5.767A5.767,5.767,0,1,0,43.534,3H37.767a5.767,5.767,0,1,0,0,11.534Z" transform="translate(152.535 14.301)"/>
  </g>
</svg>
