<svg xmlns="http://www.w3.org/2000/svg" viewBox="517.81 3107.959 219.331 190.222">
  <defs>
    <style>
      .cls-1 {
        fill: #48bddb;
      }

      .cls-2 {
        fill: #475058;
        stroke: #eff7fb;
        stroke-width: 3px;
      }

      .cls-3 {
        fill: #fff;
      }
    </style>
  </defs>
  <g id="Group_78" data-name="Group 78" transform="translate(-210 -240)">
    <g id="transfer" transform="translate(729.31 3347.559)">
      <g id="Group_74" data-name="Group 74" transform="translate(0 1.9)">
        <path id="Path_131" data-name="Path 131" class="cls-1" d="M125.876,90.553a10.035,10.035,0,0,1-10.034,10.034H19.034A10.035,10.035,0,0,1,9,90.553V21.034A10.035,10.035,0,0,1,19.034,11h96.753a10.035,10.035,0,0,1,10.034,10.034V90.553Z" transform="translate(-4.038 -5.983)"/>
        <path id="Path_132" data-name="Path 132" class="cls-2" d="M0,16.951V86.47A15.07,15.07,0,0,0,15.051,101.52H58.438v15.051h-14.5a5.017,5.017,0,0,0,0,10.034H82.861a5.017,5.017,0,0,0,0-10.034h-14.5V101.52h43.387A15.07,15.07,0,0,0,126.8,86.47V16.951A15.07,15.07,0,0,0,111.749,1.9H15A15.058,15.058,0,0,0,0,16.951Zm116.821,0V86.47a5.035,5.035,0,0,1-5.017,5.017H15A5.035,5.035,0,0,1,9.979,86.47V16.951A5.035,5.035,0,0,1,15,11.934h96.753A5.047,5.047,0,0,1,116.821,16.951Z" transform="translate(0 -1.9)"/>
        <rect id="Rectangle_58" data-name="Rectangle 58" class="cls-3" width="114" height="84" transform="translate(96.69 69.541)"/>
        <path id="Path_133" data-name="Path 133" class="cls-2" d="M371.159,261.4H274.351A15.07,15.07,0,0,0,259.3,276.451v69.464a15.07,15.07,0,0,0,15.051,15.051h43.387v15.051h-14.5a5.017,5.017,0,0,0,0,10.034h38.977a5.017,5.017,0,0,0,0-10.034h-14.5V360.965H371.1a15.07,15.07,0,0,0,15.051-15.051V276.4A15.011,15.011,0,0,0,371.159,261.4Zm5.017,84.515a5.035,5.035,0,0,1-5.017,5.017H274.351a5.035,5.035,0,0,1-5.017-5.017V276.4a5.035,5.035,0,0,1,5.017-5.017H371.1a5.035,5.035,0,0,1,5.017,5.017v69.519Z" transform="translate(-169.824 -198.827)"/>
      </g>
    </g>
  </g>
</svg>
