<svg xmlns="http://www.w3.org/2000/svg" viewBox="4291 3630.5 211.715 46.5">
  <defs>
    <style>
      .cls-1, .cls-3 {
        fill: #2ecc71;
      }

      .cls-1 {
        stroke: rgba(0,0,0,0);
      }

      .cls-2 {
        fill: #475058;
      }

      .cls-3 {
        stroke: #2ecc71;
        stroke-width: 2px;
      }

      .cls-4 {
        fill: none;
        stroke: #eaeaea;
      }
    </style>
  </defs>
  <g id="Group_128" data-name="Group 128" transform="translate(4090 -240)">
    <path id="Path_183" data-name="Path 183" class="cls-1" d="M10.049,16.267h5.566v3.252H10.049v6.343H6.592V19.519H1V16.267h5.6V10.334h3.457ZM32.651,28H18.311V25.554l7.1-7.749a17.692,17.692,0,0,0,2.19-2.864,4.64,4.64,0,0,0,.652-2.307,3.505,3.505,0,0,0-.857-2.461,2.972,2.972,0,0,0-2.307-.937,3.426,3.426,0,0,0-2.681,1.055,4.148,4.148,0,0,0-.952,2.886H17.9a6.976,6.976,0,0,1,.886-3.508,6.1,6.1,0,0,1,2.534-2.424,8.066,8.066,0,0,1,3.8-.864,7.215,7.215,0,0,1,4.9,1.56,5.415,5.415,0,0,1,1.794,4.314,7.321,7.321,0,0,1-.9,3.347,19.033,19.033,0,0,1-2.952,3.977l-5.215,5.581h9.9ZM49.7,28H35.361V25.554l7.1-7.749a17.692,17.692,0,0,0,2.19-2.864,4.64,4.64,0,0,0,.652-2.307,3.505,3.505,0,0,0-.857-2.461,2.972,2.972,0,0,0-2.307-.937,3.426,3.426,0,0,0-2.681,1.055,4.148,4.148,0,0,0-.952,2.886h-3.56a6.976,6.976,0,0,1,.886-3.508,6.1,6.1,0,0,1,2.534-2.424,8.066,8.066,0,0,1,3.8-.864,7.215,7.215,0,0,1,4.9,1.56,5.415,5.415,0,0,1,1.794,4.314,7.321,7.321,0,0,1-.9,3.347,19.033,19.033,0,0,1-2.952,3.977L39.8,25.158h9.9Zm3.442,4.8-1.919-1.143A10.351,10.351,0,0,0,52.39,29.34a6.928,6.928,0,0,0,.33-2.014V24.558h3.208l-.015,2.563a7.145,7.145,0,0,1-.784,3.113A7.733,7.733,0,0,1,53.145,32.8ZM63.12,15.71h2.168a3.88,3.88,0,0,0,2.6-.85,3.031,3.031,0,0,0,.959-2.417,3.3,3.3,0,0,0-.8-2.366,3.213,3.213,0,0,0-2.439-.842,3.4,3.4,0,0,0-2.358.828,2.765,2.765,0,0,0-.923,2.161H58.77a5.388,5.388,0,0,1,.872-2.988,5.856,5.856,0,0,1,2.432-2.1,7.921,7.921,0,0,1,3.494-.754,7.336,7.336,0,0,1,5.017,1.6,5.629,5.629,0,0,1,1.824,4.46,4.532,4.532,0,0,1-.916,2.7,5.741,5.741,0,0,1-2.366,1.912,5.233,5.233,0,0,1,2.673,1.89,5.174,5.174,0,0,1,.916,3.076,5.728,5.728,0,0,1-1.97,4.57,7.649,7.649,0,0,1-5.178,1.7,7.592,7.592,0,0,1-5.039-1.641,5.4,5.4,0,0,1-1.963-4.365h3.56a2.978,2.978,0,0,0,.945,2.285,3.583,3.583,0,0,0,2.542.879,3.7,3.7,0,0,0,2.607-.879,3.3,3.3,0,0,0,.952-2.549,3.331,3.331,0,0,0-1-2.593,4.259,4.259,0,0,0-2.959-.908H63.12Zm12.788-4.937A4.28,4.28,0,0,1,77.153,7.6a4.958,4.958,0,0,1,6.555,0,4.388,4.388,0,0,1,1.238,3.245V11.9a4.251,4.251,0,0,1-1.238,3.149,4.421,4.421,0,0,1-3.259,1.23,4.561,4.561,0,0,1-3.259-1.208,4.266,4.266,0,0,1-1.282-3.259ZM78.4,11.9a2.339,2.339,0,0,0,.564,1.633,1.91,1.91,0,0,0,1.487.623,1.871,1.871,0,0,0,1.465-.623,2.446,2.446,0,0,0,.557-1.692V10.773a2.367,2.367,0,0,0-.564-1.641A1.9,1.9,0,0,0,80.42,8.5a1.845,1.845,0,0,0-1.472.637,2.478,2.478,0,0,0-.549,1.677Zm7.764,10.869a4.193,4.193,0,0,1,1.274-3.179,4.967,4.967,0,0,1,6.511,0,4.334,4.334,0,0,1,1.267,3.281v1.04a4.284,4.284,0,0,1-1.223,3.142,4.4,4.4,0,0,1-3.274,1.238,4.525,4.525,0,0,1-3.3-1.223,4.311,4.311,0,0,1-1.252-3.23Zm2.49,1.143a2.336,2.336,0,0,0,.579,1.633,1.918,1.918,0,0,0,1.487.637,1.859,1.859,0,0,0,1.472-.608,2.5,2.5,0,0,0,.535-1.707v-1.1a2.315,2.315,0,0,0-.571-1.641,2.06,2.06,0,0,0-2.937,0,2.42,2.42,0,0,0-.564,1.7ZM81.182,26.4l-1.831-1.055L89.766,8.679,91.6,9.733Z" transform="translate(317 3876)"/>
    <g id="line-chart" transform="translate(126 4150.999)">
      <g id="Statics" transform="translate(75 -280.225)">
        <g id="Group_127" data-name="Group 127" transform="translate(0 0)">
          <path id="Path_182" data-name="Path 182" class="cls-2" d="M45.986,2.243A1.444,1.444,0,1,0,43.576.65L38.233,8.738a4.171,4.171,0,0,0-.675-.069A4.342,4.342,0,0,0,33.225,13a4.284,4.284,0,0,0,.224,1.31l-5.16,6.58a4.3,4.3,0,0,0-6.6,3.493l-8.163,4.754A4.319,4.319,0,0,0,6.6,34.3L.237,43.989a1.445,1.445,0,0,0,2.415,1.586l6.32-9.629a4.383,4.383,0,0,0,1.14.169,4.328,4.328,0,0,0,4.316-4.162L22.591,27.2a4.305,4.305,0,0,0,7.523-3.952l5.157-6.578a4.315,4.315,0,0,0,5.505-6.542ZM10.112,33.226a1.445,1.445,0,1,1,1.445-1.445A1.444,1.444,0,0,1,10.112,33.226ZM26,26a1.445,1.445,0,1,1,1.445-1.445A1.444,1.444,0,0,1,26,26ZM37.558,14.447A1.445,1.445,0,1,1,39,13,1.445,1.445,0,0,1,37.558,14.447ZM8.667,43.337a1.445,1.445,0,1,0,1.445,1.445A1.445,1.445,0,0,0,8.667,43.337Zm7.223,0a1.445,1.445,0,1,0,1.445,1.445A1.445,1.445,0,0,0,15.89,43.337Zm7.223,0a1.445,1.445,0,1,0,1.445,1.445A1.445,1.445,0,0,0,23.113,43.337Zm7.223,0a1.445,1.445,0,1,0,1.445,1.445A1.445,1.445,0,0,0,30.335,43.337Zm7.223,0A1.445,1.445,0,1,0,39,44.782,1.445,1.445,0,0,0,37.558,43.337Zm7.223,0a1.445,1.445,0,1,0,1.445,1.445A1.445,1.445,0,0,0,44.781,43.337ZM1.445,39A1.445,1.445,0,1,0,0,37.559,1.443,1.443,0,0,0,1.445,39Zm0-7.223A1.445,1.445,0,1,0,0,30.337,1.443,1.443,0,0,0,1.445,31.781Zm0-7.223A1.445,1.445,0,1,0,0,23.114,1.443,1.443,0,0,0,1.445,24.558Zm0-7.223A1.445,1.445,0,1,0,0,15.891,1.442,1.442,0,0,0,1.445,17.336Zm0-7.223A1.445,1.445,0,1,0,0,8.668,1.442,1.442,0,0,0,1.445,10.113Zm0-7.223A1.445,1.445,0,1,0,0,1.446,1.442,1.442,0,0,0,1.445,2.89Z" transform="translate(0 -0.001)"/>
        </g>
      </g>
    </g>
    <path id="up-arrow" class="cls-3" d="M20.128,7.282a.791.791,0,1,1-1.114,1.125l-5.7-5.7V21.526a.783.783,0,0,1-.788.788.792.792,0,0,1-.8-.788V2.7l-5.693,5.7a.808.808,0,0,1-1.125,0,.788.788,0,0,1,0-1.125L11.96.227a.794.794,0,0,1,1.114,0Z" transform="translate(280.381 3881.686)"/>
    <line id="Line_11" data-name="Line 11" class="cls-4" y2="46" transform="translate(266.5 3870.5)"/>
  </g>
</svg>
