<svg xmlns="http://www.w3.org/2000/svg" viewBox="827.793 3114.945 166.262 166.262">
  <defs>
    <style>
      .cls-1 {
        fill: #fff;
      }

      .cls-2 {
        fill: #475058;
        stroke: #eff7fa;
      }

      .cls-3 {
        fill: #48bddb;
      }
    </style>
  </defs>
  <g id="Group_79" data-name="Group 79" transform="translate(-210 -240)">
    <g id="safebox" transform="translate(1038.293 3355.445)">
      <rect id="Rectangle_61" data-name="Rectangle 61" class="cls-1" width="155" height="153" transform="translate(4.707 5.555)"/>
      <g id="Group_71" data-name="Group 71">
        <g id="Group_70" data-name="Group 70">
          <path id="Path_129" data-name="Path 129" class="cls-2" d="M153.458,0H11.8A11.818,11.818,0,0,0,0,11.8V153.458a11.818,11.818,0,0,0,11.8,11.8H153.458a11.818,11.818,0,0,0,11.8-11.8V11.8A11.818,11.818,0,0,0,153.458,0ZM7.87,46.344H26.521v7.609H7.87Zm0,15.478H19.084V103.44H7.87Zm0,49.487H26.521v7.609H7.87Zm149.523,42.149a3.939,3.939,0,0,1-3.935,3.935H11.8a3.939,3.939,0,0,1-3.935-3.935v-26.67H19.084v13.685a5.712,5.712,0,0,0,5.705,5.705H140.473a5.712,5.712,0,0,0,5.705-5.705V24.789a5.712,5.712,0,0,0-5.705-5.705H24.789a5.712,5.712,0,0,0-5.705,5.705V38.474H7.87V11.8A3.939,3.939,0,0,1,11.8,7.87H153.458a3.939,3.939,0,0,1,3.935,3.935V153.458ZM30.456,103.44h-3.9V61.823h3.9a3.935,3.935,0,0,0,3.935-3.935V42.409a3.935,3.935,0,0,0-3.935-3.935h-3.9V26.56H138.7V138.7H26.56V126.788h3.9a3.935,3.935,0,0,0,3.935-3.935V107.375A3.935,3.935,0,0,0,30.456,103.44Z"/>
        </g>
      </g>
    </g>
    <rect id="Rectangle_59" data-name="Rectangle 59" class="cls-3" width="21" height="9" transform="translate(1045 3401)"/>
    <rect id="Rectangle_60" data-name="Rectangle 60" class="cls-3" width="21" height="9" transform="translate(1045 3466)"/>
  </g>
</svg>
