<svg xmlns="http://www.w3.org/2000/svg" viewBox="1156 5046 334.5 309.584">
  <defs>
    <style>
      .cls-1 {
        fill: #fff;
      }
    </style>
  </defs>
  <path id="sent-mail" class="cls-1" d="M332.8,13.7a5,5,0,0,0-5.4-.776L2.893,163.7a5,5,0,0,0-.1,9.023L94.63,217.786a5,5,0,0,0,5.2-.484L225.734,113.733,122.184,225.043a5,5,0,0,0-1.4,3.868l3.814,88.514a5,5,0,0,0,8.771,2.884l40.587-47.466L145.1,244.8l37.007,19.022,60.255,28.79a5,5,0,0,0,6.926-3.014L334.27,18.956A5,5,0,0,0,332.8,13.7Z" transform="translate(1156 5033.542)"/>
</svg>
