<svg xmlns="http://www.w3.org/2000/svg" viewBox="3506 10285.953 247.236 188.041">
  <defs>
    <style>
      .cls-1, .cls-4 {
        fill: #fff;
      }

      .cls-2 {
        fill: #475058;
      }

      .cls-3 {
        fill: #2ecc71;
      }

      .cls-4 {
        stroke: #475058;
        stroke-width: 4px;
      }

      .cls-5 {
        fill: #465057;
      }

      .cls-6 {
        fill: #47bcdb;
      }

      .cls-7 {
        stroke: none;
      }

      .cls-8 {
        fill: none;
      }
    </style>
  </defs>
  <g id="Group_253" data-name="Group 253" transform="translate(2108 6821)">
    <g id="Group_212" data-name="Group 212" transform="translate(68.75 141.344)">
      <path id="Path_216" data-name="Path 216" class="cls-1" d="M.44.5H109.969l11.918,24.17V34.1s-30.617-.892-38.449,0c-25.258,2.878-59.1,1.6-73.862,1.5C-18.441,35.411-13.049,24.67-13.049,24.67Z" transform="translate(1396.24 3402.27)"/>
      <g id="laptop" transform="translate(1380.251 3323.61)">
        <g id="Group_182" data-name="Group 182" transform="translate(14.142 0)">
          <g id="Group_181" data-name="Group 181" transform="translate(0 0)">
            <rect id="Rectangle_139" data-name="Rectangle 139" class="cls-1" width="107.538" height="76.671" transform="translate(2.786 2.987)"/>
            <path id="Path_204" data-name="Path 204" class="cls-2" d="M158.57,47.354H56.937a5.734,5.734,0,0,0-5.728,5.728v73.54a2.208,2.208,0,0,0,2.209,2.209H162.086a2.209,2.209,0,0,0,2.209-2.209V53.082A5.734,5.734,0,0,0,158.57,47.354Zm1.308,77.059H55.627V53.081a1.311,1.311,0,0,1,1.31-1.31H158.57a1.311,1.311,0,0,1,1.308,1.31Z" transform="translate(-51.209 -47.354)"/>
            <rect id="Rectangle_140" data-name="Rectangle 140" class="cls-2" width="89.615" height="57.752" transform="translate(11.748 11.948)"/>
          </g>
        </g>
        <g id="Group_184" data-name="Group 184" transform="translate(22.979 8.836)">
          <g id="Group_183" data-name="Group 183" transform="translate(0 0)">
            <path id="Path_205" data-name="Path 205" class="cls-2" d="M176.416,79.349H85.421a2.21,2.21,0,0,0-2.209,2.209v59.387a2.208,2.208,0,0,0,2.209,2.209h90.995a2.209,2.209,0,0,0,2.209-2.209V81.558A2.209,2.209,0,0,0,176.416,79.349Zm-2.209,59.388H87.63V83.767h86.577Z" transform="translate(-83.212 -79.349)"/>
          </g>
        </g>
        <g id="Group_186" data-name="Group 186" transform="translate(0 77.059)">
          <g id="Group_185" data-name="Group 185">
            <path id="Path_206" data-name="Path 206" class="cls-2" d="M141.079,352.129,126.935,327.5a2.208,2.208,0,0,0-1.915-1.109H16.351a2.205,2.205,0,0,0-1.915,1.109L.295,352.129a2.209,2.209,0,0,0,1.915,3.309H139.163a2.209,2.209,0,0,0,1.915-3.309ZM6.027,351.02l11.6-20.208h106.11l11.608,20.208Z" transform="translate(-0.001 -326.395)"/>
          </g>
        </g>
        <g id="Group_188" data-name="Group 188" transform="translate(53.821 93.595)">
          <g id="Group_187" data-name="Group 187">
            <path id="Path_207" data-name="Path 207" class="cls-2" d="M223.945,386.274H199.571l-.377.446-4.3,5.094h33.728Z" transform="translate(-194.893 -386.274)"/>
          </g>
        </g>
        <g id="Group_190" data-name="Group 190" transform="translate(0 101.684)">
          <g id="Group_189" data-name="Group 189" transform="translate(0 0)">
            <path id="Path_208" data-name="Path 208" class="cls-2" d="M141.38,418.461l-.009-.687a2.207,2.207,0,0,0-2.209-2.209H2.209A2.208,2.208,0,0,0,0,417.774c0,3.87,1.732,9.118,6.614,11.173a2.2,2.2,0,0,0,.857.172H136.148a2.228,2.228,0,0,0,1.217-.364C141.515,426.018,141.427,421.1,141.38,418.461ZM135.4,424.7H7.957A6.806,6.806,0,0,1,4.7,419.983H136.963C136.914,421.892,136.611,423.6,135.4,424.7Z" transform="translate(0 -415.565)"/>
          </g>
        </g>
      </g>
      <g id="check" transform="translate(1432.028 3346.708)">
        <ellipse id="Ellipse_75" data-name="Ellipse 75" class="cls-1" cx="18.721" cy="18.721" rx="18.721" ry="18.721" transform="translate(0 0)"/>
        <path id="Path_203" data-name="Path 203" class="cls-3" d="M24.611,59.519,11.236,72.894a2.538,2.538,0,0,1-3.589,0l-6.9-6.905A2.537,2.537,0,0,1,4.331,62.4l5.111,5.111L21.023,55.931a2.538,2.538,0,0,1,3.589,3.589Z" transform="translate(6.387 -45.218)"/>
      </g>
    </g>
    <g id="Group_208" data-name="Group 208" transform="translate(1482 3652.994) rotate(-90)">
      <g id="Ellipse_5" data-name="Ellipse 5" class="cls-4" transform="translate(0 0)">
        <ellipse class="cls-7" cx="37.147" cy="37.116" rx="37.147" ry="37.116"/>
        <ellipse class="cls-8" cx="37.147" cy="37.116" rx="35.147" ry="35.116"/>
      </g>
      <path id="Path_29" data-name="Path 29" class="cls-2" d="M4.277,2.555a26.522,26.522,0,0,0-2.65.134,1.562,1.562,0,0,1-.171.009A1.4,1.4,0,0,1,.01,1.569,1.327,1.327,0,0,1,1.288.152,29.354,29.354,0,0,1,4.3,0h.017l.019,1.278V0A1.347,1.347,0,0,1,5.767,1.278,1.407,1.407,0,0,1,4.277,2.555Z" transform="translate(65.88 32.787) rotate(90)"/>
      <path id="Path_30" data-name="Path 30" class="cls-2" d="M4.616,2.419A25.678,25.678,0,0,0,2.254,3.611a1.6,1.6,0,0,1-.794.208,1.525,1.525,0,0,1-1.223-.58A1.186,1.186,0,0,1,.663,1.471,28.452,28.452,0,0,1,3.3.137,1.558,1.558,0,0,1,5.262.7,1.209,1.209,0,0,1,4.616,2.419Z" transform="translate(63.551 22.031) rotate(90)"/>
      <path id="Path_31" data-name="Path 31" class="cls-2" d="M2.872,4.016a1.435,1.435,0,0,1-1.413.967A1.694,1.694,0,0,1,1.1,4.945,1.276,1.276,0,0,1,.044,3.4C.287,2.546.575,1.694.9.863A1.516,1.516,0,0,1,2.752.07a1.248,1.248,0,0,1,.907,1.624C3.36,2.454,3.1,3.236,2.872,4.016Z" transform="translate(48.412 9.214) rotate(90)"/>
      <path id="Path_32" data-name="Path 32" class="cls-2" d="M2.588.47c.579.623,1.2,1.226,1.835,1.794A1.168,1.168,0,0,1,4.409,4.07a1.606,1.606,0,0,1-2.061-.01C1.645,3.435.966,2.771.327,2.085A1.173,1.173,0,0,1,.539.287,1.6,1.6,0,0,1,2.588.47Z" transform="translate(19.663 15.493) rotate(90)"/>
      <path id="Path_33" data-name="Path 33" class="cls-2" d="M.251,2.589C.815,1.86,1.425,1.146,2.062.466A1.6,1.6,0,0,1,4.114.291a1.175,1.175,0,0,1,.2,1.8c-.58.618-1.136,1.269-1.649,1.933a1.522,1.522,0,0,1-1.208.561,1.605,1.605,0,0,1-.816-.22A1.184,1.184,0,0,1,.251,2.589Z" transform="translate(57.226 13.883) rotate(90)"/>
      <path id="Path_34" data-name="Path 34" class="cls-2" d="M2.126.142a25.651,25.651,0,0,0,2.487.967,1.236,1.236,0,0,1,.85,1.646A1.464,1.464,0,0,1,4.1,3.583,1.642,1.642,0,0,1,3.584,3.5,29.033,29.033,0,0,1,.792,2.415,1.206,1.206,0,0,1,.161.7,1.562,1.562,0,0,1,2.126.142Z" transform="translate(13.286 24.364) rotate(90)"/>
      <path id="Path_35" data-name="Path 35" class="cls-2" d="M1.52.147A26.08,26.08,0,0,0,4.227.007,1.426,1.426,0,0,1,5.848,1.125,1.327,1.327,0,0,1,4.574,2.545,29.631,29.631,0,0,1,1.519,2.7H1.4A1.318,1.318,0,0,1,0,1.426,1.438,1.438,0,0,1,1.52.147Z" transform="translate(11.03 35.544) rotate(90)"/>
      <path id="Path_36" data-name="Path 36" class="cls-2" d="M.992.069a1.511,1.511,0,0,1,1.847.8c.294.764.63,1.524,1,2.261a1.222,1.222,0,0,1-.755,1.681,1.62,1.62,0,0,1-.58.106,1.48,1.48,0,0,1-1.338-.768C.763,3.348.4,2.519.078,1.686A1.245,1.245,0,0,1,.992.069Z" transform="translate(28.508 9.975) rotate(90)"/>
      <path id="Path_37" data-name="Path 37" class="cls-2" d="M1.458,0A1.408,1.408,0,0,1,2.915,1.318c0,.788.034,1.579.1,2.349A1.342,1.342,0,0,1,1.676,5.04c-.038,0-.077,0-.114,0A1.394,1.394,0,0,1,.111,3.865C.036,3.029,0,2.172,0,1.318V1.237A1.345,1.345,0,0,1,1.458,0Z" transform="translate(38.422 8.151) rotate(90)"/>
      <path id="Path_38" data-name="Path 38" class="cls-2" d="M.112,3.779c0-.8-.036-1.6-.108-2.4A1.344,1.344,0,0,1,1.344,0,1.427,1.427,0,0,1,2.911,1.176c.077.864.117,1.74.117,2.6V3.8A1.366,1.366,0,0,1,1.57,5.068,1.385,1.385,0,0,1,.112,3.779Z" transform="translate(40.883 62.948) rotate(90)"/>
      <path id="Path_39" data-name="Path 39" class="cls-2" d="M.86.97A1.483,1.483,0,0,1,2.627.038,1.277,1.277,0,0,1,3.69,1.587c-.242.851-.529,1.7-.853,2.533a1.457,1.457,0,0,1-1.379.865,1.667,1.667,0,0,1-.471-.069A1.248,1.248,0,0,1,.079,3.294C.375,2.533.637,1.752.86.97Z" transform="translate(30.832 61.197) rotate(90)"/>
      <path id="Path_40" data-name="Path 40" class="cls-2" d="M4.1,3.576a1.622,1.622,0,0,1-.66-.139A25.946,25.946,0,0,0,.947,2.475,1.238,1.238,0,0,1,.093.831,1.52,1.52,0,0,1,1.969.082a29.1,29.1,0,0,1,2.793,1.08A1.207,1.207,0,0,1,5.4,2.88,1.5,1.5,0,0,1,4.1,3.576Z" transform="translate(64.523 44.148) rotate(90)"/>
      <path id="Path_41" data-name="Path 41" class="cls-2" d="M.873.11a1.535,1.535,0,0,1,1.92.657c.4.8.767,1.629,1.09,2.464a1.25,1.25,0,0,1-.913,1.621A1.645,1.645,0,0,1,2.5,4.92a1.458,1.458,0,0,1-1.38-.867c-.3-.767-.633-1.527-1-2.259A1.224,1.224,0,0,1,.873.11Z" transform="translate(50.673 60.171) rotate(90)"/>
      <path id="Path_42" data-name="Path 42" class="cls-2" d="M.8,1.407A25.632,25.632,0,0,0,3.158.209,1.589,1.589,0,0,1,5.177.578a1.186,1.186,0,0,1-.421,1.768A28.847,28.847,0,0,1,2.118,3.685a1.607,1.607,0,0,1-.657.138,1.494,1.494,0,0,1-1.3-.7A1.206,1.206,0,0,1,.8,1.407Z" transform="translate(14.504 46.734) rotate(90)"/>
      <path id="Path_43" data-name="Path 43" class="cls-2" d="M1.974.563A1.591,1.591,0,0,1,4,.219,1.185,1.185,0,0,1,4.39,1.994c-.571.74-1.178,1.455-1.8,2.126a1.544,1.544,0,0,1-1.128.468A1.577,1.577,0,0,1,.534,4.3a1.174,1.174,0,0,1-.2-1.8C.9,1.889,1.452,1.237,1.974.563Z" transform="translate(21.611 55.641) rotate(90)"/>
      <path id="Path_44" data-name="Path 44" class="cls-2" d="M2.493.378C3.2,1,3.878,1.663,4.519,2.35a1.172,1.172,0,0,1-.207,1.8,1.583,1.583,0,0,1-.921.289,1.541,1.541,0,0,1-1.13-.469c-.582-.625-1.2-1.226-1.838-1.79A1.168,1.168,0,0,1,.432.371,1.6,1.6,0,0,1,2.493.378Z" transform="translate(59.021 53.746) rotate(90)"/>
      <g id="Group_165" data-name="Group 165" transform="translate(51.952 22.452) rotate(90)">
        <g id="bottomleft" transform="translate(0 16.027)">
          <path id="Path_187" data-name="Path 187" class="cls-5" d="M13.67,12.564a1.106,1.106,0,0,1-1.106,1.106H1.106A1.106,1.106,0,0,1,0,12.564V1.106A1.106,1.106,0,0,1,1.106,0H13.67V12.564Z"/>
          <path id="Path_193" data-name="Path 193" class="cls-1" d="M3.918,0,0,2.442V8.1H7.837V4.142H3.918Z" transform="translate(2.917 2.832)"/>
        </g>
        <g id="bottomright" transform="translate(16.027 16.027)">
          <path id="Path_188" data-name="Path 188" class="cls-6" d="M12.564,0A1.106,1.106,0,0,1,13.67,1.106V12.564a1.106,1.106,0,0,1-1.106,1.106H1.106A1.106,1.106,0,0,1,0,12.564V0H12.564Z" transform="translate(0 0)"/>
          <path id="Path_194" data-name="Path 194" class="cls-1" d="M0,4.234V8.19H7.837V2.534L4.066,0,3.918.092V4.234Z" transform="translate(2.916 2.74)"/>
        </g>
        <g id="topleft" transform="translate(0 0)">
          <path id="Path_190" data-name="Path 190" class="cls-5" d="M1.106,13.67A1.106,1.106,0,0,1,0,12.564V1.106A1.106,1.106,0,0,1,1.106,0H12.564A1.106,1.106,0,0,1,13.67,1.106V13.67H1.106Z" transform="translate(0 0)"/>
          <path id="Path_191" data-name="Path 191" class="cls-1" d="M7.837,4.413V2.534L4.066,0,0,2.534V8.19H3.918V4.413Z" transform="translate(2.917 2.422)"/>
        </g>
        <g id="topright" transform="translate(16.027)">
          <path id="Path_189" data-name="Path 189" class="cls-6" d="M0,1.106A1.106,1.106,0,0,1,1.106,0H12.564A1.106,1.106,0,0,1,13.67,1.106V12.564a1.105,1.105,0,0,1-1.106,1.106H0V1.106Z" transform="translate(0)"/>
          <path id="Path_192" data-name="Path 192" class="cls-1" d="M3.918,8.19H7.837V2.534L4.066,0,0,2.534v1.88H3.918Z" transform="translate(2.916 2.422)"/>
        </g>
      </g>
    </g>
    <g id="Group_213" data-name="Group 213" transform="translate(1581 3615.994) rotate(-90)">
      <g id="Ellipse_5-2" data-name="Ellipse 5" class="cls-4" transform="translate(0 0)">
        <ellipse class="cls-7" cx="32.145" cy="32.118" rx="32.145" ry="32.118"/>
        <ellipse class="cls-8" cx="32.145" cy="32.118" rx="30.145" ry="30.118"/>
      </g>
      <path id="Path_29-2" data-name="Path 29" class="cls-2" d="M3.7,2.211a22.951,22.951,0,0,0-2.293.116,1.352,1.352,0,0,1-.148.008A1.214,1.214,0,0,1,.009,1.358,1.148,1.148,0,0,1,1.115.132,25.4,25.4,0,0,1,3.724,0h.015l.016,1.106V0A1.165,1.165,0,0,1,4.99,1.106,1.218,1.218,0,0,1,3.7,2.211Z" transform="translate(57.009 28.372) rotate(90)"/>
      <path id="Path_30-2" data-name="Path 30" class="cls-2" d="M3.994,2.093A22.22,22.22,0,0,0,1.951,3.125a1.381,1.381,0,0,1-.687.18A1.32,1.32,0,0,1,.205,2.8a1.026,1.026,0,0,1,.368-1.53A24.621,24.621,0,0,1,2.859.119a1.348,1.348,0,0,1,1.694.49A1.046,1.046,0,0,1,3.994,2.093Z" transform="translate(54.994 19.064) rotate(90)"/>
      <path id="Path_31-2" data-name="Path 31" class="cls-2" d="M2.485,3.475a1.242,1.242,0,0,1-1.222.837,1.466,1.466,0,0,1-.308-.033A1.1,1.1,0,0,1,.038,2.938C.249,2.2.5,1.466.779.747A1.312,1.312,0,0,1,2.382.06a1.08,1.08,0,0,1,.785,1.405C2.908,2.123,2.68,2.8,2.485,3.475Z" transform="translate(41.893 7.973) rotate(90)"/>
      <path id="Path_32-2" data-name="Path 32" class="cls-2" d="M2.24.406c.5.54,1.034,1.061,1.588,1.552a1.011,1.011,0,0,1-.013,1.563,1.39,1.39,0,0,1-1.784-.009C1.424,2.972.836,2.4.283,1.8A1.015,1.015,0,0,1,.466.248,1.386,1.386,0,0,1,2.24.406Z" transform="translate(17.015 13.407) rotate(90)"/>
      <path id="Path_33-2" data-name="Path 33" class="cls-2" d="M.217,2.241C.705,1.609,1.233.991,1.784.4A1.388,1.388,0,0,1,3.56.252a1.017,1.017,0,0,1,.173,1.557c-.5.535-.983,1.1-1.427,1.673a1.317,1.317,0,0,1-1.046.485,1.389,1.389,0,0,1-.706-.19A1.024,1.024,0,0,1,.217,2.241Z" transform="translate(49.52 12.013) rotate(90)"/>
      <path id="Path_34-2" data-name="Path 34" class="cls-2" d="M1.84.123A22.2,22.2,0,0,0,3.992.96a1.069,1.069,0,0,1,.735,1.424A1.266,1.266,0,0,1,3.546,3.1,1.421,1.421,0,0,1,3.1,3.028,25.124,25.124,0,0,1,.685,2.09,1.044,1.044,0,0,1,.139.6,1.352,1.352,0,0,1,1.84.123Z" transform="translate(11.497 21.083) rotate(90)"/>
      <path id="Path_35-2" data-name="Path 35" class="cls-2" d="M1.316.128A22.569,22.569,0,0,0,3.658.006a1.234,1.234,0,0,1,1.4.967A1.148,1.148,0,0,1,3.958,2.2a25.641,25.641,0,0,1-2.644.137H1.207A1.141,1.141,0,0,1,0,1.234,1.244,1.244,0,0,1,1.316.128Z" transform="translate(9.545 30.758) rotate(90)"/>
      <path id="Path_36-2" data-name="Path 36" class="cls-2" d="M.858.059a1.308,1.308,0,0,1,1.6.694c.255.661.545,1.319.862,1.957a1.058,1.058,0,0,1-.653,1.455,1.4,1.4,0,0,1-.5.092A1.28,1.28,0,0,1,1,3.593C.66,2.9.345,2.18.067,1.459A1.077,1.077,0,0,1,.858.059Z" transform="translate(24.669 8.632) rotate(90)"/>
      <path id="Path_37-2" data-name="Path 37" class="cls-2" d="M1.261,0A1.218,1.218,0,0,1,2.523,1.141c0,.682.029,1.366.088,2.033A1.161,1.161,0,0,1,1.451,4.361c-.033,0-.067,0-.1,0A1.206,1.206,0,0,1,.1,3.344C.032,2.621,0,1.879,0,1.141V1.07A1.164,1.164,0,0,1,1.261,0Z" transform="translate(33.248 7.054) rotate(90)"/>
      <path id="Path_38-2" data-name="Path 38" class="cls-2" d="M.1,3.27C.1,2.582.066,1.882,0,1.192A1.163,1.163,0,0,1,1.163,0,1.235,1.235,0,0,1,2.519,1.017c.067.747.1,1.506.1,2.252v.023A1.182,1.182,0,0,1,1.359,4.386,1.2,1.2,0,0,1,.1,3.27Z" transform="translate(35.378 54.472) rotate(90)"/>
      <path id="Path_39-2" data-name="Path 39" class="cls-2" d="M.744.839A1.283,1.283,0,0,1,2.273.033a1.1,1.1,0,0,1,.92,1.34c-.209.736-.458,1.474-.738,2.192a1.261,1.261,0,0,1-1.193.748,1.443,1.443,0,0,1-.407-.06,1.08,1.08,0,0,1-.786-1.4C.324,2.192.551,1.516.744.839Z" transform="translate(26.68 52.957) rotate(90)"/>
      <path id="Path_40-2" data-name="Path 40" class="cls-2" d="M3.547,3.095a1.4,1.4,0,0,1-.571-.121A22.452,22.452,0,0,0,.819,2.142,1.072,1.072,0,0,1,.08.719,1.315,1.315,0,0,1,1.7.071a25.178,25.178,0,0,1,2.417.934,1.044,1.044,0,0,1,.551,1.487A1.294,1.294,0,0,1,3.547,3.095Z" transform="translate(55.835 38.203) rotate(90)"/>
      <path id="Path_41-2" data-name="Path 41" class="cls-2" d="M.756.1A1.328,1.328,0,0,1,2.417.664c.346.692.664,1.41.944,2.133a1.082,1.082,0,0,1-.79,1.4,1.424,1.424,0,0,1-.4.059A1.262,1.262,0,0,1,.971,3.507C.715,2.844.424,2.186.106,1.553A1.059,1.059,0,0,1,.756.1Z" transform="translate(43.85 52.069) rotate(90)"/>
      <path id="Path_42-2" data-name="Path 42" class="cls-2" d="M.692,1.218A22.181,22.181,0,0,0,2.733.181,1.375,1.375,0,0,1,4.48.5a1.026,1.026,0,0,1-.365,1.53A24.963,24.963,0,0,1,1.832,3.189a1.391,1.391,0,0,1-.569.119A1.293,1.293,0,0,1,.137,2.7,1.044,1.044,0,0,1,.692,1.218Z" transform="translate(12.551 40.441) rotate(90)"/>
      <path id="Path_43-2" data-name="Path 43" class="cls-2" d="M1.708.487A1.376,1.376,0,0,1,3.46.19,1.025,1.025,0,0,1,3.8,1.725c-.494.64-1.019,1.259-1.562,1.84a1.336,1.336,0,0,1-.976.4,1.365,1.365,0,0,1-.8-.251A1.016,1.016,0,0,1,.285,2.162C.777,1.634,1.257,1.071,1.708.487Z" transform="translate(18.701 48.149) rotate(90)"/>
      <path id="Path_44-2" data-name="Path 44" class="cls-2" d="M2.157.327c.608.537,1.2,1.112,1.753,1.707a1.014,1.014,0,0,1-.179,1.556,1.37,1.37,0,0,1-.8.25,1.333,1.333,0,0,1-.978-.406C1.454,2.893.919,2.372.366,1.885A1.011,1.011,0,0,1,.374.321,1.389,1.389,0,0,1,2.157.327Z" transform="translate(51.074 46.509) rotate(90)"/>
      <g id="Group_165-2" data-name="Group 165" transform="translate(44.957 19.429) rotate(90)">
        <g id="bottomleft-2" data-name="bottomleft" transform="translate(0 13.869)">
          <path id="Path_187-2" data-name="Path 187" class="cls-5" d="M11.829,10.872a.957.957,0,0,1-.957.957H.957A.957.957,0,0,1,0,10.872V.957A.957.957,0,0,1,.957,0H11.829V10.872Z"/>
          <path id="Path_193-2" data-name="Path 193" class="cls-1" d="M3.391,0,0,2.113V7.008H6.782V3.584H3.391Z" transform="translate(2.524 2.451)"/>
        </g>
        <g id="bottomright-2" data-name="bottomright" transform="translate(13.869 13.869)">
          <path id="Path_188-2" data-name="Path 188" class="cls-6" d="M10.872,0a.957.957,0,0,1,.957.957v9.915a.957.957,0,0,1-.957.957H.957A.957.957,0,0,1,0,10.872V0H10.872Z" transform="translate(0 0)"/>
          <path id="Path_194-2" data-name="Path 194" class="cls-1" d="M0,3.663V7.087H6.782V2.193L3.518,0,3.391.08V3.663Z" transform="translate(2.524 2.371)"/>
        </g>
        <g id="topleft-2" data-name="topleft" transform="translate(0 0)">
          <path id="Path_190-2" data-name="Path 190" class="cls-5" d="M.957,11.829A.957.957,0,0,1,0,10.872V.957A.957.957,0,0,1,.957,0h9.915a.957.957,0,0,1,.957.957V11.829H.957Z" transform="translate(0 0)"/>
          <path id="Path_191-2" data-name="Path 191" class="cls-1" d="M6.782,3.819V2.193L3.518,0,0,2.193V7.087H3.391V3.819Z" transform="translate(2.524 2.096)"/>
        </g>
        <g id="topright-2" data-name="topright" transform="translate(13.869)">
          <path id="Path_189-2" data-name="Path 189" class="cls-6" d="M0,.957A.957.957,0,0,1,.957,0h9.915a.957.957,0,0,1,.957.957v9.915a.957.957,0,0,1-.957.957H0V.957Z" transform="translate(0)"/>
          <path id="Path_192-2" data-name="Path 192" class="cls-1" d="M3.391,7.087H6.782V2.193L3.518,0,0,2.193V3.819H3.391Z" transform="translate(2.524 2.096)"/>
        </g>
      </g>
    </g>
    <g id="Group_214" data-name="Group 214" transform="translate(1398 3615.994) rotate(-90)">
      <g id="Ellipse_5-3" data-name="Ellipse 5" class="cls-4" transform="translate(0 0)">
        <ellipse class="cls-7" cx="32.145" cy="32.118" rx="32.145" ry="32.118"/>
        <ellipse class="cls-8" cx="32.145" cy="32.118" rx="30.145" ry="30.118"/>
      </g>
      <path id="Path_29-3" data-name="Path 29" class="cls-2" d="M3.7,2.211a22.951,22.951,0,0,0-2.293.116,1.352,1.352,0,0,1-.148.008A1.214,1.214,0,0,1,.009,1.358,1.148,1.148,0,0,1,1.115.132,25.4,25.4,0,0,1,3.724,0h.015l.016,1.106V0A1.165,1.165,0,0,1,4.99,1.106,1.218,1.218,0,0,1,3.7,2.211Z" transform="translate(57.009 28.372) rotate(90)"/>
      <path id="Path_30-3" data-name="Path 30" class="cls-2" d="M3.994,2.093A22.22,22.22,0,0,0,1.951,3.125a1.381,1.381,0,0,1-.687.18A1.32,1.32,0,0,1,.205,2.8a1.026,1.026,0,0,1,.368-1.53A24.621,24.621,0,0,1,2.859.119a1.348,1.348,0,0,1,1.694.49A1.046,1.046,0,0,1,3.994,2.093Z" transform="translate(54.994 19.064) rotate(90)"/>
      <path id="Path_31-3" data-name="Path 31" class="cls-2" d="M2.485,3.475a1.242,1.242,0,0,1-1.222.837,1.466,1.466,0,0,1-.308-.033A1.1,1.1,0,0,1,.038,2.938C.249,2.2.5,1.466.779.747A1.312,1.312,0,0,1,2.382.06a1.08,1.08,0,0,1,.785,1.405C2.908,2.123,2.68,2.8,2.485,3.475Z" transform="translate(41.893 7.973) rotate(90)"/>
      <path id="Path_32-3" data-name="Path 32" class="cls-2" d="M2.24.406c.5.54,1.034,1.061,1.588,1.552a1.011,1.011,0,0,1-.013,1.563,1.39,1.39,0,0,1-1.784-.009C1.424,2.972.836,2.4.283,1.8A1.015,1.015,0,0,1,.466.248,1.386,1.386,0,0,1,2.24.406Z" transform="translate(17.015 13.407) rotate(90)"/>
      <path id="Path_33-3" data-name="Path 33" class="cls-2" d="M.217,2.241C.705,1.609,1.233.991,1.784.4A1.388,1.388,0,0,1,3.56.252a1.017,1.017,0,0,1,.173,1.557c-.5.535-.983,1.1-1.427,1.673a1.317,1.317,0,0,1-1.046.485,1.389,1.389,0,0,1-.706-.19A1.024,1.024,0,0,1,.217,2.241Z" transform="translate(49.52 12.013) rotate(90)"/>
      <path id="Path_34-3" data-name="Path 34" class="cls-2" d="M1.84.123A22.2,22.2,0,0,0,3.992.96a1.069,1.069,0,0,1,.735,1.424A1.266,1.266,0,0,1,3.546,3.1,1.421,1.421,0,0,1,3.1,3.028,25.124,25.124,0,0,1,.685,2.09,1.044,1.044,0,0,1,.139.6,1.352,1.352,0,0,1,1.84.123Z" transform="translate(11.497 21.083) rotate(90)"/>
      <path id="Path_35-3" data-name="Path 35" class="cls-2" d="M1.316.128A22.569,22.569,0,0,0,3.658.006a1.234,1.234,0,0,1,1.4.967A1.148,1.148,0,0,1,3.958,2.2a25.641,25.641,0,0,1-2.644.137H1.207A1.141,1.141,0,0,1,0,1.234,1.244,1.244,0,0,1,1.316.128Z" transform="translate(9.545 30.758) rotate(90)"/>
      <path id="Path_36-3" data-name="Path 36" class="cls-2" d="M.858.059a1.308,1.308,0,0,1,1.6.694c.255.661.545,1.319.862,1.957a1.058,1.058,0,0,1-.653,1.455,1.4,1.4,0,0,1-.5.092A1.28,1.28,0,0,1,1,3.593C.66,2.9.345,2.18.067,1.459A1.077,1.077,0,0,1,.858.059Z" transform="translate(24.669 8.632) rotate(90)"/>
      <path id="Path_37-3" data-name="Path 37" class="cls-2" d="M1.261,0A1.218,1.218,0,0,1,2.523,1.141c0,.682.029,1.366.088,2.033A1.161,1.161,0,0,1,1.451,4.361c-.033,0-.067,0-.1,0A1.206,1.206,0,0,1,.1,3.344C.032,2.621,0,1.879,0,1.141V1.07A1.164,1.164,0,0,1,1.261,0Z" transform="translate(33.248 7.054) rotate(90)"/>
      <path id="Path_38-3" data-name="Path 38" class="cls-2" d="M.1,3.27C.1,2.582.066,1.882,0,1.192A1.163,1.163,0,0,1,1.163,0,1.235,1.235,0,0,1,2.519,1.017c.067.747.1,1.506.1,2.252v.023A1.182,1.182,0,0,1,1.359,4.386,1.2,1.2,0,0,1,.1,3.27Z" transform="translate(35.378 54.472) rotate(90)"/>
      <path id="Path_39-3" data-name="Path 39" class="cls-2" d="M.744.839A1.283,1.283,0,0,1,2.273.033a1.1,1.1,0,0,1,.92,1.34c-.209.736-.458,1.474-.738,2.192a1.261,1.261,0,0,1-1.193.748,1.443,1.443,0,0,1-.407-.06,1.08,1.08,0,0,1-.786-1.4C.324,2.192.551,1.516.744.839Z" transform="translate(26.68 52.957) rotate(90)"/>
      <path id="Path_40-3" data-name="Path 40" class="cls-2" d="M3.547,3.095a1.4,1.4,0,0,1-.571-.121A22.452,22.452,0,0,0,.819,2.142,1.072,1.072,0,0,1,.08.719,1.315,1.315,0,0,1,1.7.071a25.178,25.178,0,0,1,2.417.934,1.044,1.044,0,0,1,.551,1.487A1.294,1.294,0,0,1,3.547,3.095Z" transform="translate(55.835 38.203) rotate(90)"/>
      <path id="Path_41-3" data-name="Path 41" class="cls-2" d="M.756.1A1.328,1.328,0,0,1,2.417.664c.346.692.664,1.41.944,2.133a1.082,1.082,0,0,1-.79,1.4,1.424,1.424,0,0,1-.4.059A1.262,1.262,0,0,1,.971,3.507C.715,2.844.424,2.186.106,1.553A1.059,1.059,0,0,1,.756.1Z" transform="translate(43.85 52.069) rotate(90)"/>
      <path id="Path_42-3" data-name="Path 42" class="cls-2" d="M.692,1.218A22.181,22.181,0,0,0,2.733.181,1.375,1.375,0,0,1,4.48.5a1.026,1.026,0,0,1-.365,1.53A24.963,24.963,0,0,1,1.832,3.189a1.391,1.391,0,0,1-.569.119A1.293,1.293,0,0,1,.137,2.7,1.044,1.044,0,0,1,.692,1.218Z" transform="translate(12.551 40.441) rotate(90)"/>
      <path id="Path_43-3" data-name="Path 43" class="cls-2" d="M1.708.487A1.376,1.376,0,0,1,3.46.19,1.025,1.025,0,0,1,3.8,1.725c-.494.64-1.019,1.259-1.562,1.84a1.336,1.336,0,0,1-.976.4,1.365,1.365,0,0,1-.8-.251A1.016,1.016,0,0,1,.285,2.162C.777,1.634,1.257,1.071,1.708.487Z" transform="translate(18.701 48.149) rotate(90)"/>
      <path id="Path_44-3" data-name="Path 44" class="cls-2" d="M2.157.327c.608.537,1.2,1.112,1.753,1.707a1.014,1.014,0,0,1-.179,1.556,1.37,1.37,0,0,1-.8.25,1.333,1.333,0,0,1-.978-.406C1.454,2.893.919,2.372.366,1.885A1.011,1.011,0,0,1,.374.321,1.389,1.389,0,0,1,2.157.327Z" transform="translate(51.074 46.509) rotate(90)"/>
      <g id="Group_165-3" data-name="Group 165" transform="translate(44.957 19.429) rotate(90)">
        <g id="bottomleft-3" data-name="bottomleft" transform="translate(0 13.869)">
          <path id="Path_187-3" data-name="Path 187" class="cls-5" d="M11.829,10.872a.957.957,0,0,1-.957.957H.957A.957.957,0,0,1,0,10.872V.957A.957.957,0,0,1,.957,0H11.829V10.872Z"/>
          <path id="Path_193-3" data-name="Path 193" class="cls-1" d="M3.391,0,0,2.113V7.008H6.782V3.584H3.391Z" transform="translate(2.524 2.451)"/>
        </g>
        <g id="bottomright-3" data-name="bottomright" transform="translate(13.869 13.869)">
          <path id="Path_188-3" data-name="Path 188" class="cls-6" d="M10.872,0a.957.957,0,0,1,.957.957v9.915a.957.957,0,0,1-.957.957H.957A.957.957,0,0,1,0,10.872V0H10.872Z" transform="translate(0 0)"/>
          <path id="Path_194-3" data-name="Path 194" class="cls-1" d="M0,3.663V7.087H6.782V2.193L3.518,0,3.391.08V3.663Z" transform="translate(2.524 2.371)"/>
        </g>
        <g id="topleft-3" data-name="topleft" transform="translate(0 0)">
          <path id="Path_190-3" data-name="Path 190" class="cls-5" d="M.957,11.829A.957.957,0,0,1,0,10.872V.957A.957.957,0,0,1,.957,0h9.915a.957.957,0,0,1,.957.957V11.829H.957Z" transform="translate(0 0)"/>
          <path id="Path_191-3" data-name="Path 191" class="cls-1" d="M6.782,3.819V2.193L3.518,0,0,2.193V7.087H3.391V3.819Z" transform="translate(2.524 2.096)"/>
        </g>
        <g id="topright-3" data-name="topright" transform="translate(13.869)">
          <path id="Path_189-3" data-name="Path 189" class="cls-6" d="M0,.957A.957.957,0,0,1,.957,0h9.915a.957.957,0,0,1,.957.957v9.915a.957.957,0,0,1-.957.957H0V.957Z" transform="translate(0)"/>
          <path id="Path_192-3" data-name="Path 192" class="cls-1" d="M3.391,7.087H6.782V2.193L3.518,0,0,2.193V3.819H3.391Z" transform="translate(2.524 2.096)"/>
        </g>
      </g>
    </g>
  </g>
</svg>
