<svg xmlns="http://www.w3.org/2000/svg" viewBox="2438 10283 142 179">
  <defs>
    <style>
      .cls-1, .cls-2 {
        fill: #fff;
      }

      .cls-1 {
        stroke: #475058;
        stroke-width: 6px;
      }

      .cls-3 {
        fill: #48bddb;
      }

      .cls-4 {
        fill: #475058;
      }
    </style>
  </defs>
  <g id="Group_215" data-name="Group 215" transform="translate(1900 6904)">
    <path id="Path_228" data-name="Path 228" class="cls-1" d="M6,0H94.427L136,42.543V167a6,6,0,0,1-6,6H6a6,6,0,0,1-6-6V6A6,6,0,0,1,6,0Z" transform="translate(541 3382)"/>
    <path id="Path_229" data-name="Path 229" class="cls-1" d="M2745.509,10207.589v37.227h35.933Z" transform="translate(-2109.734 -6821)"/>
    <path id="Path_230" data-name="Path 230" class="cls-2" d="M2746.776,10215.18v-4.719l31.5,31.352h-5.955Z" transform="translate(-2108 -6821)"/>
    <g id="diploma" transform="translate(533.5 3380.555)">
      <circle id="Ellipse_96" data-name="Ellipse 96" class="cls-3" cx="21" cy="21" r="21" transform="translate(81.5 85.445)"/>
      <path id="Path_218" data-name="Path 218" class="cls-4" d="M18.391,20.782H44.408a2.891,2.891,0,1,0,0-5.782H18.391a2.891,2.891,0,0,0,0,5.782Z" transform="translate(17.017 28.361)"/>
      <path id="Path_219" data-name="Path 219" class="cls-4" d="M18.391,28.782H32.845a2.891,2.891,0,0,0,0-5.782H18.391a2.891,2.891,0,0,0,0,5.782Z" transform="translate(17.017 43.487)"/>
      <path id="Path_220" data-name="Path 220" class="cls-4" d="M33.391,28.782H53.626a2.891,2.891,0,0,0,0-5.782H33.391a2.891,2.891,0,0,0,0,5.782Z" transform="translate(45.378 43.487)"/>
      <path id="Path_221" data-name="Path 221" class="cls-4" d="M26.338,23.841a2.79,2.79,0,0,0-.838,2.024,2.91,2.91,0,0,0,.838,2.052,3.034,3.034,0,0,0,2.052.838,2.833,2.833,0,0,0,2.052-.867,2.921,2.921,0,0,0,.838-2.024,3.029,3.029,0,0,0-.838-2.052A3,3,0,0,0,26.338,23.841Z" transform="translate(35.924 43.513)"/>
      <path id="Path_222" data-name="Path 222" class="cls-4" d="M45.391,28.758a2.9,2.9,0,0,0,2.052-4.943,2.9,2.9,0,0,0-4.1,4.1A3.034,3.034,0,0,0,45.391,28.758Z" transform="translate(68.067 43.511)"/>
      <path id="Path_223" data-name="Path 223" class="cls-4" d="M43.626,31H23.391a2.891,2.891,0,0,0,0,5.782H43.626a2.891,2.891,0,0,0,0-5.782Z" transform="translate(26.471 58.613)"/>
      <path id="Path_224" data-name="Path 224" class="cls-4" d="M18.391,36.758a3.04,3.04,0,0,0,2.052-.838,2.932,2.932,0,0,0,0-4.1,3.027,3.027,0,0,0-4.1,0,2.852,2.852,0,0,0-.838,2.052,2.863,2.863,0,0,0,2.891,2.891Z" transform="translate(17.017 58.637)"/>
      <path id="Path_225" data-name="Path 225" class="cls-4" d="M31.342,40.4c-6.331,3.3-8.461,9.6-9.239,16.136l-3.59-3.006c-2.833-2.373-6.944,1.694-4.088,4.09q4.054,3.4,8.111,6.8a2.93,2.93,0,0,0,4.935-2.044c.211-6.261.506-13.708,6.787-16.977C37.56,43.673,34.64,38.681,31.342,40.4Z" transform="translate(13.157 75.712)"/>
      <path id="Path_226" data-name="Path 226" class="cls-4" d="M37.216,44.917c-4,.928-8.56,6.021-11.378.306-1.645-3.336-6.634-.41-4.992,2.917a10.009,10.009,0,0,0,7.715,5.585,9.655,9.655,0,0,0,4.88-.653c1.182-.46,5.6-3.781,6.553-2.073,1.815,3.249,6.811.335,4.992-2.917A6.871,6.871,0,0,0,37.216,44.917Z" transform="translate(26.506 82.724)"/>
      <path id="Path_227" data-name="Path 227" class="cls-4" d="M77.46,46.827a1.843,1.843,0,0,1-1.049-2.535,7.632,7.632,0,0,0-10.167-10.17,1.845,1.845,0,0,1-2.538-1.049,7.631,7.631,0,0,0-14.379,0,1.843,1.843,0,0,1-2.535,1.049,7.632,7.632,0,0,0-10.17,10.167,1.854,1.854,0,0,1,.04,1.506,1.829,1.829,0,0,1-1.09,1.032,7.631,7.631,0,0,0,0,14.379,1.843,1.843,0,0,1,1.049,2.535,7.556,7.556,0,0,0,1.5,8.672,7.638,7.638,0,0,0,3.943,2.1v35.62L56.517,95.684l14.454,14.454V74.515a7.642,7.642,0,0,0,5.44-10.771,1.854,1.854,0,0,1-.04-1.506,1.829,1.829,0,0,1,1.09-1.032,7.631,7.631,0,0,0,0-14.379ZM56.517,87.509l-8.672,8.672V73.755a.583.583,0,0,1,.075.012,2.014,2.014,0,0,1,.376.1,1.96,1.96,0,0,1,.532.335,1.8,1.8,0,0,1,.5.754,7.631,7.631,0,0,0,14.379,0,1.8,1.8,0,0,1,.5-.754,1.865,1.865,0,0,1,.532-.335,2.221,2.221,0,0,1,.373-.1c.023,0,.049-.009.075-.012V96.178ZM75.524,55.76a7.635,7.635,0,0,0-4.336,10.47,1.767,1.767,0,0,1-.364,2.1,1.807,1.807,0,0,1-1.622.491l-.636-.2a6.835,6.835,0,0,0-.812-.266c-.2-.064-.4-.15-.6-.2a7.854,7.854,0,0,0-.864-.113c-.234-.026-.463-.075-.7-.081a8.065,8.065,0,0,0-.835.064c-.24.023-.483.017-.723.064a7.528,7.528,0,0,0-1.5.445.009.009,0,0,0-.006,0h0c-.127.052-.234.136-.358.194a7.78,7.78,0,0,0-1.046.569,7.632,7.632,0,0,0-1.078.922c-.038.038-.087.066-.124.107a7.641,7.641,0,0,0-1.659,2.7,1.848,1.848,0,0,1-3.48-.006,7.615,7.615,0,0,0-1.659-2.7c-.029-.032-.066-.052-.1-.084a7.682,7.682,0,0,0-1.107-.945,7.5,7.5,0,0,0-1.006-.546c-.136-.066-.257-.159-.4-.217h0a0,0,0,0,1,0,0c-.061-.026-.124-.032-.185-.055a6.329,6.329,0,0,0-2.342-.486c-.13-.006-.26-.038-.39-.038-.009,0-.014,0-.023,0a6.9,6.9,0,0,0-3.027.645l-.656.205a1.8,1.8,0,0,1-1.671-.48,1.769,1.769,0,0,1-.364-2.1,7.633,7.633,0,0,0-4.336-10.467,1.848,1.848,0,0,1,0-3.48A7.635,7.635,0,0,0,41.846,41.8a1.851,1.851,0,0,1,2.466-2.463A7.633,7.633,0,0,0,54.779,35a1.848,1.848,0,0,1,3.48.006,7.635,7.635,0,0,0,10.47,4.336,1.851,1.851,0,0,1,2.463,2.466,7.633,7.633,0,0,0,4.336,10.467,1.848,1.848,0,0,1-.006,3.48Z" transform="translate(45.378 52.941)"/>
    </g>
  </g>
</svg>
