<svg xmlns="http://www.w3.org/2000/svg" viewBox="2318.828 9502 742.47 350.012">
  <defs>
    <style>
      .cls-1, .cls-7, .cls-9 {
        fill: #475058;
      }

      .cls-1, .cls-2, .cls-8, .cls-9 {
        stroke: #fff;
      }

      .cls-1, .cls-2 {
        stroke-width: 4px;
      }

      .cls-2, .cls-3, .cls-4, .cls-5, .cls-8 {
        fill: #49bddb;
      }

      .cls-3 {
        font-size: 17px;
      }

      .cls-3, .cls-4, .cls-5 {
        font-family: OpenSans-Bold, Open Sans;
        font-weight: 700;
      }

      .cls-4 {
        font-size: 24px;
      }

      .cls-5 {
        font-size: 21px;
      }

      .cls-13, .cls-6 {
        fill: #fff;
      }

      .cls-10, .cls-6 {
        stroke: #475058;
        stroke-width: 6px;
      }

      .cls-8, .cls-9 {
        stroke-width: 3px;
      }

      .cls-10, .cls-16 {
        fill: none;
      }

      .cls-11 {
        fill: #2ecc71;
      }

      .cls-12 {
        fill: #465057;
      }

      .cls-14 {
        fill: #47bcdb;
      }

      .cls-15 {
        stroke: none;
      }
    </style>
  </defs>
  <g id="Group_339" data-name="Group 339" transform="translate(2108 6821)">
    <g id="smartphone" transform="translate(412.036 2683)">
      <path id="Path_212" data-name="Path 212" class="cls-1" d="M183.67,0H38.4A25.439,25.439,0,0,0,13,25.4V320.6a25.44,25.44,0,0,0,25.4,25.409H183.664a25.44,25.44,0,0,0,25.409-25.4V25.4A25.439,25.439,0,0,0,183.67,0ZM24.534,46.135H197.539V265.275H24.534ZM38.4,11.534H183.664A13.887,13.887,0,0,1,197.539,25.4v9.2H24.534V25.4A13.886,13.886,0,0,1,38.4,11.534ZM183.67,334.478H38.4a13.886,13.886,0,0,1-13.869-13.869v-43.8H197.539v43.8A13.886,13.886,0,0,1,183.67,334.478Z" transform="translate(61.964)"/>
      <path id="Path_213" data-name="Path 213" class="cls-2" d="M49.067,49A23.067,23.067,0,1,0,72.135,72.067,23.091,23.091,0,0,0,49.067,49Zm0,34.6A11.534,11.534,0,1,1,60.6,72.067,11.545,11.545,0,0,1,49.067,83.6Z" transform="translate(123.934 233.576)"/>
      <path id="Path_214" data-name="Path 214" class="cls-1" d="M30.767,14.534H53.834A5.767,5.767,0,1,0,53.834,3H30.767a5.767,5.767,0,1,0,0,11.534Z" transform="translate(119.167 14.301)"/>
      <path id="Path_215" data-name="Path 215" class="cls-1" d="M37.767,14.534h5.767A5.767,5.767,0,1,0,43.534,3H37.767a5.767,5.767,0,1,0,0,11.534Z" transform="translate(152.535 14.301)"/>
    </g>
    <text id="TOKEN" class="cls-3" transform="translate(740.889 2760.744)"><tspan x="0" y="0">TOKEN</tspan></text>
    <text id="TOKEN-2" data-name="TOKEN" class="cls-4" transform="translate(842.173 2865.324)"><tspan x="0" y="0">TOKEN</tspan></text>
    <text id="TOKEN-3" data-name="TOKEN" class="cls-5" transform="translate(748.638 2983.646)"><tspan x="0" y="0">TOKEN</tspan></text>
    <g id="Group_254" data-name="Group 254">
      <g id="Rectangle_132" data-name="Rectangle 132" class="cls-6" transform="translate(210.828 2787.876)">
        <rect class="cls-15" width="219.344" height="136.248" rx="15"/>
        <rect class="cls-16" x="3" y="3" width="213.344" height="130.248" rx="12"/>
      </g>
      <rect id="Rectangle_133" data-name="Rectangle 133" class="cls-7" width="219.344" height="32.19" transform="translate(210.828 2811.832)"/>
      <g id="Ellipse_90" data-name="Ellipse 90" class="cls-8" transform="translate(344.83 2863.486)">
        <circle class="cls-15" cx="19.51" cy="19.51" r="19.51"/>
        <circle class="cls-16" cx="19.51" cy="19.51" r="18.01"/>
      </g>
      <g id="Ellipse_91" data-name="Ellipse 91" class="cls-9" transform="translate(371.773 2863.486)">
        <circle class="cls-15" cx="19.51" cy="19.51" r="19.51"/>
        <circle class="cls-16" cx="19.51" cy="19.51" r="18.01"/>
      </g>
    </g>
    <g id="check" transform="translate(548.601 2751.814)">
      <g id="Ellipse_75" data-name="Ellipse 75" class="cls-10" transform="translate(-2.6 52.894)">
        <circle class="cls-15" cx="39.144" cy="39.144" r="39.144"/>
        <circle class="cls-16" cx="39.144" cy="39.144" r="36.144"/>
      </g>
      <path id="Path_203" data-name="Path 203" class="cls-11" d="M35.748,61.479,16.32,80.906a3.687,3.687,0,0,1-5.212,0L1.079,70.877a3.686,3.686,0,0,1,5.212-5.213l7.424,7.424L30.536,56.267a3.686,3.686,0,0,1,5.213,5.212Z" transform="translate(18.878 24.486)"/>
    </g>
    <g id="Group_203" data-name="Group 203" transform="translate(725.631 2788.124) rotate(-90)">
      <g id="Ellipse_5" data-name="Ellipse 5" class="cls-6" transform="translate(0 0)">
        <ellipse class="cls-15" cx="45.042" cy="45.004" rx="45.042" ry="45.004"/>
        <ellipse class="cls-16" cx="45.042" cy="45.004" rx="42.042" ry="42.004"/>
      </g>
      <path id="Path_29" data-name="Path 29" class="cls-7" d="M5.186,3.1a32.159,32.159,0,0,0-3.213.163,1.894,1.894,0,0,1-.207.011A1.7,1.7,0,0,1,.012,1.9,1.609,1.609,0,0,1,1.562.184,35.592,35.592,0,0,1,5.218,0h.021l.023,1.549V0a1.633,1.633,0,0,1,1.73,1.549A1.706,1.706,0,0,1,5.186,3.1Z" transform="translate(79.881 39.756) rotate(90)"/>
      <path id="Path_30" data-name="Path 30" class="cls-7" d="M5.6,2.933A31.135,31.135,0,0,0,2.734,4.378a1.935,1.935,0,0,1-.963.253,1.849,1.849,0,0,1-1.483-.7A1.438,1.438,0,0,1,.8,1.784,34.5,34.5,0,0,1,4.006.166,1.889,1.889,0,0,1,6.38.853,1.466,1.466,0,0,1,5.6,2.933Z" transform="translate(77.058 26.713) rotate(90)"/>
      <path id="Path_31" data-name="Path 31" class="cls-7" d="M3.482,4.87A1.74,1.74,0,0,1,1.77,6.043,2.054,2.054,0,0,1,1.338,6,1.547,1.547,0,0,1,.053,4.117c.3-1.03.643-2.063,1.038-3.07A1.838,1.838,0,0,1,3.337.085a1.513,1.513,0,0,1,1.1,1.969C4.075,2.975,3.755,3.923,3.482,4.87Z" transform="translate(58.701 11.172) rotate(90)"/>
      <path id="Path_32" data-name="Path 32" class="cls-7" d="M3.138.569c.7.756,1.449,1.487,2.225,2.175a1.416,1.416,0,0,1-.018,2.19,1.947,1.947,0,0,1-2.5-.012C1.995,4.165,1.171,3.359.4,2.528A1.422,1.422,0,0,1,.653.348,1.942,1.942,0,0,1,3.138.569Z" transform="translate(23.842 18.786) rotate(90)"/>
      <path id="Path_33" data-name="Path 33" class="cls-7" d="M.3,3.139C.989,2.255,1.727,1.389,2.5.565A1.945,1.945,0,0,1,4.989.353a1.424,1.424,0,0,1,.242,2.181c-.7.75-1.377,1.538-2,2.344a1.845,1.845,0,0,1-1.465.68,1.946,1.946,0,0,1-.99-.266A1.435,1.435,0,0,1,.3,3.139Z" transform="translate(69.388 16.833) rotate(90)"/>
      <path id="Path_34" data-name="Path 34" class="cls-7" d="M2.578.172A31.1,31.1,0,0,0,5.593,1.345a1.5,1.5,0,0,1,1.03,2,1.775,1.775,0,0,1-1.654,1,1.991,1.991,0,0,1-.624-.1A35.2,35.2,0,0,1,.961,2.928,1.463,1.463,0,0,1,.2.843,1.894,1.894,0,0,1,2.578.172Z" transform="translate(16.11 29.542) rotate(90)"/>
      <path id="Path_35" data-name="Path 35" class="cls-7" d="M1.844.179A31.623,31.623,0,0,0,5.126.008,1.729,1.729,0,0,1,7.091,1.364,1.609,1.609,0,0,1,5.547,3.086a35.928,35.928,0,0,1-3.7.192h-.15A1.6,1.6,0,0,1,0,1.729,1.744,1.744,0,0,1,1.844.179Z" transform="translate(13.374 43.098) rotate(90)"/>
      <path id="Path_36" data-name="Path 36" class="cls-7" d="M1.2.083a1.832,1.832,0,0,1,2.24.973C3.8,1.982,4.206,2.9,4.65,3.8a1.482,1.482,0,0,1-.916,2.039,1.964,1.964,0,0,1-.7.129,1.794,1.794,0,0,1-1.623-.931C.925,4.06.483,3.054.094,2.044A1.509,1.509,0,0,1,1.2.083Z" transform="translate(34.566 12.096) rotate(90)"/>
      <path id="Path_37" data-name="Path 37" class="cls-7" d="M1.768,0A1.707,1.707,0,0,1,3.535,1.6c0,.956.041,1.915.124,2.849A1.627,1.627,0,0,1,2.033,6.111c-.046,0-.094,0-.138,0a1.69,1.69,0,0,1-1.76-1.43C.044,3.673,0,2.633,0,1.6V1.5A1.63,1.63,0,0,1,1.768,0Z" transform="translate(46.588 9.883) rotate(90)"/>
      <path id="Path_38" data-name="Path 38" class="cls-7" d="M.136,4.583c0-.965-.044-1.946-.131-2.912A1.63,1.63,0,0,1,1.63,0a1.731,1.731,0,0,1,1.9,1.422c.094,1.047.141,2.11.141,3.156v.033A1.656,1.656,0,0,1,1.9,6.146,1.679,1.679,0,0,1,.136,4.583Z" transform="translate(49.572 76.326) rotate(90)"/>
      <path id="Path_39" data-name="Path 39" class="cls-7" d="M1.043,1.176A1.8,1.8,0,0,1,3.185.047,1.548,1.548,0,0,1,4.474,1.924C4.18,2.956,3.832,3.989,3.44,5A1.766,1.766,0,0,1,1.768,6.045,2.022,2.022,0,0,1,1.2,5.961,1.513,1.513,0,0,1,.1,3.994C.454,3.072.773,2.124,1.043,1.176Z" transform="translate(37.385 74.203) rotate(90)"/>
      <path id="Path_40" data-name="Path 40" class="cls-7" d="M4.969,4.337a1.967,1.967,0,0,1-.8-.169A31.461,31.461,0,0,0,1.148,3,1.5,1.5,0,0,1,.112,1.008,1.843,1.843,0,0,1,2.387.1,35.279,35.279,0,0,1,5.774,1.409a1.463,1.463,0,0,1,.772,2.084A1.814,1.814,0,0,1,4.969,4.337Z" transform="translate(78.236 53.531) rotate(90)"/>
      <path id="Path_41" data-name="Path 41" class="cls-7" d="M1.059.134a1.861,1.861,0,0,1,2.328.8c.484.97.93,1.975,1.322,2.988A1.516,1.516,0,0,1,3.6,5.884a2,2,0,0,1-.567.082A1.768,1.768,0,0,1,1.361,4.914C1,3.985.594,3.063.148,2.175A1.484,1.484,0,0,1,1.059.134Z" transform="translate(61.443 72.959) rotate(90)"/>
      <path id="Path_42" data-name="Path 42" class="cls-7" d="M.97,1.706A31.08,31.08,0,0,0,3.83.253,1.927,1.927,0,0,1,6.278.7a1.438,1.438,0,0,1-.511,2.144,34.978,34.978,0,0,1-3.2,1.623,1.949,1.949,0,0,1-.8.167A1.812,1.812,0,0,1,.192,3.788,1.462,1.462,0,0,1,.97,1.706Z" transform="translate(17.586 56.666) rotate(90)"/>
      <path id="Path_43" data-name="Path 43" class="cls-7" d="M2.394.682A1.929,1.929,0,0,1,4.849.266a1.436,1.436,0,0,1,.474,2.152c-.693.9-1.428,1.764-2.188,2.578a1.872,1.872,0,0,1-1.368.567A1.912,1.912,0,0,1,.647,5.21,1.424,1.424,0,0,1,.4,3.029C1.089,2.29,1.761,1.5,2.394.682Z" transform="translate(26.204 67.467) rotate(90)"/>
      <path id="Path_44" data-name="Path 44" class="cls-7" d="M3.023.458C3.875,1.211,4.7,2.017,5.48,2.85a1.421,1.421,0,0,1-.251,2.18,1.92,1.92,0,0,1-1.117.35,1.868,1.868,0,0,1-1.37-.569C2.037,4.054,1.287,3.324.513,2.641A1.416,1.416,0,0,1,.524.45,1.946,1.946,0,0,1,3.023.458Z" transform="translate(71.565 65.169) rotate(90)"/>
      <g id="Group_165" data-name="Group 165" transform="translate(62.994 27.224) rotate(90)">
        <g id="bottomleft" transform="translate(0 19.433)">
          <path id="Path_187" data-name="Path 187" class="cls-12" d="M16.575,15.234a1.341,1.341,0,0,1-1.341,1.341H1.341A1.341,1.341,0,0,1,0,15.234V1.341A1.341,1.341,0,0,1,1.341,0H16.575V15.234Z"/>
          <path id="Path_193" data-name="Path 193" class="cls-13" d="M4.751,0,0,2.961V9.82H9.5v-4.8H4.751Z" transform="translate(3.537 3.434)"/>
        </g>
        <g id="bottomright" transform="translate(19.433 19.433)">
          <path id="Path_188" data-name="Path 188" class="cls-14" d="M15.234,0a1.341,1.341,0,0,1,1.341,1.341V15.234a1.341,1.341,0,0,1-1.341,1.341H1.341A1.341,1.341,0,0,1,0,15.235V0H15.234Z" transform="translate(0 0)"/>
          <path id="Path_194" data-name="Path 194" class="cls-13" d="M0,5.133v4.8H9.5V3.072L4.93,0,4.751.111V5.133Z" transform="translate(3.536 3.322)"/>
        </g>
        <g id="topleft" transform="translate(0 0)">
          <path id="Path_190" data-name="Path 190" class="cls-12" d="M1.341,16.575A1.341,1.341,0,0,1,0,15.234V1.341A1.341,1.341,0,0,1,1.341,0H15.234a1.341,1.341,0,0,1,1.341,1.341V16.575H1.341Z" transform="translate(0 0)"/>
          <path id="Path_191" data-name="Path 191" class="cls-13" d="M9.5,5.351V3.072L4.93,0,0,3.072V9.931H4.751V5.351Z" transform="translate(3.537 2.937)"/>
        </g>
        <g id="topright" transform="translate(19.433)">
          <path id="Path_189" data-name="Path 189" class="cls-14" d="M0,1.341A1.341,1.341,0,0,1,1.341,0H15.234a1.341,1.341,0,0,1,1.341,1.341V15.235a1.34,1.34,0,0,1-1.341,1.341H0V1.341Z" transform="translate(0)"/>
          <path id="Path_192" data-name="Path 192" class="cls-13" d="M4.751,9.931H9.5V3.072L4.93,0,0,3.072V5.351H4.751Z" transform="translate(3.536 2.936)"/>
        </g>
      </g>
    </g>
    <g id="Group_205" data-name="Group 205" transform="translate(842.105 2902.644) rotate(-90)">
      <g id="Ellipse_5-2" data-name="Ellipse 5" class="cls-6" transform="translate(0 0)">
        <ellipse class="cls-15" cx="55.643" cy="55.596" rx="55.643" ry="55.596"/>
        <ellipse class="cls-16" cx="55.643" cy="55.596" rx="52.643" ry="52.596"/>
      </g>
      <path id="Path_29-2" data-name="Path 29" class="cls-7" d="M6.406,3.827a39.728,39.728,0,0,0-3.97.2,2.34,2.34,0,0,1-.255.013A2.1,2.1,0,0,1,.015,2.35,1.988,1.988,0,0,1,1.93.228,43.969,43.969,0,0,1,6.446,0h.026L6.5,1.914V0A2.017,2.017,0,0,1,8.638,1.914,2.108,2.108,0,0,1,6.406,3.827Z" transform="translate(98.682 49.113) rotate(90)"/>
      <path id="Path_30-2" data-name="Path 30" class="cls-7" d="M6.914,3.623A38.463,38.463,0,0,0,3.377,5.409a2.39,2.39,0,0,1-1.19.312A2.284,2.284,0,0,1,.355,4.852,1.776,1.776,0,0,1,.993,2.2a42.619,42.619,0,0,1,3.957-2,2.334,2.334,0,0,1,2.933.848A1.811,1.811,0,0,1,6.914,3.623Z" transform="translate(95.194 33.001) rotate(90)"/>
      <path id="Path_31-2" data-name="Path 31" class="cls-7" d="M4.3,6.016A2.15,2.15,0,0,1,2.186,7.465a2.538,2.538,0,0,1-.533-.057A1.911,1.911,0,0,1,.066,5.086C.431,3.813.861,2.537,1.348,1.293A2.271,2.271,0,0,1,4.123.1,1.869,1.869,0,0,1,5.481,2.537C5.034,3.676,4.638,4.847,4.3,6.016Z" transform="translate(72.518 13.801) rotate(90)"/>
      <path id="Path_32-2" data-name="Path 32" class="cls-7" d="M3.877.7c.867.934,1.791,1.837,2.749,2.687A1.75,1.75,0,0,1,6.6,6.1a2.406,2.406,0,0,1-3.088-.015C2.464,5.145,1.447,4.15.49,3.122A1.756,1.756,0,0,1,.807.43,2.4,2.4,0,0,1,3.877.7Z" transform="translate(29.453 23.207) rotate(90)"/>
      <path id="Path_33-2" data-name="Path 33" class="cls-7" d="M.376,3.878C1.221,2.786,2.134,1.716,3.088.7A2.4,2.4,0,0,1,6.163.436a1.76,1.76,0,0,1,.3,2.694c-.869.926-1.7,1.9-2.47,2.9a2.28,2.28,0,0,1-1.81.84A2.4,2.4,0,0,1,.959,6.537,1.773,1.773,0,0,1,.376,3.878Z" transform="translate(85.72 20.795) rotate(90)"/>
      <path id="Path_34-2" data-name="Path 34" class="cls-7" d="M3.185.213A38.424,38.424,0,0,0,6.91,1.662,1.851,1.851,0,0,1,8.183,4.127a2.192,2.192,0,0,1-2.044,1.24,2.46,2.46,0,0,1-.771-.124A43.49,43.49,0,0,1,1.187,3.617,1.807,1.807,0,0,1,.241,1.042,2.34,2.34,0,0,1,3.185.213Z" transform="translate(19.901 36.495) rotate(90)"/>
      <path id="Path_35-2" data-name="Path 35" class="cls-7" d="M2.277.221A39.066,39.066,0,0,0,6.332.01,2.136,2.136,0,0,1,8.761,1.685,1.988,1.988,0,0,1,6.852,3.813a44.385,44.385,0,0,1-4.577.237H2.09A1.975,1.975,0,0,1,0,2.137,2.154,2.154,0,0,1,2.277.221Z" transform="translate(16.522 53.242) rotate(90)"/>
      <path id="Path_36-2" data-name="Path 36" class="cls-7" d="M1.486.1A2.263,2.263,0,0,1,4.252,1.3c.441,1.144.943,2.283,1.491,3.387A1.831,1.831,0,0,1,4.613,7.21a2.427,2.427,0,0,1-.869.159,2.216,2.216,0,0,1-2-1.15C1.143,5.015.6,3.773.117,2.525A1.864,1.864,0,0,1,1.486.1Z" transform="translate(42.702 14.942) rotate(90)"/>
      <path id="Path_37-2" data-name="Path 37" class="cls-7" d="M2.184,0A2.109,2.109,0,0,1,4.367,1.975c0,1.181.05,2.365.153,3.519A2.01,2.01,0,0,1,2.511,7.55c-.057,0-.116.006-.17.006A2.088,2.088,0,0,1,.166,5.789C.055,4.537,0,3.253,0,1.975V1.852A2.014,2.014,0,0,1,2.184,0Z" transform="translate(57.553 12.21) rotate(90)"/>
      <path id="Path_38-2" data-name="Path 38" class="cls-7" d="M.168,5.661c0-1.192-.055-2.4-.162-3.6A2.013,2.013,0,0,1,2.013,0,2.138,2.138,0,0,1,4.361,1.761c.116,1.294.175,2.606.175,3.9V5.7A2.045,2.045,0,0,1,2.352,7.592,2.075,2.075,0,0,1,.168,5.661Z" transform="translate(61.239 94.291) rotate(90)"/>
      <path id="Path_39-2" data-name="Path 39" class="cls-7" d="M1.289,1.453A2.222,2.222,0,0,1,3.935.057,1.912,1.912,0,0,1,5.527,2.377c-.362,1.275-.793,2.551-1.277,3.795a2.182,2.182,0,0,1-2.066,1.3,2.5,2.5,0,0,1-.705-.1,1.869,1.869,0,0,1-1.36-2.43C.561,3.795.954,2.624,1.289,1.453Z" transform="translate(46.184 91.668) rotate(90)"/>
      <path id="Path_40-2" data-name="Path 40" class="cls-7" d="M6.139,5.357a2.43,2.43,0,0,1-.989-.209A38.865,38.865,0,0,0,1.418,3.708,1.855,1.855,0,0,1,.139,1.245,2.277,2.277,0,0,1,2.949.123,43.583,43.583,0,0,1,7.133,1.74a1.807,1.807,0,0,1,.954,2.574A2.241,2.241,0,0,1,6.139,5.357Z" transform="translate(96.651 66.13) rotate(90)"/>
      <path id="Path_41-2" data-name="Path 41" class="cls-7" d="M1.308.165a2.3,2.3,0,0,1,2.876.984c.6,1.2,1.149,2.44,1.633,3.692A1.873,1.873,0,0,1,4.45,7.269a2.465,2.465,0,0,1-.7.1,2.184,2.184,0,0,1-2.068-1.3C1.238,4.923.734,3.784.183,2.687A1.833,1.833,0,0,1,1.308.165Z" transform="translate(75.904 90.131) rotate(90)"/>
      <path id="Path_42-2" data-name="Path 42" class="cls-7" d="M1.2,2.108A38.4,38.4,0,0,0,4.731.313,2.381,2.381,0,0,1,7.755.866a1.776,1.776,0,0,1-.631,2.649A43.211,43.211,0,0,1,3.172,5.52a2.408,2.408,0,0,1-.985.207A2.238,2.238,0,0,1,.237,4.68,1.807,1.807,0,0,1,1.2,2.108Z" transform="translate(21.725 70.004) rotate(90)"/>
      <path id="Path_43-2" data-name="Path 43" class="cls-7" d="M2.957.843A2.382,2.382,0,0,1,5.99.328a1.775,1.775,0,0,1,.585,2.658c-.856,1.108-1.764,2.18-2.7,3.184a2.312,2.312,0,0,1-1.69.7A2.362,2.362,0,0,1,.8,6.437,1.759,1.759,0,0,1,.494,3.742C1.346,2.829,2.175,1.853,2.957.843Z" transform="translate(32.371 83.346) rotate(90)"/>
      <path id="Path_44-2" data-name="Path 44" class="cls-7" d="M3.735.566C4.787,1.5,5.809,2.491,6.77,3.521a1.756,1.756,0,0,1-.31,2.693,2.372,2.372,0,0,1-1.38.432,2.308,2.308,0,0,1-1.692-.7C2.516,5.008,1.59,4.106.634,3.262A1.75,1.75,0,0,1,.647.556,2.4,2.4,0,0,1,3.735.566Z" transform="translate(88.409 80.508) rotate(90)"/>
      <g id="Group_165-2" data-name="Group 165" transform="translate(77.82 33.631) rotate(90)">
        <g id="bottomleft-2" data-name="bottomleft" transform="translate(0 24.007)">
          <path id="Path_187-2" data-name="Path 187" class="cls-12" d="M20.477,18.82a1.657,1.657,0,0,1-1.657,1.657H1.657A1.657,1.657,0,0,1,0,18.82V1.657A1.657,1.657,0,0,1,1.657,0h18.82V18.82Z"/>
          <path id="Path_193-2" data-name="Path 193" class="cls-13" d="M5.869,0,0,3.658v8.473H11.739V6.2H5.869Z" transform="translate(4.369 4.242)"/>
        </g>
        <g id="bottomright-2" data-name="bottomright" transform="translate(24.007 24.007)">
          <path id="Path_188-2" data-name="Path 188" class="cls-14" d="M18.82,0a1.657,1.657,0,0,1,1.657,1.657V18.82a1.657,1.657,0,0,1-1.657,1.657H1.657A1.656,1.656,0,0,1,0,18.82V0H18.82Z" transform="translate(0 0)"/>
          <path id="Path_194-2" data-name="Path 194" class="cls-13" d="M0,6.341v5.927H11.739V3.8L6.09,0,5.869.138v6.2Z" transform="translate(4.369 4.104)"/>
        </g>
        <g id="topleft-2" data-name="topleft" transform="translate(0 0)">
          <path id="Path_190-2" data-name="Path 190" class="cls-12" d="M1.657,20.477A1.657,1.657,0,0,1,0,18.82V1.657A1.657,1.657,0,0,1,1.657,0H18.82a1.656,1.656,0,0,1,1.656,1.657v18.82H1.657Z" transform="translate(0 0)"/>
          <path id="Path_191-2" data-name="Path 191" class="cls-13" d="M11.739,6.611V3.8L6.09,0,0,3.8v8.473H5.869V6.611Z" transform="translate(4.369 3.628)"/>
        </g>
        <g id="topright-2" data-name="topright" transform="translate(24.007)">
          <path id="Path_189-2" data-name="Path 189" class="cls-14" d="M0,1.657A1.657,1.657,0,0,1,1.657,0H18.82a1.657,1.657,0,0,1,1.657,1.657V18.82a1.656,1.656,0,0,1-1.656,1.656H0V1.657Z" transform="translate(0)"/>
          <path id="Path_192-2" data-name="Path 192" class="cls-13" d="M5.869,12.268h5.869V3.8L6.09,0,0,3.8V6.611H5.869Z" transform="translate(4.369 3.627)"/>
        </g>
      </g>
    </g>
    <g id="Group_206" data-name="Group 206" transform="translate(739.631 3020.945) rotate(-90)">
      <g id="Ellipse_5-3" data-name="Ellipse 5" class="cls-6" transform="translate(0 0)">
        <ellipse class="cls-15" cx="53.545" cy="53.5" rx="53.545" ry="53.5"/>
        <ellipse class="cls-16" cx="53.545" cy="53.5" rx="50.545" ry="50.5"/>
      </g>
      <path id="Path_29-3" data-name="Path 29" class="cls-7" d="M6.165,3.683a38.23,38.23,0,0,0-3.82.193,2.252,2.252,0,0,1-.246.013A2.022,2.022,0,0,1,.014,2.261,1.913,1.913,0,0,1,1.857.219,42.312,42.312,0,0,1,6.2,0h.025l.027,1.842V0A1.941,1.941,0,0,1,8.312,1.842,2.028,2.028,0,0,1,6.165,3.683Z" transform="translate(94.962 47.261) rotate(90)"/>
      <path id="Path_30-3" data-name="Path 30" class="cls-7" d="M6.654,3.487A37.013,37.013,0,0,0,3.25,5.2a2.3,2.3,0,0,1-1.145.3A2.2,2.2,0,0,1,.342,4.669,1.709,1.709,0,0,1,.955,2.12,41.012,41.012,0,0,1,4.763.2a2.246,2.246,0,0,1,2.822.816A1.743,1.743,0,0,1,6.654,3.487Z" transform="translate(91.605 31.756) rotate(90)"/>
      <path id="Path_31-3" data-name="Path 31" class="cls-7" d="M4.14,5.789A2.069,2.069,0,0,1,2.1,7.183a2.442,2.442,0,0,1-.513-.055A1.839,1.839,0,0,1,.063,4.894C.414,3.67.828,2.441,1.3,1.244A2.185,2.185,0,0,1,3.968.1,1.8,1.8,0,0,1,5.275,2.441C4.844,3.537,4.463,4.664,4.14,5.789Z" transform="translate(69.783 13.281) rotate(90)"/>
      <path id="Path_32-3" data-name="Path 32" class="cls-7" d="M3.731.677c.834.9,1.723,1.768,2.645,2.586a1.684,1.684,0,0,1-.021,2.6,2.315,2.315,0,0,1-2.971-.015C2.371,4.951,1.392,3.994.472,3A1.69,1.69,0,0,1,.777.414,2.308,2.308,0,0,1,3.731.677Z" transform="translate(28.343 22.332) rotate(90)"/>
      <path id="Path_33-3" data-name="Path 33" class="cls-7" d="M.362,3.732C1.175,2.681,2.053,1.651,2.972.672A2.312,2.312,0,0,1,5.93.419a1.693,1.693,0,0,1,.288,2.593C5.382,3.9,4.581,4.841,3.842,5.8A2.194,2.194,0,0,1,2.1,6.607,2.314,2.314,0,0,1,.923,6.29,1.706,1.706,0,0,1,.362,3.732Z" transform="translate(82.488 20.011) rotate(90)"/>
      <path id="Path_34-3" data-name="Path 34" class="cls-7" d="M3.065.2A36.975,36.975,0,0,0,6.649,1.6,1.781,1.781,0,0,1,7.874,3.971,2.11,2.11,0,0,1,5.908,5.164a2.367,2.367,0,0,1-.742-.12A41.85,41.85,0,0,1,1.142,3.481,1.739,1.739,0,0,1,.232,1,2.252,2.252,0,0,1,3.065.2Z" transform="translate(19.151 35.119) rotate(90)"/>
      <path id="Path_35-3" data-name="Path 35" class="cls-7" d="M2.192.213a37.593,37.593,0,0,0,3.9-.2A2.056,2.056,0,0,1,8.43,1.621,1.913,1.913,0,0,1,6.594,3.669a42.711,42.711,0,0,1-4.4.228H2.011A1.9,1.9,0,0,1,0,2.056,2.073,2.073,0,0,1,2.192.213Z" transform="translate(15.899 51.234) rotate(90)"/>
      <path id="Path_36-3" data-name="Path 36" class="cls-7" d="M1.43.1A2.178,2.178,0,0,1,4.092,1.255c.424,1.1.908,2.2,1.435,3.26A1.762,1.762,0,0,1,4.439,6.938a2.335,2.335,0,0,1-.836.153A2.133,2.133,0,0,1,1.674,5.984C1.1,4.826.575,3.631.112,2.43A1.794,1.794,0,0,1,1.43.1Z" transform="translate(41.092 14.379) rotate(90)"/>
      <path id="Path_37-3" data-name="Path 37" class="cls-7" d="M2.1,0A2.03,2.03,0,0,1,4.2,1.9c0,1.136.048,2.276.147,3.387A1.934,1.934,0,0,1,2.416,7.265c-.055,0-.111.006-.164.006A2.009,2.009,0,0,1,.16,5.571C.053,4.366,0,3.131,0,1.9V1.783A1.938,1.938,0,0,1,2.1,0Z" transform="translate(55.383 11.749) rotate(90)"/>
      <path id="Path_38-3" data-name="Path 38" class="cls-7" d="M.162,5.448C.162,4.3.109,3.135.006,1.986A1.937,1.937,0,0,1,1.938,0,2.057,2.057,0,0,1,4.2,1.695c.111,1.245.168,2.508.168,3.751v.039a1.968,1.968,0,0,1-2.1,1.821A2,2,0,0,1,.162,5.448Z" transform="translate(58.93 90.736) rotate(90)"/>
      <path id="Path_39-3" data-name="Path 39" class="cls-7" d="M1.24,1.4A2.138,2.138,0,0,1,3.787.055,1.84,1.84,0,0,1,5.318,2.287C4.97,3.514,4.556,4.742,4.089,5.939A2.1,2.1,0,0,1,2.1,7.186a2.4,2.4,0,0,1-.679-.1A1.8,1.8,0,0,1,.114,4.748C.54,3.652.918,2.525,1.24,1.4Z" transform="translate(44.442 88.212) rotate(90)"/>
      <path id="Path_40-3" data-name="Path 40" class="cls-7" d="M5.908,5.155a2.338,2.338,0,0,1-.952-.2A37.4,37.4,0,0,0,1.365,3.568,1.785,1.785,0,0,1,.133,1.2,2.191,2.191,0,0,1,2.838.119,41.94,41.94,0,0,1,6.864,1.675a1.739,1.739,0,0,1,.918,2.477A2.156,2.156,0,0,1,5.908,5.155Z" transform="translate(93.007 63.637) rotate(90)"/>
      <path id="Path_41-3" data-name="Path 41" class="cls-7" d="M1.259.159a2.212,2.212,0,0,1,2.767.947C4.6,2.258,5.131,3.453,5.6,4.658A1.8,1.8,0,0,1,4.282,6.995a2.372,2.372,0,0,1-.675.1,2.1,2.1,0,0,1-1.99-1.25c-.427-1.1-.912-2.2-1.441-3.256A1.764,1.764,0,0,1,1.259.159Z" transform="translate(73.042 86.733) rotate(90)"/>
      <path id="Path_42-3" data-name="Path 42" class="cls-7" d="M1.153,2.028A36.948,36.948,0,0,0,4.553.3a2.291,2.291,0,0,1,2.91.532,1.709,1.709,0,0,1-.607,2.549,41.582,41.582,0,0,1-3.8,1.93,2.317,2.317,0,0,1-.948.2A2.154,2.154,0,0,1,.228,4.5,1.739,1.739,0,0,1,1.153,2.028Z" transform="translate(20.906 67.364) rotate(90)"/>
      <path id="Path_43-3" data-name="Path 43" class="cls-7" d="M2.846.811a2.293,2.293,0,0,1,2.919-.5,1.708,1.708,0,0,1,.563,2.558c-.824,1.066-1.7,2.1-2.6,3.064A2.225,2.225,0,0,1,2.1,6.612,2.273,2.273,0,0,1,.77,6.194,1.693,1.693,0,0,1,.475,3.6C1.295,2.723,2.093,1.783,2.846.811Z" transform="translate(31.151 80.204) rotate(90)"/>
      <path id="Path_44-3" data-name="Path 44" class="cls-7" d="M3.594.545c1.013.895,2,1.853,2.921,2.843a1.69,1.69,0,0,1-.3,2.591A2.283,2.283,0,0,1,4.888,6.4,2.221,2.221,0,0,1,3.26,5.719c-.838-.9-1.729-1.768-2.65-2.58A1.684,1.684,0,0,1,.623.535,2.313,2.313,0,0,1,3.594.545Z" transform="translate(85.076 77.472) rotate(90)"/>
      <g id="Group_165-3" data-name="Group 165" transform="translate(74.886 32.363) rotate(90)">
        <g id="bottomleft-3" data-name="bottomleft" transform="translate(0 23.102)">
          <path id="Path_187-3" data-name="Path 187" class="cls-12" d="M19.7,18.11A1.594,1.594,0,0,1,18.11,19.7H1.594A1.594,1.594,0,0,1,0,18.11V1.594A1.594,1.594,0,0,1,1.594,0H19.7V18.11Z"/>
          <path id="Path_193-3" data-name="Path 193" class="cls-13" d="M5.648,0,0,3.52v8.154H11.3V5.97H5.648Z" transform="translate(4.204 4.082)"/>
        </g>
        <g id="bottomright-3" data-name="bottomright" transform="translate(23.102 23.102)">
          <path id="Path_188-3" data-name="Path 188" class="cls-14" d="M18.11,0A1.594,1.594,0,0,1,19.7,1.594V18.11A1.594,1.594,0,0,1,18.11,19.7H1.594A1.594,1.594,0,0,1,0,18.111V0H18.11Z" transform="translate(0 0)"/>
          <path id="Path_194-3" data-name="Path 194" class="cls-13" d="M0,6.1v5.7H11.3V3.652L5.86,0,5.648.132V6.1Z" transform="translate(4.204 3.949)"/>
        </g>
        <g id="topleft-3" data-name="topleft" transform="translate(0 0)">
          <path id="Path_190-3" data-name="Path 190" class="cls-12" d="M1.594,19.7A1.594,1.594,0,0,1,0,18.11V1.595A1.594,1.594,0,0,1,1.594,0H18.11A1.594,1.594,0,0,1,19.7,1.594V19.7H1.594Z" transform="translate(0 0)"/>
          <path id="Path_191-3" data-name="Path 191" class="cls-13" d="M11.3,6.362V3.652L5.86,0,0,3.652v8.154H5.648V6.362Z" transform="translate(4.204 3.491)"/>
        </g>
        <g id="topright-3" data-name="topright" transform="translate(23.102)">
          <path id="Path_189-3" data-name="Path 189" class="cls-14" d="M0,1.594A1.594,1.594,0,0,1,1.594,0H18.11A1.594,1.594,0,0,1,19.7,1.595V18.111A1.593,1.593,0,0,1,18.111,19.7H0V1.594Z" transform="translate(0)"/>
          <path id="Path_192-3" data-name="Path 192" class="cls-13" d="M5.648,11.806H11.3V3.652L5.86,0,0,3.652V6.362H5.648Z" transform="translate(4.204 3.491)"/>
        </g>
      </g>
    </g>
  </g>
</svg>
